<svg xmlns="http://www.w3.org/2000/svg" width="245" height="40" fill="none">
  <g clip-path="url(#a)">
    <g clip-path="url(#b)">
      <path fill="#FAFAFA" d="M40 40H0V25l5-5 5 5h30l-5-5 5-5H30l-5 5-5-5H0V0h40v40Z"/>
    </g>
    <path fill="#FAFAFA" d="M63.96 34V5.6h22.76V34h-6.08V10.72h-10.6V34h-6.08Zm37.681.48c-2.186 0-4.093-.453-5.72-1.36-1.626-.933-2.893-2.24-3.8-3.92-.906-1.68-1.36-3.653-1.36-5.92s.454-4.227 1.36-5.88c.907-1.68 2.174-2.987 3.8-3.92 1.627-.933 3.534-1.4 5.72-1.4 2.187 0 4.094.467 5.72 1.4 1.627.933 2.894 2.24 3.8 3.92.907 1.653 1.36 3.613 1.36 5.88s-.453 4.24-1.36 5.92c-.906 1.68-2.173 2.987-3.8 3.92-1.626.907-3.533 1.36-5.72 1.36Zm0-4.6c1.494 0 2.654-.573 3.48-1.72.827-1.173 1.24-2.8 1.24-4.88s-.413-3.693-1.24-4.84c-.826-1.173-1.986-1.76-3.48-1.76-1.493 0-2.653.587-3.48 1.76-.826 1.147-1.24 2.76-1.24 4.84s.414 3.707 1.24 4.88c.827 1.147 1.987 1.72 3.48 1.72ZM116.257 34V12.56h7.08l5.32 16 5.24-16h7.08V34h-6V22.24L130.737 34h-4.24l-4.24-11.76V34h-6Zm44.44 0-8.72-10.72h6.88l9 10.72h-7.16Zm-14.44 0V12.56h6.04V34h-6.04Zm5.72-10.72 8.32-10.72h7.08l-8.52 10.72h-6.88Zm24.468 11.2c-2.213 0-4.026-.507-5.44-1.52-1.386-1.04-2.08-2.48-2.08-4.32 0-1.893.587-3.347 1.76-4.36 1.2-1.04 2.96-1.8 5.28-2.28l6.92-1.36c0-1.387-.32-2.427-.96-3.12-.613-.72-1.506-1.08-2.68-1.08-1.146 0-2.04.267-2.68.8-.64.507-1.053 1.267-1.24 2.28l-6.04-.28c.4-2.347 1.454-4.12 3.16-5.32 1.734-1.227 4-1.84 6.8-1.84 3.2 0 5.6.76 7.2 2.28 1.627 1.52 2.44 3.747 2.44 6.68v7.32c0 .613.094 1.027.28 1.24.214.187.52.28.92.28h.6V34a6.791 6.791 0 0 1-.92.16c-.4.053-.8.08-1.2.08a6.508 6.508 0 0 1-2.4-.44c-.72-.293-1.306-.787-1.76-1.48-.453-.72-.68-1.733-.68-3.04l.52.4c-.266.96-.746 1.8-1.44 2.52-.666.72-1.546 1.28-2.64 1.68-1.066.4-2.306.6-3.72.6Zm1.44-4.12c.987 0 1.854-.187 2.6-.56a4.362 4.362 0 0 0 1.76-1.72c.427-.747.64-1.627.64-2.64V24.4l-4.88 1.04c-.96.187-1.693.507-2.2.96-.48.427-.72.987-.72 1.68 0 .72.24 1.28.72 1.68.48.4 1.174.6 2.08.6Zm14.36 2.2v-3h1.52c.853 0 1.506-.307 1.96-.92.48-.64.813-1.613 1-2.92l1.92-13.16h16.92V34h-6V17.04h-6.12l-1.16 8.88c-.294 2.24-1.014 3.907-2.16 5-1.147 1.093-2.68 1.64-4.6 1.64h-3.28Zm0 7.44v-8.72h6V40h-6Zm.32-6v-4.44h24.12V34h-24.12Zm20.44 6V29.56h6V40h-6Zm16.253-5.52c-2.214 0-4.027-.507-5.44-1.52-1.387-1.04-2.08-2.48-2.08-4.32 0-1.893.586-3.347 1.76-4.36 1.2-1.04 2.96-1.8 5.28-2.28l6.92-1.36c0-1.387-.32-2.427-.96-3.12-.614-.72-1.507-1.08-2.68-1.08-1.147 0-2.04.267-2.68.8-.64.507-1.054 1.267-1.24 2.28l-6.04-.28c.4-2.347 1.453-4.12 3.16-5.32 1.733-1.227 4-1.84 6.8-1.84 3.2 0 5.6.76 7.2 2.28 1.626 1.52 2.44 3.747 2.44 6.68v7.32c0 .613.093 1.027.28 1.24.213.187.52.28.92.28h.6V34a6.852 6.852 0 0 1-.92.16c-.4.053-.8.08-1.2.08a6.5 6.5 0 0 1-2.4-.44c-.72-.293-1.307-.787-1.76-1.48-.454-.72-.68-1.733-.68-3.04l.52.4c-.267.96-.747 1.8-1.44 2.52-.667.72-1.547 1.28-2.64 1.68-1.067.4-2.307.6-3.72.6Zm1.44-4.12c.986 0 1.853-.187 2.6-.56a4.375 4.375 0 0 0 1.76-1.72c.426-.747.64-1.627.64-2.64V24.4l-4.88 1.04c-.96.187-1.694.507-2.2.96-.48.427-.72.987-.72 1.68 0 .72.24 1.28.72 1.68.48.4 1.173.6 2.08.6Z"/>
  </g>
  <defs>
    <clipPath id="a">
      <rect width="245" height="40" fill="#fff" rx="12"/>
    </clipPath>
    <clipPath id="b">
      <rect width="40" height="40" fill="#fff" rx="10"/>
    </clipPath>
  </defs>
</svg>