<svg xmlns="http://www.w3.org/2000/svg" width="20" height="20" fill="none">
  <path fill="#FAFAFA" d="M9.572 7.809a.452.452 0 0 1 .857 0l.806 2.42a3.613 3.613 0 0 0 2.286 2.286l2.42.806a.452.452 0 0 1 0 .857l-2.42.807a3.614 3.614 0 0 0-2.286 2.286l-.806 2.42a.452.452 0 0 1-.857 0l-.807-2.42a3.613 3.613 0 0 0-2.286-2.286l-2.42-.806a.452.452 0 0 1 0-.857l2.42-.807a3.613 3.613 0 0 0 2.286-2.286l.807-2.42ZM4.743 1.435a.271.271 0 0 1 .514 0l.484 1.453a2.168 2.168 0 0 0 1.371 1.37l1.453.485a.271.271 0 0 1 0 .514l-1.453.484a2.168 2.168 0 0 0-1.37 1.371l-.485 1.453a.271.271 0 0 1-.514 0l-.484-1.453a2.168 2.168 0 0 0-1.371-1.37l-1.453-.485a.271.271 0 0 1 0-.514l1.453-.484a2.168 2.168 0 0 0 1.37-1.371l.485-1.453ZM13.579.124a.18.18 0 0 1 .342 0l.323.968c.144.431.483.77.914.914l.969.323a.18.18 0 0 1 0 .342l-.969.323c-.431.144-.77.483-.914.914l-.323.968a.18.18 0 0 1-.342 0l-.323-.968a1.445 1.445 0 0 0-.914-.914l-.969-.323a.18.18 0 0 1 0-.342l.969-.323c.431-.144.77-.483.914-.914l.323-.968Z"/>
</svg>