<svg width="108" height="58" viewBox="0 0 108 58" fill="none" xmlns="http://www.w3.org/2000/svg">
<path d="M26.4858 14.2262C28.349 13.3854 29.762 13.8314 31.4825 12.713C33.2164 11.5861 33.1929 9.71226 34.9803 8.67796C36.0543 8.05644 36.7659 7.89214 37.9783 7.6692C39.5151 7.3866 40.4305 7.8985 41.9757 7.6692C43.3796 7.46086 44.0638 6.82243 45.4734 6.66043C46.4431 6.54899 47.0017 6.76783 47.9718 6.66043C50.4862 6.38207 51.4621 4.48989 53.9679 4.13851C55.3214 3.94872 56.1108 3.95901 57.4656 4.13851C59.7254 4.43792 60.7402 5.6356 62.962 6.15605C64.1188 6.42703 64.8004 6.40271 65.9601 6.66043C67.3466 6.96857 68.2045 6.98424 69.4578 7.6692C70.3133 8.13679 70.7418 8.50856 71.4565 9.18235C72.9915 10.6296 72.6894 12.5874 74.4545 13.7218C75.8185 14.5984 76.8908 14.3366 78.4519 14.7306C79.2325 14.9275 79.7172 14.8963 80.4506 15.235C81.0886 15.5295 81.3575 15.8607 81.9496 16.2437C82.9082 16.8637 83.583 17.0046 84.448 17.7569C85.3909 18.5769 85.4057 19.5967 86.4467 20.2788C86.8134 20.5191 87.0158 20.7207 87.4461 20.7832C88.0558 20.8716 88.3293 20.2806 88.9451 20.2788C90.1842 20.2752 90.2681 21.8914 91.4435 22.2963C92.554 22.6789 93.2886 22.086 94.4415 22.2963C95.9001 22.5624 96.5221 23.365 97.9392 23.8095C98.708 24.0506 99.2345 23.9131 99.9379 24.3139C100.655 24.7223 100.852 25.2361 101.437 25.827C102.022 26.4179 102.448 26.6615 102.936 27.3402C103.447 28.0509 104.231 28.5271 103.935 29.3577C103.695 30.0345 103.096 30.1273 102.436 30.3665C101.516 30.7003 100.908 30.2574 99.9379 30.3665C98.1015 30.573 96.3833 30.241 95.4408 31.8796C95.0386 32.579 95.2291 33.1401 94.9412 33.8971C94.5322 34.9726 94.2407 35.6089 93.4422 36.4191C92.6355 37.2374 91.8798 37.2766 90.9438 37.9322C89.6939 38.8076 89.2853 39.7335 87.9457 40.4541C86.8538 41.0415 86.0501 40.8968 84.9477 41.4629C83.1078 42.4077 82.5479 43.66 80.9503 44.9936C79.2347 46.4257 78.5375 47.7752 76.4532 48.5243C74.242 49.3189 72.6219 47.6035 70.4571 48.5243C68.0585 49.5445 68.3587 52.5479 65.9601 53.5681C63.7953 54.4888 62.3037 53.6662 59.964 53.5681C57.6165 53.4697 56.3101 53.2535 53.9679 53.0637C51.4318 52.8583 49.9421 53.1875 47.4721 52.5593C44.7695 51.872 43.6497 50.3328 40.9763 49.533C37.9554 48.6293 36.0471 49.2506 32.9816 48.5243C31.5992 48.1967 30.5752 48.4499 29.4838 47.5155C28.622 46.7776 28.3824 46.0736 27.9848 44.9936C27.5722 43.8728 27.9745 43.0547 27.4851 41.9673C27.08 41.0669 26.7669 40.5301 25.9861 39.9497C24.403 38.7731 22.7 40.9181 20.9894 39.9497C20.0319 39.4077 19.8738 38.595 18.9907 37.9322C17.9367 37.1412 17.0277 37.2362 15.9926 36.4191C14.3411 35.1154 14.835 32.8786 12.9946 31.8796C11.6028 31.1242 10.5287 31.7441 8.99719 31.3752C6.95655 30.8837 4.04238 31.5185 4.00045 29.3577C3.97033 27.8058 5.46434 27.4588 6.49882 26.3314C8.28624 24.3834 9.34256 23.296 11.4956 21.7919C13.1507 20.6357 14.0197 19.6021 15.9926 19.27C16.9556 19.108 17.5313 19.4511 18.491 19.27C20.5538 18.8808 21.1885 17.354 22.9881 16.2437C24.3312 15.4151 25.052 14.8732 26.4858 14.2262Z" fill="#EBEBEB"/>
<path d="M70.8748 31.6864C72.2811 39.6475 61.4999 46.7708 55.4062 45.9328C48.375 44.6757 38.9999 38.8095 39 32.1052C39.0001 25.401 40.4062 12.8305 54.9375 14.0877C69.4686 16.1827 70.8748 24.2811 70.8748 31.6864Z" fill="#751F19"/>
<path d="M62.9374 30.8432C63.6406 34.8238 58.25 38.3854 55.2031 37.9664C51.6875 37.3379 47 34.4047 47 31.0526C47 27.7005 47.7031 21.4153 54.9687 22.0438C62.2343 23.0913 62.9374 27.1406 62.9374 30.8432Z" fill="#0A0A0A"/>
<path d="M61 24.0003C59.5 25.0003 60.3353 25.0994 59.0001 25.5C54.0001 27 56.0001 22.5 57.0002 21.0762C58.0003 19.6523 55.5 18.5002 60.5 19.5001C64.5 21.5001 61.5 23.0003 61 24.0003Z" fill="#EBEBEB"/>
</svg>
