<svg width="228" height="108" viewBox="0 0 228 108" fill="none" xmlns="http://www.w3.org/2000/svg">
<g clip-path="url(#clip0_407_128)">
<path d="M86.4858 14.2262C88.349 13.3854 89.762 13.8314 91.4825 12.713C93.2164 11.5861 93.1929 9.71226 94.9803 8.67796C96.0543 8.05644 96.7659 7.89214 97.9783 7.6692C99.5151 7.3866 100.431 7.8985 101.976 7.6692C103.38 7.46086 104.064 6.82243 105.473 6.66043C106.443 6.54899 107.002 6.76783 107.972 6.66043C110.486 6.38207 111.462 4.48989 113.968 4.13851C115.321 3.94872 116.111 3.95901 117.466 4.13851C119.725 4.43792 120.74 5.6356 122.962 6.15605C124.119 6.42703 124.8 6.40271 125.96 6.66043C127.347 6.96857 128.205 6.98424 129.458 7.6692C130.313 8.13679 130.742 8.50856 131.456 9.18235C132.991 10.6296 132.689 12.5874 134.455 13.7218C135.819 14.5984 136.891 14.3366 138.452 14.7306C139.232 14.9275 139.717 14.8963 140.451 15.235C141.089 15.5295 141.357 15.8607 141.95 16.2437C142.908 16.8637 143.583 17.0046 144.448 17.7569C145.391 18.5769 145.406 19.5967 146.447 20.2788C146.813 20.5191 147.016 20.7207 147.446 20.7832C148.056 20.8716 148.329 20.2806 148.945 20.2788C150.184 20.2752 150.268 21.8914 151.443 22.2963C152.554 22.6789 153.289 22.086 154.442 22.2963C155.9 22.5624 156.522 23.365 157.939 23.8095C158.708 24.0506 159.235 23.9131 159.938 24.3139C160.655 24.7223 160.852 25.2361 161.437 25.827C162.022 26.4179 162.448 26.6615 162.936 27.3402C163.447 28.0509 164.231 28.5271 163.935 29.3577C163.695 30.0345 163.096 30.1273 162.436 30.3665C161.516 30.7003 160.908 30.2574 159.938 30.3665C158.101 30.573 156.383 30.241 155.441 31.8796C155.039 32.579 155.229 33.1401 154.941 33.8971C154.532 34.9726 154.241 35.6089 153.442 36.4191C152.636 37.2374 151.88 37.2766 150.944 37.9322C149.694 38.8076 149.285 39.7335 147.946 40.4541C146.854 41.0415 146.05 40.8968 144.948 41.4629C143.108 42.4077 142.548 43.66 140.95 44.9936C139.235 46.4257 138.537 47.7752 136.453 48.5243C134.242 49.3189 132.622 47.6035 130.457 48.5243C128.059 49.5445 128.359 52.5479 125.96 53.5681C123.795 54.4888 122.304 53.6662 119.964 53.5681C117.617 53.4697 116.31 53.2535 113.968 53.0637C111.432 52.8583 109.942 53.1875 107.472 52.5593C104.77 51.872 103.65 50.3328 100.976 49.533C97.9554 48.6293 96.0471 49.2506 92.9816 48.5243C91.5992 48.1967 90.5752 48.4499 89.4838 47.5155C88.622 46.7776 88.3824 46.0736 87.9848 44.9936C87.5722 43.8728 87.9745 43.0547 87.4851 41.9673C87.08 41.0669 86.7669 40.5301 85.9861 39.9497C84.403 38.7731 82.7 40.9181 80.9894 39.9497C80.0319 39.4077 79.8738 38.595 78.9907 37.9322C77.9367 37.1412 77.0277 37.2362 75.9926 36.4191C74.3411 35.1154 74.835 32.8786 72.9946 31.8796C71.6028 31.1242 70.5287 31.7441 68.9972 31.3752C66.9565 30.8837 64.0424 31.5185 64.0004 29.3577C63.9703 27.8058 65.4643 27.4588 66.4988 26.3314C68.2862 24.3834 69.3426 23.296 71.4956 21.7919C73.1507 20.6357 74.0197 19.6021 75.9926 19.27C76.9556 19.108 77.5313 19.4511 78.491 19.27C80.5538 18.8808 81.1885 17.354 82.9881 16.2437C84.3312 15.4151 85.052 14.8732 86.4858 14.2262Z" fill="#EBEBEB"/>
<path d="M130.875 31.6864C132.281 39.6475 121.5 46.7708 115.406 45.9328C108.375 44.6757 98.9999 38.8095 99 32.1052C99.0001 25.401 100.406 12.8305 114.937 14.0877C129.469 16.1827 130.875 24.2811 130.875 31.6864Z" fill="#751F19"/>
<path d="M122.937 30.8432C123.641 34.8238 118.25 38.3854 115.203 37.9664C111.687 37.3379 107 34.4047 107 31.0526C107 27.7005 107.703 21.4153 114.969 22.0438C122.234 23.0913 122.937 27.1406 122.937 30.8432Z" fill="#0A0A0A"/>
<path d="M121 24.0003C119.5 25.0003 120.335 25.0994 119 25.5C114 27 116 22.5 117 21.0762C118 19.6523 115.5 18.5002 120.5 19.5001C124.5 21.5001 121.5 23.0003 121 24.0003Z" fill="#EBEBEB"/>
<path d="M39.6406 85.1562C39.6406 86.8333 39.3385 88.4271 38.7344 89.9375C38.1302 91.4375 37.2552 92.7604 36.1094 93.9062C34.9635 95.0521 33.5625 95.9635 31.9062 96.6406C30.25 97.3073 28.3698 97.6406 26.2656 97.6406C25.7344 97.6406 25.2083 97.6094 24.6875 97.5469C24.1667 97.4948 23.6562 97.3958 23.1562 97.25V100.547C23.1562 100.797 23.0677 101.068 22.8906 101.359C22.724 101.651 22.5 101.964 22.2188 102.297C21.9479 102.641 21.6354 103.005 21.2812 103.391C20.9271 103.786 20.5625 104.203 20.1875 104.641C19.8229 105.078 19.4688 105.536 19.125 106.016C18.7812 106.505 18.474 107.021 18.2031 107.562V77.2188C18.2031 77.0104 18.1615 76.7865 18.0781 76.5469C18.0052 76.3073 17.8646 76.0885 17.6562 75.8906C17.4583 75.6823 17.1823 75.5104 16.8281 75.375C16.474 75.2396 16.0156 75.1719 15.4531 75.1719V74.5938H23.1562C23.8021 74.5938 24.5312 74.6146 25.3438 74.6562C26.1667 74.6979 27.026 74.7812 27.9219 74.9062C28.8177 75.0208 29.7292 75.1927 30.6562 75.4219C31.5833 75.6406 32.4792 75.9323 33.3438 76.2969C34.2083 76.651 35.0208 77.0885 35.7812 77.6094C36.5521 78.1302 37.224 78.75 37.7969 79.4688C38.3698 80.1875 38.8177 81.0156 39.1406 81.9531C39.474 82.8906 39.6406 83.9583 39.6406 85.1562ZM34.5156 86.3438C34.5156 84.9375 34.3333 83.7083 33.9688 82.6562C33.6042 81.6042 33.1146 80.6927 32.5 79.9219C31.8958 79.151 31.1979 78.5104 30.4062 78C29.625 77.4896 28.8125 77.0781 27.9688 76.7656C27.1354 76.4427 26.2969 76.2083 25.4531 76.0625C24.6198 75.9062 23.8542 75.8021 23.1562 75.75V95.7812C23.7396 96.1042 24.375 96.3177 25.0625 96.4219C25.75 96.526 26.4062 96.5781 27.0312 96.5781C28.0104 96.5781 28.875 96.4219 29.625 96.1094C30.3854 95.7969 31.0417 95.3802 31.5938 94.8594C32.1458 94.3281 32.6094 93.7188 32.9844 93.0312C33.3594 92.3333 33.6562 91.6042 33.875 90.8438C34.1042 90.0833 34.2656 89.3177 34.3594 88.5469C34.4635 87.776 34.5156 87.0417 34.5156 86.3438ZM42.7031 85.7969C42.7031 84.9323 42.8229 84.0469 43.0625 83.1406C43.3021 82.224 43.6562 81.3438 44.125 80.5C44.5938 79.6458 45.1719 78.8438 45.8594 78.0938C46.5573 77.3333 47.3542 76.6719 48.25 76.1094C49.1562 75.5469 50.1667 75.1042 51.2812 74.7812C52.3958 74.4479 53.6042 74.2812 54.9062 74.2812C56.25 74.2812 57.4844 74.4323 58.6094 74.7344C59.7448 75.0365 60.7656 75.4531 61.6719 75.9844C62.5885 76.5156 63.3906 77.1458 64.0781 77.875C64.776 78.6042 65.3542 79.3958 65.8125 80.25C66.2812 81.0938 66.6302 81.9896 66.8594 82.9375C67.099 83.8854 67.2188 84.8385 67.2188 85.7969C67.2188 86.7135 67.099 87.6406 66.8594 88.5781C66.6302 89.5156 66.2812 90.4219 65.8125 91.2969C65.3542 92.1719 64.776 92.9948 64.0781 93.7656C63.3906 94.5365 62.5885 95.2083 61.6719 95.7812C60.7656 96.3542 59.7448 96.8073 58.6094 97.1406C57.4844 97.474 56.25 97.6406 54.9062 97.6406C53.5833 97.6406 52.3646 97.474 51.25 97.1406C50.1354 96.8177 49.125 96.3698 48.2188 95.7969C47.3229 95.224 46.5312 94.5521 45.8438 93.7812C45.1562 93.0104 44.5781 92.1875 44.1094 91.3125C43.6406 90.4375 43.2865 89.5312 43.0469 88.5938C42.8177 87.6458 42.7031 86.7135 42.7031 85.7969ZM48.0781 85.7344C48.0781 86.6198 48.125 87.4948 48.2188 88.3594C48.3229 89.224 48.4844 90.0521 48.7031 90.8438C48.9219 91.625 49.2031 92.3542 49.5469 93.0312C49.901 93.6979 50.3281 94.2812 50.8281 94.7812C51.3281 95.2812 51.9062 95.6771 52.5625 95.9688C53.2188 96.2604 53.9635 96.4115 54.7969 96.4219C55.6302 96.4219 56.3854 96.276 57.0625 95.9844C57.7396 95.6823 58.3385 95.276 58.8594 94.7656C59.3802 94.2552 59.8281 93.6562 60.2031 92.9688C60.5781 92.2812 60.8906 91.5521 61.1406 90.7812C61.3906 90 61.5729 89.1927 61.6875 88.3594C61.8125 87.5156 61.8854 86.6927 61.9062 85.8906C61.9062 85.0677 61.8542 84.2396 61.75 83.4062C61.6562 82.5729 61.4948 81.776 61.2656 81.0156C61.0469 80.2448 60.7604 79.526 60.4062 78.8594C60.0521 78.1927 59.6198 77.6146 59.1094 77.125C58.599 76.625 58.0104 76.2344 57.3438 75.9531C56.6771 75.6719 55.9167 75.5312 55.0625 75.5312C54.2292 75.5312 53.4792 75.6562 52.8125 75.9062C52.1562 76.1562 51.5677 76.5104 51.0469 76.9688C50.5365 77.4271 50.0938 77.9688 49.7188 78.5938C49.3542 79.2188 49.0521 79.9115 48.8125 80.6719C48.5729 81.4323 48.3906 82.2396 48.2656 83.0938C48.151 83.9479 48.0885 84.8281 48.0781 85.7344ZM86.4375 85.0938C86.4375 84.2708 86.401 83.4531 86.3281 82.6406C86.2656 81.8177 86.151 81.0365 85.9844 80.2969C85.8281 79.5469 85.6198 78.8542 85.3594 78.2188C85.1094 77.5729 84.7969 77.0156 84.4219 76.5469C84.0469 76.0677 83.6042 75.6927 83.0938 75.4219C82.5938 75.151 82.0208 75.0156 81.375 75.0156C80.4479 75.0156 79.6146 75.2865 78.875 75.8281C78.1458 76.3594 77.5208 77.0781 77 77.9844C76.4792 78.8802 76.0781 79.9167 75.7969 81.0938C75.526 82.2604 75.3906 83.4792 75.3906 84.75C75.3906 86.1562 75.5417 87.4323 75.8438 88.5781C76.1562 89.7135 76.5469 90.7292 77.0156 91.625C77.4844 92.5208 77.9948 93.3021 78.5469 93.9688C79.099 94.6354 79.6146 95.1875 80.0938 95.625C80.5833 96.0625 81 96.3958 81.3438 96.625C81.6979 96.8542 81.901 96.9792 81.9531 97H75.9688C75.7708 96.9062 75.4948 96.6979 75.1406 96.375C74.7969 96.0521 74.4115 95.6354 73.9844 95.125C73.5677 94.6146 73.1406 94.0208 72.7031 93.3438C72.276 92.6562 71.8854 91.9115 71.5312 91.1094C71.1771 90.2969 70.8854 89.4323 70.6562 88.5156C70.4375 87.5885 70.3281 86.6302 70.3281 85.6406C70.3281 85.0365 70.3802 84.3281 70.4844 83.5156C70.599 82.7031 70.8021 81.8698 71.0938 81.0156C71.3854 80.151 71.7812 79.3021 72.2812 78.4688C72.7917 77.6354 73.4375 76.8906 74.2188 76.2344C75 75.5781 75.9375 75.0469 77.0312 74.6406C78.125 74.2344 79.4115 74.0312 80.8906 74.0312C81.8698 74.0312 82.7552 74.125 83.5469 74.3125C84.349 74.4896 85.0729 74.7396 85.7188 75.0625C86.3646 75.375 86.9375 75.7448 87.4375 76.1719C87.9375 76.599 88.3802 77.0573 88.7656 77.5469C89.151 77.0573 89.6094 76.599 90.1406 76.1719C90.6719 75.7448 91.2812 75.375 91.9688 75.0625C92.6562 74.7396 93.4323 74.4896 94.2969 74.3125C95.1719 74.125 96.1458 74.0312 97.2188 74.0312C98.6562 74.0312 99.9219 74.1927 101.016 74.5156C102.12 74.8385 103.073 75.276 103.875 75.8281C104.688 76.3698 105.359 77 105.891 77.7188C106.432 78.4271 106.865 79.1719 107.188 79.9531C107.521 80.724 107.755 81.5104 107.891 82.3125C108.026 83.1042 108.094 83.849 108.094 84.5469C108.094 85.8594 107.896 87.0573 107.5 88.1406C107.104 89.2135 106.594 90.1823 105.969 91.0469C105.344 91.901 104.641 92.6615 103.859 93.3281C103.089 93.9948 102.323 94.5729 101.562 95.0625C100.802 95.5417 100.089 95.9427 99.4219 96.2656C98.7656 96.5781 98.2344 96.8229 97.8281 97H96.4531C96.5052 96.9792 96.7031 96.8542 97.0469 96.625C97.3906 96.3854 97.8073 96.0417 98.2969 95.5938C98.7865 95.1458 99.3073 94.5833 99.8594 93.9062C100.411 93.2292 100.922 92.4323 101.391 91.5156C101.859 90.599 102.25 89.5625 102.562 88.4062C102.875 87.2396 103.031 85.9427 103.031 84.5156C103.031 83.0469 102.859 81.724 102.516 80.5469C102.172 79.3698 101.708 78.375 101.125 77.5625C100.552 76.7396 99.8854 76.1094 99.125 75.6719C98.3646 75.2344 97.5677 75.0156 96.7344 75.0156C96.0677 75.0156 95.474 75.151 94.9531 75.4219C94.4323 75.6927 93.974 76.0677 93.5781 76.5469C93.1823 77.0156 92.8438 77.5729 92.5625 78.2188C92.2917 78.8542 92.0677 79.5469 91.8906 80.2969C91.7135 81.0365 91.5833 81.8177 91.5 82.6406C91.4271 83.4531 91.3906 84.2708 91.3906 85.0938V97H86.4375V85.0938ZM120.969 97H110.516V96.4219C111.068 96.4219 111.521 96.3698 111.875 96.2656C112.229 96.151 112.51 96 112.719 95.8125C112.927 95.6146 113.068 95.3906 113.141 95.1406C113.224 94.8906 113.266 94.625 113.266 94.3438V70.8594C113.266 70.651 113.224 70.4271 113.141 70.1875C113.068 69.9479 112.927 69.7292 112.719 69.5312C112.521 69.3229 112.245 69.151 111.891 69.0156C111.536 68.8802 111.078 68.8125 110.516 68.8125V68.2344H118.219V94.25C118.219 94.4583 118.25 94.6875 118.312 94.9375C118.385 95.1875 118.516 95.4219 118.703 95.6406C118.901 95.8594 119.177 96.0469 119.531 96.2031C119.896 96.349 120.375 96.4219 120.969 96.4219V97ZM136.016 96.8125C135.068 97.1979 134.182 97.4583 133.359 97.5938C132.547 97.7292 131.812 97.7969 131.156 97.7969C130.229 97.7969 129.344 97.6198 128.5 97.2656C127.656 96.9115 126.854 96.4427 126.094 95.8594C125.344 95.276 124.63 94.6094 123.953 93.8594C123.286 93.1094 122.651 92.3438 122.047 91.5625C121.453 90.7708 120.891 89.9896 120.359 89.2188C119.839 88.4479 119.349 87.7552 118.891 87.1406C120.078 86.2135 121.198 85.2188 122.25 84.1562C122.698 83.7083 123.151 83.224 123.609 82.7031C124.078 82.1719 124.521 81.6198 124.938 81.0469C125.365 80.4635 125.755 79.8646 126.109 79.25C126.464 78.625 126.755 77.9948 126.984 77.3594C127.005 77.3073 127.021 77.2552 127.031 77.2031C127.042 77.151 127.047 77.0938 127.047 77.0312C127.047 76.8438 126.995 76.6406 126.891 76.4219C126.797 76.2031 126.635 76 126.406 75.8125C126.188 75.625 125.896 75.474 125.531 75.3594C125.177 75.2344 124.745 75.1719 124.234 75.1719V74.5938H132.812C132.469 75.9688 131.984 77.2344 131.359 78.3906C130.745 79.5365 130.036 80.5781 129.234 81.5156C128.443 82.4531 127.583 83.2812 126.656 84C125.74 84.7188 124.807 85.3385 123.859 85.8594C125.078 87.2448 126.203 88.5729 127.234 89.8438C128.276 91.1146 129.229 92.2344 130.094 93.2031C130.969 94.1719 131.755 94.9479 132.453 95.5312C133.161 96.1042 133.792 96.3906 134.344 96.3906C134.49 96.3906 134.693 96.375 134.953 96.3438C135.214 96.3125 135.495 96.2344 135.797 96.1094L136.016 96.8125ZM162.469 96.1719C161.521 96.5573 160.656 96.8177 159.875 96.9531C159.094 97.0885 158.391 97.1562 157.766 97.1562C157.266 97.1562 156.833 97.125 156.469 97.0625C156.104 97.0104 155.792 96.9427 155.531 96.8594C155.229 96.7656 154.969 96.6615 154.75 96.5469C154.292 96.2865 153.891 95.9479 153.547 95.5312C153.203 95.1146 152.891 94.6667 152.609 94.1875C152.339 93.7083 152.094 93.2135 151.875 92.7031C151.656 92.1927 151.443 91.7135 151.234 91.2656L150.844 90.4375C149.792 90.7396 148.807 91.0885 147.891 91.4844C146.984 91.8698 146.177 92.2552 145.469 92.6406C144.76 93.0156 144.161 93.3646 143.672 93.6875C143.193 94 142.854 94.2292 142.656 94.375C142.271 94.8021 141.839 95.1823 141.359 95.5156C140.88 95.849 140.344 96.1354 139.75 96.375C139.156 96.6042 138.495 96.7812 137.766 96.9062C137.036 97.0312 136.234 97.0938 135.359 97.0938L135.203 96.4219C136.214 96.2552 137.083 95.9323 137.812 95.4531C138.552 94.974 139.188 94.3854 139.719 93.6875C140.25 92.9792 140.703 92.1875 141.078 91.3125C141.453 90.4271 141.786 89.4948 142.078 88.5156C142.245 87.9531 142.464 87.3594 142.734 86.7344C143.016 86.1094 143.349 85.5052 143.734 84.9219C144.13 84.3281 144.578 83.776 145.078 83.2656C145.589 82.7448 146.167 82.3073 146.812 81.9531C146.635 81.6198 146.458 81.2812 146.281 80.9375C146.115 80.5833 145.953 80.2292 145.797 79.875C145.578 79.4583 145.359 79 145.141 78.5C144.922 77.9896 144.661 77.5208 144.359 77.0938C144.068 76.6562 143.719 76.2917 143.312 76C142.917 75.7083 142.422 75.5625 141.828 75.5625C141.411 75.5625 141 75.6094 140.594 75.7031C140.198 75.7969 139.818 75.9115 139.453 76.0469L139.234 75.4062C140.141 75.1042 141.057 74.849 141.984 74.6406C142.922 74.4219 143.849 74.3125 144.766 74.3125C145.203 74.3125 145.635 74.3438 146.062 74.4062C146.49 74.4583 146.901 74.5573 147.297 74.7031C147.641 74.8281 147.974 75.0365 148.297 75.3281C148.62 75.6094 148.927 75.9479 149.219 76.3438C149.51 76.7292 149.781 77.1458 150.031 77.5938C150.292 78.0417 150.531 78.4896 150.75 78.9375C150.979 79.3854 151.182 79.8125 151.359 80.2188C151.547 80.6146 151.708 80.9583 151.844 81.25C152.76 83.2188 153.672 85.1927 154.578 87.1719C155.484 89.1406 156.458 91.0833 157.5 93C157.688 93.3438 157.885 93.6823 158.094 94.0156C158.312 94.349 158.552 94.6458 158.812 94.9062C159.083 95.1667 159.38 95.375 159.703 95.5312C160.026 95.6875 160.391 95.7604 160.797 95.75C160.943 95.75 161.141 95.7344 161.391 95.7031C161.651 95.6719 161.932 95.5938 162.234 95.4688L162.469 96.1719ZM147.688 83.75C147.417 84.1875 147.167 84.6406 146.938 85.1094C146.719 85.5781 146.516 86.0573 146.328 86.5469C146.141 87.026 145.969 87.5052 145.812 87.9844C145.656 88.4635 145.5 88.9219 145.344 89.3594C145.188 89.8385 145.016 90.3073 144.828 90.7656C144.651 91.2135 144.448 91.651 144.219 92.0781C145 91.6198 145.917 91.1406 146.969 90.6406C148.021 90.1406 149.146 89.7135 150.344 89.3594L147.688 83.75ZM172.875 97.7656C171.365 97.7656 169.938 97.5104 168.594 97C167.26 96.4896 166.089 95.776 165.078 94.8594C164.078 93.9323 163.286 92.8333 162.703 91.5625C162.12 90.2917 161.828 88.8958 161.828 87.375C161.828 85.9479 162.125 84.599 162.719 83.3281C163.312 82.0573 164.161 80.8958 165.266 79.8438C166.37 78.7812 167.708 77.849 169.281 77.0469C170.854 76.2344 172.615 75.5781 174.562 75.0781L173.375 74.25C172.635 73.75 172.104 73.1615 171.781 72.4844C171.458 71.7969 171.297 71.0938 171.297 70.375C171.297 69.8542 171.37 69.3385 171.516 68.8281C171.672 68.3177 171.885 67.8438 172.156 67.4062C172.427 66.9688 172.745 66.5833 173.109 66.25C173.474 65.9062 173.875 65.6406 174.312 65.4531L174.688 66.0312C173.99 66.5312 173.641 67.1042 173.641 67.75C173.641 68.3438 173.911 68.9792 174.453 69.6562C174.995 70.3333 175.781 71.0417 176.812 71.7812C178.552 73.0521 180.078 74.25 181.391 75.375C182.714 76.4896 183.818 77.599 184.703 78.7031C185.599 79.8073 186.276 80.9323 186.734 82.0781C187.193 83.2135 187.438 84.4427 187.469 85.7656C187.469 87.1094 187.276 88.3385 186.891 89.4531C186.505 90.5573 185.974 91.5573 185.297 92.4531C184.62 93.3385 183.818 94.1146 182.891 94.7812C181.964 95.4479 180.958 96.0052 179.875 96.4531C178.792 96.8906 177.656 97.2188 176.469 97.4375C175.281 97.6562 174.083 97.7656 172.875 97.7656ZM182.188 87.0469C182.188 86.0052 182.073 85.0208 181.844 84.0938C181.625 83.1562 181.26 82.2396 180.75 81.3438C180.25 80.4479 179.583 79.5573 178.75 78.6719C177.927 77.7865 176.906 76.875 175.688 75.9375C174.865 76.1146 174.083 76.3906 173.344 76.7656C172.604 77.1302 171.917 77.5781 171.281 78.1094C170.646 78.6302 170.068 79.224 169.547 79.8906C169.036 80.5469 168.599 81.25 168.234 82C167.88 82.7396 167.604 83.5156 167.406 84.3281C167.208 85.1302 167.109 85.9427 167.109 86.7656C167.109 87.5781 167.198 88.3802 167.375 89.1719C167.552 89.9531 167.802 90.7031 168.125 91.4219C168.458 92.1302 168.865 92.7865 169.344 93.3906C169.823 93.9948 170.359 94.5156 170.953 94.9531C171.557 95.3906 172.214 95.7344 172.922 95.9844C173.641 96.2344 174.401 96.3594 175.203 96.3594C176.172 96.3594 177.078 96.1354 177.922 95.6875C178.776 95.2292 179.516 94.5938 180.141 93.7812C180.776 92.9583 181.276 91.9792 181.641 90.8438C182.005 89.6979 182.188 88.4323 182.188 87.0469ZM215.375 96.1719C214.427 96.5573 213.562 96.8177 212.781 96.9531C212 97.0885 211.297 97.1562 210.672 97.1562C210.172 97.1562 209.74 97.125 209.375 97.0625C209.01 97.0104 208.698 96.9427 208.438 96.8594C208.135 96.7656 207.875 96.6615 207.656 96.5469C207.198 96.2865 206.797 95.9479 206.453 95.5312C206.109 95.1146 205.797 94.6667 205.516 94.1875C205.245 93.7083 205 93.2135 204.781 92.7031C204.562 92.1927 204.349 91.7135 204.141 91.2656L203.75 90.4375C202.698 90.7396 201.714 91.0885 200.797 91.4844C199.891 91.8698 199.083 92.2552 198.375 92.6406C197.667 93.0156 197.068 93.3646 196.578 93.6875C196.099 94 195.76 94.2292 195.562 94.375C195.177 94.8021 194.745 95.1823 194.266 95.5156C193.786 95.849 193.25 96.1354 192.656 96.375C192.062 96.6042 191.401 96.7812 190.672 96.9062C189.943 97.0312 189.141 97.0938 188.266 97.0938L188.109 96.4219C189.12 96.2552 189.99 95.9323 190.719 95.4531C191.458 94.974 192.094 94.3854 192.625 93.6875C193.156 92.9792 193.609 92.1875 193.984 91.3125C194.359 90.4271 194.693 89.4948 194.984 88.5156C195.151 87.9531 195.37 87.3594 195.641 86.7344C195.922 86.1094 196.255 85.5052 196.641 84.9219C197.036 84.3281 197.484 83.776 197.984 83.2656C198.495 82.7448 199.073 82.3073 199.719 81.9531C199.542 81.6198 199.365 81.2812 199.188 80.9375C199.021 80.5833 198.859 80.2292 198.703 79.875C198.484 79.4583 198.266 79 198.047 78.5C197.828 77.9896 197.568 77.5208 197.266 77.0938C196.974 76.6562 196.625 76.2917 196.219 76C195.823 75.7083 195.328 75.5625 194.734 75.5625C194.318 75.5625 193.906 75.6094 193.5 75.7031C193.104 75.7969 192.724 75.9115 192.359 76.0469L192.141 75.4062C193.047 75.1042 193.964 74.849 194.891 74.6406C195.828 74.4219 196.755 74.3125 197.672 74.3125C198.109 74.3125 198.542 74.3438 198.969 74.4062C199.396 74.4583 199.807 74.5573 200.203 74.7031C200.547 74.8281 200.88 75.0365 201.203 75.3281C201.526 75.6094 201.833 75.9479 202.125 76.3438C202.417 76.7292 202.688 77.1458 202.938 77.5938C203.198 78.0417 203.438 78.4896 203.656 78.9375C203.885 79.3854 204.089 79.8125 204.266 80.2188C204.453 80.6146 204.615 80.9583 204.75 81.25C205.667 83.2188 206.578 85.1927 207.484 87.1719C208.391 89.1406 209.365 91.0833 210.406 93C210.594 93.3438 210.792 93.6823 211 94.0156C211.219 94.349 211.458 94.6458 211.719 94.9062C211.99 95.1667 212.286 95.375 212.609 95.5312C212.932 95.6875 213.297 95.7604 213.703 95.75C213.849 95.75 214.047 95.7344 214.297 95.7031C214.557 95.6719 214.839 95.5938 215.141 95.4688L215.375 96.1719ZM200.594 83.75C200.323 84.1875 200.073 84.6406 199.844 85.1094C199.625 85.5781 199.422 86.0573 199.234 86.5469C199.047 87.026 198.875 87.5052 198.719 87.9844C198.562 88.4635 198.406 88.9219 198.25 89.3594C198.094 89.8385 197.922 90.3073 197.734 90.7656C197.557 91.2135 197.354 91.651 197.125 92.0781C197.906 91.6198 198.823 91.1406 199.875 90.6406C200.927 90.1406 202.052 89.7135 203.25 89.3594L200.594 83.75Z" fill="#EBEBEB"/>
</g>
<defs>
<clipPath id="clip0_407_128">
<rect width="227" height="108" fill="white" transform="translate(0.5)"/>
</clipPath>
</defs>
</svg>
