<svg xmlns="http://www.w3.org/2000/svg" width="108" height="108" fill="none"><path fill="#EBEBEB" d="m26.5 39 5-1.5 3.5-4 3-1h4l3.5-1H48l6-2.5h3.5l5.5 2 3 .5 3.5 1 2 1.5 3 4.5 4 1 2 .5 1.5 1 2.5 1.5 2 2.5 1 .5L89 45l2.5 2h3l3.5 1.5 2 .5 1.5 1.5L103 52l1 2-1.5 1H100l-4.5 1.5-.5 2-1.5 2.5-2.5 1.5-3 2.5-3 1-4 3.5-4.5 3.5h-6L66 78s-3.659.097-6 0c-2.35-.097-6-.5-6-.5l-6.5-.5-6.5-3-8-1-3.5-1-1.5-2.5-.5-3-1.5-2h-5l-2-2-3-1.5-3-4.5-4-.5-5-2 2.5-3 5-4.5L16 44h2.5l4.5-3 3.5-2Z"/><path fill="#8C2F39" d="M70.875 54.686c1.406 7.962-9.375 15.085-15.469 14.247C48.375 67.676 39 61.809 39 55.105s1.406-19.274 15.938-18.017c14.53 2.095 15.937 10.193 15.937 17.598Z"/><path fill="#0A0A0A" d="M62.937 53.843c.704 3.98-4.687 7.542-7.734 7.123C51.687 60.338 47 57.405 47 54.053c0-3.352.703-9.638 7.969-9.01 7.265 1.048 7.968 5.098 7.968 8.8Z"/><path fill="#EBEBEB" d="M61 48c-1.5 1-.665 1.1-2 1.5-5 1.5-3-3-2-4.424 1-1.424-1.5-2.576 3.5-1.576 4 2 1 3.5.5 4.5Z"/></svg>