<svg xmlns="http://www.w3.org/2000/svg" width="100" height="100" fill="none"><g clip-path="url(#a)"><path fill="#EBEBEB" d="m22.5 34.787 5-1.468 3.5-3.915 3-.978h4l3.5-.98H44L50 25h3.5l5.5 1.957 3 .49 3.5.979 2 1.468 3 4.404 4 .979 2 .489 1.5.979 2.5 1.468 2 2.447 1 .489 1.5-.49 2.5 1.958h3l3.5 1.468 2 .49 1.5 1.468L99 47.51l1 1.957-1.5.979H96l-4.5 1.468-.5 1.958-1.5 2.446-2.5 1.468-3 2.447-3 .979-4 3.425-4.5 3.426h-6L62 72.958s-3.659.095-6 0c-2.35-.096-6-.49-6-.49l-6.5-.489-6.5-2.936-8-.979-3.5-.979-1.5-2.447-.5-2.936-1.5-1.957h-5l-2-1.958-3-1.468-3-4.404-4-.49-5-1.957 2.5-2.936 5-4.404L12 39.68h2.5l4.5-2.936 3.5-1.958Z"/><path fill="#8C2F39" d="M66.875 50.686c1.406 7.962-9.375 15.085-15.469 14.247C44.375 63.676 35 57.809 35 51.105s1.406-19.274 15.938-18.017c14.53 2.095 15.937 10.193 15.937 17.598Z"/><path fill="#0A0A0A" d="M58.937 49.843c.704 3.98-4.687 7.542-7.734 7.123C47.687 56.338 43 53.405 43 50.053c0-3.352.703-9.638 7.969-9.01 7.265 1.048 7.968 5.098 7.968 8.8Z"/><path fill="#EBEBEB" d="M57 44c-1.5 1-.665 1.1-2 1.5-5 1.5-3-3-2-4.424 1-1.424-1.5-2.576 3.5-1.576 4 2 1 3.5.5 4.5Z"/></g><defs><clipPath id="a"><path fill="#fff" d="M0 0h100v100H0z"/></clipPath></defs></svg>