<svg xmlns="http://www.w3.org/2000/svg" width="100" height="100" fill="none"><g clip-path="url(#a)"><path fill="#EBEBEB" d="M22.486 35.226c1.863-.84 3.276-.395 4.997-1.513 1.733-1.127 1.71-3 3.497-4.035 1.074-.622 1.786-.786 2.998-1.009 1.537-.282 2.453.23 3.998 0 1.404-.208 2.088-.847 3.497-1.009.97-.111 1.529.108 2.499 0 2.514-.278 3.49-2.17 5.996-2.521 1.353-.19 2.143-.18 3.498 0 2.26.299 3.274 1.497 5.496 2.017 1.157.271 1.838.247 2.998.504 1.387.309 2.244.324 3.498 1.01.855.467 1.284.839 1.999 1.512 1.535 1.448 1.232 3.405 2.998 4.54 1.364.876 2.436.615 3.997 1.009.78.197 1.265.165 1.999.504.638.294.907.626 1.499 1.009.958.62 1.633.76 2.498 1.513.943.82.958 1.84 1.999 2.522.366.24.569.442 1 .504.609.089.882-.502 1.498-.504 1.24-.004 1.323 1.612 2.499 2.017 1.11.383 1.845-.21 2.998 0 1.458.266 2.08 1.069 3.497 1.514.769.24 1.296.103 1.999.504.717.408.913.922 1.499 1.513.585.59 1.011.834 1.499 1.513.51.71 1.295 1.187 1 2.018-.242.677-.84.77-1.5 1.009-.92.333-1.528-.11-2.498 0-1.837.206-3.555-.126-4.497 1.513-.402.699-.212 1.26-.5 2.017-.409 1.076-.7 1.712-1.499 2.522-.806.818-1.562.858-2.498 1.513-1.25.876-1.659 1.801-2.998 2.522-1.092.587-1.896.443-2.998 1.009-1.84.945-2.4 2.197-3.998 3.53-1.715 1.433-2.413 2.782-4.497 3.531-2.211.795-3.831-.92-5.996 0-2.398 1.02-2.098 4.024-4.497 5.044-2.165.92-3.656.098-5.996 0-2.347-.098-3.654-.314-5.996-.504-2.536-.206-4.026.124-6.496-.505-2.703-.687-3.822-2.226-6.496-3.026-3.02-.904-4.929-.282-7.994-1.009-1.383-.327-2.407-.074-3.498-1.008-.862-.738-1.102-1.442-1.5-2.522-.412-1.121-.01-1.94-.499-3.027-.405-.9-.718-1.437-1.499-2.017-1.583-1.177-3.286.968-4.997 0-.957-.542-1.115-1.355-1.998-2.018-1.054-.79-1.963-.696-2.998-1.513-1.652-1.304-1.158-3.54-2.998-4.54-1.392-.755-2.466-.135-3.998-.504-2.04-.491-4.955.144-4.997-2.017-.03-1.552 1.464-1.9 2.499-3.027 1.787-1.948 2.844-3.035 4.997-4.54 1.655-1.155 2.524-2.189 4.497-2.521.963-.162 1.538.181 2.498 0 2.063-.39 2.698-1.916 4.497-3.026 1.343-.829 2.064-1.37 3.498-2.018Z"/><path fill="#751F19" d="M66.875 52.686c1.406 7.962-9.375 15.085-15.469 14.247C44.375 65.676 35 59.809 35 53.105s1.406-19.274 15.938-18.017c14.53 2.095 15.937 10.193 15.937 17.598Z"/><path fill="#0A0A0A" d="M58.937 51.843c.704 3.98-4.687 7.542-7.734 7.123C47.687 58.338 43 55.405 43 52.053c0-3.352.703-9.638 7.969-9.01 7.265 1.048 7.968 5.098 7.968 8.8Z"/><path fill="#EBEBEB" d="M57 45c-1.5 1-.665 1.1-2 1.5-5 1.5-3-3-2-4.424 1-1.424-1.5-2.576 3.5-1.576 4 2 1 3.5.5 4.5Z"/></g><defs><clipPath id="a"><path fill="#fff" d="M0 0h100v100H0z"/></clipPath></defs></svg>