<svg width="172" height="48" viewBox="0 0 172 48" fill="none" xmlns="http://www.w3.org/2000/svg">
<g clip-path="url(#clip0_302_18)">
<g filter="url(#filter0_gn_302_18)">
<path d="M13.2823 17.5058C17.5676 15.2217 22.7214 15.2784 26.9554 17.6562L37.6777 23.6777L27.7813 29.3216C23.3193 31.8663 17.8328 31.8113 13.4228 29.1776L3.02944 22.9706L13.2823 17.5058Z" fill="#EBEBEB"/>
</g>
<g filter="url(#filter1_g_302_18)">
<circle cx="21" cy="23" r="6" fill="#8C2F39"/>
</g>
<g filter="url(#filter2_g_302_18)">
<circle cx="20" cy="23" r="3" fill="#0A0A0A"/>
</g>
<g filter="url(#filter3_g_302_18)">
<circle cx="22" cy="21" r="1" fill="#EBEBEB"/>
</g>
</g>
<path d="M66.328 20.576C66.328 21.552 66.104 22.448 65.656 23.264C65.208 24.064 64.52 24.712 63.592 25.208C62.664 25.704 61.512 25.952 60.136 25.952H57.592V32H53.488V15.152H60.136C61.48 15.152 62.616 15.384 63.544 15.848C64.472 16.312 65.168 16.952 65.632 17.768C66.096 18.584 66.328 19.52 66.328 20.576ZM59.824 22.688C60.608 22.688 61.192 22.504 61.576 22.136C61.96 21.768 62.152 21.248 62.152 20.576C62.152 19.904 61.96 19.384 61.576 19.016C61.192 18.648 60.608 18.464 59.824 18.464H57.592V22.688H59.824ZM74.5606 32.192C73.2486 32.192 72.0646 31.912 71.0086 31.352C69.9686 30.792 69.1446 29.992 68.5366 28.952C67.9446 27.912 67.6486 26.696 67.6486 25.304C67.6486 23.928 67.9526 22.72 68.5606 21.68C69.1686 20.624 70.0006 19.816 71.0566 19.256C72.1126 18.696 73.2966 18.416 74.6086 18.416C75.9206 18.416 77.1046 18.696 78.1606 19.256C79.2166 19.816 80.0486 20.624 80.6566 21.68C81.2646 22.72 81.5686 23.928 81.5686 25.304C81.5686 26.68 81.2566 27.896 80.6326 28.952C80.0246 29.992 79.1846 30.792 78.1126 31.352C77.0566 31.912 75.8726 32.192 74.5606 32.192ZM74.5606 28.64C75.3446 28.64 76.0086 28.352 76.5526 27.776C77.1126 27.2 77.3926 26.376 77.3926 25.304C77.3926 24.232 77.1206 23.408 76.5766 22.832C76.0486 22.256 75.3926 21.968 74.6086 21.968C73.8086 21.968 73.1446 22.256 72.6166 22.832C72.0886 23.392 71.8246 24.216 71.8246 25.304C71.8246 26.376 72.0806 27.2 72.5926 27.776C73.1206 28.352 73.7766 28.64 74.5606 28.64ZM100.834 18.464C102.498 18.464 103.818 18.968 104.794 19.976C105.786 20.984 106.282 22.384 106.282 24.176V32H102.202V24.728C102.202 23.864 101.97 23.2 101.506 22.736C101.058 22.256 100.434 22.016 99.6338 22.016C98.8338 22.016 98.2018 22.256 97.7378 22.736C97.2898 23.2 97.0658 23.864 97.0658 24.728V32H92.9858V24.728C92.9858 23.864 92.7538 23.2 92.2898 22.736C91.8418 22.256 91.2178 22.016 90.4178 22.016C89.6178 22.016 88.9858 22.256 88.5218 22.736C88.0738 23.2 87.8498 23.864 87.8498 24.728V32H83.7458V18.608H87.8498V20.288C88.2658 19.728 88.8098 19.288 89.4818 18.968C90.1538 18.632 90.9138 18.464 91.7618 18.464C92.7698 18.464 93.6658 18.68 94.4498 19.112C95.2498 19.544 95.8738 20.16 96.3218 20.96C96.7858 20.224 97.4178 19.624 98.2178 19.16C99.0178 18.696 99.8898 18.464 100.834 18.464ZM117.336 32L113.256 26.384V32H109.152V14.24H113.256V24.056L117.312 18.608H122.376L116.808 25.328L122.424 32H117.336ZM123.172 25.28C123.172 23.904 123.428 22.696 123.94 21.656C124.468 20.616 125.18 19.816 126.076 19.256C126.972 18.696 127.972 18.416 129.076 18.416C130.02 18.416 130.844 18.608 131.548 18.992C132.268 19.376 132.82 19.88 133.204 20.504V18.608H137.308V32H133.204V30.104C132.804 30.728 132.244 31.232 131.524 31.616C130.82 32 129.996 32.192 129.052 32.192C127.964 32.192 126.972 31.912 126.076 31.352C125.18 30.776 124.468 29.968 123.94 28.928C123.428 27.872 123.172 26.656 123.172 25.28ZM133.204 25.304C133.204 24.28 132.916 23.472 132.34 22.88C131.78 22.288 131.092 21.992 130.276 21.992C129.46 21.992 128.764 22.288 128.188 22.88C127.628 23.456 127.348 24.256 127.348 25.28C127.348 26.304 127.628 27.12 128.188 27.728C128.764 28.32 129.46 28.616 130.276 28.616C131.092 28.616 131.78 28.32 132.34 27.728C132.916 27.136 133.204 26.328 133.204 25.304ZM139.461 25.28C139.461 23.904 139.717 22.696 140.229 21.656C140.757 20.616 141.469 19.816 142.365 19.256C143.261 18.696 144.261 18.416 145.365 18.416C146.245 18.416 147.045 18.6 147.765 18.968C148.501 19.336 149.077 19.832 149.493 20.456V14.24H153.597V32H149.493V30.08C149.109 30.72 148.557 31.232 147.837 31.616C147.133 32 146.309 32.192 145.365 32.192C144.261 32.192 143.261 31.912 142.365 31.352C141.469 30.776 140.757 29.968 140.229 28.928C139.717 27.872 139.461 26.656 139.461 25.28ZM149.493 25.304C149.493 24.28 149.205 23.472 148.629 22.88C148.069 22.288 147.381 21.992 146.565 21.992C145.749 21.992 145.053 22.288 144.477 22.88C143.917 23.456 143.637 24.256 143.637 25.28C143.637 26.304 143.917 27.12 144.477 27.728C145.053 28.32 145.749 28.616 146.565 28.616C147.381 28.616 148.069 28.32 148.629 27.728C149.205 27.136 149.493 26.328 149.493 25.304ZM155.75 25.28C155.75 23.904 156.006 22.696 156.518 21.656C157.046 20.616 157.758 19.816 158.654 19.256C159.55 18.696 160.55 18.416 161.654 18.416C162.598 18.416 163.422 18.608 164.126 18.992C164.846 19.376 165.398 19.88 165.782 20.504V18.608H169.886V32H165.782V30.104C165.382 30.728 164.822 31.232 164.102 31.616C163.398 32 162.574 32.192 161.63 32.192C160.542 32.192 159.55 31.912 158.654 31.352C157.758 30.776 157.046 29.968 156.518 28.928C156.006 27.872 155.75 26.656 155.75 25.28ZM165.782 25.304C165.782 24.28 165.494 23.472 164.918 22.88C164.358 22.288 163.67 21.992 162.854 21.992C162.038 21.992 161.342 22.288 160.766 22.88C160.206 23.456 159.926 24.256 159.926 25.28C159.926 26.304 160.206 27.12 160.766 27.728C161.342 28.32 162.038 28.616 162.854 28.616C163.67 28.616 164.358 28.32 164.918 27.728C165.494 27.136 165.782 26.328 165.782 25.304Z" fill="#EBEBEB"/>
<defs>
<filter id="filter0_gn_302_18" x="0.0294189" y="12.832" width="40.6482" height="21.3603" filterUnits="userSpaceOnUse" color-interpolation-filters="sRGB">
<feFlood flood-opacity="0" result="BackgroundImageFix"/>
<feBlend mode="normal" in="SourceGraphic" in2="BackgroundImageFix" result="shape"/>
<feTurbulence type="fractalNoise" baseFrequency="0.033333335071802139 0.033333335071802139" numOctaves="3" seed="2839" />
<feDisplacementMap in="shape" scale="6" xChannelSelector="R" yChannelSelector="G" result="displacedImage" width="100%" height="100%" />
<feMerge result="effect1_texture_302_18">
<feMergeNode in="displacedImage"/>
</feMerge>
<feTurbulence type="fractalNoise" baseFrequency="0.24390244483947754 0.24390244483947754" stitchTiles="stitch" numOctaves="3" result="noise" seed="4897" />
<feColorMatrix in="noise" type="luminanceToAlpha" result="alphaNoise" />
<feComponentTransfer in="alphaNoise" result="coloredNoise1">
<feFuncA type="discrete" tableValues="0 0 0 0 0 0 0 0 0 0 0 0 0 0 1 1 1 1 1 1 1 1 1 1 1 1 1 1 1 1 1 1 1 1 1 0 0 0 0 0 0 0 0 0 0 0 0 0 0 0 0 0 0 0 0 0 0 0 0 0 0 0 0 0 0 0 0 0 0 0 0 0 0 0 0 0 0 0 0 0 0 0 0 0 0 0 0 0 0 0 0 0 0 0 0 0 0 0 0 0 "/>
</feComponentTransfer>
<feComposite operator="in" in2="effect1_texture_302_18" in="coloredNoise1" result="noise1Clipped" />
<feFlood flood-color="#AE3B47" result="color1Flood" />
<feComposite operator="in" in2="noise1Clipped" in="color1Flood" result="color1" />
<feMerge result="effect2_noise_302_18">
<feMergeNode in="effect1_texture_302_18" />
<feMergeNode in="color1" />
</feMerge>
</filter>
<filter id="filter1_g_302_18" x="12" y="14" width="18" height="18" filterUnits="userSpaceOnUse" color-interpolation-filters="sRGB">
<feFlood flood-opacity="0" result="BackgroundImageFix"/>
<feBlend mode="normal" in="SourceGraphic" in2="BackgroundImageFix" result="shape"/>
<feTurbulence type="fractalNoise" baseFrequency="0.04739336296916008 0.04739336296916008" numOctaves="3" seed="8251" />
<feDisplacementMap in="shape" scale="6" xChannelSelector="R" yChannelSelector="G" result="displacedImage" width="100%" height="100%" />
<feMerge result="effect1_texture_302_18">
<feMergeNode in="displacedImage"/>
</feMerge>
</filter>
<filter id="filter2_g_302_18" x="14" y="17" width="12" height="12" filterUnits="userSpaceOnUse" color-interpolation-filters="sRGB">
<feFlood flood-opacity="0" result="BackgroundImageFix"/>
<feBlend mode="normal" in="SourceGraphic" in2="BackgroundImageFix" result="shape"/>
<feTurbulence type="fractalNoise" baseFrequency="0.10101010650396347 0.10101010650396347" numOctaves="3" seed="7578" />
<feDisplacementMap in="shape" scale="6" xChannelSelector="R" yChannelSelector="G" result="displacedImage" width="100%" height="100%" />
<feMerge result="effect1_texture_302_18">
<feMergeNode in="displacedImage"/>
</feMerge>
</filter>
<filter id="filter3_g_302_18" x="18" y="17" width="8" height="8" filterUnits="userSpaceOnUse" color-interpolation-filters="sRGB">
<feFlood flood-opacity="0" result="BackgroundImageFix"/>
<feBlend mode="normal" in="SourceGraphic" in2="BackgroundImageFix" result="shape"/>
<feTurbulence type="fractalNoise" baseFrequency="0.10101010650396347 0.10101010650396347" numOctaves="3" seed="7578" />
<feDisplacementMap in="shape" scale="6" xChannelSelector="R" yChannelSelector="G" result="displacedImage" width="100%" height="100%" />
<feMerge result="effect1_texture_302_18">
<feMergeNode in="displacedImage"/>
</feMerge>
</filter>
<clipPath id="clip0_302_18">
<rect width="40" height="40" fill="white" transform="translate(0 4)"/>
</clipPath>
</defs>
</svg>
