<svg xmlns="http://www.w3.org/2000/svg" width="100" height="100" fill="none"><g clip-path="url(#a)" filter="url(#b)"><path fill="#EBEBEB" d="M29.591 31.23c12.368-7.137 27.243-6.96 39.463.47L100 50.518 71.438 68.154c-12.878 7.953-28.713 7.78-41.441-.45L0 48.308 29.591 31.23Z"/><path fill="#8C2F39" d="M69.183 48.4c0 10.355-7.754 18.75-17.317 18.75-9.564 0-17.317-8.395-17.317-18.75s7.753-18.75 17.317-18.75c9.563 0 17.317 8.395 17.317 18.75Z"/><path fill="#0A0A0A" d="M60.524 48.933c0 5.178-3.877 9.375-8.658 9.375-4.782 0-8.659-4.197-8.659-9.375 0-5.177 3.877-9.375 8.659-9.375 4.782 0 8.658 4.198 8.658 9.375Z"/><path fill="#EBEBEB" d="M57.638 42.15c0 1.726-1.292 3.125-2.886 3.125s-2.886-1.4-2.886-3.125c0-1.726 1.292-3.125 2.886-3.125s2.886 1.399 2.886 3.125Z"/></g><defs><clipPath id="a"><path fill="#fff" d="M0 0h100v100H0z"/></clipPath><filter id="b" width="108" height="56" x="-4" y="22" color-interpolation-filters="sRGB" filterUnits="userSpaceOnUse"><feFlood flood-opacity="0" result="BackgroundImageFix"/><feBlend in="SourceGraphic" in2="BackgroundImageFix" result="shape"/><feTurbulence baseFrequency="0.10000000149011612 0.10000000149011612" numOctaves="3" seed="7578" type="fractalNoise"/><feDisplacementMap width="100%" height="100%" in="shape" result="displacedImage" scale="8" xChannelSelector="R" yChannelSelector="G"/><feMerge result="effect1_texture_357_16"><feMergeNode in="displacedImage"/></feMerge></filter></defs></svg>