<svg xmlns="http://www.w3.org/2000/svg" width="236" height="111" fill="none"><g filter="url(#a)"><path fill="#EBEBEB" d="M97.591 9.23c12.368-7.137 27.243-6.96 39.463.47L168 28.518l-28.562 17.637c-12.878 7.952-28.713 7.78-41.441-.45L68 26.308 97.591 9.23Z"/><path fill="#8C2F39" d="M137.182 26.4c0 10.355-7.753 18.75-17.316 18.75-9.564 0-17.317-8.395-17.317-18.75s7.753-18.75 17.317-18.75c9.563 0 17.316 8.395 17.316 18.75Z"/><path fill="#0A0A0A" d="M128.524 26.933c0 5.178-3.876 9.375-8.658 9.375s-8.659-4.197-8.659-9.375c0-5.177 3.877-9.375 8.659-9.375 4.782 0 8.658 4.198 8.658 9.375Z"/><path fill="#EBEBEB" d="M125.638 20.15c0 1.726-1.292 3.125-2.886 3.125s-2.886-1.4-2.886-3.125c0-1.726 1.292-3.125 2.886-3.125s2.886 1.399 2.886 3.125Z"/></g><path fill="#EBEBEB" d="M10.5 84.832c.896.64 1.808.96 2.736.96.928 0 1.68-.128 2.256-.384v6.24h2.784c2.72 0 4.64-.688 5.76-2.064 1.152-1.376 1.728-3.504 1.728-6.384 0-5.6-2.304-8.4-6.912-8.4-2.912 0-5.136.608-6.672 1.824-.48.352-.864.784-1.152 1.296-.256.512-.384.928-.384 1.248 0 .288.128.432.384.432s.432-.128.528-.384c.384-.992 1.136-1.488 2.256-1.488.704 0 1.296.256 1.776.768.512.512.768 1.216.768 2.112 0 .896-.32 1.616-.96 2.16-.64.544-1.408.816-2.304.816-.896 0-1.696-.352-2.4-1.056-.672-.704-1.008-1.6-1.008-2.688 0-1.728.864-3.152 2.592-4.272 1.76-1.152 4.016-1.728 6.768-1.728 3.712 0 6.656.752 8.832 2.256 2.176 1.504 3.264 3.872 3.264 7.104s-.944 5.584-2.832 7.056c-1.888 1.44-4.72 2.16-8.496 2.16h-4.32v12.816h3.984V106H6.996v-.768H10.5v-20.4Zm47.912-4.752c-.16-1.184-1.04-2.352-2.64-3.504-1.6-1.152-3.312-1.728-5.136-1.728-1.824 0-3.312.256-4.464.768-1.152.512-2.08 1.2-2.784 2.064-.704.864-1.28 1.968-1.728 3.312-.768 2.432-1.152 5.52-1.152 9.264 0 5.44.352 9.024 1.056 10.752.352.864.8 1.728 1.344 2.592 1.056 1.632 2.832 2.448 5.328 2.448 2.4 0 4.144-.832 5.232-2.496 1.152-1.728 1.856-3.728 2.112-6 .256-2.144.384-4.256.384-6.336 0-2.112-.016-3.552-.048-4.32h.816c.416 0 1.152-.24 2.208-.72 1.056-.48 1.696-1.264 1.92-2.352.64 2.144.96 4.288.96 6.432 0 4.704-1.2 8.672-3.6 11.904-2.368 3.2-5.696 4.8-9.984 4.8s-7.632-1.6-10.032-4.8c-2.368-3.232-3.552-7.28-3.552-12.144s1.28-8.768 3.84-11.712c2.592-2.976 6.16-4.464 10.704-4.464 2.752 0 5.136.72 7.152 2.16 2.016 1.44 3.024 3.04 3.024 4.8 0 1.088-.352 1.984-1.056 2.688-.672.704-1.456 1.056-2.352 1.056-.896 0-1.664-.272-2.304-.816-.64-.544-.96-1.264-.96-2.16 0-.896.24-1.6.72-2.112.512-.512 1.12-.768 1.824-.768 1.12 0 1.872.496 2.256 1.488.096.256.256.384.48.384.352 0 .496-.16.432-.48Zm44.445-5.28v.768h-3.984v29.664h3.984V106h-12.48v-.768h3.504V77.776h-.337L81.353 98.464c-.096.096-.288.416-.576.96-.544.992-.817 1.824-.817 2.496 0 .64.145 1.184.433 1.632.32.448.72.672 1.2.672.927 0 1.391-.496 1.391-1.488 0-.608-.24-1.392-.72-2.352L71.61 77.776h-.337v21.36c0 2.336.432 3.936 1.296 4.8.897.864 2.513 1.296 4.849 1.296h.335V106H64.025v-.768c2.335 0 3.968-.432 4.895-1.296.928-.896 1.392-2.496 1.392-4.8V77.488c-.063-.768-.367-1.28-.912-1.536-.512-.288-1.248-.432-2.208-.432h-2.16v-.72H75.93l9.552 20.832c1.472 2.944 2.208 5.024 2.208 6.24 0 1.184-.416 2.112-1.248 2.784-.8.672-1.809 1.008-3.025 1.008-1.183 0-2.207-.32-3.072-.96-.831-.64-1.247-1.632-1.247-2.976 0-.48.047-.832.144-1.056.096-.256.16-.432.192-.528a3.7 3.7 0 0 1 .191-.432l.24-.432a6.01 6.01 0 0 1 .432-.816c.384-.576.64-.992.768-1.248L94.121 74.8h8.736Zm28.258 25.44v1.152c0 1.152.08 1.952.24 2.4.16.416.432.624.816.624.416 0 .832-.32 1.248-.96.448-.64.816-1.6 1.104-2.88l.864.192c-.768 3.808-2.608 5.712-5.52 5.712-2.56 0-3.84-1.904-3.84-5.712v-4.032c0-2.464-.688-4.144-2.064-5.04-1.376-.896-3.248-1.344-5.616-1.344-.576 0-1.408.032-2.496.096v14.784h3.984V106h-12.48v-.768h3.504V75.568h-3.504V74.8h12.48v.768h-3.984v13.968c4.128 0 7.424-1.04 9.888-3.12 2.496-2.08 3.744-4.464 3.744-7.152 0-1.376-.4-2.4-1.2-3.072-.768-.672-1.648-1.008-2.64-1.008-.992 0-1.792.288-2.4.864-.576.576-.864 1.088-.864 1.536 0 .448.128.672.384.672s.432-.128.528-.384c.384-.992 1.12-1.488 2.208-1.488.704 0 1.296.256 1.776.768.512.512.768 1.216.768 2.112 0 .896-.32 1.616-.96 2.16-.64.544-1.408.816-2.304.816-.896 0-1.696-.352-2.4-1.056-.672-.704-1.008-1.616-1.008-2.736 0-1.152.4-2.128 1.2-2.928.8-.8 1.84-1.2 3.12-1.2s2.368.448 3.264 1.344c.928.864 1.392 2.032 1.392 3.504 0 3.776-2.064 6.912-6.192 9.408l.192.384c2.144.128 3.68.752 4.608 1.872.992 1.216 1.584 2.432 1.776 3.648.256 1.92.384 3.84.384 5.76Zm13.199-1.344c-.352.96-.528 1.904-.528 2.832 0 .896.16 1.584.48 2.064.352.48.896.816 1.632 1.008 1.12.288 2.608.432 4.464.432h.816V106H136.97v-.768c1.696 0 2.976-.464 3.84-1.392.896-.96 1.68-2.448 2.352-4.464l7.824-22.608c.224-.704.432-1.232.624-1.584.448-.896 1.184-1.344 2.208-1.344h.144l9.696 31.392h3.408V106h-12.288v-.768h3.552l-7.488-24.48h-.288l-6.24 18.144Zm-1.152-9.984c1.376 0 2.864.432 4.464 1.296 1.632.864 3.056 2 4.272 3.408 2.432 2.72 4.272 5.584 5.52 8.592l.768-.192c-1.696-4.32-3.952-7.728-6.768-10.224-2.784-2.496-5.68-3.744-8.688-3.744-1.664 0-3.04.464-4.128 1.392-1.056.928-1.584 1.984-1.584 3.168 0 1.152.336 2.08 1.008 2.784.704.704 1.488 1.056 2.352 1.056.896 0 1.664-.288 2.304-.864.64-.576.96-1.312.96-2.208 0-.896-.24-1.584-.72-2.064s-1.072-.72-1.776-.72c-1.12 0-1.872.496-2.256 1.488-.096.256-.256.384-.48.384-.32 0-.448-.16-.384-.48.128-.96.672-1.712 1.632-2.256.96-.544 2.128-.816 3.504-.816Zm30.276-4.032c.768.64 1.6.96 2.496.96.928 0 1.76-.112 2.496-.336v19.728h2.928c3.552 0 6.16-.896 7.824-2.688 1.44-1.504 2.32-4 2.64-7.488.16-1.44.24-3.28.24-5.52 0-2.24-.16-4.208-.48-5.904-.32-1.728-.848-3.28-1.584-4.656-1.536-2.752-4.272-4.128-8.208-4.128-2.784 0-4.928.592-6.432 1.776-.48.352-.864.784-1.152 1.296-.256.512-.384.928-.384 1.248 0 .288.128.432.384.432s.432-.128.528-.384c.384-.992 1.136-1.488 2.256-1.488.704 0 1.296.256 1.776.768.512.512.768 1.216.768 2.112 0 .896-.32 1.616-.96 2.16-.64.544-1.408.816-2.304.816-.896 0-1.696-.352-2.4-1.056-.672-.704-1.008-1.6-1.008-2.688 0-1.728.832-3.152 2.496-4.272 1.664-1.152 3.872-1.728 6.624-1.728 5.056 0 8.976 1.264 11.76 3.792 2.784 2.496 4.176 6.384 4.176 11.664 0 11.136-5.184 16.704-15.552 16.704h-12.432v-.768h3.504V84.88Zm34.345 14.016c-.352.96-.528 1.904-.528 2.832 0 .896.16 1.584.48 2.064.352.48.896.816 1.632 1.008 1.12.288 2.608.432 4.464.432h.816V106h-14.208v-.768c1.696 0 2.976-.464 3.84-1.392.896-.96 1.68-2.448 2.352-4.464l7.824-22.608c.224-.704.432-1.232.624-1.584.448-.896 1.184-1.344 2.208-1.344h.144l9.696 31.392h3.408V106h-12.288v-.768h3.552l-7.488-24.48h-.288l-6.24 18.144Zm-1.152-9.984c1.376 0 2.864.432 4.464 1.296 1.632.864 3.056 2 4.272 3.408 2.432 2.72 4.272 5.584 5.52 8.592l.768-.192c-1.696-4.32-3.952-7.728-6.768-10.224-2.784-2.496-5.68-3.744-8.688-3.744-1.664 0-3.04.464-4.128 1.392-1.056.928-1.584 1.984-1.584 3.168 0 1.152.336 2.08 1.008 2.784.704.704 1.488 1.056 2.352 1.056.896 0 1.664-.288 2.304-.864.64-.576.96-1.312.96-2.208 0-.896-.24-1.584-.72-2.064s-1.072-.72-1.776-.72c-1.12 0-1.872.496-2.256 1.488-.096.256-.256.384-.48.384-.32 0-.448-.16-.384-.48.128-.96.672-1.712 1.632-2.256.96-.544 2.128-.816 3.504-.816Z"/><defs><filter id="a" width="108" height="56" x="64" y="0" color-interpolation-filters="sRGB" filterUnits="userSpaceOnUse"><feFlood flood-opacity="0" result="BackgroundImageFix"/><feBlend in="SourceGraphic" in2="BackgroundImageFix" result="shape"/><feTurbulence baseFrequency="0.10000000149011612 0.10000000149011612" numOctaves="3" seed="7578" type="fractalNoise"/><feDisplacementMap width="100%" height="100%" in="shape" result="displacedImage" scale="8" xChannelSelector="R" yChannelSelector="G"/><feMerge result="effect1_texture_353_10"><feMergeNode in="displacedImage"/></feMerge></filter></defs></svg>