<svg width="228" height="127" viewBox="0 0 228 127" fill="none" xmlns="http://www.w3.org/2000/svg">
<g clip-path="url(#clip0_320_14)">
<g filter="url(#filter0_g_320_14)">
<path d="M93.5913 5.2307C105.959 -1.90688 120.834 -1.72973 133.054 5.70068L164 24.5174L135.438 42.1545C122.56 50.1065 106.725 49.9345 93.9968 41.7043L64 22.3078L93.5913 5.2307Z" fill="#EBEBEB"/>
<path d="M133.182 22.3998C133.182 32.7549 125.429 41.1494 115.866 41.1494C106.302 41.1494 98.5487 32.7549 98.5487 22.3998C98.5487 12.0446 106.302 3.65009 115.866 3.65009C125.429 3.65009 133.182 12.0446 133.182 22.3998Z" fill="#8C2F39"/>
<path d="M124.524 22.9332C124.524 28.1108 120.648 32.308 115.866 32.308C111.084 32.308 107.207 28.1108 107.207 22.9332C107.207 17.7556 111.084 13.5584 115.866 13.5584C120.648 13.5584 124.524 17.7556 124.524 22.9332Z" fill="#0A0A0A"/>
<path d="M121.638 16.1499C121.638 17.8757 120.346 19.2748 118.752 19.2748C117.158 19.2748 115.866 17.8757 115.866 16.1499C115.866 14.424 117.158 13.0249 118.752 13.0249C120.346 13.0249 121.638 14.424 121.638 16.1499Z" fill="#EBEBEB"/>
</g>
<path d="M6.5 92.832C7.396 93.472 8.308 93.792 9.236 93.792C10.164 93.792 10.916 93.664 11.492 93.408V99.648H14.276C16.996 99.648 18.916 98.96 20.036 97.584C21.188 96.208 21.764 94.08 21.764 91.2C21.764 85.6 19.46 82.8 14.852 82.8C11.94 82.8 9.716 83.408 8.18 84.624C7.7 84.976 7.316 85.408 7.028 85.92C6.772 86.432 6.644 86.848 6.644 87.168C6.644 87.456 6.772 87.6 7.028 87.6C7.284 87.6 7.46 87.472 7.556 87.216C7.94 86.224 8.692 85.728 9.812 85.728C10.516 85.728 11.108 85.984 11.588 86.496C12.1 87.008 12.356 87.712 12.356 88.608C12.356 89.504 12.036 90.224 11.396 90.768C10.756 91.312 9.988 91.584 9.092 91.584C8.196 91.584 7.396 91.232 6.692 90.528C6.02 89.824 5.684 88.928 5.684 87.84C5.684 86.112 6.548 84.688 8.276 83.568C10.036 82.416 12.292 81.84 15.044 81.84C18.756 81.84 21.7 82.592 23.876 84.096C26.052 85.6 27.14 87.968 27.14 91.2C27.14 94.432 26.196 96.784 24.308 98.256C22.42 99.696 19.588 100.416 15.812 100.416H11.492V113.232H15.476V114H2.996V113.232H6.5V92.832ZM54.4123 88.08C54.2523 86.896 53.3723 85.728 51.7723 84.576C50.1723 83.424 48.4603 82.848 46.6363 82.848C44.8123 82.848 43.3243 83.104 42.1723 83.616C41.0203 84.128 40.0923 84.816 39.3883 85.68C38.6843 86.544 38.1083 87.648 37.6603 88.992C36.8923 91.424 36.5083 94.512 36.5083 98.256C36.5083 103.696 36.8603 107.28 37.5643 109.008C37.9163 109.872 38.3643 110.736 38.9083 111.6C39.9643 113.232 41.7403 114.048 44.2363 114.048C46.6363 114.048 48.3803 113.216 49.4683 111.552C50.6203 109.824 51.3243 107.824 51.5803 105.552C51.8363 103.408 51.9643 101.296 51.9643 99.216C51.9643 97.104 51.9483 95.664 51.9163 94.896C52.0443 94.896 52.3163 94.896 52.7323 94.896C53.1483 94.896 53.8843 94.656 54.9403 94.176C55.9963 93.696 56.6363 92.912 56.8603 91.824C57.5003 93.968 57.8203 96.112 57.8203 98.256C57.8203 102.96 56.6203 106.928 54.2203 110.16C51.8523 113.36 48.5243 114.96 44.2363 114.96C39.9483 114.96 36.6043 113.36 34.2043 110.16C31.8363 106.928 30.6523 102.88 30.6523 98.016C30.6523 93.152 31.9323 89.248 34.4922 86.304C37.0843 83.328 40.6523 81.84 45.1963 81.84C47.9483 81.84 50.3323 82.56 52.3483 84C54.3643 85.44 55.3723 87.04 55.3723 88.8C55.3723 89.888 55.0203 90.784 54.3163 91.488C53.6443 92.192 52.8603 92.544 51.9643 92.544C51.0683 92.544 50.3003 92.272 49.6603 91.728C49.0203 91.184 48.7003 90.464 48.7003 89.568C48.7003 88.672 48.9403 87.968 49.4203 87.456C49.9323 86.944 50.5403 86.688 51.2443 86.688C52.3643 86.688 53.1163 87.184 53.5002 88.176C53.5963 88.432 53.7563 88.56 53.9803 88.56C54.3323 88.56 54.4763 88.4 54.4123 88.08ZM98.8565 82.8V83.568H94.8725V113.232H98.8565V114H86.3765V113.232H89.8805V85.776H89.5445L77.3525 106.464C77.2565 106.56 77.0645 106.88 76.7765 107.424C76.2325 108.416 75.9605 109.248 75.9605 109.92C75.9605 110.56 76.1045 111.104 76.3925 111.552C76.7125 112 77.1125 112.224 77.5925 112.224C78.5205 112.224 78.9845 111.728 78.9845 110.736C78.9845 110.128 78.7445 109.344 78.2645 108.384L67.6085 85.776H67.2725V107.136C67.2725 109.472 67.7045 111.072 68.5685 111.936C69.4645 112.8 71.0805 113.232 73.4165 113.232H73.7525V114H60.0245V113.232C62.3605 113.232 63.9925 112.8 64.9205 111.936C65.8485 111.04 66.3125 109.44 66.3125 107.136V85.488C66.2485 84.72 65.9445 84.208 65.4005 83.952C64.8885 83.664 64.1525 83.52 63.1925 83.52H61.0325V82.8H71.9285L81.4805 103.632C82.9525 106.576 83.6885 108.656 83.6885 109.872C83.6885 111.056 83.2725 111.984 82.4405 112.656C81.6405 113.328 80.6325 113.664 79.4165 113.664C78.2325 113.664 77.2085 113.344 76.3445 112.704C75.5125 112.064 75.0965 111.072 75.0965 109.728C75.0965 109.248 75.1445 108.896 75.2405 108.672C75.3365 108.416 75.4005 108.24 75.4325 108.144C75.4645 108.048 75.5285 107.904 75.6245 107.712L75.8645 107.28C76.0245 106.928 76.1685 106.656 76.2965 106.464C76.6805 105.888 76.9365 105.472 77.0645 105.216L90.1205 82.8H98.8565ZM127.115 108.24V109.392C127.115 110.544 127.195 111.344 127.355 111.792C127.515 112.208 127.787 112.416 128.171 112.416C128.587 112.416 129.003 112.096 129.419 111.456C129.867 110.816 130.235 109.856 130.523 108.576L131.387 108.768C130.619 112.576 128.779 114.48 125.867 114.48C123.307 114.48 122.027 112.576 122.027 108.768V104.736C122.027 102.272 121.339 100.592 119.963 99.696C118.587 98.8 116.715 98.352 114.347 98.352C113.771 98.352 112.939 98.384 111.851 98.448V113.232H115.835V114H103.355V113.232H106.859V83.568H103.355V82.8H115.835V83.568H111.851V97.536C115.979 97.536 119.275 96.496 121.739 94.416C124.235 92.336 125.483 89.952 125.483 87.264C125.483 85.888 125.083 84.864 124.283 84.192C123.515 83.52 122.635 83.184 121.643 83.184C120.651 83.184 119.851 83.472 119.243 84.048C118.667 84.624 118.379 85.136 118.379 85.584C118.379 86.032 118.507 86.256 118.763 86.256C119.019 86.256 119.195 86.128 119.291 85.872C119.675 84.88 120.411 84.384 121.499 84.384C122.203 84.384 122.795 84.64 123.275 85.152C123.787 85.664 124.043 86.368 124.043 87.264C124.043 88.16 123.723 88.88 123.083 89.424C122.443 89.968 121.675 90.24 120.779 90.24C119.883 90.24 119.083 89.888 118.379 89.184C117.707 88.48 117.371 87.568 117.371 86.448C117.371 85.296 117.771 84.32 118.571 83.52C119.371 82.72 120.411 82.32 121.691 82.32C122.971 82.32 124.059 82.768 124.955 83.664C125.883 84.528 126.347 85.696 126.347 87.168C126.347 90.944 124.283 94.08 120.155 96.576L120.347 96.96C122.491 97.088 124.027 97.712 124.955 98.832C125.947 100.048 126.539 101.264 126.731 102.48C126.987 104.4 127.115 106.32 127.115 108.24ZM140.314 106.896C139.962 107.856 139.786 108.8 139.786 109.728C139.786 110.624 139.946 111.312 140.266 111.792C140.618 112.272 141.162 112.608 141.898 112.8C143.018 113.088 144.506 113.232 146.362 113.232H147.178V114H132.97V113.232C134.666 113.232 135.946 112.768 136.81 111.84C137.706 110.88 138.49 109.392 139.162 107.376L146.986 84.768C147.21 84.064 147.418 83.536 147.61 83.184C148.058 82.288 148.794 81.84 149.818 81.84H149.962L159.658 113.232H163.066V114H150.778V113.232H154.33L146.842 88.752H146.554L140.314 106.896ZM139.162 96.912C140.538 96.912 142.026 97.344 143.626 98.208C145.258 99.072 146.682 100.208 147.898 101.616C150.33 104.336 152.17 107.2 153.418 110.208L154.186 110.016C152.49 105.696 150.234 102.288 147.418 99.792C144.634 97.296 141.738 96.048 138.73 96.048C137.066 96.048 135.69 96.512 134.602 97.44C133.546 98.368 133.018 99.424 133.018 100.608C133.018 101.76 133.354 102.688 134.026 103.392C134.73 104.096 135.514 104.448 136.378 104.448C137.274 104.448 138.042 104.16 138.682 103.584C139.322 103.008 139.642 102.272 139.642 101.376C139.642 100.48 139.402 99.792 138.922 99.312C138.442 98.832 137.85 98.592 137.146 98.592C136.026 98.592 135.274 99.088 134.89 100.08C134.794 100.336 134.634 100.464 134.41 100.464C134.09 100.464 133.962 100.304 134.026 99.984C134.154 99.024 134.698 98.272 135.658 97.728C136.618 97.184 137.786 96.912 139.162 96.912ZM169.438 92.88C170.206 93.52 171.038 93.84 171.934 93.84C172.862 93.84 173.694 93.728 174.43 93.504V113.232H177.358C180.91 113.232 183.518 112.336 185.182 110.544C186.622 109.04 187.502 106.544 187.822 103.056C187.982 101.616 188.062 99.776 188.062 97.536C188.062 95.296 187.902 93.328 187.582 91.632C187.262 89.904 186.734 88.352 185.998 86.976C184.462 84.224 181.726 82.848 177.79 82.848C175.006 82.848 172.862 83.44 171.358 84.624C170.878 84.976 170.494 85.408 170.206 85.92C169.95 86.432 169.822 86.848 169.822 87.168C169.822 87.456 169.95 87.6 170.206 87.6C170.462 87.6 170.638 87.472 170.734 87.216C171.118 86.224 171.87 85.728 172.99 85.728C173.694 85.728 174.286 85.984 174.766 86.496C175.278 87.008 175.534 87.712 175.534 88.608C175.534 89.504 175.214 90.224 174.574 90.768C173.934 91.312 173.166 91.584 172.27 91.584C171.374 91.584 170.574 91.232 169.87 90.528C169.198 89.824 168.862 88.928 168.862 87.84C168.862 86.112 169.694 84.688 171.358 83.568C173.022 82.416 175.23 81.84 177.982 81.84C183.038 81.84 186.958 83.104 189.742 85.632C192.526 88.128 193.918 92.016 193.918 97.296C193.918 108.432 188.734 114 178.366 114H165.934V113.232H169.438V92.88ZM203.783 106.896C203.431 107.856 203.255 108.8 203.255 109.728C203.255 110.624 203.415 111.312 203.735 111.792C204.087 112.272 204.631 112.608 205.367 112.8C206.487 113.088 207.975 113.232 209.831 113.232H210.647V114H196.439V113.232C198.135 113.232 199.415 112.768 200.279 111.84C201.175 110.88 201.959 109.392 202.631 107.376L210.455 84.768C210.679 84.064 210.887 83.536 211.079 83.184C211.527 82.288 212.263 81.84 213.287 81.84H213.431L223.127 113.232H226.535V114H214.247V113.232H217.799L210.311 88.752H210.023L203.783 106.896ZM202.631 96.912C204.007 96.912 205.495 97.344 207.095 98.208C208.727 99.072 210.151 100.208 211.367 101.616C213.799 104.336 215.639 107.2 216.887 110.208L217.655 110.016C215.959 105.696 213.703 102.288 210.887 99.792C208.103 97.296 205.207 96.048 202.199 96.048C200.535 96.048 199.159 96.512 198.071 97.44C197.015 98.368 196.487 99.424 196.487 100.608C196.487 101.76 196.823 102.688 197.495 103.392C198.199 104.096 198.983 104.448 199.847 104.448C200.743 104.448 201.511 104.16 202.151 103.584C202.791 103.008 203.111 102.272 203.111 101.376C203.111 100.48 202.871 99.792 202.391 99.312C201.911 98.832 201.319 98.592 200.615 98.592C199.495 98.592 198.743 99.088 198.359 100.08C198.263 100.336 198.103 100.464 197.879 100.464C197.559 100.464 197.431 100.304 197.495 99.984C197.623 99.024 198.167 98.272 199.127 97.728C200.087 97.184 201.255 96.912 202.631 96.912Z" fill="#EBEBEB"/>
</g>
<defs>
<filter id="filter0_g_320_14" x="60" y="-4" width="108" height="56" filterUnits="userSpaceOnUse" color-interpolation-filters="sRGB">
<feFlood flood-opacity="0" result="BackgroundImageFix"/>
<feBlend mode="normal" in="SourceGraphic" in2="BackgroundImageFix" result="shape"/>
<feTurbulence type="fractalNoise" baseFrequency="0.10000000149011612 0.10000000149011612" numOctaves="3" seed="7578" />
<feDisplacementMap in="shape" scale="8" xChannelSelector="R" yChannelSelector="G" result="displacedImage" width="100%" height="100%" />
<feMerge result="effect1_texture_320_14">
<feMergeNode in="displacedImage"/>
</feMerge>
</filter>
<clipPath id="clip0_320_14">
<rect width="227" height="127" fill="white" transform="translate(0.5)"/>
</clipPath>
</defs>
</svg>
