<svg xmlns="http://www.w3.org/2000/svg" width="236" height="121" fill="none"><g clip-path="url(#a)"><path fill="#EBEBEB" d="m90.5 18 5-1.5 3.5-4 3-1h4l3.5-1h2.5l6-2.5h3.5l5.5 2 3 .5 3.5 1 2 1.5 3 4.5 4 1 2 .5 1.5 1 2.5 1.5 2 2.5 1 .5 1.5-.5 2.5 2h3l3.5 1.5 2 .5 1.5 1.5L167 31l1 2-1.5 1H164l-4.5 1.5-.5 2-1.5 2.5-2.5 1.5-3 2.5-3 1-4 3.5-4.5 3.5h-6l-4.5 5s-3.659.097-6 0c-2.349-.097-6-.5-6-.5l-6.5-.5-6.5-3-8-1-3.5-1-1.5-2.5-.5-3-1.5-2h-5l-2-2-3-1.5-3-4.5-4-.5-5-2 2.5-3 5-4.5L80 23h2.5l4.5-3 3.5-2Z"/><path fill="#8C2F39" d="M135.867 33.792c1.494 8.459-9.961 16.027-16.435 15.137C111.961 47.593 102 41.36 102 34.237c0-7.124 1.494-20.48 16.934-19.144 15.439 2.226 16.933 10.83 16.933 18.699Z"/><path fill="#0A0A0A" d="M126.937 32.843c.704 3.98-4.687 7.542-7.734 7.123-3.516-.628-8.203-3.561-8.203-6.913 0-3.352.703-9.638 7.969-9.01 7.265 1.048 7.968 5.098 7.968 8.8Z"/><path fill="#EBEBEB" d="M125 27c-1.5 1-.665 1.1-2 1.5-5 1.5-3-3-2-4.424 1-1.424-1.5-2.576 3.5-1.576 4 2 1 3.5.5 4.5ZM32.906 99.676c0 1.886-.34 3.679-1.02 5.379a13.27 13.27 0 0 1-2.952 4.465c-1.29 1.289-2.866 2.314-4.729 3.076-1.863.75-3.978 1.125-6.346 1.125-.597 0-1.19-.035-1.775-.106a9.477 9.477 0 0 1-1.723-.334v3.709c0 .281-.1.586-.299.914-.187.328-.439.68-.755 1.055a21.17 21.17 0 0 1-1.055 1.23c-.399.446-.809.915-1.23 1.407-.41.492-.81 1.008-1.196 1.547-.387.55-.732 1.13-1.037 1.74V90.746c0-.234-.047-.486-.14-.756a1.7 1.7 0 0 0-.475-.738c-.223-.234-.533-.428-.932-.58-.398-.153-.914-.229-1.547-.229v-.65h8.666c.727 0 1.547.023 2.461.07.926.047 1.893.14 2.9.281a27.2 27.2 0 0 1 3.077.58c1.043.247 2.05.575 3.023.985.973.398 1.887.89 2.742 1.477a10.147 10.147 0 0 1 2.268 2.091 9.299 9.299 0 0 1 1.512 2.795c.375 1.055.562 2.256.562 3.604Zm-5.765 1.336c0-1.582-.205-2.965-.616-4.149-.41-1.183-.96-2.209-1.652-3.076a9.57 9.57 0 0 0-2.355-2.162 13.714 13.714 0 0 0-2.743-1.389 14.796 14.796 0 0 0-2.83-.79 23.65 23.65 0 0 0-2.584-.352v22.535a6.38 6.38 0 0 0 2.145.721 14.82 14.82 0 0 0 2.215.175c1.101 0 2.074-.175 2.918-.527a7.157 7.157 0 0 0 2.215-1.406 8.448 8.448 0 0 0 1.564-2.057c.422-.785.756-1.605 1.002-2.461.258-.855.44-1.717.545-2.584.117-.867.176-1.693.176-2.478Zm9.21-.616c0-.972.135-1.968.405-2.988.27-1.031.668-2.021 1.195-2.97a13.889 13.889 0 0 1 1.951-2.707 13.05 13.05 0 0 1 2.69-2.233 13.61 13.61 0 0 1 3.41-1.494c1.254-.375 2.613-.563 4.078-.563 1.512 0 2.9.17 4.166.51 1.277.34 2.426.809 3.445 1.406a11.876 11.876 0 0 1 2.707 2.127c.786.82 1.436 1.711 1.952 2.672.527.95.92 1.957 1.177 3.024.27 1.066.405 2.138.405 3.216a12.59 12.59 0 0 1-.405 3.129 12.976 12.976 0 0 1-1.177 3.059 13.39 13.39 0 0 1-1.952 2.777 12.413 12.413 0 0 1-2.707 2.268c-1.02.644-2.168 1.154-3.445 1.529-1.266.375-2.654.563-4.166.563-1.488 0-2.86-.188-4.113-.563a13.21 13.21 0 0 1-3.41-1.512 12.782 12.782 0 0 1-2.672-2.267 14.338 14.338 0 0 1-1.951-2.777 13.582 13.582 0 0 1-1.196-3.059 13.356 13.356 0 0 1-.386-3.147Zm6.047-.07c0 .996.053 1.981.159 2.953.117.973.298 1.905.545 2.795.246.879.562 1.699.949 2.461.398.75.879 1.406 1.441 1.969a6.43 6.43 0 0 0 1.951 1.336c.739.328 1.577.498 2.514.51.938 0 1.787-.164 2.549-.493a6.819 6.819 0 0 0 2.021-1.371 8.517 8.517 0 0 0 1.512-2.021c.422-.774.773-1.594 1.055-2.461.281-.879.486-1.787.615-2.725.14-.949.223-1.875.246-2.777 0-.926-.058-1.858-.176-2.795a15.188 15.188 0 0 0-.545-2.69 12.327 12.327 0 0 0-.966-2.425 7.657 7.657 0 0 0-1.46-1.951 6.324 6.324 0 0 0-1.986-1.319c-.75-.316-1.605-.474-2.566-.474-.938 0-1.781.14-2.531.421-.739.282-1.4.68-1.987 1.196a7.897 7.897 0 0 0-1.494 1.828c-.41.703-.75 1.482-1.02 2.338-.269.855-.474 1.763-.615 2.725-.129.96-.199 1.95-.21 2.97Zm43.155-.72c0-.926-.041-1.846-.123-2.76-.07-.926-.2-1.805-.387-2.637a13.317 13.317 0 0 0-.703-2.338 7.075 7.075 0 0 0-1.055-1.88 4.662 4.662 0 0 0-1.494-1.266c-.563-.305-1.207-.457-1.934-.457-1.043 0-1.98.304-2.812.914-.82.597-1.523 1.406-2.11 2.425-.585 1.008-1.037 2.174-1.353 3.499a18.135 18.135 0 0 0-.457 4.113c0 1.582.17 3.017.51 4.306.351 1.278.79 2.42 1.318 3.428a15.082 15.082 0 0 0 1.723 2.637c.62.75 1.201 1.371 1.74 1.863.55.492 1.02.867 1.406 1.125.399.258.627.399.686.422h-6.733c-.222-.105-.533-.34-.931-.703a16.29 16.29 0 0 1-1.301-1.406 22.627 22.627 0 0 1-1.441-2.004c-.48-.774-.92-1.612-1.319-2.514a18.555 18.555 0 0 1-.984-2.918 14.036 14.036 0 0 1-.37-3.234c0-.68.06-1.477.177-2.39.128-.915.357-1.853.685-2.813.328-.973.773-1.928 1.336-2.866.574-.937 1.3-1.775 2.18-2.513.879-.739 1.933-1.336 3.164-1.793 1.23-.457 2.677-.686 4.341-.686 1.102 0 2.098.106 2.989.317.902.199 1.717.48 2.443.843a8.981 8.981 0 0 1 1.934 1.248c.562.48 1.06.996 1.494 1.547a9.61 9.61 0 0 1 3.604-2.795 11.64 11.64 0 0 1 2.618-.843c.985-.211 2.08-.317 3.288-.317 1.617 0 3.041.182 4.271.545 1.242.363 2.315.856 3.217 1.477a8.979 8.979 0 0 1 2.268 2.127 11.13 11.13 0 0 1 1.458 2.513c.375.867.639 1.752.792 2.655.152.89.228 1.728.228 2.513 0 1.477-.223 2.824-.668 4.043a13.524 13.524 0 0 1-1.723 3.27 14.994 14.994 0 0 1-2.373 2.566 22.85 22.85 0 0 1-2.584 1.951c-.855.539-1.658.991-2.408 1.354a62.66 62.66 0 0 1-1.793.826H96.82c.059-.023.282-.164.668-.422.387-.269.856-.656 1.406-1.16a18.056 18.056 0 0 0 1.758-1.898c.621-.762 1.196-1.659 1.723-2.69.527-1.031.967-2.197 1.318-3.498.352-1.312.528-2.771.528-4.377 0-1.652-.194-3.14-.58-4.465-.387-1.324-.909-2.443-1.565-3.357-.644-.926-1.394-1.635-2.25-2.127-.855-.492-1.752-.738-2.69-.738-.75 0-1.417.152-2.003.457a4.975 4.975 0 0 0-1.547 1.265 7.59 7.59 0 0 0-1.143 1.881 14.382 14.382 0 0 0-.755 2.338c-.2.832-.346 1.71-.44 2.637a30.873 30.873 0 0 0-.123 2.76V113h-5.572V99.606ZM124.4 113h-11.759v-.65c.621 0 1.13-.059 1.529-.176.398-.129.715-.299.949-.51.235-.223.393-.475.475-.756.094-.281.14-.58.14-.896v-26.42a2.3 2.3 0 0 0-.14-.756 1.694 1.694 0 0 0-.475-.738c-.223-.235-.533-.428-.931-.58-.399-.153-.915-.229-1.547-.229v-.65h8.666v29.267c0 .235.035.492.105.774.082.281.229.545.44.791.222.246.533.457.931.633.41.164.949.246 1.617.246v.65Zm16.928-.211c-1.066.434-2.062.727-2.988.879-.914.152-1.74.228-2.479.228a7.649 7.649 0 0 1-2.988-.597 12.216 12.216 0 0 1-2.707-1.582 18.756 18.756 0 0 1-2.408-2.25 49.339 49.339 0 0 1-2.145-2.584 80.687 80.687 0 0 1-1.898-2.637 62.16 62.16 0 0 0-1.653-2.338 39.702 39.702 0 0 0 5.309-4.992 25.483 25.483 0 0 0 1.494-1.863c.481-.656.92-1.33 1.319-2.022.398-.703.726-1.412.984-2.127.023-.058.041-.117.053-.175.011-.06.017-.123.017-.194 0-.21-.058-.44-.176-.685a1.832 1.832 0 0 0-.544-.686c-.247-.21-.575-.38-.985-.51-.398-.14-.885-.21-1.459-.21v-.651h9.651a18.269 18.269 0 0 1-1.635 4.271 19.73 19.73 0 0 1-2.391 3.516 19.132 19.132 0 0 1-2.9 2.795 23.225 23.225 0 0 1-3.147 2.092 148.083 148.083 0 0 1 3.797 4.482c1.172 1.43 2.244 2.69 3.217 3.78.984 1.089 1.869 1.962 2.654 2.619.797.644 1.506.966 2.127.966.164 0 .393-.017.686-.052.293-.035.609-.123.949-.264l.246.791Zm29.76-.721c-1.067.434-2.039.727-2.918.879a13.97 13.97 0 0 1-2.373.229 8.675 8.675 0 0 1-1.459-.106 6.459 6.459 0 0 1-1.055-.228 5.298 5.298 0 0 1-.879-.352 4.871 4.871 0 0 1-1.353-1.142 11.546 11.546 0 0 1-1.055-1.512 16.928 16.928 0 0 1-.826-1.67 56.556 56.556 0 0 0-.721-1.617l-.439-.932c-1.184.34-2.291.733-3.322 1.178-1.02.434-1.928.867-2.725 1.301-.797.422-1.471.814-2.022 1.177-.539.352-.92.61-1.142.774-.434.48-.92.908-1.459 1.283a9.183 9.183 0 0 1-1.811.967c-.668.258-1.412.457-2.232.598-.82.14-1.723.21-2.707.21l-.176-.755c1.137-.188 2.115-.551 2.936-1.09a8.436 8.436 0 0 0 2.144-1.987 12.824 12.824 0 0 0 1.529-2.671c.422-.997.797-2.045 1.125-3.147.188-.633.434-1.301.739-2.004.316-.703.691-1.383 1.125-2.039a12.82 12.82 0 0 1 1.511-1.863 8.323 8.323 0 0 1 1.952-1.477c-.2-.375-.399-.756-.598-1.142a52.888 52.888 0 0 1-.545-1.196 24.244 24.244 0 0 1-.738-1.546 8.57 8.57 0 0 0-.879-1.582 4.718 4.718 0 0 0-1.178-1.231c-.445-.328-1.002-.492-1.67-.492-.469 0-.931.053-1.388.158-.446.106-.874.234-1.284.387l-.246-.721c1.02-.34 2.051-.627 3.094-.861a13.74 13.74 0 0 1 3.129-.37c.492 0 .978.036 1.459.106.48.059.943.17 1.389.334.386.14.761.375 1.125.703.363.317.709.697 1.037 1.143.328.433.632.902.914 1.406.293.504.562 1.008.808 1.512.258.504.487.984.686 1.441.211.445.392.832.545 1.16 1.031 2.215 2.056 4.436 3.076 6.662a109.902 109.902 0 0 0 3.287 6.557c.211.387.434.768.668 1.143.246.375.516.709.809 1.002.304.293.638.527 1.002.703.363.175.773.257 1.23.246.164 0 .387-.018.668-.053.293-.035.609-.123.949-.264l.264.791Zm-16.629-13.974a17.496 17.496 0 0 0-.844 1.529 24.725 24.725 0 0 0-.685 1.617 29.035 29.035 0 0 0-.58 1.617 58.646 58.646 0 0 1-.528 1.547 23.02 23.02 0 0 1-.58 1.582c-.199.504-.428.996-.685 1.477a40.433 40.433 0 0 1 3.093-1.617 26.07 26.07 0 0 1 3.797-1.442l-2.988-6.31Zm28.336 15.767c-1.699 0-3.305-.287-4.816-.861a12.453 12.453 0 0 1-3.956-2.408 11.601 11.601 0 0 1-2.671-3.709c-.657-1.43-.985-3-.985-4.711 0-1.606.334-3.123 1.002-4.553.668-1.43 1.623-2.736 2.865-3.92 1.243-1.195 2.748-2.244 4.518-3.146 1.769-.914 3.75-1.653 5.941-2.215l-1.336-.932c-.832-.562-1.429-1.224-1.793-1.986a5.53 5.53 0 0 1-.544-2.373c0-.586.082-1.166.246-1.74a6.808 6.808 0 0 1 .72-1.6 6.09 6.09 0 0 1 1.073-1.3c.41-.388.861-.686 1.353-.897l.422.65c-.785.563-1.178 1.207-1.178 1.934 0 .668.305 1.383.914 2.144.61.762 1.494 1.559 2.655 2.39 1.957 1.43 3.673 2.778 5.15 4.044 1.488 1.254 2.73 2.502 3.727 3.744 1.007 1.242 1.769 2.508 2.285 3.797.515 1.277.791 2.66.826 4.148 0 1.512-.217 2.895-.651 4.149a12.26 12.26 0 0 1-1.792 3.375 12.78 12.78 0 0 1-2.708 2.619 16.717 16.717 0 0 1-3.392 1.881 19.778 19.778 0 0 1-3.832 1.107 22.283 22.283 0 0 1-4.043.369Zm10.476-12.058c0-1.172-.128-2.28-.386-3.322a11.498 11.498 0 0 0-1.231-3.094c-.562-1.008-1.312-2.01-2.25-3.006-.925-.996-2.074-2.022-3.445-3.076-.926.199-1.805.51-2.637.931-.832.41-1.605.914-2.32 1.512a12.645 12.645 0 0 0-1.951 2.004 13.39 13.39 0 0 0-1.477 2.373 13.36 13.36 0 0 0-.931 2.62 11.39 11.39 0 0 0-.334 2.741c0 .914.099 1.817.298 2.707.2.879.481 1.723.844 2.532.375.796.832 1.535 1.371 2.214a9.489 9.489 0 0 0 1.811 1.758 8.669 8.669 0 0 0 2.215 1.16 7.733 7.733 0 0 0 2.566.422c1.09 0 2.109-.252 3.059-.756a7.752 7.752 0 0 0 2.496-2.144c.715-.926 1.277-2.027 1.687-3.305.41-1.289.615-2.713.615-4.271Zm37.336 10.265c-1.066.434-2.039.727-2.918.879a13.95 13.95 0 0 1-2.373.229 8.692 8.692 0 0 1-1.459-.106 6.445 6.445 0 0 1-1.054-.228 5.298 5.298 0 0 1-.879-.352 4.861 4.861 0 0 1-1.354-1.142 11.637 11.637 0 0 1-1.054-1.512 17.16 17.16 0 0 1-.827-1.67 59.592 59.592 0 0 0-.72-1.617l-.44-.932c-1.183.34-2.291.733-3.322 1.178a31.716 31.716 0 0 0-2.725 1.301c-.796.422-1.47.814-2.021 1.177-.539.352-.92.61-1.143.774-.433.48-.92.908-1.459 1.283a9.175 9.175 0 0 1-1.81.967c-.668.258-1.412.457-2.233.598-.82.14-1.722.21-2.707.21l-.175-.755c1.136-.188 2.115-.551 2.935-1.09a8.44 8.44 0 0 0 2.145-1.987 12.914 12.914 0 0 0 1.529-2.671c.422-.997.797-2.045 1.125-3.147a17.75 17.75 0 0 1 .738-2.004c.317-.703.692-1.383 1.125-2.039.446-.668.949-1.289 1.512-1.863a8.317 8.317 0 0 1 1.951-1.477c-.199-.375-.398-.756-.598-1.142a52.838 52.838 0 0 1-.544-1.196 23.7 23.7 0 0 1-.739-1.546 8.57 8.57 0 0 0-.879-1.582 4.715 4.715 0 0 0-1.177-1.231c-.446-.328-1.002-.492-1.67-.492-.469 0-.932.053-1.389.158a10.91 10.91 0 0 0-1.283.387l-.246-.721a31.923 31.923 0 0 1 3.093-.861 13.74 13.74 0 0 1 3.129-.37c.493 0 .979.036 1.459.106.481.059.944.17 1.389.334.387.14.762.375 1.125.703.363.317.709.697 1.037 1.143.328.433.633.902.914 1.406.293.504.563 1.008.809 1.512.258.504.486.984.685 1.441.211.445.393.832.545 1.16 1.032 2.215 2.057 4.436 3.076 6.662a110.522 110.522 0 0 0 3.288 6.557c.211.387.433.768.668 1.143.246.375.515.709.808 1.002.305.293.639.527 1.002.703a2.65 2.65 0 0 0 1.231.246c.164 0 .386-.018.668-.053.293-.035.609-.123.949-.264l.263.791Zm-16.628-13.974a17.496 17.496 0 0 0-.844 1.529 24.733 24.733 0 0 0-.686 1.617 29.864 29.864 0 0 0-.58 1.617 58.723 58.723 0 0 1-.527 1.547 23.02 23.02 0 0 1-.58 1.582c-.2.504-.428.996-.686 1.477a40.282 40.282 0 0 1 3.094-1.617 26.026 26.026 0 0 1 3.797-1.442l-2.988-6.31Z"/></g><defs><clipPath id="a"><path fill="#fff" d="M.5 0h235v121H.5z"/></clipPath></defs></svg>