<svg xmlns="http://www.w3.org/2000/svg" width="236" height="132" fill="none"><path fill="#EBEBEB" d="m90.5 17.787 5-1.468 3.5-3.915 3-.978h4l3.5-.98h2.5L118 8h3.5l5.5 1.957 3 .49 3.5.979 2 1.468 3 4.404 4 .979 2 .489 1.5.979 2.5 1.468 2 2.447 1 .489 1.5-.49 2.5 1.958h3l3.5 1.468 2 .49 1.5 1.468 1.5 1.468 1 1.957-1.5.979H164l-4.5 1.468-.5 1.958-1.5 2.446-2.5 1.468-3 2.447-3 .979-4 3.425-4.5 3.426h-6l-4.5 4.894s-3.659.095-6 0c-2.349-.096-6-.49-6-.49l-6.5-.489-6.5-2.936-8-.979-3.5-.979-1.5-2.447-.5-2.936-1.5-1.957h-5l-2-1.958-3-1.468-3-4.404-4-.49-5-1.957 2.5-2.936 5-4.404L80 22.68h2.5l4.5-2.936 3.5-1.958Z"/><path fill="#8C2F39" d="M134.875 33.686c1.406 7.962-9.375 15.085-15.469 14.247C112.375 46.676 103 40.81 103 34.105c0-6.704 1.406-19.274 15.937-18.017 14.532 2.095 15.938 10.193 15.938 17.598Z"/><path fill="#0A0A0A" d="M126.937 32.843c.704 3.98-4.687 7.542-7.734 7.123-3.516-.628-8.203-3.561-8.203-6.913 0-3.352.703-9.638 7.969-9.01 7.265 1.048 7.968 5.098 7.968 8.8Z"/><path fill="#EBEBEB" d="M125 27c-1.5 1-.665 1.1-2 1.5-5 1.5-3-3-2-4.424 1-1.424-1.5-2.576 3.5-1.576 4 2 1 3.5.5 4.5ZM43.64 105.156c0 1.677-.301 3.271-.906 4.782a11.783 11.783 0 0 1-2.625 3.968c-1.145 1.146-2.547 2.058-4.203 2.735-1.656.666-3.536 1-5.64 1-.532 0-1.058-.032-1.578-.094a8.445 8.445 0 0 1-1.532-.297v3.297c0 .25-.088.521-.265.812a6.39 6.39 0 0 1-.672.938c-.271.344-.584.708-.938 1.094-.354.395-.718.812-1.093 1.25a23.55 23.55 0 0 0-1.063 1.375 12.118 12.118 0 0 0-.922 1.546V97.219a2.05 2.05 0 0 0-.125-.672 1.51 1.51 0 0 0-.422-.656c-.198-.209-.474-.38-.828-.516-.354-.135-.812-.203-1.375-.203v-.578h7.703c.646 0 1.375.02 2.188.062.823.042 1.682.125 2.578.25.896.115 1.807.287 2.734.516.927.219 1.823.51 2.688.875.864.354 1.677.791 2.437 1.312.771.521 1.443 1.141 2.016 1.86a8.277 8.277 0 0 1 1.344 2.484c.333.938.5 2.005.5 3.203Zm-5.124 1.188c0-1.406-.183-2.636-.547-3.688-.365-1.052-.854-1.963-1.469-2.734A8.507 8.507 0 0 0 34.406 98a12.188 12.188 0 0 0-2.437-1.234 13.15 13.15 0 0 0-2.516-.704 21.038 21.038 0 0 0-2.297-.312v20.031a5.645 5.645 0 0 0 1.907.641c.687.104 1.343.156 1.968.156.98 0 1.844-.156 2.594-.469a6.344 6.344 0 0 0 1.969-1.25 7.497 7.497 0 0 0 1.39-1.828c.375-.698.672-1.427.891-2.187.23-.761.39-1.526.484-2.297.105-.771.157-1.505.157-2.203Zm8.187-.547c0-.865.12-1.75.36-2.656.24-.917.593-1.797 1.062-2.641a12.347 12.347 0 0 1 1.734-2.406 11.595 11.595 0 0 1 2.391-1.985 12.101 12.101 0 0 1 3.031-1.328c1.115-.333 2.323-.5 3.625-.5 1.344 0 2.578.151 3.703.453 1.136.303 2.157.72 3.063 1.25a10.555 10.555 0 0 1 2.406 1.891c.698.73 1.276 1.52 1.734 2.375.47.844.818 1.74 1.047 2.688.24.947.36 1.901.36 2.859 0 .917-.12 1.844-.36 2.781-.229.938-.578 1.844-1.046 2.719a11.908 11.908 0 0 1-1.735 2.469c-.687.77-1.49 1.442-2.406 2.015a12.07 12.07 0 0 1-3.063 1.36c-1.125.333-2.359.5-3.703.5-1.323 0-2.541-.167-3.656-.5a11.762 11.762 0 0 1-3.031-1.344 11.369 11.369 0 0 1-2.375-2.016 12.716 12.716 0 0 1-1.735-2.469 12.052 12.052 0 0 1-1.062-2.718c-.23-.948-.344-1.88-.344-2.797Zm5.375-.063c0 .886.047 1.761.14 2.625.105.865.266 1.693.485 2.485.219.781.5 1.51.844 2.187.354.667.781 1.25 1.281 1.75.5.5 1.078.896 1.734 1.188.657.291 1.402.442 2.235.453.833 0 1.588-.146 2.266-.438a6.094 6.094 0 0 0 1.796-1.218c.521-.511.97-1.11 1.344-1.797.375-.688.688-1.417.938-2.188.25-.781.432-1.588.546-2.422.126-.843.198-1.666.22-2.468 0-.823-.053-1.651-.157-2.485a13.491 13.491 0 0 0-.484-2.39 10.948 10.948 0 0 0-.86-2.157 6.802 6.802 0 0 0-1.297-1.734c-.51-.5-1.099-.89-1.765-1.172-.667-.281-1.427-.422-2.282-.422-.833 0-1.583.125-2.25.375a5.744 5.744 0 0 0-1.765 1.063c-.51.458-.953 1-1.328 1.625a10.18 10.18 0 0 0-.907 2.078 15.53 15.53 0 0 0-.546 2.422 21.712 21.712 0 0 0-.188 2.64Zm38.36-.64c0-.823-.037-1.641-.11-2.453a16.256 16.256 0 0 0-.344-2.344 11.844 11.844 0 0 0-.625-2.078 6.287 6.287 0 0 0-.937-1.672 4.142 4.142 0 0 0-1.328-1.125c-.5-.271-1.073-.406-1.719-.406-.927 0-1.76.27-2.5.812-.73.531-1.354 1.25-1.875 2.156-.52.896-.922 1.933-1.203 3.11a16.11 16.11 0 0 0-.406 3.656c0 1.406.15 2.682.453 3.828.312 1.136.703 2.151 1.172 3.047.468.896.979 1.677 1.53 2.344a16.545 16.545 0 0 0 1.548 1.656c.49.437.906.771 1.25 1 .354.229.557.354.61.375h-5.985c-.198-.094-.474-.302-.828-.625-.344-.323-.73-.74-1.157-1.25a19.862 19.862 0 0 1-1.28-1.781 18.081 18.081 0 0 1-1.173-2.235 16.492 16.492 0 0 1-.875-2.593 12.483 12.483 0 0 1-.328-2.875c0-.605.052-1.313.156-2.125.115-.813.318-1.646.61-2.5a13.05 13.05 0 0 1 1.187-2.547 9.15 9.15 0 0 1 1.938-2.235c.781-.656 1.719-1.187 2.812-1.593 1.094-.407 2.38-.61 3.86-.61.979 0 1.864.094 2.656.281a9.347 9.347 0 0 1 2.172.75 7.984 7.984 0 0 1 1.719 1.11c.5.427.942.885 1.328 1.375a8.541 8.541 0 0 1 3.203-2.484 10.348 10.348 0 0 1 2.328-.75c.875-.188 1.849-.282 2.922-.282 1.437 0 2.703.162 3.797.485 1.104.322 2.057.76 2.859 1.312a7.979 7.979 0 0 1 2.016 1.89 9.922 9.922 0 0 1 1.297 2.235c.333.771.567 1.557.703 2.359.135.792.203 1.537.203 2.235 0 1.312-.198 2.51-.594 3.594a12.058 12.058 0 0 1-1.531 2.906 13.33 13.33 0 0 1-2.11 2.281 20.214 20.214 0 0 1-2.297 1.734c-.76.48-1.473.881-2.14 1.204-.656.312-1.188.557-1.594.734h-1.375c.052-.021.25-.146.594-.375a12.8 12.8 0 0 0 1.25-1.031 16.076 16.076 0 0 0 1.562-1.688 13.524 13.524 0 0 0 1.532-2.39 16.01 16.01 0 0 0 1.171-3.11c.313-1.166.469-2.463.469-3.89 0-1.469-.172-2.792-.515-3.969-.344-1.177-.808-2.172-1.391-2.984-.573-.823-1.24-1.454-2-1.891a4.724 4.724 0 0 0-2.391-.656c-.666 0-1.26.135-1.78.406-.522.27-.98.646-1.376 1.125a6.746 6.746 0 0 0-1.016 1.672c-.27.635-.494 1.328-.671 2.078a17.714 17.714 0 0 0-.391 2.344c-.073.812-.11 1.63-.11 2.453V117h-4.953v-11.906ZM124.969 117h-10.453v-.578c.552 0 1.005-.052 1.359-.156.354-.115.635-.266.844-.454.208-.197.349-.421.422-.671.083-.25.125-.516.125-.797V90.859a2.06 2.06 0 0 0-.125-.671 1.515 1.515 0 0 0-.422-.657c-.198-.208-.474-.38-.828-.515-.355-.136-.813-.204-1.375-.204v-.578h7.703v26.016c0 .208.031.438.093.688a1.9 1.9 0 0 0 .391.703c.198.218.474.406.828.562.365.146.844.219 1.438.219V117Zm15.047-.188c-.948.386-1.834.646-2.657.782-.812.135-1.547.203-2.203.203a6.797 6.797 0 0 1-2.656-.531 10.83 10.83 0 0 1-2.406-1.407 16.676 16.676 0 0 1-2.141-2 43.103 43.103 0 0 1-1.906-2.297 71.98 71.98 0 0 1-1.688-2.343 53.892 53.892 0 0 0-1.468-2.078 35.215 35.215 0 0 0 4.718-4.438c.469-.531.912-1.083 1.329-1.656a19.57 19.57 0 0 0 1.171-1.797c.355-.625.646-1.255.875-1.89a.845.845 0 0 0 .063-.329c0-.187-.052-.39-.156-.61a1.634 1.634 0 0 0-.485-.609c-.218-.187-.51-.338-.875-.453-.354-.125-.786-.187-1.297-.187v-.578h8.578a16.186 16.186 0 0 1-1.453 3.797 17.53 17.53 0 0 1-2.125 3.125 17.042 17.042 0 0 1-2.578 2.484 20.522 20.522 0 0 1-2.797 1.859 131.372 131.372 0 0 1 3.375 3.985 105.972 105.972 0 0 0 2.86 3.359c.875.969 1.661 1.745 2.359 2.328.708.573 1.339.86 1.891.86.146 0 .349-.016.609-.047a3.26 3.26 0 0 0 .844-.235l.219.703Zm26.453-.64c-.948.385-1.813.646-2.594.781-.781.136-1.484.203-2.109.203-.5 0-.933-.031-1.297-.094a5.741 5.741 0 0 1-.938-.203 4.68 4.68 0 0 1-.781-.312 4.324 4.324 0 0 1-1.203-1.016 10.309 10.309 0 0 1-.938-1.343c-.27-.48-.515-.974-.734-1.485-.219-.51-.432-.989-.641-1.437l-.39-.828a24.596 24.596 0 0 0-2.953 1.046c-.907.386-1.714.771-2.422 1.157-.709.375-1.308.724-1.797 1.047-.479.312-.818.541-1.016.687a7.528 7.528 0 0 1-1.297 1.141 8.163 8.163 0 0 1-1.609.859c-.594.229-1.255.406-1.984.531-.73.125-1.532.188-2.407.188l-.156-.672c1.011-.167 1.88-.49 2.609-.969a7.51 7.51 0 0 0 1.907-1.765c.531-.709.984-1.5 1.359-2.376.375-.885.708-1.817 1-2.796.167-.563.386-1.157.656-1.782.282-.625.615-1.229 1-1.812.396-.594.844-1.146 1.344-1.656a7.408 7.408 0 0 1 1.734-1.313 94.355 94.355 0 0 1-.531-1.015 52.35 52.35 0 0 1-.484-1.063 21.018 21.018 0 0 1-.656-1.375c-.219-.51-.48-.98-.782-1.406A4.172 4.172 0 0 0 147.312 96c-.395-.292-.89-.438-1.484-.438-.417 0-.828.047-1.234.141a9.713 9.713 0 0 0-1.141.344l-.219-.64a28.45 28.45 0 0 1 2.75-.766 12.22 12.22 0 0 1 2.782-.329c.437 0 .869.032 1.296.094.428.052.839.151 1.235.297.344.125.677.334 1 .625.323.281.63.62.922 1.016.291.385.562.802.812 1.25.261.448.5.896.719 1.344.229.447.432.874.609 1.281.188.396.349.739.485 1.031.916 1.969 1.828 3.943 2.734 5.922A97.816 97.816 0 0 0 161.5 113c.188.344.385.682.594 1.016.218.333.458.63.718.89.271.261.568.469.891.625.323.157.688.229 1.094.219.146 0 .344-.016.594-.047a3.22 3.22 0 0 0 .843-.234l.235.703Zm-14.781-12.422c-.271.438-.521.891-.75 1.359a27.526 27.526 0 0 0-1.126 2.875c-.156.48-.312.938-.468 1.375-.156.48-.328.948-.516 1.407-.177.448-.38.885-.609 1.312a36.224 36.224 0 0 1 2.75-1.437c1.052-.5 2.177-.927 3.375-1.282l-2.656-5.609Zm25.187 14.016c-1.51 0-2.937-.256-4.281-.766a11.05 11.05 0 0 1-3.516-2.141c-1-.927-1.792-2.026-2.375-3.297-.583-1.27-.875-2.666-.875-4.187 0-1.427.297-2.776.891-4.047.593-1.271 1.442-2.432 2.547-3.484 1.104-1.063 2.442-1.995 4.015-2.797 1.573-.813 3.334-1.469 5.281-1.969l-1.187-.828c-.74-.5-1.271-1.088-1.594-1.766a4.91 4.91 0 0 1-.484-2.109 5.6 5.6 0 0 1 .219-1.547 6.04 6.04 0 0 1 .64-1.422c.271-.437.589-.823.953-1.156.365-.344.766-.61 1.203-.797l.376.578c-.698.5-1.047 1.073-1.047 1.719 0 .594.27 1.23.812 1.906.542.677 1.328 1.386 2.359 2.125a75.673 75.673 0 0 1 4.579 3.594c1.323 1.115 2.427 2.224 3.312 3.328.896 1.104 1.573 2.229 2.031 3.375.459 1.136.704 2.365.735 3.688 0 1.343-.193 2.573-.578 3.687a10.915 10.915 0 0 1-1.594 3 11.317 11.317 0 0 1-2.406 2.328 14.886 14.886 0 0 1-3.016 1.672 17.557 17.557 0 0 1-3.406.985 19.873 19.873 0 0 1-3.594.328Zm9.313-10.719c0-1.042-.115-2.026-.344-2.953a10.263 10.263 0 0 0-1.094-2.75c-.5-.896-1.167-1.787-2-2.672-.823-.885-1.844-1.797-3.062-2.734a9.64 9.64 0 0 0-2.344.828c-.74.364-1.427.812-2.063 1.343a11.266 11.266 0 0 0-1.734 1.782 11.9 11.9 0 0 0-1.313 2.109c-.354.74-.63 1.516-.828 2.328a10.137 10.137 0 0 0-.297 2.438c0 .812.089 1.614.266 2.406.177.781.427 1.531.75 2.25.333.708.74 1.364 1.219 1.969a8.42 8.42 0 0 0 1.609 1.562 7.706 7.706 0 0 0 1.969 1.031c.719.25 1.479.375 2.281.375.969 0 1.875-.224 2.719-.671a6.908 6.908 0 0 0 2.219-1.907c.635-.823 1.135-1.802 1.5-2.937.364-1.146.547-2.412.547-3.797Zm33.187 9.125c-.948.385-1.813.646-2.594.781-.781.136-1.484.203-2.109.203-.5 0-.932-.031-1.297-.094a5.704 5.704 0 0 1-.937-.203 4.658 4.658 0 0 1-.782-.312 4.324 4.324 0 0 1-1.203-1.016 10.207 10.207 0 0 1-.937-1.343c-.271-.48-.516-.974-.735-1.485a54.31 54.31 0 0 0-.64-1.437l-.391-.828a24.658 24.658 0 0 0-2.953 1.046c-.906.386-1.714.771-2.422 1.157-.708.375-1.307.724-1.797 1.047-.479.312-.818.541-1.016.687a7.558 7.558 0 0 1-1.296 1.141 8.2 8.2 0 0 1-1.61.859c-.594.229-1.255.406-1.984.531-.729.125-1.531.188-2.406.188l-.157-.672c1.011-.167 1.881-.49 2.61-.969a7.523 7.523 0 0 0 1.906-1.765c.531-.709.984-1.5 1.359-2.376.375-.885.709-1.817 1-2.796.167-.563.386-1.157.657-1.782.281-.625.614-1.229 1-1.812.395-.594.843-1.146 1.343-1.656a7.393 7.393 0 0 1 1.735-1.313 94.355 94.355 0 0 1-.531-1.015 47.44 47.44 0 0 1-.485-1.063 21.546 21.546 0 0 1-.656-1.375 7.648 7.648 0 0 0-.781-1.406A4.204 4.204 0 0 0 200.219 96c-.396-.292-.891-.438-1.485-.438-.416 0-.828.047-1.234.141a9.713 9.713 0 0 0-1.141.344l-.218-.64a28.37 28.37 0 0 1 2.75-.766 12.204 12.204 0 0 1 2.781-.329c.437 0 .87.032 1.297.094.427.052.838.151 1.234.297.344.125.677.334 1 .625.323.281.63.62.922 1.016.292.385.563.802.813 1.25.26.448.5.896.718 1.344.229.447.433.874.61 1.281.187.396.349.739.484 1.031.917 1.969 1.828 3.943 2.734 5.922a99.038 99.038 0 0 0 2.922 5.828c.188.344.386.682.594 1.016.219.333.458.63.719.89.271.261.567.469.89.625.323.157.688.229 1.094.219.146 0 .344-.016.594-.047.26-.031.542-.109.844-.234l.234.703Zm-14.781-12.422c-.271.438-.521.891-.75 1.359-.219.469-.422.948-.61 1.438-.187.479-.359.958-.515 1.437-.157.48-.313.938-.469 1.375-.156.48-.328.948-.516 1.407-.177.448-.38.885-.609 1.312a36.224 36.224 0 0 1 2.75-1.437c1.052-.5 2.177-.927 3.375-1.282l-2.656-5.609Z"/></svg>