<svg width="202" height="195" viewBox="0 0 202 195" fill="none" xmlns="http://www.w3.org/2000/svg">
<path d="M50.8284 1.80573C52.3154 1.80573 53.5858 2.07702 54.948 2.57649C56.082 2.99228 57.1824 3.44149 58.3633 3.71935C59.1593 3.90665 60.1569 3.7715 60.8882 4.09144C62.2638 4.69324 64.0686 4.84102 65.5394 5.16786C66.535 5.3891 67.7002 6.20272 68.6623 6.58978C69.978 7.11909 71.4129 7.64359 72.8351 7.7858C74.5198 7.95428 76.165 8.75193 77.8318 9.03497C79.7139 9.35458 81.4601 9.98153 83.2404 10.5233C86.5899 11.5428 89.996 12.539 93.1673 14.1247C94.8917 14.9869 96.7116 15.6443 98.4298 16.5034C99.7754 17.1762 101.635 17.1692 103.081 17.54C105.28 18.1037 107.479 18.6046 109.699 19.1347C111.935 19.6685 114.163 20.2363 116.397 20.7825C117.067 20.9465 117.867 21.3375 118.563 21.4071C119.421 21.4929 120.199 21.4872 121.034 21.6729C124.576 22.4598 128.409 24.3304 131.679 25.9652C133.148 26.6995 134.581 27.6324 135.985 28.4901C138.827 30.2269 142.341 31.0133 145.074 32.9553C146.711 34.1179 148.24 35.5688 149.858 36.7825C151.12 37.7284 151.937 39.059 153.194 40.0649C154.643 41.2241 155.689 42.7105 157.234 43.7726C157.803 44.1635 158.188 45.0122 158.656 45.5267C159.743 46.7225 160.562 48.1508 161.712 49.3008C164.024 51.612 165.953 53.5504 167.453 56.4503C167.821 57.1624 168.451 57.6979 168.942 58.3108C169.201 58.6357 168.986 59.6888 168.995 60.0915C169.018 61.2006 169.473 62.2426 169.473 63.334C169.473 64.6241 169.572 65.8227 169.699 67.0948C169.946 69.5699 170.041 72.0682 169.951 74.5766C169.885 76.4469 168.821 78.5815 168.33 80.3972C168.048 81.4427 167.41 82.3467 167.068 83.3739C166.86 83.9975 166.317 84.771 165.965 85.3407C165.016 86.873 164.046 88.3343 163.241 89.9786C162.441 91.6109 161.828 93.5168 160.623 94.8557C159.849 95.7151 158.664 96.8819 158.231 97.9653C157.996 98.5506 157.173 99.4005 156.556 99.4005" stroke="white" stroke-width="2" stroke-linecap="round"/>
<path d="M130.005 116.862C130.005 117.617 131.224 118.258 131.785 118.643C132.547 119.166 132.903 119.963 133.486 120.464C134.373 121.223 134.877 122.386 135.745 123.188C136.796 124.158 139.19 125.474 140.662 125.474C142.436 125.474 144.229 126.67 146.031 126.67C147.428 126.67 149.577 127.139 150.815 126.484C151.986 125.864 153.123 125.094 154.403 124.636C155.94 124.088 156.797 121.095 157.021 119.64C157.183 118.589 157.669 117.224 158.111 116.251C158.742 114.862 158.32 111.885 157.991 110.404C157.561 108.469 157.25 106.53 156.848 104.61C156.563 103.246 156.353 101.706 155.121 101.022C153.324 100.024 152.673 97.9471 150.696 97.1414C149.485 96.648 148.523 96.2228 147.227 95.9985C146.28 95.8346 145.094 95.7935 144.211 95.4536C142.858 94.9336 140.563 95.334 139.094 95.334C137.97 95.334 137.68 95.4868 136.676 96.0517C135.669 96.6179 134.422 96.8971 133.593 97.7261C132.714 98.6044 132.018 99.6513 131.015 100.357C129.75 101.247 128.33 102.555 128.33 104.185" stroke="white" stroke-width="2" stroke-linecap="round"/>
<path d="M129.765 107.055C132.148 105.794 135.843 106.144 138.51 105.806C141.147 105.472 143.852 105.62 146.51 105.62C148.341 105.62 150.145 106.05 151.719 107.002C153.34 107.982 154.501 110.763 154.151 112.69C153.795 114.648 150.277 115.993 148.623 116.158C147.516 116.269 146.441 116.742 145.314 116.916C143.519 117.192 142.267 116.738 140.689 115.826C139.329 115.04 137.686 114.776 136.264 114.125C135.595 113.818 134.92 113.514 134.191 113.514C133.427 113.514 131.579 113.791 131.201 113.035" stroke="white" stroke-width="2" stroke-linecap="round"/>
<path d="M146.988 127.387C146.988 129.357 146.971 131.055 146.51 132.902C145.908 135.309 144.986 137.526 143.639 139.587C140.114 144.978 135.372 148.782 129.433 151.201C127.019 152.185 124.413 153.02 122.111 154.231C120.02 155.332 117.266 156.561 114.961 157.022C111.796 157.655 108.545 158.208 105.314 158.244C103.915 158.26 102.689 158.45 101.353 158.962C99.8202 159.549 98.4001 159.44 96.7554 159.44" stroke="white" stroke-width="2" stroke-linecap="round"/>
<path d="M64.9414 128.105C64.8384 129.032 63.4981 130.095 63.081 130.975C62.367 132.483 61.3761 133.663 60.4896 135.042C59.7341 136.217 58.944 137.17 58.7354 138.63C58.4621 140.543 58.2437 142.309 58.2437 144.264C58.2437 146.545 59.309 148.43 60.2105 150.51C61.1487 152.675 62.4692 153.311 64.3434 154.524C65.9105 155.538 67.8441 155.971 69.38 156.995C69.9328 157.364 70.8679 157.921 71.5461 157.992C73.0123 158.146 74.9011 158.081 76.184 158.723" stroke="white" stroke-width="2" stroke-linecap="round"/>
<path d="M82.8817 150.829C80.8817 152.711 78.385 153.837 76.9016 156.145C76.1905 157.251 75.6564 159.041 77.0212 159.799C79.138 160.975 81.2512 158.875 83.2139 158.271C83.4252 158.206 85.0908 157.689 84.7421 157.341C84.4045 157.003 83.0641 158.53 82.8817 158.723C81.6574 160.015 81.1835 162.384 82.0312 163.985C82.8329 165.5 86.405 164.583 87.679 164.105C88.5724 163.77 89.5381 163.54 90.3501 163.028C91.1978 162.495 92.0547 161.684 92.9282 161.248C93.6748 160.874 94.3125 160.509 95.081 160.158C95.9037 159.782 96.8203 159.615 97.473 158.962" stroke="white" stroke-width="2" stroke-linecap="round"/>
<path d="M84.7953 157.288C86.0873 157.288 86.9955 155.833 88.1441 155.374C89.4126 154.867 91.0763 154.178 92.4498 154.178" stroke="white" stroke-width="2" stroke-linecap="round"/>
<path d="M93.0366 127.683C93.8349 126.377 95.5564 125.638 96.5866 124.514C97.3191 123.715 97.6759 122.727 98.2952 121.86C99.1387 120.679 99.2891 119.254 99.4233 117.846C99.6164 115.817 99.2356 114.242 98.6436 112.305C98.4068 111.53 98.4083 110.648 97.8971 109.991C97.3343 109.267 96.647 108.914 95.9562 108.349C94.646 107.277 92.5547 107.277 91.0294 106.566C88.5351 105.401 85.7606 104.733 83.3406 103.422C82.5473 102.992 81.68 102.794 80.786 102.742C79.5671 102.67 78.3972 102.174 77.1614 102.153C75.9882 102.133 74.8659 101.974 74.8224 103.497C74.8072 104.026 74.6738 104.799 74.9717 105.255C75.3187 105.786 75.6181 106.219 75.8674 106.814C76.4538 108.215 77.255 109.634 77.9576 110.961C78.7937 112.541 79.4947 114.041 80.1141 115.731C81.2017 118.697 81.6125 121.797 83.1747 124.531C84.0686 126.095 85.847 126.944 87.5541 127.31C89.1545 127.652 91.5364 127.836 93.0366 127.086" stroke="white" stroke-width="2" stroke-linecap="round"/>
<path d="M79.0027 110.663C79.0643 111.218 80.0849 111.755 80.4293 112.09C80.9839 112.629 81.6727 113.132 82.3536 113.5C83.1039 113.905 83.7172 114.505 84.4105 114.993C85.1397 115.506 85.2543 116.416 85.5717 117.232C86.1586 118.741 86.4675 120.332 86.4675 121.935C86.4675 122.694 86.4456 123.569 86.3099 124.315C86.1701 125.085 85.1238 126.339 85.1238 126.339" stroke="white" stroke-width="2" stroke-linecap="round"/>
<path d="M46.7544 98.9182C46.7544 99.3626 46.9037 99.7474 46.9037 100.212C47.1401 100.291 47.3046 100.393 47.3516 100.66C47.3887 100.87 47.9474 101.068 48.0981 101.29C48.4495 101.808 48.8181 102.328 49.2178 102.816C49.768 103.489 50.5022 104.034 51.084 104.699C51.4835 105.156 51.8725 105.606 52.2784 106.035C54.3868 108.26 55.4739 111.257 57.4209 113.558C58.3029 114.6 59.1792 116.362 59.5608 117.68C59.9746 119.109 60.9892 120.152 61.5266 121.495C61.7648 122.091 62.588 123.525 63.1937 122.574C63.781 121.651 64.6701 120.315 64.6701 119.173C64.6701 118.241 64.7431 116.308 65.7152 115.822C66.3612 115.499 67.1053 115.513 67.8054 115.407C68.6583 115.278 69.4305 115.009 70.1941 114.628C70.8189 114.315 72.2749 113.813 72.4253 112.985C72.5729 112.173 72.4304 111.186 72.2511 110.397C71.7664 108.265 69.4167 107.394 68.104 105.894C67.2021 104.863 66.6541 103.641 65.483 102.891C64.5918 102.321 63.6581 101.821 62.7624 101.257C61.2279 100.291 59.6097 99.3901 58.0264 98.4952C56.9452 97.8841 56.4612 96.7486 55.4883 96.0318C54.5554 95.3443 53.3924 94.5425 52.3116 94.1241C51.06 93.6396 49.8204 93.4084 48.6206 93.9416C47.8095 94.3021 47.1465 95.6387 47.053 96.4797C46.9645 97.2759 46.7544 98.0918 46.7544 98.9182Z" stroke="white" stroke-width="2" stroke-linecap="round"/>
<path d="M47.053 99.9135C47.6561 99.9135 48.5902 100.342 49.1763 100.544C50.0809 100.856 50.8537 101.436 51.6812 101.888C52.6936 102.44 52.8453 102.796 53.506 103.646C54.3469 104.727 55.5382 105.515 56.5085 106.449C58.1357 108.016 58.5996 109.941 59.5608 111.94C59.7603 112.355 59.7269 112.668 59.7433 113.118C59.7725 113.921 60.047 114.757 60.2741 115.523C60.4292 116.047 60.3405 116.687 60.3405 117.232" stroke="white" stroke-width="2" stroke-linecap="round"/>
<path d="M64.3715 127.832C65.4818 127.832 65.2945 125.521 65.0848 124.813C64.8172 123.91 64.3672 123.318 63.7743 122.607" stroke="white" stroke-width="2" stroke-linecap="round"/>
<path d="M75.7181 121.114C75.7181 121.729 76.2999 121.736 76.6056 122.092C76.9499 122.494 77.2996 122.696 77.7917 122.955C78.4877 123.321 80.1359 123.694 80.4127 124.564C80.728 125.555 79.8431 126.74 79.4422 127.608C79.128 128.289 78.435 128.736 77.8 129.035C76.9585 129.431 76.2124 129.799 75.2702 129.773C74.5584 129.753 73.3175 129.27 72.8483 128.662C72.345 128.009 72.055 127.817 71.2392 127.525C70.7907 127.365 70.1752 126.853 69.6799 126.969C69.0992 127.106 68.5548 127.384 67.9546 127.384C67.5518 127.384 67.0554 127.51 66.8432 127.086C66.5887 126.577 66.4412 126.047 66.2377 125.518C65.7336 124.207 66.6206 122.648 67.4404 121.711C68.4564 120.55 69.9202 119.841 70.8576 118.576C71.5456 117.647 72.3506 116.95 72.8815 115.888C73.1404 115.37 73.7772 114.669 73.7772 114.097" stroke="white" stroke-width="2" stroke-linecap="round"/>
<path d="M1.96521 36.91C2.55652 35.2056 3.29097 33.5488 3.88949 31.8339C4.96769 28.7447 6.24409 25.753 7.78781 22.876C8.96736 20.6778 10.5838 18.6821 11.9681 16.6056C12.9811 15.0861 13.9473 14.0765 15.402 12.9395C16.5714 12.0254 17.8222 11.1744 19.0681 10.3682C20.1438 9.67218 21.1679 8.74941 22.2033 7.97948C23.2112 7.23003 24.4741 6.836 25.5542 6.18792C27.6473 4.93204 30.0182 3.70247 32.3887 3.13561C35.2459 2.45237 38.1956 1.56954 41.1641 1.52652C43.4194 1.49383 45.9377 1.56292 48.1313 1.07863C49.2799 0.82504 50.6902 1.24144 51.8305 1.52652" stroke="white" stroke-width="2" stroke-linecap="round"/>
<path d="M2.11451 37.0593C1.04143 39.0862 1.53865 41.7592 1.4012 44.0099C1.31791 45.3738 1.21873 46.7789 1.21873 48.1404C1.21873 51.0125 0.705165 54.0274 1.25191 56.8826C1.4382 57.8555 1.75097 58.8152 1.96522 59.7856C2.42891 61.8859 3.62088 63.679 4.35397 65.6746C5.40326 68.531 6.52596 71.1774 8.08641 73.7781C10.4224 77.6714 15.1188 78.1161 19.2754 78.1161C23.3564 78.1161 27.293 76.0282 30.481 73.6371" stroke="white" stroke-width="2" stroke-linecap="round"/>
<path d="M31.2275 73.6372C31.2043 73.0328 30.9841 72.3433 30.8543 71.7461C30.664 70.8708 30.8132 69.9886 30.9621 69.1251C31.0936 68.3625 31.35 67.5576 31.6091 66.8275C31.9147 65.9663 31.9498 65.2032 32.0901 64.3144C32.3215 62.8491 32.6198 61.4557 33.1684 60.0843C33.7946 58.5187 34.0613 56.1438 33.5416 54.5271C33.2093 53.4932 32.8142 52.4835 32.5048 51.4416C32.2926 50.7266 32.0788 49.8029 31.6008 49.2187C31.2483 48.7879 30.9822 48.4366 30.5142 48.1073C30.091 47.8095 29.4902 47.4903 29.1457 47.1286C28.6485 46.6066 28.2006 45.9162 27.5614 45.5692C26.748 45.1276 25.697 45.076 24.7829 45.0633C22.7021 45.0344 21.1163 46.301 20.6274 48.2566" stroke="white" stroke-width="2" stroke-linecap="round"/>
<path d="M31.0782 74.085C31.139 74.6926 31.5947 75.4009 31.8247 75.9595C32.2663 77.032 32.7904 78.1067 33.3094 79.1445C33.8386 80.2031 34.5953 81.0552 35.441 81.8817C37.0625 83.4663 39.0797 84.552 40.5752 86.2776C42.039 87.9666 43.8598 89.3128 45.4688 90.798C45.8752 91.1731 46.1254 91.8551 46.4558 92.3325C46.898 92.9711 47.4028 93.6941 47.9488 94.2402" stroke="white" stroke-width="2" stroke-linecap="round"/>
<path d="M110.13 157.886C110.289 159.153 110.868 160.259 110.13 161.549C109.28 163.036 108.662 164.65 107.831 166.105C106.329 168.733 105.915 172.421 105.915 175.516C105.915 178.091 106.592 179.586 107.81 181.818C110.372 186.517 113.878 188.298 118.966 189.888C121.428 190.657 124.169 190.367 126.695 191.144C128.556 191.717 130.827 190.846 132.742 190.846" stroke="white" stroke-width="2" stroke-linecap="round"/>
<path d="M152.288 126.46C152.288 131.846 151.872 137.309 150.18 142.386C149.484 144.473 148.455 147.245 148.455 149.434C148.455 150.552 147.921 154.362 148.838 154.821" stroke="white" stroke-width="2" stroke-linecap="round"/>
<path d="M133.381 190.781C134.884 190.725 136.396 190.539 137.909 190.483C140.051 190.404 142.204 190.459 144.348 190.459C150.163 190.459 155.986 190.365 161.796 190.62C164.42 190.735 167.064 190.532 169.683 190.745C173.449 191.052 177.049 192.331 180.858 192.389C182.179 192.41 183.47 192.711 184.783 192.818C186.194 192.933 187.484 193.461 188.923 193.461" stroke="white" stroke-width="2" stroke-linecap="round"/>
<path d="M149.679 155.075C149.842 155.509 150.232 155.55 150.644 155.665C151.129 155.799 151.652 155.812 152.146 155.897C153.122 156.066 154.068 156.371 155.047 156.523C157.53 156.908 160.091 157.063 162.594 157.303C164.937 157.528 167.26 157.862 169.599 158.101C172.93 158.442 176.253 158.916 179.589 159.191C181.111 159.317 182.639 159.211 184.164 159.281C186.954 159.409 189.715 159.956 192.474 160.359C195.24 160.763 198.053 160.788 200.825 161.08" stroke="white" stroke-width="2" stroke-linecap="round"/>
</svg>
