<svg width="281" height="88" viewBox="0 0 281 88" fill="none" xmlns="http://www.w3.org/2000/svg">
<path d="M66.519 36.3221C66.6386 35.3649 75.8208 34.3709 77.5258 33.9967C83.1179 32.7691 88.5466 31.9813 94.303 31.9813C100.794 31.9813 107.278 31.8098 113.767 31.6885C116.61 31.6354 119.27 32.5988 122.053 33.0837C125.889 33.7524 129.404 35.1096 132.991 36.6149C136.24 37.9789 140.291 38.8293 143.102 41.0417C145.813 43.1764 147.518 46.8367 149.923 49.3442C151.947 51.4549 153.881 53.5449 154.884 56.3376C156.497 60.8319 154.512 64.8615 150.663 67.3444C145.292 70.81 139.183 72.0401 133.008 73.2871C125.959 74.7104 118.696 73.9594 111.545 74.3895C105.95 74.726 100.332 74.5902 94.7336 74.9235C87.4077 75.3595 79.9895 74.5572 72.6855 75.2335C66.6698 75.7905 60.2945 73.8045 57.7686 67.8784C56.6704 65.3017 56.0204 62.7513 55.5121 60.0065C54.6589 55.3993 56.0457 50.9962 58.0098 46.881C59.9638 42.787 64.0677 35.0819 69.3094 35.0819" stroke="#333333" stroke-width="2" stroke-linecap="round"/>
<path d="M140.931 38.8025C139.248 37.2874 136.575 36.6622 136.263 34.169C136.016 32.1909 135.66 30.483 135.66 28.433C135.66 26.535 135.431 24.7412 136.453 23.0588C137.552 21.2478 138.032 18.0835 140.001 17.0989" stroke="#333333" stroke-width="2" stroke-linecap="round"/>
<path d="M140.001 17.0989C140.001 16.2269 139.056 15.6024 138.761 14.7908C138.269 13.4374 137.556 12.0269 137.28 10.5879C136.985 9.05692 136.281 7.48647 136.281 5.91987C136.281 4.451 136.591 3.04838 136.591 1.59637" stroke="#333333" stroke-width="2" stroke-linecap="round"/>
<path d="M136.901 1.59637C139.794 1.59637 141.258 2.85886 143.55 4.38684C146.413 6.29592 148.255 8.68408 149.303 11.8281" stroke="#333333" stroke-width="2" stroke-linecap="round"/>
<path d="M149.303 11.828C151.907 10.6559 154.709 9.96772 157.536 9.96772C160.016 9.96772 162.878 9.51567 165.288 10.0366C166.91 10.3873 168.613 11.1266 170.076 11.8969C170.812 12.2843 171.223 13.0216 171.936 13.3783" stroke="#333333" stroke-width="2" stroke-linecap="round"/>
<path d="M171.936 13.3782C172.149 11.4639 177.374 8.81646 178.758 8.1246C181.178 6.91453 183.176 5.93701 185.889 5.93701" stroke="#333333" stroke-width="2" stroke-linecap="round"/>
<path d="M185.889 7.17725C185.889 10.4934 185.966 12.9098 184.339 15.9793C183.791 17.012 183.005 19.2187 181.996 20.0444C181.051 20.8174 180.241 21.5062 179.378 22.3698" stroke="#333333" stroke-width="2" stroke-linecap="round"/>
<path d="M178.448 22.0596C178.641 23.9922 179.96 25.8756 180.549 27.7095C181.347 30.1956 181.173 33.6103 180.239 36.0119C178.576 40.2879 176.002 45.2443 172.712 48.5346C171.48 49.7664 169.232 50.7812 167.734 51.6523C165.475 52.9655 162.997 53.7185 160.396 53.9605C159.446 54.0488 153.953 55.0914 153.953 53.6849" stroke="#333333" stroke-width="2" stroke-linecap="round"/>
<path d="M146.202 23.9201C146.202 29.1944 153.746 29.5216 152.696 23.7478C152.339 21.7843 150.056 22.3698 148.528 22.3698C147.133 22.3698 146.822 22.9899 146.822 24.2301" stroke="#333333" stroke-width="2" stroke-linecap="round"/>
<path d="M170.696 25.4702C167.665 25.6386 164.17 29.5322 167.751 31.654C172.182 34.2801 174.601 25.4702 170.076 25.4702" stroke="#333333" stroke-width="2" stroke-linecap="round"/>
<path d="M159.844 31.3612C159.766 32.0669 157.483 32.9573 156.916 33.6866C155.918 34.9702 157.47 35.7019 158.535 35.7019C159.474 35.7019 160.635 35.8881 161.55 35.6847C162.213 35.5373 162.325 33.8826 162.325 33.3593C162.325 32.5333 161.523 32.4202 161.085 31.9813" stroke="#333333" stroke-width="2" stroke-linecap="round"/>
<path d="M159.844 36.012C159.319 41.2622 152.612 44.0742 148.131 42.2819C146.178 41.5004 145.216 40.6197 144.979 38.4924C144.811 36.9785 144.905 35.1964 145.582 33.8416" stroke="#333333" stroke-width="2" stroke-linecap="round"/>
<path d="M160.775 36.322C160.775 37.7145 160.696 39.1351 160.792 40.5249C160.991 43.4076 165.35 45.1192 167.906 44.5384C169.336 44.2133 172.867 42.8546 172.867 40.9728" stroke="#333333" stroke-width="2" stroke-linecap="round"/>
<path d="M166.976 37.8724C169.844 35.8237 174.467 35.2602 177.759 34.5307C183.404 33.2797 189.371 31.6713 195.19 31.6713" stroke="#333333" stroke-width="2" stroke-linecap="round"/>
<path d="M167.596 39.4226C178.062 39.4226 188.817 38.3628 198.911 41.593" stroke="#333333" stroke-width="2" stroke-linecap="round"/>
<path d="M168.216 41.2829C176.054 44.8099 183.606 48.9701 191.47 52.4448" stroke="#333333" stroke-width="2" stroke-linecap="round"/>
<path d="M152.713 35.3919C150.546 34.9818 148.468 33.6691 146.512 32.7393C141.611 30.4094 136.749 27.8903 131.733 25.8148C127.919 24.2366 123.728 22.6798 119.538 22.6798" stroke="#333333" stroke-width="2" stroke-linecap="round"/>
<path d="M151.473 37.5623C147.101 36.152 142.945 35.4118 138.348 35.3919C134.188 35.3739 130.116 35.628 126.049 34.7718" stroke="#333333" stroke-width="2" stroke-linecap="round"/>
<path d="M150.543 39.1125C146.382 39.707 141.919 41.9733 138.02 43.4705C134.438 44.8461 130.276 46.6445 127.289 49.0342" stroke="#333333" stroke-width="2" stroke-linecap="round"/>
<path d="M157.054 42.8332C158 43.0435 157.852 44.0734 159.242 44.0734C160.178 44.0734 160.848 44.0489 161.705 43.7633" stroke="#333333" stroke-width="2" stroke-linecap="round"/>
<path d="M169.766 28.8808C169.766 31.0248 172.474 28.6396 170.111 28.6396C168.357 28.6396 171.316 31.1337 171.316 29.1909" stroke="#333333" stroke-width="2" stroke-linecap="round"/>
<path d="M151.473 24.8502C148.633 25.3235 151.037 26.8057 151.439 25.9009C151.885 24.8959 150.853 24.5623 150.853 25.7803" stroke="#333333" stroke-width="2" stroke-linecap="round"/>
<path d="M175.037 14.9285C177.538 12.4272 180.358 11.0879 183.719 9.96771" stroke="#333333" stroke-width="2" stroke-linecap="round"/>
<path d="M146.822 11.2079C146.277 10.6629 146.213 9.9627 145.599 9.5026C144.798 8.90181 144.11 8.46738 143.274 7.93511C142.029 7.14317 140.768 6.08919 139.381 5.62695" stroke="#333333" stroke-width="2" stroke-linecap="round"/>
<path d="M136.591 72.598C140.673 72.598 144.67 71.9503 148.786 72.5291C152.735 73.0845 155.026 78.7112 150.026 79.7981C144.412 81.0185 138.232 80.4474 132.56 79.9704C129.065 79.6764 123.981 79.5552 121.26 77.0938C120.249 76.1791 119.099 74.7684 117.677 74.7684" stroke="#333333" stroke-width="2" stroke-linecap="round"/>
<path d="M152.403 66.0871C154.914 66.0871 159.709 66.3214 158.466 70.1178C157.556 72.9004 153.844 74.4585 151.163 74.4585" stroke="#333333" stroke-width="2" stroke-linecap="round"/>
<path d="M156.124 68.8775C156.405 67.6138 158.923 65.1611 160.154 65.777" stroke="#333333" stroke-width="2" stroke-linecap="round"/>
<path d="M157.054 69.4977C158.052 69.4477 161.14 68.4568 160.154 70.4278" stroke="#333333" stroke-width="2" stroke-linecap="round"/>
<path d="M155.814 71.0478C157.424 71.1942 158.152 72.4814 158.604 73.8383" stroke="#333333" stroke-width="2" stroke-linecap="round"/>
<path d="M148.683 76.6288C149.206 74.01 154.305 74.2931 156.124 73.8383" stroke="#333333" stroke-width="2" stroke-linecap="round"/>
<path d="M148.993 76.6287C151.147 76.6287 154.345 75.7944 154.884 78.489" stroke="#333333" stroke-width="2" stroke-linecap="round"/>
<path d="M148.993 78.179C151.238 78.179 152.459 80.0579 154.264 80.6594" stroke="#333333" stroke-width="2" stroke-linecap="round"/>
<path d="M91.9432 75.0785C94.8152 75.3396 100.625 74.7172 100.625 78.868C100.625 80.4489 97.7794 82.0839 96.4218 82.1925C92.7914 82.4829 89.2917 82.8298 85.6216 82.8298C83.1388 82.8298 80.6428 82.9022 78.1632 82.7609C74.6729 82.5621 71.8288 81.5746 68.7238 80.0221C67.8997 79.6101 61.8105 74.6423 63.4185 73.8383" stroke="#333333" stroke-width="2" stroke-linecap="round"/>
<path d="M98.144 77.8691C98.4002 76.5883 103.415 75.5169 103.415 76.9389" stroke="#333333" stroke-width="2" stroke-linecap="round"/>
<path d="M98.4541 79.1092C100.325 78.9652 102.151 78.7991 104.035 78.7991" stroke="#333333" stroke-width="2" stroke-linecap="round"/>
<path d="M96.5941 79.7293C97.9927 79.7293 99.3949 80.046 100.59 80.8145C101.24 81.2321 100.923 82.2097 101.865 82.2097" stroke="#333333" stroke-width="2" stroke-linecap="round"/>
<path d="M55.6671 55.8553C55.6671 58.9955 53.5215 61.8279 51.1886 63.8133C50.0823 64.7548 48.6672 65.3108 47.2785 65.6736C43.3013 66.7127 39.143 67.2545 35.0487 67.5511C31.4105 67.8148 27.5314 67.8197 23.9213 67.31C20.8884 66.8818 17.6299 66.9123 14.6714 66.1215C12.1991 65.4605 9.86272 64.3138 7.54025 63.2621C6.40854 62.7496 5.29326 62.3033 4.50864 61.2984C2.05402 58.1548 0.257039 53.6151 1.30477 49.5854C3.92617 39.5031 12.0068 30.1336 22.4744 27.9679C27.5341 26.9211 43.1411 26.5208 41.3703 35.3747C41.1746 36.3531 39.9136 37.6565 39.2344 38.3546C38.2621 39.3539 37.0589 39.1125 35.7549 39.1125C31.4475 39.1125 28.1044 39.3679 23.973 40.6628C21.9332 41.3021 18.0882 42.6205 16.7901 44.4179C15.3328 46.4357 13.838 49.5274 13.2073 51.9452C11.6066 58.0811 21.931 60.7756 26.35 60.8161C32.5151 60.8727 38.3756 60.4745 44.3675 58.8869C48.3321 57.8365 52.969 56.1736 56.2872 53.685" stroke="#333333" stroke-width="2" stroke-linecap="round"/>
<path d="M264.092 48.3924C262.792 48.4535 261.412 49.3587 260.249 49.8654C257.283 51.1578 254.002 52.3209 251.45 54.3596C247.362 57.624 244.984 63.564 244.019 68.5903C242.901 74.4083 243.835 81.4366 248.494 85.5841" stroke="#333333" stroke-width="2" stroke-linecap="round"/>
<path d="M248.494 85.5841C252.917 85.8175 257.04 86.2985 261.298 84.8135C265.047 83.5057 267.649 81.0396 270.75 78.8158C273.691 76.7074 274.566 72.6252 275.995 69.474C277.454 66.2561 279.069 63.1463 278.703 59.4934C278.379 56.2654 277.087 47.4253 272.832 47.2008C269.481 47.024 266.542 48.1085 263.289 47.9369" stroke="#333333" stroke-width="2" stroke-linecap="round"/>
<path d="M267.887 46.9398C266.758 46.7537 264.818 43.0931 264.006 42.1898" stroke="#333333" stroke-width="2" stroke-linecap="round"/>
<path d="M264.83 42.2333C265.872 42.2883 266.745 42.0668 267.747 41.7674C269.232 41.3236 271.148 41.7403 272.679 41.8211C275.11 41.9493 276.165 43.2622 277.929 44.5772" stroke="#333333" stroke-width="2" stroke-linecap="round"/>
<path d="M277.083 44.9458C275.463 45.0219 274.233 45.5715 272.875 46.3766" stroke="#333333" stroke-width="2" stroke-linecap="round"/>
<path d="M271.054 41.7353C271.163 39.6688 269.148 34.9126 267.552 33.7225C266.668 33.0634 265.643 32.3593 264.528 32.3004" stroke="#333333" stroke-width="2" stroke-linecap="round"/>
<path d="M264.983 31.498C264.821 34.5607 259.018 35.271 256.997 34.0609C254.62 32.6371 253.69 31.6086 252.73 28.7855" stroke="#333333" stroke-width="2" stroke-linecap="round"/>
<path d="M252.752 28.3735C255.748 28.5316 258.788 27.104 261.827 28.2325C264.18 29.1066 264.072 31.2559 264.896 33.1463" stroke="#333333" stroke-width="2" stroke-linecap="round"/>
<path d="M271.857 42.1908C272.183 36.0115 279.024 26.9219 270.363 23.5178" stroke="#333333" stroke-width="2" stroke-linecap="round"/>
<path d="M270.363 23.5179C268.427 23.4157 266.902 24.1617 264.962 24.0593C263.005 23.9561 261.645 22.6003 260.126 21.7382" stroke="#333333" stroke-width="2" stroke-linecap="round"/>
<path d="M259.758 20.8923C261.772 19.4481 266.049 17.6753 268.515 17.6355C270.944 17.5963 271.754 20.6338 271.642 22.7589" stroke="#333333" stroke-width="2" stroke-linecap="round"/>
<path d="M256.763 30.7588C257.703 30.7043 258.772 30.6816 259.71 30.8181C260.911 30.9929 262.143 31.577 263.226 32.1099C263.617 32.3027 263.977 32.4733 264.155 32.8805" stroke="#333333" stroke-width="2" stroke-linecap="round"/>
<path d="M261.125 31.4941C261.156 30.9132 260.714 30.6037 260.34 30.2019C260.11 29.9548 259.924 29.7743 259.637 29.6117" stroke="#333333" stroke-width="2" stroke-linecap="round"/>
<path d="M259.213 30.816C259.178 30.9521 259.039 31.0236 258.933 31.1018C258.611 31.3411 258.306 31.6144 258.033 31.9082C257.715 32.2504 257.543 32.5709 257.092 32.7244" stroke="#333333" stroke-width="2" stroke-linecap="round"/>
<path d="M270.337 22.3835C270.305 21.84 269.5 21.2875 269.094 21.0192C268.456 20.5979 267.888 20.3014 267.116 20.522C266.494 20.6995 265.914 20.9862 265.316 21.2127C264.809 21.4042 264.357 21.3465 263.827 21.3185" stroke="#333333" stroke-width="2" stroke-linecap="round"/>
<path d="M267.769 20.4444C267.253 20.121 266.895 19.5731 266.202 19.6081C265.922 19.6222 265.644 19.6815 265.44 19.4556" stroke="#333333" stroke-width="2" stroke-linecap="round"/>
<path d="M268.674 21.0693C267.927 21.1097 267.406 21.9527 266.908 22.4111C266.649 22.6497 266.421 22.781 266.072 22.824C265.944 22.8398 265.823 22.8278 265.762 22.9359" stroke="#333333" stroke-width="2" stroke-linecap="round"/>
<path d="M257.798 54.4738C258.422 53.4786 259.724 52.5108 260.577 53.6725C261.158 54.4652 261.118 55.9069 262.081 56.3452C262.479 56.5263 262.78 56.6988 263.235 56.6833C263.844 56.6625 264.24 56.1572 264.873 56.1437C266.071 56.1183 266.269 56.2069 266.762 57.2897C267.007 57.8286 267.377 58.2576 267.511 58.8495C267.649 59.4605 267.85 60.1639 268.425 60.5074C269.895 61.385 272.479 60.1348 273.767 59.4299C274.968 58.773 275.243 58.7701 275.985 59.9404C276.388 60.5768 276.887 61.8253 276.848 62.5614" stroke="#333333" stroke-width="2" stroke-linecap="round"/>
<path d="M272.927 72.8174C272.974 71.9136 273.151 70.2822 271.903 70.1879C269.887 70.0356 268.154 71.367 266.084 71.3206C265.058 71.2976 264.172 71.2533 263.821 70.1549C263.595 69.4488 263.533 68.6049 263.849 67.9208C264.477 66.5628 263.085 66.1304 261.887 66.1182C261.515 66.1144 261.214 66.2589 260.872 66.3865C260.159 66.6522 259.423 66.7016 258.67 66.7533C257.547 66.8303 256.102 67.38 255.699 66.1136C255.446 65.3164 255.33 64.5776 255.252 63.7471C255.194 63.1311 255.407 62.4661 255.063 61.9039C254.205 60.5024 252.367 61.7926 251.132 61.8395C250.732 61.8547 250.223 61.8588 249.852 61.6915C249.385 61.4809 249.367 60.9845 249.213 61.5863" stroke="#333333" stroke-width="2" stroke-linecap="round"/>
<path d="M246.601 74.4867C247.085 74.4587 247.403 73.6953 247.887 73.5083C248.567 73.2453 249.77 72.9589 250.494 73.2435C251.282 73.5533 251.391 75.4052 251.755 76.118C252.322 77.2275 253.966 77.8704 255.127 77.9682C255.856 78.0295 256.634 77.9838 257.338 77.7718C257.939 77.5906 258.413 77.164 259.054 77.1111C259.718 77.0564 261.2 76.9204 261.65 77.57C262.525 78.8351 262.85 80.7508 262.77 82.2614" stroke="#333333" stroke-width="2" stroke-linecap="round"/>
<path d="M208.516 74.4643C211.066 74.5988 213.615 74.7334 216.165 74.8679C218.83 75.0085 221.457 75.386 224.067 74.7245C225.282 74.4165 227.136 74.1362 227.22 72.55C227.284 71.3273 226.965 71.1981 225.8 70.6696C223.594 69.6692 220.796 69.9573 218.423 69.8321C215.287 69.6666 212.174 69.3676 209.094 70.1243C208.1 70.3683 205.385 71.0119 206.059 72.6537C206.516 73.7662 208.789 74.2546 209.869 74.3116" stroke="#333333" stroke-width="2" stroke-linecap="round"/>
<path d="M228.126 72.3613C228.612 72.9693 229.384 73.3837 229.819 74.0319C230.486 75.0269 230.228 76.5216 230.537 77.6434" stroke="#333333" stroke-width="2" stroke-linecap="round"/>
<path d="M230.972 77.8905C230.929 78.7059 230.47 78.9099 229.781 79.2222C228.248 79.9175 227.1 80.6609 225.391 80.7836C221.526 81.061 217.615 81.1734 213.738 81.2271C211.345 81.2603 209.088 81.3222 206.734 80.87C205.341 80.6026 202.053 79.5142 201.61 77.9102" stroke="#333333" stroke-width="2" stroke-linecap="round"/>
<path d="M202.316 77.2751C202.656 75.8398 203.214 73.7335 203.94 72.4548C204.408 71.6305 205.163 71.5777 205.987 71.4173" stroke="#333333" stroke-width="2" stroke-linecap="round"/>
<path d="M214.692 72.1006C213.733 70.9261 213.209 69.3411 212.365 68.068C211.918 67.3931 210.852 68.0436 210.352 68.4599C209.539 69.137 209.067 69.9843 209.693 71.0399C210.452 72.3203 211.621 72.1627 212.942 72.2324C213.355 72.2542 214.949 73.0601 214.407 72.3097C213.81 71.4832 212.42 70.3467 211.502 69.7906C210.102 68.9429 210.708 73.0884 212.311 70.9788C213.287 69.6943 210.658 69.1199 212.116 69.9475" stroke="#333333" stroke-width="2" stroke-linecap="round"/>
<path d="M218.704 72.5365C218.776 71.1644 218.24 69.5645 217.398 68.4832C216.919 67.8671 217.133 66.6088 217.935 66.3449C218.595 66.1274 220.439 65.755 220.943 66.4289C221.596 67.3024 222.182 69.829 221.119 70.6468C220.617 71.033 220.032 71.516 219.511 71.8569C219.104 72.124 219.705 70.9017 219.823 70.429C219.993 69.7521 220.189 69.0572 220.269 68.3607C220.314 67.9601 220.424 67.3268 220.294 66.9425C220.117 66.4224 219.458 67.3384 219.427 67.5567C219.185 69.2808 220.004 67.7782 218.738 67.869C217.982 67.9233 217.938 69.3583 218.869 69.4074" stroke="#333333" stroke-width="2" stroke-linecap="round"/>
<path d="M224.539 68.1376C225.907 68.4871 226.77 70.8648 226.571 72.1048C226.483 72.6522 225.61 73.3178 225.062 73.3202C223.95 73.325 224.15 72.4759 224.15 71.4915C224.15 70.6772 224.193 69.2798 224.762 68.6226C225.726 67.5098 225.998 69.3523 225.997 70.0076C225.995 70.6112 226.232 72.8324 225.257 71.7491C224.557 70.9714 225.091 71.2575 225.232 71.9844" stroke="#333333" stroke-width="2" stroke-linecap="round"/>
<path d="M224.079 72.596C223.563 72.5109 223.13 72.0339 222.597 71.8952C221.859 71.7032 219.492 71.5517 221.219 72.5322C222.135 73.0521 222.843 72.7399 223.707 73.0371C223.856 73.088 223.476 73.2946 223.32 73.303C222.762 73.3332 222.126 73.0755 221.597 72.9133" stroke="#333333" stroke-width="2" stroke-linecap="round"/>
<path d="M213.033 73.8062C212.408 73.7732 212.134 72.633 212.736 72.371C213.36 72.0991 215.924 73.0683 215.02 73.6744C214.549 73.9907 213.288 73.9134 214.5 73.3855C215.147 73.1035 215.524 72.817 216.221 72.8537" stroke="#333333" stroke-width="2" stroke-linecap="round"/>
<path d="M216.445 72.8655C217.757 73.5334 218.645 72.1789 219.806 72.4078C220.39 72.5229 219.579 73.3705 219.292 73.4266C218.791 73.524 217.253 73.3564 217.762 73.3832" stroke="#333333" stroke-width="2" stroke-linecap="round"/>
</svg>
