<svg width="306" height="191" viewBox="0 0 306 191" fill="none" xmlns="http://www.w3.org/2000/svg">
<path d="M128.715 25.7372C129.866 25.7372 130.894 25.2223 131.943 24.9891C133.254 24.6978 134.436 24.6304 135.817 24.6304C138.751 24.6304 141.686 24.6304 144.62 24.6304C145.758 24.6304 146.984 24.8485 148.115 24.9993C149.245 25.15 150.688 24.9401 151.763 25.276C153.931 25.9535 156.476 25.5688 158.701 26.0139C160.313 26.3363 162.333 26.2008 163.948 26.2905C165.509 26.3773 166.982 27.0284 168.559 27.0284" stroke="#333333" stroke-width="2" stroke-linecap="round"/>
<path d="M169.482 28.5042C169.482 26.2934 171.671 24.5634 172.659 22.7858C173.975 20.4163 176.544 18.8581 178.244 16.7804C179.085 15.7524 180.207 15.0253 181.205 14.2082C182.148 13.4372 183.624 12.4794 184.751 12.0458C185.777 11.6515 187.292 10.612 188.113 9.87327C188.685 9.35818 189.476 9.09633 190.101 8.664C190.629 8.29811 191.206 7.94928 191.71 7.55721C192.702 6.78524 193.982 6.40651 195.04 5.73307C195.365 5.52668 195.829 5.53322 196.188 5.40513C196.548 5.27654 196.814 4.96263 197.162 4.81074C197.922 4.478 198.734 4.34186 199.447 3.88842C199.938 3.57589 200.833 3.39287 201.394 3.23255C201.98 3.06511 202.518 2.86362 203.136 2.86362C203.604 2.86362 204.312 2.57617 204.817 2.48445C205.366 2.38451 205.812 2.12576 206.375 2.12576C208.619 2.12576 210.977 1.75684 213.302 1.75684C215.047 1.75684 216.905 1.9413 218.549 1.9413" stroke="#333333" stroke-width="2" stroke-linecap="round"/>
<path d="M218.734 1.75684C218.951 1.78103 219.349 2.1218 219.513 2.26924C219.661 2.40302 220.257 3.20668 220.312 3.2223C220.79 3.35901 221.132 4.8518 221.132 5.35389C221.132 6.39342 221.445 8.00669 221.788 9.03293C222.322 10.6367 222.423 12.3359 222.423 14.0237C222.423 17.1405 221.623 20.074 220.496 22.9702C219.557 25.3864 219.061 28.0089 218.18 30.4308C217.29 32.8791 216.107 35.5795 214.675 37.7684C212.794 40.6465 211.49 43.8504 209.695 46.8071C209.08 47.8202 208.582 49.0283 207.994 50.0865C207.388 51.1772 206.303 52.5113 205.452 53.4068C204.927 53.9596 204.481 54.6102 204.069 55.2515C203.826 55.6289 203.415 56.474 203.054 56.6862C202.786 56.8441 201.9 57.7441 201.763 58.0184" stroke="#333333" stroke-width="2" stroke-linecap="round"/>
<path d="M188.297 31.0867C188.297 30.1348 188.553 28.8892 188.943 28.0328C189.594 26.5992 189.883 24.8383 190.418 23.3392C191.445 20.4656 193.496 18.013 195.348 15.5917C197.411 12.8932 200.389 11.538 203.341 10.1603C204.458 9.63896 205.997 9.04089 207.256 8.95099C208.323 8.87479 209.306 8.21313 210.433 8.21313" stroke="#333333" stroke-width="2" stroke-linecap="round"/>
<path d="M127.977 25.3682C127.259 25.3682 127.524 25.1205 127.137 24.7328C126.74 24.3364 126.189 24.0577 125.846 23.6158C125.16 22.7338 124.097 22.1246 123.509 21.1255C123.345 20.8459 122.574 20.1447 122.259 20.0187C121.848 19.8542 121.834 19.4137 121.429 19.1887C120.566 18.7095 119.837 17.5965 119.123 16.8829C117.784 15.544 116.333 14.2574 114.993 12.9169C114.307 12.2305 113.677 11.8876 112.995 11.2054C112.559 10.7694 111.906 10.4434 111.386 10.1397C110.821 9.8102 110.388 9.18137 109.807 8.85865C109.197 8.5197 108.171 8.11788 107.686 7.65964C106.616 6.64924 104.987 6.24233 103.72 5.5383C102.68 4.96046 101.36 5.00878 100.308 4.48275C99.5309 4.09445 98.5273 3.97035 97.6328 3.97035C96.5064 3.97035 95.3492 3.47968 94.2202 3.41696C89.9798 3.18138 85.7052 3.41696 81.4922 3.41696" stroke="#333333" stroke-width="2" stroke-linecap="round"/>
<path d="M82.4146 3.97046C81.0886 3.97046 80.8275 6.75734 80.3855 7.75198C79.7611 9.15676 79.8321 11.1966 79.8321 12.7325C79.8321 13.6582 79.8321 14.584 79.8321 15.5097C79.8321 16.6306 79.4565 18.5183 79.9243 19.5474C80.1763 20.1019 79.9831 20.7929 80.201 21.3921C80.4282 22.0168 80.5699 22.6583 80.5699 23.329C80.5699 24.3213 81.0976 25.3194 81.2975 26.2189C81.7529 28.2683 82.3415 30.1854 82.927 32.2345C83.6516 34.7709 84.2534 37.3454 85.325 39.7565C86.408 42.1933 87.7207 44.5944 89.6087 46.5817C90.4195 47.4352 91.2753 48.465 92.2322 49.1642C93.0644 49.7724 94.5415 51.2825 94.9581 52.1156" stroke="#333333" stroke-width="2" stroke-linecap="round"/>
<path d="M114.511 28.8732C114.364 27.5457 113.229 26.3038 112.482 25.2249C112.154 24.7516 111.675 24.3819 111.416 23.8927C111.116 23.3258 110.381 23.1584 109.992 22.6834C108.632 21.0215 106.36 20.1406 104.745 18.7277C104.006 18.0815 103.197 17.2687 102.347 16.7908C101.846 16.5093 100.93 16.0925 100.533 15.7353C99.6213 14.9147 98.3884 14.4076 97.3151 13.7472C96.1842 13.0512 95.0352 12.4384 93.7693 12.0767C91.6382 11.4678 89.33 11.3491 87.0261 11.3491" stroke="#333333" stroke-width="2" stroke-linecap="round"/>
<path d="M87.2106 23.8926C87.2106 25.2723 88.1486 26.6287 88.5428 27.9098C88.7703 28.6492 89.1638 29.5828 89.5266 30.2566C90.0816 31.2873 90.5741 32.5916 91.2688 33.4847C91.9615 34.3754 92.8528 35.6109 93.2569 36.6616C93.5987 37.5504 94.5109 38.364 95.0503 39.2031C95.6925 40.2021 96.6485 41.9852 97.725 42.5235" stroke="#333333" stroke-width="2" stroke-linecap="round"/>
<path d="M213.015 20.5723C212.751 25.0674 211.831 29.4314 210.238 33.6795C209.484 35.6908 208.252 37.5097 206.743 39.0187C205.913 39.8495 204.988 40.59 204.161 41.4167C203.663 41.9144 203.094 42.5957 202.501 42.8924" stroke="#333333" stroke-width="2" stroke-linecap="round"/>
<path d="M204.53 55.6205C203.806 55.711 205.637 61.0068 205.637 61.8923C205.637 63.9025 205.821 65.8508 205.821 67.8874C205.821 69.7921 206.074 71.9763 205.309 73.698C205.199 73.9449 205.097 74.753 205.083 74.9893C205.056 75.4498 204.899 75.8754 204.899 76.2805C204.899 77.3215 204.53 78.2689 204.53 79.3242C204.53 81.3029 203.827 82.8091 203.413 84.6737C203.204 85.6118 202.54 86.4801 202.327 87.4406C202.148 88.2437 201.44 89.1537 201.394 89.9309C201.34 90.8508 200.891 91.6588 200.841 92.5134C200.79 93.3676 199.918 94.3414 199.918 95.1881C199.918 96.0235 199.324 97.567 198.904 98.324C198.315 99.3842 198.118 100.745 197.561 101.921C197.097 102.901 196.651 103.727 196.086 104.688C195.643 105.441 194.782 106.779 194.015 107.23C193.551 107.503 193.135 108.174 192.724 108.562C192.246 109.013 191.652 109.395 191.166 109.853C190.346 110.628 189.473 111.265 188.574 111.964C187.391 112.884 186.02 113.761 184.71 114.475C183.688 115.033 182.692 115.513 181.697 116.125C180.628 116.783 179.24 116.988 178.295 117.744C178.011 117.971 177.096 118.064 176.717 118.195C176.035 118.431 175.44 118.746 174.739 118.902C173.548 119.167 172.451 119.874 171.326 120.275C170.221 120.67 169.059 120.907 168.006 121.433C167.073 121.9 165.796 122.099 165.014 122.725C164.544 123.1 163.542 123.727 162.933 123.862C162.304 124.002 160.474 124.571 160.074 125.071C159.577 125.693 158.456 125.573 157.901 126.127C157.57 126.459 156.144 126.981 155.647 127.008C155.165 127.035 154.652 127.327 154.171 127.377C153.688 127.428 152.454 127.614 152.05 127.838C151.247 128.285 150.099 127.995 149.191 128.125C147.918 128.307 146.708 128.484 145.409 128.484C142.975 128.484 140.33 128.648 138.123 127.603C137.518 127.316 136.651 127.34 135.991 127.152C135.087 126.893 134.113 126.483 133.142 126.455C132.359 126.432 131.705 125.942 130.929 125.901C130.264 125.866 129.288 125.614 128.715 125.256C128.199 124.933 127.367 124.781 126.788 124.518C126.307 124.299 125.411 123.787 124.923 123.698C124.412 123.605 123.879 123.38 123.458 123.052C123 122.697 122.084 122.637 121.521 122.356C119.239 121.215 116.729 120.779 114.511 119.671C112.564 118.697 111.121 116.885 109.254 115.848C108.54 115.451 107.839 114.495 107.051 114.27C106.279 114.049 105.095 112.898 104.591 112.395C103.725 111.528 102.656 110.716 101.742 109.894C100.866 109.106 100.381 107.713 99.4775 106.809C98.6984 106.03 98.1883 105.208 97.6328 104.319C97.2491 103.705 96.4678 102.956 96.2494 102.3C96.1029 101.861 95.5115 101.532 95.5115 101.091C95.5115 99.8998 94.8061 98.7124 94.5994 97.5759C94.401 96.4847 94.2118 95.3326 93.8923 94.2146C93.5451 92.9995 93.3773 91.8045 92.97 90.6278C92.6134 89.5976 92.1912 88.6857 92.1912 87.6148C92.1912 86.7034 91.8222 85.8661 91.8222 84.9504C91.8222 84.722 91.7219 83.4313 91.5455 83.2902C91.3859 83.1625 91.3095 81.9405 91.2791 81.712C91.1827 80.9888 91.1275 80.3349 91.0844 79.6009C90.9549 77.4007 90.8999 74.9881 90.8999 72.6835C90.8999 70.1114 91.3887 67.6651 91.9657 65.2127C92.1115 64.593 92.3756 63.8181 92.3756 63.1836C92.3756 62.5992 92.7226 62.1352 92.7445 61.5644C92.7912 60.3512 92.9814 58.6253 93.5746 57.5574C94.0734 56.6597 93.7858 55.3696 94.3125 54.4215C94.4196 54.2287 94.3294 53.9099 94.497 53.7759C94.6313 53.6684 94.8642 53.6166 94.9581 53.4992C95.3126 53.0561 95.5115 52.7107 95.5115 52.1157" stroke="#333333" stroke-width="2" stroke-linecap="round"/>
<path d="M117.341 53.2504C117.004 53.2504 116.679 53.2047 116.38 53.381C116.233 53.4674 115.791 53.8548 115.715 53.9981C115.431 54.5347 114.767 55.1586 114.35 55.6001C113.846 56.1339 113.618 56.7918 113.306 57.4158C113.176 57.6756 113.069 58.0892 113.069 58.377C113.069 58.5524 113.014 59.0599 112.938 59.2314C112.685 59.8006 112.641 60.7466 112.641 61.3675C112.641 61.6879 112.641 62.0083 112.641 62.3287C112.641 62.7064 112.923 62.9384 112.962 63.29C113.035 63.9475 113.813 64.841 114.267 65.2955C114.783 65.8112 115.2 66.2949 115.792 66.7552C116.906 67.6217 118.427 67.8094 119.744 68.1021C121.306 68.4493 122.841 68.737 124.497 68.737C125.843 68.737 127.102 69.0574 128.448 69.0574C129.104 69.0574 129.628 68.8791 130.264 68.8438C130.617 68.8241 130.89 68.542 131.225 68.5234C131.582 68.5035 131.851 68.1649 132.133 68.1021C132.32 68.0605 132.731 67.8962 132.827 67.7283C132.974 67.4713 133.541 67.5046 133.682 67.1883C133.748 67.0392 134.208 66.5866 134.37 66.4941C134.57 66.38 134.604 65.9058 134.803 65.7465C134.902 65.6672 135.07 64.9841 135.07 64.8386C135.07 64.4976 135.221 64.0429 135.337 63.7172C135.549 63.1247 135.497 62.2704 135.497 61.6345C135.497 61.0388 135.62 60.2922 135.492 59.7121C135.346 59.0579 135.237 58.1639 134.91 57.576C134.51 56.8564 134.175 56.0016 133.895 55.2322C133.66 54.5844 133.103 54.2862 132.637 53.8675C132.344 53.6033 131.732 52.6567 131.332 52.6096C130.743 52.5403 130.083 51.9624 129.564 51.7314C128.097 51.0794 126.402 50.7939 124.764 50.7939C123.079 50.7939 121.451 51.0852 119.851 51.4407C119.103 51.6069 118.335 52.0117 117.661 52.3485C117.043 52.6576 116.74 53.1368 116.38 53.6776" stroke="#333333" stroke-width="2" stroke-linecap="round"/>
<path d="M124.924 52.8233C124.581 52.8233 123.39 53.7505 123.215 54.0575C122.932 54.5531 122.338 54.8885 122.064 55.3866C121.798 55.8702 121.474 56.3165 121.239 56.8344C120.456 58.5582 120.224 60.4392 120.224 62.3051C120.224 63.3318 120.474 64.3837 121.031 65.26C121.295 65.6745 121.637 66.0079 121.957 66.3636C122.12 66.5445 122.613 66.8702 122.675 67.0875C122.897 67.8646 123.746 66.6638 124.046 66.3636C124.577 65.8324 125.187 65.4273 125.588 64.7853C126.305 63.6391 127.594 62.2618 127.594 60.7742C127.594 58.8859 127.812 56.8112 127.036 55.0662C126.725 54.3669 126.635 53.5538 126.259 52.8767C126.055 52.5104 126.168 52.1043 125.778 52.3723C125.426 52.6143 124.991 53.4553 124.77 53.8379C124.139 54.927 123.072 55.795 122.527 56.9352C122.178 57.6636 121.755 58.3336 121.399 59.0654C121.133 59.6127 121.023 60.2313 120.812 60.7802C120.555 61.447 120.507 62.6885 120.735 63.3731C120.902 63.8759 121.022 64.5803 121.245 65.0582C121.386 65.3595 121.627 66.2576 122.04 66.2805C122.364 66.2986 122.477 65.9034 122.657 65.7228C122.972 65.4079 123.157 64.95 123.482 64.6251C123.936 64.1707 124.547 63.7826 124.924 63.2663C125.192 62.8991 125.775 62.4255 125.879 61.955C125.981 61.4947 126.353 61.0948 126.413 60.614C126.498 59.9388 126.633 59.3316 126.633 58.6382C126.633 57.7178 126.557 56.6618 126.289 55.7901C126.23 55.5993 126.18 54.7674 126.075 54.6627C125.96 54.5478 125.269 55.8707 125.191 56.0274C124.631 57.1472 124.091 58.46 123.749 59.6587C123.421 60.8065 122.622 61.9163 122.574 63.1595C122.56 63.5399 122.574 63.9239 122.574 64.3047C122.574 64.8311 123.295 63.68 123.429 63.4799C123.86 62.8328 124.225 62.1522 124.603 61.4744C124.908 60.9299 125.347 60.4103 125.565 59.813C125.759 59.2785 125.885 58.9611 125.885 58.3771C125.885 57.9588 125.671 57.6225 125.671 57.2556C125.671 56.8338 125.23 56.595 124.977 56.9886C124.62 57.5437 124.231 58.1129 123.939 58.6975C123.498 59.5797 123.193 60.6279 122.871 61.5575C122.814 61.7211 122.467 62.6219 122.467 62.3822C122.467 61.7349 122.692 60.9639 122.812 60.3233C122.961 59.519 123.272 58.5583 123.749 57.8431" stroke="#333333" stroke-width="2" stroke-linecap="round"/>
<path d="M172.986 52.8233C171.553 52.8233 170.365 54.1574 169.141 54.7695C168.822 54.9289 168.592 55.2099 168.286 55.3629C168.014 55.499 167.463 55.7779 167.301 56.0274C167.078 56.3731 166.656 56.6796 166.364 56.9886C166.116 57.2511 165.933 57.7389 165.67 57.9499C165.479 58.1026 165.177 58.6446 165.082 58.8577C164.926 59.2097 164.776 59.5045 164.601 59.8189C164.276 60.4047 164.054 61.334 164.014 62.0084C163.996 62.3212 163.694 62.7016 163.694 63.0765C163.694 63.2301 163.651 63.9038 163.563 64.014C163.192 64.4778 163.373 65.5342 163.373 66.1204C163.373 66.8385 163.519 67.2982 163.7 67.9301C163.851 68.4614 164.643 68.732 165.082 68.9269C165.676 69.1908 166.304 69.3514 166.898 69.6152C167.644 69.9471 168.602 70.2323 169.408 70.2323C171.099 70.2323 172.79 70.2323 174.481 70.2323C175.371 70.2323 176.261 70.2323 177.151 70.2323C177.743 70.2323 178.714 70.2542 179.234 69.9653C179.476 69.8308 179.928 69.8584 180.195 69.7992C180.547 69.721 180.914 69.6618 181.269 69.5974C181.956 69.4724 182.566 69.0575 183.286 69.0575C184.58 69.0575 185.821 67.6665 186.36 66.6484C187.067 65.3125 187.511 64.0873 187.511 62.5958C187.511 61.2064 187.711 59.7636 186.763 58.6975C186.332 58.212 185.903 57.5702 185.612 56.9886C185.246 56.2571 184.732 55.2773 184.147 54.6924C183.74 54.2858 183.277 53.5022 182.651 53.3633C182.361 53.2986 182.084 53.1645 181.797 53.0369C181.431 52.8745 181.034 52.8522 180.675 52.6928C180.099 52.4364 179.504 52.3251 178.86 52.2893C178.496 52.2691 178.177 52.0757 177.792 52.0757C177.325 52.0757 176.886 51.9689 176.403 51.9689C175.779 51.9689 174.727 51.7788 174.208 52.0757C173.956 52.2199 173.512 52.3143 173.247 52.3902C172.894 52.4908 172.657 52.6674 172.345 52.8233" stroke="#333333" stroke-width="2" stroke-linecap="round"/>
<path d="M174.267 54.6389C174.267 55.153 174.087 55.5815 173.864 56.0274C173.588 56.5782 173.626 57.4432 173.626 58.0566C173.626 58.8105 173.531 59.6913 173.787 60.4063C174.023 61.0692 174.315 61.7063 174.564 62.3525C175.081 63.6959 176.468 64.5039 177.044 65.7999C177.271 66.3099 177.759 66.7811 177.904 67.2892C178.118 68.0368 178.822 67.0873 178.943 66.8145C179.152 66.3428 179.309 65.8044 179.524 65.3193C179.779 64.7454 180.248 64.1208 180.248 63.4562C180.248 62.9274 180.355 62.3999 180.355 61.8482C180.355 61.1773 180.084 60.5926 180.035 59.9554C180.006 59.5808 179.746 59.0567 179.548 58.7449C179.399 58.5103 179.268 58.2779 179.097 58.0566C178.942 57.8555 178.662 57.7708 178.563 57.5463C178.429 57.2423 177.953 57.0394 177.75 56.7691C177.558 56.5131 177.278 56.2131 176.991 56.0214C176.427 55.6459 176.03 55.0099 175.525 54.5558C175.015 54.0964 175.118 55.2527 175.282 55.5467C175.492 55.9248 175.442 56.8304 175.442 57.2556C175.442 58.3279 175.627 59.3737 175.893 60.4063C176.086 61.156 176.464 61.8573 176.807 62.5424C177.098 63.1247 177.597 63.9379 178.065 64.4055C178.255 64.5963 178.967 65.6872 178.967 64.9455C178.967 64.2911 179.18 63.6469 179.18 62.9696C179.18 61.4802 179.455 59.4703 178.48 58.2168C177.817 57.3645 176.931 56.6437 176.38 55.707C176.142 55.3036 175.834 54.7575 175.525 54.449C175.303 54.2272 175.228 54.1542 175.228 54.538C175.228 55.0069 175.388 55.6325 175.549 56.0748C175.657 56.3722 175.859 56.7076 176 56.9886C176.067 57.1228 176.26 57.6643 176.35 57.7362C176.835 58.1245 176.925 59.0861 177.364 59.5519C178.087 60.3166 178.433 61.186 178.433 62.222" stroke="#333333" stroke-width="2" stroke-linecap="round"/>
<path d="M134.637 68.7986C134.664 69.0171 135.078 69.4088 135.224 69.5711C135.378 69.742 135.509 70.0598 135.695 70.1756C135.957 70.3394 136.097 70.8506 136.282 71.0824C136.448 71.2891 136.464 71.6588 136.543 71.9137C136.773 72.6616 136.904 73.4622 136.904 74.2395C136.904 75.0952 137.206 75.8876 137.206 76.7332C137.206 77.4788 137.281 78.2532 137.281 79.017C137.281 79.7168 137.433 80.4501 137.433 81.1161C137.433 81.7145 137.896 82.1466 137.962 82.7031C138.025 83.24 138.492 83.6129 138.717 84.0633" stroke="#333333" stroke-width="2" stroke-linecap="round"/>
<path d="M147.349 73.9409C148.249 73.9409 149.148 73.9409 150.048 73.9409C150.91 73.9409 151.509 74.2567 152.341 74.4524C153.865 74.811 154.985 75.6449 156.239 76.4808" stroke="#333333" stroke-width="2" stroke-linecap="round"/>
<path d="M159.255 79.1794C159.255 80.2304 159.802 81.8025 159.255 82.7599C158.668 83.7876 158.042 84.5844 157.35 85.4497C157.049 85.8261 156.662 86.0477 156.318 86.3228C155.957 86.6116 155.372 86.8016 155.092 87.0812C154.335 87.8384 153.03 87.8555 152.306 88.5804C151.663 89.2229 149.914 89.4976 149.016 89.4976C148.477 89.4976 147.654 89.646 147.226 89.3036C146.86 89.0108 146.081 89.1822 145.762 88.7833C145.163 88.0345 143.85 87.9733 143.187 87.3105C142.448 86.5721 141.61 85.8223 140.841 85.0529" stroke="#333333" stroke-width="2" stroke-linecap="round"/>
<path d="M160.207 76.7982C160.207 75.8522 159.856 74.5384 160.56 73.6586C161.143 72.93 161.963 72.0074 162.271 71.0835" stroke="#333333" stroke-width="2" stroke-linecap="round"/>
<path d="M147.644 74.1179C147.336 74.1179 147.028 74.1179 146.719 74.1179C146.404 74.1179 146.297 74.2974 146.008 74.3314C145.825 74.3529 145.422 74.6154 145.28 74.7425C145.08 74.9232 144.81 75.1347 144.585 75.2722C144.355 75.4126 144.193 75.6782 143.944 75.8099C143.763 75.9057 143.463 76.0378 143.32 76.1973C143.009 76.5427 142.628 76.7035 142.237 76.9642" stroke="#333333" stroke-width="2" stroke-linecap="round"/>
<path d="M118.759 95.3142C118.759 96.4248 120.38 97.4645 121.189 98.0934C122.252 98.9204 123.347 99.772 124.428 100.613C124.915 100.992 125.266 101.636 125.688 101.972C126.111 102.311 126.363 102.996 126.777 103.232C127.825 103.831 128.778 104.359 129.826 104.942C130.432 105.278 131.184 105.222 131.796 105.571C132.183 105.793 133.457 105.724 133.695 106.021C133.976 106.372 135.125 106.245 135.505 106.561C135.88 106.874 137.237 106.888 137.744 107.001C139.126 107.308 140.624 107.191 142.063 107.191C143.51 107.191 145.068 107.011 146.572 107.011C147.378 107.011 148.185 107.011 148.991 107.011C149.657 107.011 150.273 107.33 150.971 107.371C152.352 107.452 153.847 108.091 155.289 108.091C156.603 108.091 158.032 108.811 159.428 108.811C160.128 108.811 161.476 109.079 161.988 108.671C162.298 108.422 163.543 108.113 163.927 108.091C164.505 108.057 164.94 107.442 165.547 107.371C166.001 107.317 166.708 106.38 167.166 106.151C168.446 105.511 169.435 104.169 170.725 103.632C172.019 103.093 173 101.664 174.004 100.713C174.604 100.144 175.374 99.8687 175.944 99.4131C176.3 99.1284 177.041 98.9576 177.243 98.5533" stroke="#333333" stroke-width="2" stroke-linecap="round"/>
<path d="M177.063 98.1934C176.181 98.1934 174.937 99.103 174.274 99.633C173.44 100.3 171.866 101.218 170.855 101.443C169.676 101.705 168.515 102.803 167.346 102.872C166.79 102.905 166.227 103.451 165.637 103.582C164.955 103.733 164.281 103.772 163.567 103.772C162.34 103.772 161.011 103.952 159.698 103.952C158.334 103.952 156.821 103.772 155.559 103.772C154.905 103.772 154.43 103.592 153.76 103.592C153.236 103.592 152.619 103.052 152.05 103.052C150.743 103.052 149.572 102.584 148.271 102.512C147.047 102.444 145.786 101.972 144.582 101.972C143.203 101.972 141.823 101.972 140.443 101.972C137.68 101.972 135.197 102.332 132.436 102.332C130.996 102.332 130.115 101.811 128.757 101.423C128.364 101.31 127.215 100.927 126.897 100.673C126.593 100.429 125.709 99.9929 125.328 99.9929C124.906 99.9929 124.194 99.399 123.718 99.2631C123.39 99.1694 122.3 98.4688 122.138 98.1934C121.534 97.1652 120.382 96.5791 119.839 95.4941" stroke="#333333" stroke-width="2" stroke-linecap="round"/>
<path d="M207.081 72.54C208.714 74.1732 211.04 75.5511 212.196 77.5733C213.647 80.1142 214.792 82.806 216.072 85.5089C216.37 86.1377 216.8 86.6894 217.087 87.3355C217.353 87.9354 217.849 88.3784 218.183 88.9794C218.488 89.5289 218.977 90.4258 219.502 90.7654C220.11 91.1587 220.344 92.1957 220.872 92.7239C221.236 93.0885 221.658 94.0593 221.876 94.5505C222.117 95.0911 222.495 95.4866 222.79 96.0016C223.09 96.5268 223.486 96.9185 223.794 97.4731C224.038 97.9109 224.734 98.7702 225.164 99.0663C225.605 99.3691 226.058 99.9193 226.443 100.304C227.109 100.97 227.885 101.679 228.452 102.456C228.891 103.056 229.881 103.431 230.238 104.039C230.497 104.479 230.883 104.916 231.283 105.236C233.098 106.688 232.789 109.515 234.074 111.122C234.395 111.523 234.462 112.111 234.845 112.542C235.081 112.808 235.254 113.043 235.576 113.233C235.77 113.347 236.123 113.382 236.266 113.496C236.72 113.86 237.43 113.448 237.951 113.679C238.643 113.987 239.347 114.104 240.142 114.176C242.324 114.375 244.458 114.871 246.536 115.465C247.322 115.69 247.901 116.052 248.636 116.378C249.365 116.702 249.761 117.44 250.371 117.799C250.917 118.12 251.368 118.753 251.691 119.301C252.054 119.918 252.803 120.431 253.152 121.127C253.857 122.538 254.912 123.968 255.942 125.227C257.876 127.591 260.193 129.267 262.975 130.585C263.775 130.964 264.827 131.367 265.674 131.681C266.146 131.856 267.309 132.38 267.582 132.818C267.811 133.185 268.443 133.279 268.739 133.69C268.953 133.988 269.291 134.187 269.551 134.462C270.015 134.954 270.922 135.766 271.195 136.38C271.833 137.816 273.494 138.814 274.117 140.215C274.3 140.626 274.686 140.855 274.848 141.301C275.007 141.738 275.23 142.212 275.477 142.6C275.938 143.325 276.25 144.231 276.857 144.873C277.638 145.7 278.125 146.812 278.907 147.654C279.797 148.613 280.539 149.706 281.241 150.759C282.388 152.48 283.528 154.301 284.519 156.117C285.369 157.676 286.452 158.782 287.543 160.115C289.052 161.96 290.323 164.021 291.977 165.737C293.764 167.59 295.328 169.644 296.767 171.765C297.485 172.822 298.196 173.84 298.959 174.87C299.649 175.802 300.733 176.811 301.222 177.843C302.1 179.697 303.761 181.663 304.063 183.78C304.272 185.24 304.621 186.693 304.621 188.164" stroke="#333333" stroke-width="2" stroke-linecap="round"/>
<path d="M91.0923 66.6948C91.0923 71.1337 86.4123 72.5498 83.1466 74.0012C81.3779 74.7873 80.4379 76.3579 79.9399 78.1009C79.7372 78.8104 79.2609 79.8582 78.7729 80.4856C78.1807 81.247 78.027 82.621 77.129 83.1342C76.3875 83.5579 75.7683 84.261 75.0183 84.6361C73.9166 85.1869 72.8082 85.7439 71.771 86.4221C69.5906 87.8477 67.2045 89.1214 65.3373 90.9885C63.9254 92.4004 62.5974 94.0317 62.5974 96.103C62.5974 98.1827 62.7801 100.328 62.7801 102.313" stroke="#333333" stroke-width="2" stroke-linecap="round"/>
<path d="M66.4332 101.948C66.4332 102.344 66.4332 102.74 66.4332 103.136C66.4332 103.471 66.1081 103.778 66.0679 104.14C65.9882 104.857 64.958 107.203 64.424 107.57C63.8526 107.963 63.702 109.144 63.1859 109.661C62.8188 110.028 61.8342 111.058 61.6942 111.548C61.5792 111.95 60.4979 112.98 60.1315 113.273C59.6136 113.687 59.3205 114.196 58.6803 114.379C58.4213 114.453 58.1853 114.897 57.8482 114.917C57.4556 114.94 57.0544 114.917 56.6609 114.917C55.834 114.917 54.7602 115.249 53.8703 115.282C52.6465 115.328 51.4302 115.601 50.2171 115.648C48.4039 115.717 46.4792 115.815 44.7373 116.338C43.3328 116.759 41.683 116.602 40.3129 117.15C39.0318 117.662 37.3336 117.513 36.1117 118.124C33.887 119.236 31.0901 119.582 29.0895 121.219C28.2495 121.906 27.3612 122.465 26.5221 123.137C25.9666 123.581 24.636 124.502 24.4215 125.146" stroke="#333333" stroke-width="2" stroke-linecap="round"/>
<path d="M20.7683 127.886C19.9959 127.886 19.2077 128.35 18.6677 128.89C17.7063 129.852 16.3641 130.458 15.3798 131.366C14.5881 132.097 13.5113 132.627 12.7313 133.366C12.1436 133.922 11.1799 134.692 10.7626 135.375C10.3485 136.052 9.38312 136.606 9.07807 137.293C8.6999 138.144 7.8506 138.969 7.3428 139.759C6.62285 140.879 5.54897 142.168 5.25237 143.503C5.09744 144.2 4.80101 145.639 4.4101 146.253C3.92839 147.01 4.10665 148.067 3.74035 148.892C3.41855 149.616 3.40603 150.374 3.09089 151.084C2.34018 152.773 2.31966 154.983 2.31966 156.837C2.31966 158.352 1.95435 159.931 1.95435 161.495C1.95435 163.216 2.13701 164.934 2.13701 166.61" stroke="#333333" stroke-width="2" stroke-linecap="round"/>
<path d="M3.59839 171.907C3.59839 173.325 5.07956 174.176 5.24232 175.56C5.38491 176.772 6.08189 178.069 6.15562 179.396C6.23288 180.786 6.15562 182.204 6.15562 183.597C6.15562 184.758 5.24536 186.328 4.87701 187.433" stroke="#333333" stroke-width="2" stroke-linecap="round"/>
<path d="M62.2321 127.703C62.1856 127.332 61.1109 126.984 60.8012 126.851C57.9756 125.64 55.247 124.521 52.1858 124.05" stroke="#333333" stroke-width="2" stroke-linecap="round"/>
<path d="M38.8516 132.087C37.4899 131.776 36.0395 131.904 34.6504 131.904C31.368 131.904 28.1908 132.464 24.9695 133" stroke="#333333" stroke-width="2" stroke-linecap="round"/>
<path d="M53.2817 161.861C48.1045 161.861 42.9273 161.937 37.7556 161.678" stroke="#333333" stroke-width="2" stroke-linecap="round"/>
<path d="M61.5014 175.012C59.8374 176.676 57.9249 177.986 56.0216 179.396" stroke="#333333" stroke-width="2" stroke-linecap="round"/>
<path d="M34.2851 176.108C33.4497 176.501 32.432 176.573 31.5351 176.757C29.3411 177.209 27.0963 177.408 24.9695 178.117" stroke="#333333" stroke-width="2" stroke-linecap="round"/>
<path d="M24.2389 153.093C23.5808 152.508 22.3894 153.302 21.7628 153.539C19.2545 154.491 17.1224 156.103 14.7406 157.294" stroke="#333333" stroke-width="2" stroke-linecap="round"/>
<path d="M211.282 108.707C211.68 108.826 211.854 109.359 212.094 109.66C212.544 110.226 213.113 110.692 213.647 111.172C215.587 112.919 217.55 114.412 219.867 115.648" stroke="#333333" stroke-width="2" stroke-linecap="round"/>
<path d="M203.611 122.771C204.344 125.887 205.104 128.914 206.35 131.904" stroke="#333333" stroke-width="2" stroke-linecap="round"/>
<path d="M193.016 130.808C193.514 133.299 194.592 135.649 195.208 138.115" stroke="#333333" stroke-width="2" stroke-linecap="round"/>
<path d="M170.001 141.403C170.094 144.662 171.31 147.126 172.741 149.988" stroke="#333333" stroke-width="2" stroke-linecap="round"/>
<path d="M89.9963 119.849C89.9963 121.872 87.4535 123.382 85.9778 124.415" stroke="#333333" stroke-width="2" stroke-linecap="round"/>
<path d="M96.9374 139.759C96.9041 140.025 96.1915 140.87 95.9835 141.078C95.061 142.001 93.7719 142.641 92.5536 143.047" stroke="#333333" stroke-width="2" stroke-linecap="round"/>
<path d="M143.698 150.901C144.23 150.967 145.516 153.173 145.89 153.6C147.413 155.338 149.148 157.095 151.187 158.207" stroke="#333333" stroke-width="2" stroke-linecap="round"/>
<path d="M181.143 163.687C182.885 163.212 184.401 162.546 186.258 162.409C190.228 162.114 194.138 161.861 198.131 161.861" stroke="#333333" stroke-width="2" stroke-linecap="round"/>
<path d="M227.356 131.356C228.652 131.356 229.792 131.571 231.05 131.904C235.821 133.167 240.451 134.936 245.074 136.654" stroke="#333333" stroke-width="2" stroke-linecap="round"/>
<path d="M233.567 156.198C239.115 156.198 244.031 158.012 249.275 159.669" stroke="#333333" stroke-width="2" stroke-linecap="round"/>
<path d="M250.554 176.291C251.176 176.291 251.404 176.682 251.944 176.94C253.185 177.533 254.244 178.476 255.313 179.325C257.746 181.256 259.706 183.503 262.427 185.058" stroke="#333333" stroke-width="2" stroke-linecap="round"/>
<path d="M209.456 171.724C209.715 172.705 210.201 173.231 210.876 173.957C211.692 174.832 212.262 176.02 213.068 176.94C215.412 179.614 218.025 181.712 221.146 183.414" stroke="#333333" stroke-width="2" stroke-linecap="round"/>
<path d="M174.202 177.569C175.581 178.218 177.025 178.716 178.404 179.396C180.437 180.399 182.991 181.243 184.614 182.866" stroke="#333333" stroke-width="2" stroke-linecap="round"/>
<path d="M142.42 178.117C141.737 179.567 139.907 180.417 138.584 181.222C135.958 182.82 132.964 183.931 130.181 185.241" stroke="#333333" stroke-width="2" stroke-linecap="round"/>
<path d="M90.9293 81.2917C89.5962 81.2917 88.3533 83.4503 87.3864 84.2238C86.5837 84.866 86.3578 86.1218 85.6761 86.6671C85.0466 87.1707 85.3402 88.5835 84.8752 89.1648C84.4119 89.744 84.3322 91.319 84.3322 92.0425C84.3322 93.0737 84.0879 93.867 84.0879 94.8524C84.0879 95.7509 83.8414 96.5092 83.6128 97.3093C83.3652 98.1758 83.5992 99.4458 83.5992 100.35C83.5992 102.213 84.9207 103.81 85.7983 105.345C86.1955 106.04 86.6573 106.673 87.1557 107.314C87.6188 107.909 88.0122 108.791 88.6081 109.255C88.9815 109.545 89.2344 110.279 89.7076 110.368C90.3864 110.495 91.0492 112.374 91.6623 112.757C91.9926 112.963 92.2207 113.277 92.5039 113.544C92.6806 113.711 93.6412 114.72 93.7527 114.752C94.3807 114.932 95.1928 115.924 95.5174 116.476C95.9257 117.17 96.6555 117.626 97.0377 118.295C97.4072 118.942 98.0414 119.918 98.6259 120.386C98.893 120.599 99.9293 122.241 99.9697 122.585C100.083 123.548 100.891 124.321 100.947 125.272C100.981 125.854 101.329 128.559 101.802 128.937C102.208 129.262 102.169 131.199 102.169 131.747C102.169 132.751 102.603 133.878 102.657 134.801C102.715 135.775 102.6 136.759 102.657 137.733C102.708 138.591 103.146 139.622 103.146 140.543C103.146 142.62 103.146 144.697 103.146 146.774C103.146 147.751 103.146 148.729 103.146 149.706C103.146 150.76 102.224 150.858 101.68 151.538C100.544 152.959 98.2153 152.638 96.549 152.638C94.5129 152.638 92.4768 152.638 90.4406 152.638" stroke="#333333" stroke-width="2" stroke-linecap="round"/>
<path d="M107.3 114.033C107.798 114.095 107.524 115.678 107.911 115.987C108.53 116.483 108.767 117.455 109.377 118.064C109.966 118.653 110.505 119.449 110.734 120.25C110.812 120.524 111.636 121.948 111.82 122.096C112.664 122.771 113.846 124.436 114.386 125.381C114.721 125.967 115.651 126.304 116.096 126.86C116.585 127.472 117.323 127.964 117.928 128.449C118.435 128.853 120.436 130.426 120.494 130.892C120.544 131.294 121.425 131.932 121.661 132.168C122.171 132.677 122.49 133.268 122.992 133.77C123.391 134.169 123.819 134.801 124.403 134.801C124.74 134.801 125.926 135.287 126.168 135.48C126.365 135.638 127.801 135.992 128.068 136.023C128.891 136.12 129.636 136.267 130.512 136.267C132.17 136.267 133.514 135.369 135.032 135.032C136.631 134.677 138.064 133.951 139.674 133.593C141.267 133.239 142.968 132.358 144.561 132.358C145.295 132.358 146.268 131.802 147.004 131.638C147.605 131.505 148.644 131.561 149.081 131.014C149.369 130.654 150.827 130.454 151.28 130.403C152.114 130.311 152.888 129.472 153.724 129.426C154.139 129.403 155.595 128.781 155.977 128.503C156.399 128.196 157.336 127.779 157.877 127.716C158.385 127.656 159.567 126.708 160.076 126.44C160.733 126.094 161.508 125.788 162.085 125.326C162.512 124.985 163.121 124.693 163.551 124.349C164.086 123.922 164.787 123.406 165.452 123.073" stroke="#333333" stroke-width="2" stroke-linecap="round"/>
<path d="M205.523 78.3596C206.163 78.3596 207.396 80.0966 207.912 80.6129C208.589 81.2903 209.008 82.9858 209.202 83.8572C209.458 85.0121 210.13 86.0805 210.396 87.2779C210.661 88.4713 210.898 89.8521 210.898 91.0651C210.898 93.6417 210.959 96.105 210.423 98.5173C210.295 99.0925 210.165 99.7599 210.165 100.35C210.165 100.961 209.708 101.533 209.677 102.06C209.636 102.744 209.58 105.314 209.066 105.725C208.41 106.25 208.75 108.373 208.088 108.902C207.791 109.139 207.946 109.965 207.668 110.313C207.374 110.68 207.048 111.333 206.989 111.834C206.872 112.827 205.568 113.693 205.292 114.657C205.023 115.599 204.024 116.712 203.324 117.453C202.453 118.376 201.528 119.265 200.691 120.195C199.971 120.995 198.849 121.398 198.193 122.218C197.502 123.082 195.898 123.819 194.962 124.431C193.663 125.28 192.054 125.856 190.849 126.86C189.906 127.646 188.209 128.434 187.076 128.937C185.762 129.521 184.19 130.785 182.745 130.892C181.927 130.953 180.887 131.672 180.126 132.005C179.224 132.399 178.237 132.821 177.37 133.335C176.498 133.852 175.171 133.825 174.37 134.448C173.818 134.877 172.895 135.147 172.185 135.276C170.867 135.516 169.353 136.52 168.031 137C166.559 137.535 165.167 138.301 163.741 138.901C161.047 140.035 158.098 140.18 155.434 141.398C154.142 141.989 152.206 142.053 150.792 142.131C148.941 142.234 147.032 143.105 145.158 143.339C143.872 143.5 142.426 143.842 141.208 143.842C139.978 143.842 138.43 143.589 137.231 143.855C135.886 144.154 134.488 144.086 133.077 144.086C131.542 144.086 130.042 144.819 128.557 144.819C127.513 144.819 126.695 145.787 125.761 146.054C125.483 146.134 124.874 147.022 124.648 147.262C124.274 147.658 123.8 148.542 123.426 148.728" stroke="#333333" stroke-width="2" stroke-linecap="round"/>
<path d="M123.304 148.65C123.304 149.568 123.069 150.305 122.655 151.134C122.276 151.892 122.089 152.75 121.717 153.493C121.508 153.912 121.441 154.381 121.255 154.789C121.096 155.139 120.862 155.605 120.821 155.976C120.776 156.376 120.6 156.838 120.393 157.162C120.18 157.497 120.282 158.119 120.048 158.431C119.727 158.859 119.479 159.68 119.338 160.197C119.1 161.069 118.843 161.936 118.613 162.804C118.526 163.133 118.213 163.547 118.213 163.86C118.213 164.218 117.866 164.509 117.841 164.819C117.801 165.313 117.447 165.664 117.351 166.095C117.284 166.396 117.215 167.135 116.972 167.302C116.759 167.448 116.648 168.202 116.592 168.454C116.492 168.904 116.162 169.295 116.096 169.757C116.045 170.11 115.739 170.553 115.578 170.875C115.33 171.371 115.159 171.957 114.923 172.482C114.615 173.166 114.45 173.916 114.213 174.627C114.077 175.035 114.078 175.528 113.868 175.896C113.489 176.559 113.571 177.489 113.316 178.255C113.179 178.665 113.123 179.26 113.123 179.69C113.123 180.106 112.837 180.384 112.757 180.745C112.598 181.463 112.274 182.177 112.123 182.856C112.047 183.195 111.81 183.489 111.66 183.787C111.535 184.038 111.206 184.383 111.143 184.601C111.012 185.062 110.476 185.83 110.081 186.146C109.72 186.435 108.97 187.002 108.777 187.388" stroke="#333333" stroke-width="2" stroke-linecap="round"/>
<path d="M89.6567 152.127C89.6151 152.46 88.3913 152.651 88.1047 152.81C87.6915 153.039 87.1981 153.206 86.8562 153.548C86.3328 154.071 85.3874 154.247 84.8145 154.734C84.4794 155.019 84.0329 155.117 83.6695 155.355C83.2808 155.609 82.9167 156.03 82.4831 156.197C82.147 156.326 81.9141 156.626 81.5864 156.79C81.168 156.999 80.7041 157.406 80.3517 157.714C79.6075 158.365 78.8287 158.97 78.1651 159.694C77.159 160.791 75.3611 162.23 75.137 163.798C75.021 164.61 74.6335 165.422 74.6335 166.253C74.6335 167.017 74.4603 167.765 74.3852 168.516C74.2286 170.082 74.0127 171.648 74.0127 173.234C74.0127 174.041 74.0127 174.848 74.0127 175.655C74.0127 176.42 74.288 176.988 74.3783 177.711C74.5321 178.941 74.7784 180.828 75.6888 181.739C76.2863 182.336 76.5997 183.218 77.1443 183.884C77.4557 184.265 77.8021 184.731 78.0134 185.153C78.3678 185.862 79.0547 187.067 79.9102 187.257C81.0531 187.511 82.1702 188.438 83.4488 188.505C84.3423 188.553 85.1391 188.858 86.0285 188.878C86.6651 188.892 87.3095 189.112 87.9461 189.126C88.5521 189.14 89.2934 189.117 89.8774 189.278C90.6985 189.505 91.623 189.34 92.4572 189.492C93.2054 189.628 94.1041 189.499 94.8645 189.499C96.8349 189.499 98.8054 189.499 100.776 189.499C101.584 189.499 102.378 189.404 103.162 189.375C103.71 189.354 104.227 189.25 104.776 189.25C104.953 189.25 105.628 189.212 105.77 189.099C106.171 188.778 106.916 188.852 107.315 188.533C107.771 188.168 108.409 188.089 108.901 187.761" stroke="#333333" stroke-width="2" stroke-linecap="round"/>
<path d="M110.64 131.392C110.64 130.916 109.864 130.151 109.398 130.151C109.129 130.151 108.45 130.374 108.281 130.585C108.181 130.71 107.995 130.753 107.88 130.868C107.708 131.041 107.754 131.425 107.687 131.668C107.354 132.877 108.781 133.54 109.646 133.972C109.982 134.14 110.554 134.198 110.764 134.565C110.93 134.856 111.364 135.721 111.688 135.303C112.126 134.74 112.468 134.061 112.812 133.441C113.017 133.072 113.46 132.734 113.495 132.289C113.513 132.062 113.816 131.162 113.93 130.958C114.825 129.346 111.384 128.148 111.384 130.399" stroke="#333333" stroke-width="2" stroke-linecap="round"/>
<path d="M115.358 149.892C115.358 149.373 115.793 148.037 115.385 147.63C114.867 147.111 113.636 147.208 113.068 147.533C112.571 147.817 112.502 149.208 112.502 149.706C112.502 150.07 112.378 150.416 112.378 150.823C112.378 151.37 112.626 151.889 112.626 152.375C112.626 152.567 112.794 153.481 112.999 153.493C113.409 153.517 113.829 153.493 114.24 153.493C115.342 153.493 116.07 153.222 116.91 152.568C117.508 152.103 118.402 151.246 118.579 150.451C118.639 150.182 118.917 149.52 118.4 149.52C117.965 149.52 117.53 149.52 117.096 149.52" stroke="#333333" stroke-width="2" stroke-linecap="round"/>
<path d="M97.7271 161.811C97.5931 161.795 97.4787 160.695 97.4787 160.508C97.4787 159.991 96.9652 159.928 96.7338 159.639C96.5816 159.448 95.6162 159.562 95.368 159.576C94.9576 159.601 94.7778 160.563 94.5955 160.79C94.207 161.276 94.4568 163.096 94.7472 163.605C95.218 164.429 95.3764 165.479 95.4922 166.405C95.5245 166.664 98.0688 165.756 98.4168 165.598C98.9989 165.334 99.5313 164.987 100.086 164.695C100.802 164.318 101.144 163.733 101.7 163.177C102.114 162.763 102.197 162.329 102.197 161.749C102.197 161.165 101.426 161.191 101.017 161.191C100.472 161.191 99.9872 161.284 99.4653 161.315C99.102 161.336 98.835 161.816 98.5962 161.935" stroke="#333333" stroke-width="2" stroke-linecap="round"/>
<path d="M101.576 177.952C101.641 177.43 101.855 177.113 101.39 176.648C101.096 176.355 100.625 176.09 100.21 176.09C99.646 176.09 99.3837 176.135 98.9066 176.4C98.3903 176.687 98.3498 177.355 98.0306 177.766C97.7266 178.157 97.8238 178.947 97.8513 179.442C97.8811 179.98 98.9822 180.055 99.3412 180.214C100.063 180.535 102.464 180.409 102.7 181.235C102.918 181.998 103.298 181.157 103.411 180.932C103.641 180.472 103.852 179.97 104.059 179.504C104.494 178.527 105.549 177.526 105.549 176.462C105.549 175.506 105.183 174.467 103.997 174.731C103.698 174.797 102.976 175.455 102.845 175.717C102.527 176.353 102.088 176.873 101.7 177.455" stroke="#333333" stroke-width="2" stroke-linecap="round"/>
<path d="M85.1861 174.496C85.1861 174.244 85.5364 173.813 85.6693 173.574C85.8701 173.212 85.8889 172.62 85.8889 172.212C85.8889 171.687 85.6775 171.216 85.0934 171.07C84.8051 170.998 83.9911 170.82 83.7611 171.05C83.3553 171.456 83.0144 171.696 82.6825 172.212C82.3862 172.673 82.1993 173.159 82.1993 173.705C82.1993 174.369 82.5237 174.723 82.9948 175.194C83.49 175.689 83.8311 176.147 84.1125 176.78C84.3048 177.213 84.2944 177.81 84.5273 178.23C84.584 178.332 84.6785 178.77 84.8152 178.537C84.9265 178.348 85.0493 178.098 85.2057 177.942C86.2663 176.881 87.7716 176.511 88.8757 175.462C89.2616 175.096 89.4028 174.734 89.4028 174.189C89.4028 173.686 89.3441 173.362 88.9636 173.003C88.5042 172.569 87.6075 173.303 87.2018 173.486C86.6448 173.736 85.7538 173.712 85.4497 174.32" stroke="#333333" stroke-width="2" stroke-linecap="round"/>
<path d="M155.986 134.562C156.249 134.533 156.849 134.26 157.041 134.106C157.343 133.864 157.496 133.542 157.496 133.159C157.496 131.855 156.546 131.649 155.446 131.649C154.606 131.649 153.662 132.483 153.264 133.159C152.843 133.875 152.673 134.698 152.077 135.293C151.719 135.652 151.652 135.641 152.209 135.641C152.365 135.641 152.635 135.743 152.749 135.857C152.956 136.064 153.179 136.104 153.396 136.288C153.981 136.786 155.052 136.939 155.77 137.152C156.295 137.307 156.853 137.317 157.388 137.451C157.71 137.532 158.051 137.583 158.383 137.583C158.967 137.583 159.601 137.729 160.002 137.283C160.235 137.024 160.099 136.362 159.87 136.133C159.236 135.498 157.759 134.886 156.849 134.886" stroke="#333333" stroke-width="2" stroke-linecap="round"/>
<path d="M188.14 119.24C188.737 119.165 189.003 118.115 189.003 117.622C189.003 116.721 187.509 116.741 187.007 117.076C186.111 117.673 185.248 119.184 186.174 120.187C186.532 120.576 186.878 121.017 187.217 121.452C187.432 121.729 187.849 122.22 187.918 122.531C188.078 123.253 188.504 122.404 188.703 122.046C188.915 121.664 189.354 120.774 189.704 120.541C190.335 120.121 190.742 120.014 191.569 119.995C192.128 119.983 193.148 119.705 193.403 119.132C193.601 118.688 193.535 118.155 193.535 117.676C193.535 117.16 192.629 117.298 192.3 117.298C191.551 117.298 191.3 118.147 190.706 118.353C190.417 118.453 190.085 118.464 189.782 118.569C189.574 118.641 189.435 118.808 189.219 118.808" stroke="#333333" stroke-width="2" stroke-linecap="round"/>
<path d="M92.2163 103.81C92.2163 103.257 91.8618 102.839 91.2991 102.839C90.2942 102.839 90.1015 104.237 90.7297 104.865C91.3523 105.488 92.2209 105.641 92.9716 106.016C93.3438 106.202 93.8019 106.386 94.1825 106.532C94.4564 106.637 94.9237 107.251 95.1776 107.251C95.6047 107.251 94.7284 105.438 94.674 105.297C94.5462 104.965 94.3049 104.716 94.2664 104.35C94.2411 104.11 94.0596 103.922 94.0506 103.679C94.0415 103.432 94.0717 103.193 93.9967 102.953C93.7387 102.128 94.0757 101.779 93.1275 101.305C92.7034 101.093 92.6616 101.078 92.546 101.598C92.4765 101.911 92.54 102.301 92.54 102.624" stroke="#333333" stroke-width="2" stroke-linecap="round"/>
</svg>
