<svg width="333" height="249" viewBox="0 0 333 249" fill="none" xmlns="http://www.w3.org/2000/svg">
<path d="M33.9646 25.6862C33.9646 24.5131 34.692 23.5579 35.311 22.6087C36.5622 20.6902 38.4891 18.5843 40.0234 16.9105C40.8342 16.026 41.6513 15.0526 42.2354 14.0013C42.8132 12.9613 44.3036 12.256 45.1686 11.4528C46.0949 10.5927 47.4762 10.2427 48.5827 9.67363C49.7186 9.08943 50.7765 8.40491 51.9246 7.84637C55.2822 6.21294 58.6958 4.64464 62.0947 3.13398C62.6604 2.88259 63.1903 2.40647 63.8138 2.32854C64.1377 2.28805 64.8087 2.46895 65.0761 2.26843C66.1347 1.47445 67.6949 1.01821 69.0191 1.01821C70.2613 1.01821 71.5035 1.01821 72.7457 1.01821C74.2083 1.01821 76.5344 0.864385 77.8909 1.45098C78.7599 1.82677 79.834 1.94058 80.752 2.26843C82.5035 2.89398 84.5081 3.02011 86.1135 4.0476C88.1352 5.34148 90.5477 5.7328 92.5089 6.98083C94.4056 8.1878 96.655 9.12453 98.7601 9.89001C99.0114 9.9814 99.5893 10.3432 99.6977 10.5873C100.1 11.4919 100.828 11.9629 101.561 12.5828C102.578 13.4432 103.884 14.0519 104.819 14.9871C105.708 15.8767 106.526 16.8861 107.428 17.7881C108.477 18.8371 109.582 19.2495 110.361 20.6131C111.06 21.8361 111.941 22.9507 112.621 24.1594C113.551 25.8136 114.956 27.2904 115.975 28.9199C117.147 30.7955 117.706 32.1415 117.706 34.3416C117.706 36.7522 118.285 39.6278 119.665 41.6987C122.264 45.596 123.765 50.0169 123.765 54.6818" stroke="white" stroke-width="2" stroke-linecap="round"/>
<path d="M33.9647 25.2534C33.9647 25.6973 33.6247 26.2734 33.3636 26.5998C33.1587 26.856 33.3155 27.7414 33.3155 28.0664C33.3155 29.0294 33.0585 31.0225 32.4981 31.7931C32.0821 32.365 31.8395 34.0389 31.8008 34.7744C31.7477 35.7838 31.6329 36.7144 31.356 37.6836C31.1499 38.4051 30.7189 39.0295 30.7189 39.8474C30.7189 40.4645 30.7189 41.0816 30.7189 41.6987C30.7189 43.3598 29.8533 45.01 29.8533 46.6756C29.8533 49.4853 29.2042 52.3232 29.2042 55.1146" stroke="white" stroke-width="2" stroke-linecap="round"/>
<path d="M34.3974 34.1252C34.3771 34.3078 33.9636 35.3378 33.8564 35.4235C33.5326 35.6826 33.4083 37.2393 33.3275 37.6835C33.0865 39.0089 33.0991 40.3385 33.0991 41.6987C33.0991 42.8876 33.5963 43.7999 34.0728 44.8483C34.8388 46.5334 35.2349 48.1622 36.5612 49.4886C39.3436 52.2709 43.5066 52.3016 47.2122 52.3016C49.4257 52.3016 50.7608 50.9657 52.682 50.2579C54.8473 49.4602 56.3747 47.5906 57.3463 45.4854C57.7675 44.5728 58.3328 43.7679 58.6807 42.8287C58.9582 42.0793 59.1067 41.3494 59.3298 40.5687C59.8479 38.7552 59.7145 36.7505 59.7145 34.8705C59.7145 32.8069 58.4192 32.0688 57.4064 30.3024C56.2431 28.2734 55.1493 27.6219 53.2229 26.5517C52.3937 26.091 51.872 25.6862 50.8908 25.6862C50.0092 25.6862 49.1276 25.6862 48.2461 25.6862C47.1681 25.6862 46.0902 25.6862 45.0123 25.6862C43.495 25.6862 42.4548 26.1287 41.1174 26.8643C40.2194 27.3581 39.3915 28.3239 38.7732 29.1483C38.1124 30.0294 37.1842 30.6153 36.5612 31.4805C35.5052 32.9472 34.5535 34.0895 33.9646 35.8563" stroke="white" stroke-width="2" stroke-linecap="round"/>
<path d="M60.58 34.3416C60.58 33.2683 62.7789 32.3766 63.6094 31.9613C65.1198 31.2061 66.9908 31.1271 68.6825 31.0958C70.1961 31.0678 71.7126 31.0958 73.2266 31.0958C74.137 31.0958 75.4555 30.853 76.3281 31.1439C77.7661 31.6232 78.7037 33.152 80.0547 33.6924" stroke="white" stroke-width="2" stroke-linecap="round"/>
<path d="M80.7039 33.6923C81.0249 30.4823 83.5984 28.7195 85.26 26.227C85.6808 25.5959 87.5879 24.9805 88.2774 24.6522C88.8491 24.38 89.7736 24.0009 90.3932 23.955C91.0503 23.9063 91.6909 23.5472 92.3406 23.5222C92.8618 23.5022 93.1734 23.0894 93.687 23.0894C95.2511 23.0894 96.8791 22.4646 98.3513 23.3058C99.5609 23.997 100.333 25.0927 101.501 25.8063C103.695 27.1473 105.35 28.7466 106.189 31.264C106.471 32.1079 106.887 32.8566 106.887 33.7404C106.887 34.7582 106.887 35.776 106.887 36.7938C106.887 37.9362 106.574 39.5541 105.913 40.5085C105.077 41.7159 104 42.7068 103.412 44.0788C102.747 45.6316 100.593 46.863 99.0967 47.4929C97.412 48.2022 94.8974 47.7574 93.0379 47.7574C91.2923 47.7574 89.3074 48.0632 87.7124 47.2044C85.9526 46.2568 85.4631 45.1278 84.3825 43.4297C83.2866 41.7075 82.3355 39.8669 81.5694 37.9719C80.7746 36.0058 80.4875 34.8975 80.4875 32.8268" stroke="white" stroke-width="2" stroke-linecap="round"/>
<path d="M107.848 34.798C107.903 34.3514 111.293 35.0327 111.721 35.0327C112.454 35.0327 113.742 34.7776 114.394 35.1501C114.532 35.2288 115.511 35.6875 115.359 35.3848" stroke="white" stroke-width="2" stroke-linecap="round"/>
<path d="M115.125 35.3848C115.086 35.6915 114.757 35.9278 114.772 36.3498C114.794 36.935 115.756 37.2665 116.233 36.9628C116.793 36.6064 116.556 34.4304 115.477 35.15" stroke="white" stroke-width="2" stroke-linecap="round"/>
<path d="M32.1434 38.7886C31.8996 38.7886 31.6479 38.9571 31.4653 39.1146C31.0396 39.4816 30.2253 39.8953 29.6917 40.0731C28.8687 40.3475 28.1168 40.8093 27.3051 41.1099C26.8598 41.2748 26.3869 41.4153 25.9228 41.4816C25.6228 41.5244 25.0005 40.9592 24.7751 41.1621C24.4083 41.4923 24.1622 42.1188 24.1622 42.6031C24.1622 42.9188 25.0162 42.8069 25.2185 42.6879C26.3191 42.0405 24.4762 40.7428 24.1622 41.3707" stroke="white" stroke-width="2" stroke-linecap="round"/>
<path d="M72.8659 37.4038C74.5959 35.4576 77.486 34.626 79.8842 33.7267C82.694 32.673 85.2056 32.0756 88.1916 32.0107C88.6193 32.0014 89.0046 31.8355 89.4083 31.7202C89.9521 31.5648 90.6087 31.7116 91.1696 31.6475C93.1535 31.4208 95.1457 31.246 97.1438 31.1845C99.2908 31.1184 102.481 30.5629 104.407 31.8473" stroke="white" stroke-width="2" stroke-linecap="round"/>
<path d="M104.407 31.8473C104.278 31.1999 103.007 30.6591 102.537 30.3765C101.703 29.8753 100.828 29.4619 99.9765 28.9964C98.4525 28.1637 97.0205 27.1949 95.5004 26.3725C94.3682 25.76 93.5352 25.3201 92.3045 24.9017C91.3206 24.5671 90.4295 24.0133 89.4446 23.7123C87.297 23.0561 85.1036 22.0672 82.9983 21.2609C81.4301 20.6603 78.8968 20.901 77.5236 21.9691C76.828 22.5101 75.7664 23.2021 75.4444 24.0392C75.0162 25.1526 74.6425 26.3109 74.246 27.4439C73.5084 29.5512 72.9376 31.5884 72.412 33.7539C72.0972 35.0507 72.2122 35.8319 72.2122 37.0769" stroke="white" stroke-width="2" stroke-linecap="round"/>
<path d="M69.1072 35.4427C69.1072 31.725 69.7428 26.8778 65.3302 25.7098C64.367 25.4548 63.315 25.3402 62.325 25.5554C60.7352 25.901 59.6891 26.8981 58.3665 27.7798C56.9683 28.712 55.5476 29.8495 54.072 30.6307C52.21 31.6165 50.2014 32.4635 48.4247 33.5633C46.9807 34.4572 45.6831 35.2923 44.0667 35.8967C42.5726 36.4553 40.6419 36.6305 39.6905 38.0575" stroke="white" stroke-width="2" stroke-linecap="round"/>
<path d="M39.6905 38.0575C41.3114 38.0575 42.5745 37.564 44.1121 37.2403C45.2734 36.9958 46.4842 36.9536 47.5894 36.514C48.5382 36.1366 49.4898 35.745 50.4675 35.4517C53.3965 34.573 56.4885 35.0934 59.5195 34.8797C61.0253 34.7736 62.511 34.6379 64.0228 34.6255C64.599 34.6208 65.9888 34.3585 66.5014 34.8071C66.9786 35.2246 67.3327 35.48 67.9632 35.6061" stroke="white" stroke-width="2" stroke-linecap="round"/>
<path d="M43.7762 38.8746C43.7762 39.9013 43.7645 41.3804 44.3482 42.2884C44.6721 42.7923 45.1444 43.2454 45.4104 43.7774" stroke="white" stroke-width="2" stroke-linecap="round"/>
<path d="M68.6169 36.4232C68.1412 37.4935 69.2706 39.0864 69.2706 40.2546C69.2706 41.0352 69.2242 41.6407 68.7803 42.3065" stroke="white" stroke-width="2" stroke-linecap="round"/>
<path d="M58.4845 44.9213C59.4553 44.9213 60.4851 44.3165 61.4443 44.0951C63.3065 43.6654 65.1839 43.4424 67.0734 43.1237C68.8271 42.8279 70.5958 42.6334 72.3757 42.6334C73.6726 42.6334 75.1129 42.4375 76.3705 42.7968C77.3177 43.0674 78.3398 42.9624 79.2759 43.2145C80.3001 43.4902 81.3629 43.7513 82.3356 44.1768C83.6003 44.7302 84.8739 45.2871 86.1034 45.9019" stroke="white" stroke-width="2" stroke-linecap="round"/>
<path d="M99.6678 31.8473C100.57 33.6512 101.792 35.7652 101.792 37.8305C101.792 39.103 101.033 40.3935 100.485 41.4894" stroke="white" stroke-width="2" stroke-linecap="round"/>
<path d="M85.1229 43.614C86.1001 43.4637 87.0153 42.9429 88.001 42.7969C90.1327 42.4811 92.2751 42.6164 94.4018 42.3429C96.3647 42.0906 98.2965 41.4895 100.321 41.4895" stroke="white" stroke-width="2" stroke-linecap="round"/>
<path d="M45.4104 44.2676C47.7699 44.2676 50.2658 43.9878 52.583 44.3766C53.6542 44.5563 55.7011 45.0796 56.5234 45.9019" stroke="white" stroke-width="2" stroke-linecap="round"/>
<path d="M84.1423 35.606C84.1086 36.4494 83.6024 39.567 85.3045 39.1742C85.997 39.0144 87.084 37.9701 87.084 37.204C87.084 36.0987 86.2658 35.8276 85.2954 35.5243C83.9078 35.0907 84.2186 37.9858 84.9231 38.4388C85.9974 39.1293 87.4835 37.5413 86.8298 36.514C85.9832 35.1836 85.1229 37.064 85.1229 37.894C85.1229 38.4442 85.7791 38.1071 86.0671 37.9303C86.4648 37.6863 86.8605 36.4714 86.1034 36.8499C85.128 37.3376 85.5815 38.2209 86.4303 38.2209" stroke="white" stroke-width="2" stroke-linecap="round"/>
<path d="M54.8891 38.7113C54.0343 38.7113 54.3653 40.2076 54.8074 40.5816C55.7098 41.3452 55.7898 41.2121 56.2328 40.2729C56.5797 39.5375 57.3624 38.4553 56.1239 38.2301C54.8953 38.0067 54.7816 39.8706 54.8982 40.745C54.9664 41.2565 55.7514 41.289 56.0331 40.9447C56.6955 40.1351 56.6741 38.6499 56.1965 37.767C55.1638 35.8581 53.3586 39.7404 53.9993 40.4726C54.2041 40.7066 55.191 40.4548 55.3612 40.3001C55.8698 39.8377 56.4164 38.2953 56.1602 37.6036C55.8612 36.7964 53.2668 38.6475 54.072 39.8552" stroke="white" stroke-width="2" stroke-linecap="round"/>
<path d="M74.4047 36.2864C74.4047 37.3902 74.3398 38.4196 74.7536 39.4652C74.9567 39.9781 75.5191 41.6408 75.9748 41.8687" stroke="white" stroke-width="2" stroke-linecap="round"/>
<path d="M47.7144 52.8589C45.8079 53.0495 44.5174 55.7517 43.4889 57.1231C42.9563 57.8333 42.4697 58.6617 41.8801 59.3134C41.3606 59.8876 40.8779 60.1743 40.5233 60.8834C39.7693 62.3915 38.6244 63.6516 37.9066 65.167C37.1445 66.7761 36.6088 68.6982 36.1137 70.4586C35.5479 72.4703 34.3091 74.3069 34.0979 76.4188C33.9283 78.1146 33.0609 79.7344 33.0609 81.4584C33.0609 82.6304 32.8864 83.8336 32.8864 85.0346C32.8864 86.2371 33.5836 87.3707 33.7587 88.5526C33.9593 89.907 34.0362 91.608 34.6406 92.8168C34.9806 93.4967 36.2781 93.8559 36.9278 94.0864C37.2077 94.1857 37.4468 94.4893 37.6837 94.5419C38.5733 94.7396 39.4606 95.21 40.2907 95.5595C40.6712 95.7197 41.1569 95.6154 41.57 95.7727C41.9261 95.9084 42.3166 96.0212 42.6942 96.0829C44.5995 96.3939 46.8593 96.4705 48.7999 96.4705C50.5056 96.4705 52.2113 96.4705 53.917 96.4705C55.7599 96.4705 57.9168 96.1251 59.5768 96.9551C61.826 98.0797 63.9891 99.5603 66.1088 100.909C67.1568 101.576 67.9973 102.711 69.2586 103.099C70.2131 103.393 70.7964 103.972 71.8559 103.972C73.0329 103.972 74.2557 104.67 75.4611 104.67C76.3892 104.67 77.3629 104.106 78.3007 103.981C78.7698 103.919 79.4143 103.574 79.7157 103.187C80.3297 102.397 81.692 101.977 82.565 101.462C83.3882 100.975 83.877 100.178 84.8328 99.8238C85.3644 99.6269 85.8134 99.0484 86.3059 98.7383C87.026 98.2849 88.044 97.8823 88.6706 97.304C89.3902 96.6397 90.0708 96.2647 90.9772 95.8115C91.7121 95.444 92.6075 95.3385 93.3031 94.9005C94.0281 94.444 94.8271 94.594 95.6097 94.2027C96.1146 93.9503 96.6387 93.791 97.1216 93.5049C97.4183 93.3291 98.007 93.0189 98.3427 92.9816C98.6566 92.9467 98.7635 92.6459 99.0017 92.6327C99.6685 92.5956 100.311 92.3301 100.959 92.2838C101.486 92.2462 102.059 92.1364 102.529 91.8961C103.146 91.581 103.699 91.7149 104.322 91.5763C104.955 91.4357 105.372 91.2371 106.067 91.2371C106.619 91.2371 107.172 91.2371 107.724 91.2371C109.217 91.2371 109.85 91.0872 110.777 89.8512C111.077 89.4511 111.746 88.9756 111.911 88.5235C112.122 87.9432 112.393 87.3333 112.696 86.7887C113.846 84.7177 114.325 82.8921 114.043 80.4214C113.837 78.6193 113.355 76.8838 112.822 75.1493C112.585 74.3784 112.405 73.5152 112.221 72.707C112.1 72.1767 111.718 71.0448 111.387 70.6524C110.461 69.5526 110.673 67.8671 110.128 66.6401C109.575 65.3976 108.91 64.1645 108.335 62.8992C107.794 61.71 107.239 60.7461 106.416 59.7398C105.884 59.0904 105.384 58.383 104.671 57.9081C103.994 57.4565 103.714 56.5453 103.276 55.9117C102.891 55.3564 102.621 54.733 102.229 54.1672C101.694 53.3943 100.826 52.9448 100.31 52.1514C99.5824 51.0319 98.6934 50.1176 97.4317 49.6219C96.9355 49.427 94.9894 48.8801 94.9894 48.3232" stroke="white" stroke-width="2" stroke-linecap="round"/>
<path d="M3.80917 95.2742C4.54516 93.1528 5.712 91.2482 6.49258 89.1407C7.13668 87.4016 7.99009 85.4798 8.81283 83.8344C10.1122 81.2356 11.4493 78.7782 13.2515 76.4298C13.9291 75.547 14.6408 74.1946 15.0674 73.1814C15.6129 71.8859 16.3801 70.8034 17.1657 69.6607C18.5968 67.5791 20.5108 65.9277 22.0483 63.9509C22.6755 63.1445 23.2886 62.3224 23.965 61.5399C24.6412 60.7576 25.4132 60.0513 26.144 59.3205C26.4187 59.0458 26.7394 58.4667 27.0519 58.2714C27.9203 57.7286 29.0051 56.8791 29.5941 56.1428C30.0793 55.5363 31.0775 54.2864 31.7731 54.0546" stroke="white" stroke-width="2" stroke-linecap="round"/>
<path d="M4.17235 95.6373C3.72563 95.6932 3.59231 98.3954 3.5469 98.6839C3.41324 99.533 3.27031 100.38 3.1232 101.226C3.01695 101.837 3.17851 102.478 3.0425 103.082C2.5369 105.329 1.81176 107.774 1.81176 110.083C1.81176 111.451 1.44859 112.781 1.44859 114.149C1.44859 115.087 1.44859 116.025 1.44859 116.963C1.44859 120.209 0.712938 123.512 1.12578 126.769C1.32268 128.322 1.8647 129.752 2.35651 131.228C2.81031 132.589 3.08676 134.042 3.6276 135.364C4.77147 138.16 5.80235 141.047 6.81541 143.898C7.41691 145.591 7.83141 147.763 8.81284 149.306C9.33487 150.126 10.2379 150.818 10.9717 151.454C12.2724 152.582 12.9623 154.388 13.6954 155.913C14.4028 157.384 15.3243 159.611 16.7017 160.644" stroke="white" stroke-width="2" stroke-linecap="round"/>
<path d="M17.0648 160.826C17.0995 161.381 17.7374 162.1 18.0636 162.571C18.5733 163.308 19.1865 164.219 19.829 164.861C20.5848 165.617 21.322 166.503 22.2299 167.081C23.2173 167.709 23.9251 169.03 24.6914 169.905C25.6221 170.969 26.7363 171.918 27.4151 173.174C28.0436 174.336 29.3165 175.186 30.1389 176.22C31.8227 178.337 34.2458 179.471 36.5851 180.71C39.1628 182.074 42.1595 183.179 44.9279 184.069C46.6225 184.614 48.3668 184.926 50.0728 185.542C52.2532 186.328 54.2904 187.186 56.5796 187.61C57.9549 187.864 59.3436 187.926 60.7257 188.104C62.3396 188.312 63.8695 188.928 65.5075 188.972C68.284 189.045 71.0309 189.335 73.8301 189.335C76.3558 189.335 79.0203 189.576 81.5373 189.325C83.383 189.14 85.1932 188.972 87.0555 188.972C88.2865 188.972 89.6398 188.925 90.8284 188.568C91.7277 188.298 92.6095 187.958 93.5118 187.7C94.9502 187.29 96.3177 187.411 97.7992 187.247C98.7588 187.14 99.7521 187.254 100.674 186.934C101.822 186.535 102.955 186.141 104.145 185.885C106.033 185.477 107.962 184.889 109.814 184.351C111.816 183.77 113.977 183.242 115.907 182.435C116.98 181.986 118.941 181.503 119.761 180.609C120.133 180.202 120.688 180.023 121.113 179.67C122.304 178.681 123.465 177.763 124.724 176.846C127.306 174.964 129.705 172.615 131.826 170.228C133.28 168.592 134.496 166.836 135.831 165.083C137.042 163.494 138.817 161.964 140.36 160.685C140.779 160.338 141.45 159.394 141.45 158.829" stroke="white" stroke-width="2" stroke-linecap="round"/>
<path d="M115.302 48.7886C116.13 50.3482 117.583 51.2736 119.176 51.9562C120.089 52.3476 121.281 52.8114 122.02 53.5098C123.293 54.712 124.945 55.5734 126.015 57.0002C127.438 58.8971 129.162 60.9173 131.1 62.3166C132.209 63.1175 133.041 63.883 133.864 64.9496C134.969 66.3823 136.206 67.6023 137.102 69.2269C138.127 71.0843 139.443 72.6819 141.006 74.1196C141.516 74.5886 143.358 75.5839 143.447 76.3894C143.537 77.1993 144.839 78.4253 145.344 79.0223C147.032 81.0175 148.753 83.48 149.45 86.0335C150.155 88.6198 152.406 90.5965 152.698 93.3675C152.913 95.4069 154.445 97.1734 154.524 99.3093C154.553 100.081 154.609 100.888 154.796 101.64C155.363 103.907 156.005 105.901 155.835 108.247C155.693 110.218 156.054 112.267 155.523 114.179C155.103 115.689 155.31 117.371 155.25 118.92C155.211 119.948 154.509 121.008 154.342 122.048C154.186 123.028 153.798 124.035 153.576 125.014C153.087 127.164 152.738 129.23 151.982 131.308C151.783 131.856 151.537 132.32 151.296 132.862C150.799 133.981 150.586 135.351 150.247 136.595C149.849 138.051 149.677 139.651 149.218 141.074C149.04 141.623 148.598 142.088 148.391 142.627C148.104 143.372 147.944 144.198 147.624 144.917C146.676 147.05 147.043 149.617 145.183 151.212C144.941 151.42 144.8 152.128 144.678 152.413C144.095 153.774 143.564 155.753 142.539 156.831C142.049 157.347 141.641 158.915 141.087 159.192" stroke="white" stroke-width="2" stroke-linecap="round"/>
<path d="M116.755 81.8369C117.334 81.9658 117.81 83.4954 118.177 83.8848C118.748 84.4915 119.017 85.3395 119.66 85.8721C121.035 87.0117 121.999 88.8383 122.848 90.3815C123.887 92.2708 124.823 94.1471 125.753 96.0913C126.692 98.0555 127.895 99.8266 128.739 101.852C132.196 110.147 134.854 118.709 135.266 127.768C135.298 128.464 135.648 137.402 134.731 137.402" stroke="white" stroke-width="2" stroke-linecap="round"/>
<path d="M30.3205 92.7319C28.9262 94.9007 27.7395 97.1674 26.598 99.4505C24.9036 102.839 22.9375 106.233 21.6851 109.811C20.297 113.777 19.9528 117.817 19.1228 121.927C18.5107 124.957 17.7912 128.016 17.7912 131.127C17.7912 133.4 17.7912 135.673 17.7912 137.946" stroke="white" stroke-width="2" stroke-linecap="round"/>
<path d="M28.5046 107.44C28.7447 108.641 30.708 109.316 31.6319 109.841C32.4506 110.306 33.2531 111.021 34.0934 111.395C35.2693 111.917 36.3857 112.809 37.5233 113.433C39.913 114.743 43.0292 115.286 45.6441 116.045C47.3334 116.536 49.1908 116.701 50.9504 116.701C52.2064 116.701 53.6015 116.832 54.8141 117.165C56.1583 117.535 57.3883 117.533 58.7585 117.7C60.9976 117.973 63.2661 117.763 65.4872 118.063C67.7255 118.365 70.0129 118.335 72.2664 118.335C74.4306 118.335 76.8364 118.459 78.985 118.113C83.2646 117.426 87.3535 116.101 91.6152 115.248C93.0569 114.96 94.5439 114.908 95.953 114.482C97.1939 114.107 98.3828 113.744 99.6452 113.433C100.853 113.135 102.182 113.13 103.418 112.928C104.402 112.767 105.241 112.671 106.213 112.444C108.619 111.882 111.041 111.341 113.304 110.335C114.459 109.822 115.732 109.511 116.835 108.893C117.541 108.497 118.064 107.904 118.762 107.511C119.345 107.183 119.73 106.623 120.285 106.27C120.9 105.879 121.584 105.566 122.202 105.16C123.493 104.313 124.84 103.208 126.378 102.901" stroke="white" stroke-width="2" stroke-linecap="round"/>
<path d="M126.378 102.901C126.378 106.549 122.414 109.552 119.468 111.173C115.75 113.218 112.134 115.176 108.22 116.741C107.683 116.956 106.956 116.906 106.475 117.165C105.674 117.596 104.691 117.897 103.822 118.154C101.889 118.724 99.8829 118.788 98.1522 119.889C97.1603 120.52 96.2244 121.08 95.0653 121.463C93.9856 121.819 92.9752 122.351 91.8775 122.653C90.8352 122.94 89.7638 123.215 88.7906 123.702C88.0559 124.069 86.8591 124.54 86.2484 125.054C85.44 125.735 83.4606 125.847 82.4755 126.103C80.8616 126.523 79.1699 126.51 77.5525 126.87C76.8012 127.037 76.1312 127.233 75.3533 127.233C73.4528 127.233 71.2125 127.566 69.351 127.132C62.8264 125.61 55.7462 125.883 49.6491 122.835C48.5848 122.302 47.483 121.767 46.3705 121.331C45.1654 120.86 44.0757 120.057 42.8094 119.748C40.1303 119.093 36.7976 117.766 34.5272 116.176C32.9212 115.052 32.0666 113.303 30.8551 111.788C30.2553 111.038 29.8157 110.097 29.1906 109.397C28.9188 109.093 28.323 108.204 28.323 107.803" stroke="white" stroke-width="2" stroke-linecap="round"/>
<path d="M28.6862 110.346C28.9034 111.142 29.9919 111.558 30.3003 112.252C30.7272 113.213 31.3808 114.033 31.9547 114.926C32.4167 115.644 32.7935 116.43 33.4074 117.044C34.0038 117.64 34.8904 118.187 35.3644 118.88C36.1583 120.04 38.1078 120.282 39.2988 120.877C40.727 121.592 42.1203 122.065 43.3945 123.056C46.1565 125.205 49.0743 127.202 52.05 129.049C55.202 131.005 58.8367 132.294 61.8253 134.496C62.787 135.205 63.8772 135.818 64.9627 136.312C66.7591 137.131 68.653 138.365 70.6725 138.491C71.9568 138.571 73.1861 139.221 74.4454 139.379C75.6568 139.53 76.7562 139.216 77.9358 139.076C80.4647 138.777 82.841 138.252 85.0782 136.897C88.9013 134.582 91.7646 131.159 95.2267 128.413C97.9788 126.23 101.261 124.562 104.235 122.683C107.463 120.645 110.868 118.704 114.313 117.054C116.276 116.114 118.87 114.678 120.023 112.747C120.622 111.742 121.082 110.779 121.829 109.892C123.088 108.396 124.576 107.051 125.471 105.261" stroke="white" stroke-width="2" stroke-linecap="round"/>
<path d="M126.56 106.532C124.525 106.758 128.465 115.939 128.739 116.923C129.215 118.632 130.373 120.25 130.373 122.068C130.373 124.358 130.258 126.663 129.788 128.908C128.99 132.723 126.934 136.593 124.845 139.843C123.107 142.547 121.174 144.313 118.449 146.047C116.405 147.348 114.424 148.75 112.316 149.931C108.769 151.917 105.396 154.471 101.562 155.923C97.7017 157.385 93.8365 158.996 89.8498 160.09C87.3917 160.764 84.894 161.36 82.4149 161.956C81.4053 162.198 80.3056 162.568 79.2574 162.632C77.1216 162.761 74.9279 162.806 72.791 162.823C71.3174 162.835 69.3506 163.137 67.9487 162.642C64.7228 161.503 61.2612 161.014 57.9919 160.019C56.242 159.486 54.1937 159.182 52.615 158.203C50.5311 156.911 48.2871 155.797 46.1384 154.551C45.2048 154.01 44.4442 153.188 43.566 152.564C42.1974 151.591 41.5396 150.142 40.2874 149.114C38.1329 147.344 35.3961 146.634 33.2056 144.927C31.8661 143.884 30.9967 142.375 30.1792 140.892C29.4522 139.573 28.8815 138.142 28.323 136.746C27.9391 135.786 27.815 134.773 27.4555 133.81C26.5509 131.389 25.8404 128.884 25.226 126.375C24.579 123.733 24.4727 120.841 24.3685 118.134C24.223 114.35 25.7537 111.126 27.4151 107.803" stroke="white" stroke-width="2" stroke-linecap="round"/>
<path d="M144.609 152.451C144.609 156.257 142.584 159.97 142.584 163.794C142.584 168.247 142.318 172.399 141.053 176.667C140.075 179.969 140.963 184.852 140.963 188.279C140.963 192.985 140.558 197.57 140.558 202.278" stroke="white" stroke-width="2" stroke-linecap="round"/>
<path d="M18.6256 162.579C18.6256 166.761 20.1752 170.65 20.6286 174.731C20.8216 176.468 21.0562 178.024 21.0562 179.795C21.0562 181.429 21.807 183.001 21.8664 184.544C21.9263 186.1 22.2715 187.567 22.2715 189.09C22.2715 191.148 23.0816 193.297 23.0816 195.188C23.0816 198.685 22.6766 202.05 22.6766 205.518" stroke="white" stroke-width="2" stroke-linecap="round"/>
<path d="M35.2835 55.8062C37.9215 55.8062 40.5662 54.8877 43.1548 55.6273" stroke="white" stroke-width="2" stroke-linecap="round"/>
<path d="M100.937 51.334C101.201 51.0988 101.582 50.8956 101.921 50.8073C102.894 50.5533 103.67 49.8656 104.594 49.4755C105.909 48.9203 107.584 48.7676 108.987 48.6506" stroke="white" stroke-width="2" stroke-linecap="round"/>
<path d="M22.0634 207.288C22.0634 215.137 25.0022 221.127 30.6514 226.182C32.8885 228.183 36.8685 229.379 39.5575 230.762C43.937 233.014 49.1193 234.204 53.2348 236.742C59.2291 240.438 66.3966 241.34 73.0509 243.326C77.1286 244.543 80.6329 246.128 84.9151 246.221C92.4341 246.384 99.9218 247.366 107.498 247.366C115.108 247.366 122.589 247.427 130.145 246.348C138.695 245.126 148.484 246.052 156.609 243.231C165.851 240.022 175.002 236.667 184.091 233.052C189.58 230.869 195.288 229.348 200.79 227.232C207.165 224.779 212.739 220.799 218.443 217.149C228.639 210.623 237.029 203.016 245.543 194.502C249.578 190.467 254.795 186.529 259.347 183.114C263.366 180.101 267.275 176.636 271.689 174.208C275.734 171.984 277.788 161.982 277.987 157.605C278.268 151.414 281.469 144.998 285.43 140.429C288.303 137.113 290.955 135.031 294.686 132.636C301.087 128.527 307.747 124.716 315.329 123.316C318.994 122.64 324.602 121.714 327.797 124.271" stroke="white" stroke-width="2" stroke-linecap="round"/>
<path d="M144.586 167.783C147.21 172.315 153.873 175.353 158.327 177.516C161.033 178.831 165.144 178.089 168.06 178.089C172.259 178.089 176.457 178.089 180.656 178.089C186.642 178.089 190.908 177.257 196.114 174.654C200.923 172.249 204.817 170.333 208.646 166.384C211.15 163.802 212.828 160.121 214.435 156.905C216.182 153.412 218.895 148.129 222.451 146.154C223.619 145.505 223.949 144.321 225.027 143.482C226.337 142.463 228.041 141.931 229.321 140.874C234.15 136.885 240.311 135.149 246.052 133.304C249.285 132.265 252.326 130.7 255.626 129.71C258.235 128.927 260.899 127.863 263.228 126.433C268.129 123.426 272.505 120.817 278.114 119.118C281.251 118.167 285.556 115.683 288.865 115.683C292.915 115.683 296.965 115.683 301.015 115.683C307.22 115.683 313.387 115.11 319.655 115.11C322.33 115.11 326.951 114.045 328.497 116.828C329.928 119.403 331.232 118.675 331.232 121.98C331.232 124.667 327.859 123.76 326.652 122.553" stroke="white" stroke-width="2" stroke-linecap="round"/>
<path d="M39.812 203.853C41.1267 205.036 42.903 205.116 44.5195 205.698C52.9205 208.722 62.6651 210.289 71.4923 211.487C78.9385 212.497 86.9883 211.976 94.5209 211.868C100.376 211.785 104.255 208.259 109.598 206.461C113.997 204.98 118.401 203.561 122.257 200.99" stroke="white" stroke-width="2" stroke-linecap="round"/>
<path d="M59.8508 229.045C63.851 229.914 67.9951 231.335 72.1285 231.335C84.4734 231.335 94.7085 229.597 106.194 224.846C111.068 222.83 115.938 220.467 120.54 218.166" stroke="white" stroke-width="2" stroke-linecap="round"/>
<path d="M122.83 235.915C126.864 234.767 133.237 234.251 136.57 231.335C139.925 228.399 144.036 226.155 146.876 222.747" stroke="white" stroke-width="2" stroke-linecap="round"/>
<path d="M165.197 184.387C165.924 186.786 167.648 188.129 169.078 190.112C171.226 193.092 172.561 196.258 173.213 199.845" stroke="white" stroke-width="2" stroke-linecap="round"/>
<path d="M163.48 234.197C169.43 229.171 175.373 223.457 177.348 215.558C178.062 212.7 177.793 209.668 177.793 206.716" stroke="white" stroke-width="2" stroke-linecap="round"/>
<path d="M196.687 183.814C205.6 184.705 208.71 198.048 208.71 205.125C208.71 210.858 208.473 215.205 205.847 220.456" stroke="white" stroke-width="2" stroke-linecap="round"/>
<path d="M216.725 170.646C223.208 173.887 227.941 178.095 233.583 182.383C238.083 185.803 236.764 191.199 236.764 196.41" stroke="white" stroke-width="2" stroke-linecap="round"/>
<path d="M234.474 148.89C238.07 150.977 241.979 151.47 245.352 153.915C248.793 156.41 252.069 158.668 253.94 162.63C255.697 166.35 255.658 170.648 255.658 174.654" stroke="white" stroke-width="2" stroke-linecap="round"/>
<path d="M250.505 139.156C257.512 139.156 264.961 144.441 268.572 150.098C269.848 152.098 269.563 154.78 271.116 156.333" stroke="white" stroke-width="2" stroke-linecap="round"/>
<path d="M268.254 128.851C274.034 129.073 277.695 135.708 279.704 140.302" stroke="white" stroke-width="2" stroke-linecap="round"/>
<path d="M285.477 122.751C287.457 123.572 288.709 125.421 288.709 127.514" stroke="white" stroke-width="2" stroke-linecap="round"/>
<path d="M303.679 118.498C303.902 119.034 304.56 119.529 304.907 120.029C305.261 120.538 305.259 121.129 305.38 121.73" stroke="white" stroke-width="2" stroke-linecap="round"/>
<path d="M323.412 117.307C323.443 118.135 323.922 118.854 323.922 119.689" stroke="white" stroke-width="2" stroke-linecap="round"/>
</svg>
