<svg width="565" height="360" viewBox="0 0 565 360" fill="none" xmlns="http://www.w3.org/2000/svg">
<path d="M441.828 1.80573C443.315 1.80573 444.586 2.07702 445.948 2.57649C447.082 2.99228 448.182 3.44149 449.363 3.71935C450.159 3.90665 451.157 3.7715 451.888 4.09144C453.264 4.69324 455.069 4.84102 456.539 5.16786C457.535 5.3891 458.7 6.20272 459.662 6.58978C460.978 7.11909 462.413 7.64359 463.835 7.7858C465.52 7.95428 467.165 8.75193 468.832 9.03497C470.714 9.35458 472.46 9.98153 474.24 10.5233C477.59 11.5428 480.996 12.539 484.167 14.1247C485.892 14.9869 487.712 15.6443 489.43 16.5034C490.775 17.1762 492.635 17.1692 494.081 17.54C496.279 18.1037 498.479 18.6046 500.699 19.1347C502.935 19.6685 505.163 20.2363 507.397 20.7825C508.067 20.9465 508.867 21.3375 509.563 21.4071C510.421 21.4929 511.199 21.4872 512.034 21.6729C515.576 22.4598 519.409 24.3304 522.679 25.9652C524.147 26.6995 525.581 27.6324 526.985 28.4901C529.827 30.2269 533.341 31.0133 536.074 32.9553C537.711 34.1179 539.24 35.5688 540.858 36.7825C542.12 37.7284 542.937 39.059 544.194 40.0649C545.643 41.2241 546.689 42.7105 548.234 43.7726C548.803 44.1635 549.188 45.0122 549.656 45.5267C550.743 46.7225 551.562 48.1508 552.712 49.3008C555.023 51.612 556.953 53.5504 558.453 56.4503C558.821 57.1624 559.451 57.6979 559.941 58.3108C560.201 58.6357 559.986 59.6888 559.995 60.0915C560.018 61.2006 560.473 62.2426 560.473 63.334C560.473 64.6241 560.572 65.8227 560.699 67.0948C560.946 69.5699 561.041 72.0682 560.951 74.5766C560.885 76.4469 559.821 78.5815 559.33 80.3972C559.048 81.4427 558.41 82.3467 558.068 83.3739C557.86 83.9975 557.317 84.771 556.965 85.3407C556.016 86.873 555.046 88.3343 554.24 89.9786C553.441 91.6109 552.828 93.5168 551.623 94.8557C550.849 95.7151 549.664 96.8819 549.23 97.9653C548.996 98.5506 548.173 99.4005 547.556 99.4005" stroke="#333333" stroke-width="2" stroke-linecap="round"/>
<path d="M521.005 116.862C521.005 117.617 522.225 118.258 522.785 118.643C523.547 119.166 523.903 119.963 524.486 120.464C525.373 121.223 525.877 122.386 526.745 123.188C527.796 124.157 530.19 125.474 531.662 125.474C533.436 125.474 535.229 126.67 537.031 126.67C538.428 126.67 540.577 127.139 541.815 126.484C542.986 125.864 544.123 125.094 545.403 124.636C546.94 124.088 547.797 121.095 548.021 119.64C548.183 118.589 548.669 117.224 549.111 116.251C549.742 114.862 549.32 111.885 548.991 110.404C548.561 108.469 548.251 106.53 547.849 104.61C547.563 103.246 547.353 101.706 546.121 101.022C544.324 100.024 543.673 97.947 541.696 97.1413C540.485 96.648 539.523 96.2227 538.227 95.9984C537.28 95.8345 536.094 95.7934 535.211 95.4536C533.858 94.9335 531.563 95.334 530.094 95.334C528.97 95.334 528.68 95.4868 527.676 96.0516C526.669 96.6179 525.422 96.8971 524.593 97.726C523.714 98.6044 523.018 99.6512 522.015 100.357C520.75 101.247 519.33 102.555 519.33 104.184" stroke="#333333" stroke-width="2" stroke-linecap="round"/>
<path d="M520.765 107.055C523.148 105.794 526.843 106.144 529.51 105.806C532.146 105.472 534.852 105.62 537.51 105.62C539.341 105.62 541.145 106.05 542.719 107.002C544.34 107.982 545.501 110.763 545.151 112.69C544.795 114.648 541.277 115.993 539.623 116.158C538.516 116.269 537.441 116.742 536.314 116.916C534.519 117.192 533.267 116.738 531.689 115.826C530.329 115.04 528.686 114.777 527.264 114.125C526.595 113.818 525.92 113.514 525.191 113.514C524.427 113.514 522.579 113.791 522.201 113.035" stroke="#333333" stroke-width="2" stroke-linecap="round"/>
<path d="M537.988 127.387C537.988 129.357 537.971 131.055 537.51 132.902C536.908 135.309 535.986 137.526 534.639 139.587C531.114 144.978 526.372 148.782 520.433 151.201C518.019 152.185 515.413 153.02 513.111 154.231C511.02 155.332 508.266 156.561 505.961 157.022C502.796 157.655 499.545 158.208 496.314 158.244C494.915 158.26 493.689 158.45 492.353 158.962C490.82 159.549 489.4 159.44 487.755 159.44" stroke="#333333" stroke-width="2" stroke-linecap="round"/>
<path d="M455.941 128.105C455.838 129.032 454.498 130.095 454.081 130.975C453.367 132.483 452.376 133.663 451.49 135.042C450.734 136.217 449.944 137.17 449.735 138.63C449.462 140.543 449.244 142.309 449.244 144.264C449.244 146.545 450.309 148.43 451.211 150.51C452.149 152.675 453.469 153.311 455.343 154.524C456.911 155.538 458.844 155.971 460.38 156.995C460.933 157.364 461.868 157.921 462.546 157.992C464.012 158.146 465.901 158.082 467.184 158.723" stroke="#333333" stroke-width="2" stroke-linecap="round"/>
<path d="M473.882 150.829C471.882 152.711 469.385 153.837 467.902 156.145C467.191 157.251 466.656 159.041 468.021 159.799C470.138 160.975 472.251 158.875 474.214 158.271C474.425 158.206 476.091 157.689 475.742 157.341C475.405 157.003 474.064 158.53 473.882 158.723C472.657 160.015 472.184 162.384 473.031 163.985C473.833 165.5 477.405 164.583 478.679 164.105C479.572 163.77 480.538 163.54 481.35 163.028C482.198 162.495 483.055 161.684 483.928 161.248C484.675 160.874 485.313 160.509 486.081 160.158C486.904 159.782 487.82 159.615 488.473 158.962" stroke="#333333" stroke-width="2" stroke-linecap="round"/>
<path d="M475.795 157.288C477.087 157.288 477.996 155.833 479.144 155.374C480.413 154.867 482.076 154.178 483.45 154.178" stroke="#333333" stroke-width="2" stroke-linecap="round"/>
<path d="M484.037 127.683C484.835 126.376 486.556 125.638 487.587 124.514C488.319 123.715 488.676 122.727 489.295 121.86C490.139 120.679 490.289 119.254 490.423 117.846C490.616 115.817 490.236 114.242 489.644 112.305C489.407 111.53 489.408 110.648 488.897 109.991C488.334 109.267 487.647 108.914 486.956 108.349C485.646 107.277 483.555 107.277 482.029 106.565C479.535 105.401 476.761 104.733 474.341 103.422C473.547 102.992 472.68 102.794 471.786 102.742C470.567 102.67 469.397 102.173 468.161 102.153C466.988 102.133 465.866 101.974 465.822 103.497C465.807 104.026 465.674 104.799 465.972 105.255C466.319 105.786 466.618 106.219 466.867 106.814C467.454 108.215 468.255 109.634 468.958 110.961C469.794 112.541 470.495 114.041 471.114 115.731C472.202 118.697 472.612 121.797 474.175 124.531C475.069 126.095 476.847 126.944 478.554 127.309C480.154 127.652 482.536 127.836 484.037 127.086" stroke="#333333" stroke-width="2" stroke-linecap="round"/>
<path d="M470.003 110.663C470.064 111.218 471.085 111.755 471.429 112.089C471.984 112.629 472.673 113.131 473.354 113.499C474.104 113.905 474.717 114.505 475.411 114.992C476.14 115.506 476.254 116.416 476.572 117.232C477.159 118.741 477.468 120.332 477.468 121.935C477.468 122.694 477.446 123.569 477.31 124.315C477.17 125.085 476.124 126.339 476.124 126.339" stroke="#333333" stroke-width="2" stroke-linecap="round"/>
<path d="M437.754 98.9182C437.754 99.3626 437.904 99.7475 437.904 100.212C438.14 100.291 438.305 100.394 438.352 100.66C438.389 100.87 438.947 101.068 439.098 101.29C439.449 101.808 439.818 102.328 440.218 102.817C440.768 103.489 441.502 104.034 442.084 104.699C442.483 105.156 442.872 105.606 443.278 106.035C445.387 108.26 446.474 111.257 448.421 113.558C449.303 114.6 450.179 116.362 450.561 117.68C450.975 119.109 451.989 120.152 452.527 121.495C452.765 122.091 453.588 123.526 454.194 122.574C454.781 121.651 455.67 120.315 455.67 119.173C455.67 118.241 455.743 116.308 456.715 115.822C457.361 115.499 458.105 115.513 458.805 115.407C459.658 115.279 460.43 115.009 461.194 114.628C461.819 114.315 463.275 113.813 463.425 112.985C463.573 112.173 463.43 111.187 463.251 110.398C462.766 108.265 460.417 107.394 459.104 105.894C458.202 104.863 457.654 103.641 456.483 102.891C455.592 102.321 454.658 101.821 453.762 101.257C452.228 100.291 450.61 99.3901 449.026 98.4952C447.945 97.8841 447.461 96.7487 446.488 96.0318C445.555 95.3444 444.392 94.5425 443.312 94.1241C442.06 93.6396 440.82 93.4084 439.621 93.9417C438.809 94.3022 438.146 95.6388 438.053 96.4797C437.965 97.276 437.754 98.0918 437.754 98.9182Z" stroke="#333333" stroke-width="2" stroke-linecap="round"/>
<path d="M438.053 99.9136C438.656 99.9136 439.59 100.342 440.176 100.544C441.081 100.856 441.854 101.436 442.681 101.888C443.694 102.44 443.845 102.797 444.506 103.646C445.347 104.727 446.538 105.515 447.508 106.449C449.136 108.016 449.6 109.941 450.561 111.94C450.76 112.355 450.727 112.668 450.743 113.118C450.772 113.922 451.047 114.757 451.274 115.523C451.429 116.047 451.34 116.688 451.34 117.232" stroke="#333333" stroke-width="2" stroke-linecap="round"/>
<path d="M455.371 127.832C456.482 127.832 456.295 125.521 456.085 124.813C455.817 123.91 455.367 123.318 454.774 122.607" stroke="#333333" stroke-width="2" stroke-linecap="round"/>
<path d="M466.718 121.114C466.718 121.728 467.3 121.736 467.606 122.092C467.95 122.494 468.3 122.696 468.792 122.955C469.488 123.321 471.136 123.694 471.413 124.564C471.728 125.555 470.843 126.74 470.442 127.608C470.128 128.289 469.435 128.736 468.8 129.035C467.958 129.431 467.212 129.799 466.27 129.773C465.558 129.753 464.317 129.27 463.848 128.661C463.345 128.009 463.055 127.817 462.239 127.525C461.791 127.365 461.175 126.853 460.68 126.969C460.099 127.106 459.555 127.384 458.955 127.384C458.552 127.384 458.055 127.51 457.843 127.086C457.589 126.576 457.441 126.047 457.238 125.518C456.734 124.207 457.621 122.648 458.44 121.711C459.456 120.55 460.92 119.841 461.858 118.576C462.546 117.647 463.351 116.95 463.881 115.888C464.14 115.37 464.777 114.669 464.777 114.097" stroke="#333333" stroke-width="2" stroke-linecap="round"/>
<path d="M392.965 36.91C393.557 35.2056 394.291 33.5488 394.889 31.8339C395.968 28.7447 397.244 25.753 398.788 22.876C399.967 20.6778 401.584 18.6821 402.968 16.6056C403.981 15.0861 404.947 14.0765 406.402 12.9395C407.571 12.0254 408.822 11.1744 410.068 10.3682C411.144 9.67218 412.168 8.74941 413.203 7.97948C414.211 7.23003 415.474 6.836 416.554 6.18792C418.647 4.93204 421.018 3.70247 423.389 3.13561C426.246 2.45237 429.196 1.56954 432.164 1.52652C434.419 1.49383 436.938 1.56292 439.131 1.07863C440.28 0.82504 441.69 1.24144 442.831 1.52652" stroke="#333333" stroke-width="2" stroke-linecap="round"/>
<path d="M393.115 37.0593C392.041 39.0862 392.539 41.7592 392.401 44.0099C392.318 45.3738 392.219 46.7789 392.219 48.1404C392.219 51.0125 391.705 54.0274 392.252 56.8826C392.438 57.8555 392.751 58.8152 392.965 59.7856C393.429 61.8859 394.621 63.679 395.354 65.6746C396.403 68.531 397.526 71.1774 399.086 73.7781C401.422 77.6714 406.119 78.1161 410.275 78.1161C414.356 78.1161 418.293 76.0282 421.481 73.6371" stroke="#333333" stroke-width="2" stroke-linecap="round"/>
<path d="M422.228 73.6372C422.204 73.0328 421.984 72.3433 421.854 71.7461C421.664 70.8708 421.813 69.9886 421.962 69.1251C422.094 68.3625 422.35 67.5576 422.609 66.8275C422.915 65.9663 422.95 65.2032 423.09 64.3144C423.322 62.8491 423.62 61.4557 424.168 60.0843C424.795 58.5187 425.061 56.1438 424.542 54.5271C424.209 53.4932 423.814 52.4835 423.505 51.4416C423.293 50.7266 423.079 49.8029 422.601 49.2187C422.248 48.7879 421.982 48.4366 421.514 48.1073C421.091 47.8095 420.49 47.4903 420.146 47.1286C419.649 46.6066 419.201 45.9162 418.561 45.5692C417.748 45.1276 416.697 45.076 415.783 45.0633C413.702 45.0344 412.116 46.301 411.627 48.2566" stroke="#333333" stroke-width="2" stroke-linecap="round"/>
<path d="M422.078 74.085C422.139 74.6925 422.595 75.4008 422.825 75.9595C423.266 77.0319 423.79 78.1066 424.309 79.1445C424.839 80.203 425.595 81.0551 426.441 81.8816C428.063 83.4663 430.08 84.552 431.575 86.2776C433.039 87.9666 434.86 89.3127 436.469 90.798C436.875 91.1731 437.125 91.8551 437.456 92.3324C437.898 92.9711 438.403 93.694 438.949 94.2401" stroke="#333333" stroke-width="2" stroke-linecap="round"/>
<path d="M501.13 157.886C501.289 159.153 501.867 160.259 501.13 161.549C500.28 163.036 499.662 164.65 498.831 166.105C497.329 168.733 496.915 172.421 496.915 175.516C496.915 178.091 497.592 179.586 498.81 181.818C501.372 186.517 504.878 188.298 509.966 189.888C512.428 190.657 515.169 190.367 517.695 191.144C519.556 191.717 521.827 190.846 523.742 190.846" stroke="#333333" stroke-width="2" stroke-linecap="round"/>
<path d="M543.288 126.46C543.288 131.846 542.872 137.309 541.18 142.386C540.484 144.473 539.455 147.245 539.455 149.434C539.455 150.552 538.921 154.362 539.839 154.821" stroke="#333333" stroke-width="2" stroke-linecap="round"/>
<path d="M540.616 154.668C541.999 154.668 543.382 154.668 544.764 154.668C546.015 154.668 547.505 154.901 548.723 154.605C549.72 154.363 550.353 154.01 551.42 154.116C554.55 154.429 557.012 156.268 559.291 158.233C560.882 159.605 561.34 162.147 561.689 164.164C562.119 166.653 562.174 169.857 561.436 172.271C560.777 174.428 559.078 177.787 557.477 179.526C556.385 180.714 555.197 182.08 553.802 182.917C552.648 183.61 551.049 183.814 549.764 184.258C548.683 184.633 547.599 184.537 546.578 185.047" stroke="#333333" stroke-width="2" stroke-linecap="round"/>
<path d="M522.73 190.157C524.906 190.157 526.968 189.962 529.102 189.574C529.921 189.425 532.979 188.986 533.518 188.312C534.199 187.461 535.063 187.094 536.073 187.034C536.437 187.013 538.534 186.372 538.629 186.182" stroke="#333333" stroke-width="2" stroke-linecap="round"/>
<path d="M546.01 184.763C546.081 185.402 546.339 186.175 546.641 186.75C547.027 187.484 547.811 188.68 547.982 189.447C548.151 190.206 548.518 190.895 548.786 191.64C548.938 192.06 549.025 192.996 549.275 193.296C549.885 194.027 549.417 196.925 549.417 197.823C549.417 199.082 549.092 200.881 548.408 201.955C547.219 203.823 546.898 204.069 544.559 204.069C542.34 204.069 540.28 204.637 538.077 204.637C537.263 204.637 534.654 205.123 534.654 203.927C534.654 202.784 534.502 200.946 536.215 200.946C537.398 200.946 538.581 200.946 539.764 200.946C540.386 200.946 538.526 201.079 537.919 201.214C537.442 201.32 536.358 201.353 535.916 201.167C535.035 200.796 534.453 201.151 533.944 200.236C533.728 199.848 533.612 198.705 534.086 198.454C535.209 197.86 536.524 197.823 537.777 197.823C539.55 197.823 540.708 197.34 542.32 196.624C543.749 195.989 543.741 194.704 543.108 193.28C542.517 191.949 541.792 190.724 541.184 189.432C540.874 188.773 538.979 185.766 538.629 186.466" stroke="#333333" stroke-width="2" stroke-linecap="round"/>
<path d="M532.099 189.589C532.099 190.882 533.069 193.025 532.603 194.132C532.118 195.284 530.978 195.256 530.174 195.898C528.511 197.23 526.091 197.539 524.007 197.539C522.969 197.539 523.278 196.209 523.581 195.678C523.917 195.09 524.425 194.307 525.143 194.148C525.491 194.07 526.47 193.848 525.569 193.848C524.812 193.848 523.149 194.173 522.73 193.438C522.287 192.663 522.446 191.657 522.446 190.725" stroke="#333333" stroke-width="2" stroke-linecap="round"/>
<path d="M531.524 170.918C531.524 172.855 530.714 174.721 530.027 176.506C529.159 178.763 526.58 180.017 524.493 180.837C522.627 181.57 520.837 182.836 519.013 183.67C518.234 184.026 516.923 184.405 516.072 184.098C515.004 183.714 516.252 183.043 516.607 182.708C517.115 182.228 517.484 182.184 518.05 181.933C518.508 181.729 519.034 181.078 519.494 181.024C519.845 180.982 520.802 180.509 519.922 180.542C519.336 180.565 518.581 180.975 518.05 181.211C517.135 181.618 514.503 181.387 513.773 180.73C512.33 179.431 514.131 179.465 515.283 178.858C516.083 178.437 518.504 178.652 519.013 178.016C519.518 177.384 519.803 175.759 518.652 175.503C517.395 175.224 516.406 175.009 515.043 175.009C514.356 175.009 514.833 174.287 515.283 174.287C515.928 174.287 516.537 173.806 517.208 173.806C518.446 173.806 519.682 173.534 520.577 174.527C520.989 174.986 521.068 175.585 521.793 175.717C522.602 175.864 523.615 176.212 524.413 176.212C525.588 176.212 526.691 174.984 527.327 174.166C527.993 173.311 528.453 173.071 528.65 171.988C528.781 171.269 529.203 170.31 529.599 169.715" stroke="#333333" stroke-width="2" stroke-linecap="round"/>
<path d="M496.637 177.896C495.329 179.204 494.712 181.616 494.712 183.43C494.712 183.836 494.633 185.647 495.54 184.74C496.001 184.279 495.942 183.218 496.449 182.761C496.95 182.311 498.08 181.826 498.08 182.828C498.08 183.624 497.84 184.494 497.84 185.355C497.84 187.981 498.865 184.842 499.764 184.392" stroke="#333333" stroke-width="2" stroke-linecap="round"/>
<path d="M497.118 178.136C496.065 178.136 492.546 179.75 492.546 178.136C492.546 176.278 494.366 176.452 495.674 176.452" stroke="#333333" stroke-width="2" stroke-linecap="round"/>
<path d="M550.356 154.364C550.305 153.905 549.379 153.569 549.181 153.125C548.756 152.168 548.323 151.271 547.999 150.246C547.444 148.489 546.832 146.908 546.832 145.026C546.832 143.147 546.628 141.124 546.912 139.262C547.331 136.513 548.191 133.432 549.827 131.141C550.51 130.185 551.129 129.568 552.313 129.568C553.664 129.568 555.576 131.327 555.576 132.708C555.576 134.576 556.547 136.396 556.62 138.254C556.667 139.453 556.875 140.567 556.548 141.749C556.332 142.526 555.999 143.264 555.736 144.025C555.544 144.58 556.906 143.524 557.171 143.402C558.049 142.997 558.921 142.6 559.825 142.256C560.97 141.821 562.134 141.211 563.348 141.836C564.229 142.288 563.817 144.729 563.508 145.461C562.821 147.09 561.196 148.328 559.723 149.202C558.052 150.195 556.437 151.33 554.822 152.407C553.619 153.209 552.247 153.484 551.008 154.103" stroke="#333333" stroke-width="2" stroke-linecap="round"/>
<path d="M547.712 136.233C546.945 136.233 546.179 136.233 545.412 136.233C544.68 136.233 544.287 137.205 543.948 137.743C543.342 138.705 543.18 139.739 542.694 140.74C542.22 141.714 541.822 143.017 541.66 144.074C541.333 146.2 541.66 148.964 542.612 150.869C543.187 152.02 544.785 153.742 544.785 155.051" stroke="#333333" stroke-width="2" stroke-linecap="round"/>
<path d="M560.049 150.66C560.163 151.693 560.988 152.869 559.944 153.681C559.182 154.273 557.406 153.911 556.494 154.215" stroke="#333333" stroke-width="2" stroke-linecap="round"/>
<path d="M33.9646 136.686C33.9646 135.513 34.692 134.558 35.311 133.609C36.5622 131.69 38.4891 129.584 40.0234 127.911C40.8342 127.026 41.6513 126.053 42.2354 125.001C42.8132 123.961 44.3036 123.256 45.1686 122.453C46.0949 121.593 47.4762 121.243 48.5827 120.674C49.7186 120.089 50.7765 119.405 51.9246 118.846C55.2822 117.213 58.6958 115.645 62.0947 114.134C62.6604 113.883 63.1903 113.406 63.8138 113.329C64.1377 113.288 64.8087 113.469 65.0761 113.268C66.1347 112.474 67.6949 112.018 69.0191 112.018C70.2613 112.018 71.5035 112.018 72.7457 112.018C74.2083 112.018 76.5344 111.864 77.8909 112.451C78.7599 112.827 79.834 112.941 80.752 113.268C82.5035 113.894 84.5081 114.02 86.1135 115.048C88.1352 116.341 90.5477 116.733 92.5089 117.981C94.4056 119.188 96.655 120.125 98.7601 120.89C99.0114 120.981 99.5893 121.343 99.6977 121.587C100.1 122.492 100.828 122.963 101.561 123.583C102.578 124.443 103.884 125.052 104.819 125.987C105.708 126.877 106.526 127.886 107.428 128.788C108.477 129.837 109.582 130.25 110.361 131.613C111.06 132.836 111.941 133.951 112.621 135.159C113.551 136.814 114.956 138.29 115.975 139.92C117.147 141.796 117.706 143.141 117.706 145.342C117.706 147.752 118.285 150.628 119.665 152.699C122.264 156.596 123.765 161.017 123.765 165.682" stroke="#333333" stroke-width="2" stroke-linecap="round"/>
<path d="M33.9647 136.253C33.9647 136.697 33.6247 137.273 33.3636 137.6C33.1587 137.856 33.3155 138.741 33.3155 139.066C33.3155 140.029 33.0585 142.022 32.4981 142.793C32.0821 143.365 31.8395 145.039 31.8008 145.774C31.7477 146.784 31.6329 147.714 31.356 148.684C31.1499 149.405 30.7189 150.03 30.7189 150.847C30.7189 151.465 30.7189 152.082 30.7189 152.699C30.7189 154.36 29.8533 156.01 29.8533 157.676C29.8533 160.485 29.2042 163.323 29.2042 166.115" stroke="#333333" stroke-width="2" stroke-linecap="round"/>
<path d="M34.3974 145.125C34.3771 145.308 33.9636 146.338 33.8564 146.424C33.5326 146.683 33.4083 148.239 33.3275 148.684C33.0865 150.009 33.0991 151.339 33.0991 152.699C33.0991 153.888 33.5963 154.8 34.0728 155.848C34.8388 157.533 35.2349 159.162 36.5612 160.489C39.3436 163.271 43.5066 163.302 47.2122 163.302C49.4257 163.302 50.7608 161.966 52.682 161.258C54.8473 160.46 56.3747 158.591 57.3463 156.485C57.7675 155.573 58.3328 154.768 58.6807 153.829C58.9582 153.079 59.1067 152.349 59.3298 151.569C59.8479 149.755 59.7145 147.75 59.7145 145.871C59.7145 143.807 58.4192 143.069 57.4064 141.302C56.2431 139.273 55.1493 138.622 53.2229 137.552C52.3937 137.091 51.872 136.686 50.8908 136.686C50.0092 136.686 49.1276 136.686 48.2461 136.686C47.1681 136.686 46.0902 136.686 45.0123 136.686C43.495 136.686 42.4548 137.129 41.1174 137.864C40.2194 138.358 39.3915 139.324 38.7732 140.148C38.1124 141.029 37.1842 141.615 36.5612 142.48C35.5052 143.947 34.5535 145.09 33.9646 146.856" stroke="#333333" stroke-width="2" stroke-linecap="round"/>
<path d="M60.58 145.342C60.58 144.268 62.7789 143.377 63.6094 142.961C65.1198 142.206 66.9908 142.127 68.6825 142.096C70.1961 142.068 71.7126 142.096 73.2266 142.096C74.137 142.096 75.4555 141.853 76.3281 142.144C77.7661 142.623 78.7037 144.152 80.0547 144.692" stroke="#333333" stroke-width="2" stroke-linecap="round"/>
<path d="M80.7039 144.692C81.0249 141.482 83.5984 139.719 85.26 137.227C85.6808 136.596 87.5879 135.981 88.2774 135.652C88.8491 135.38 89.7736 135.001 90.3932 134.955C91.0503 134.906 91.6909 134.547 92.3406 134.522C92.8618 134.502 93.1734 134.089 93.687 134.089C95.2511 134.089 96.8791 133.465 98.3513 134.306C99.5609 134.997 100.333 136.093 101.501 136.806C103.695 138.147 105.35 139.747 106.189 142.264C106.471 143.108 106.887 143.857 106.887 144.74C106.887 145.758 106.887 146.776 106.887 147.794C106.887 148.936 106.574 150.554 105.913 151.508C105.077 152.716 104 153.707 103.412 155.079C102.747 156.632 100.593 157.863 99.0967 158.493C97.412 159.202 94.8974 158.757 93.0379 158.757C91.2923 158.757 89.3074 159.063 87.7124 158.204C85.9526 157.257 85.4631 156.128 84.3825 154.43C83.2866 152.708 82.3355 150.867 81.5694 148.972C80.7746 147.006 80.4875 145.897 80.4875 143.827" stroke="#333333" stroke-width="2" stroke-linecap="round"/>
<path d="M107.848 145.798C107.903 145.351 111.293 146.033 111.721 146.033C112.454 146.033 113.742 145.778 114.394 146.15C114.532 146.229 115.511 146.687 115.359 146.385" stroke="#333333" stroke-width="2" stroke-linecap="round"/>
<path d="M115.125 146.385C115.086 146.691 114.757 146.928 114.772 147.35C114.794 147.935 115.756 148.266 116.233 147.963C116.793 147.606 116.556 145.43 115.477 146.15" stroke="#333333" stroke-width="2" stroke-linecap="round"/>
<path d="M32.1434 149.789C31.8996 149.789 31.6479 149.957 31.4653 150.115C31.0396 150.482 30.2253 150.895 29.6917 151.073C28.8687 151.347 28.1168 151.809 27.3051 152.11C26.8598 152.275 26.3869 152.415 25.9228 152.482C25.6228 152.524 25.0005 151.959 24.7751 152.162C24.4083 152.492 24.1622 153.119 24.1622 153.603C24.1622 153.919 25.0162 153.807 25.2185 153.688C26.3191 153.041 24.4762 151.743 24.1622 152.371" stroke="#333333" stroke-width="2" stroke-linecap="round"/>
<path d="M72.8659 148.404C74.5959 146.458 77.486 145.626 79.8842 144.727C82.694 143.673 85.2056 143.076 88.1916 143.011C88.6193 143.001 89.0046 142.835 89.4083 142.72C89.9521 142.565 90.6087 142.712 91.1696 142.648C93.1535 142.421 95.1457 142.246 97.1438 142.184C99.2908 142.118 102.481 141.563 104.407 142.847" stroke="#333333" stroke-width="2" stroke-linecap="round"/>
<path d="M104.407 142.847C104.278 142.2 103.007 141.659 102.537 141.376C101.703 140.875 100.828 140.462 99.9765 139.996C98.4525 139.164 97.0205 138.195 95.5004 137.373C94.3682 136.76 93.5352 136.32 92.3045 135.902C91.3206 135.567 90.4295 135.013 89.4446 134.712C87.297 134.056 85.1036 133.067 82.9983 132.261C81.4301 131.66 78.8968 131.901 77.5236 132.969C76.828 133.51 75.7664 134.202 75.4444 135.039C75.0162 136.153 74.6425 137.311 74.246 138.444C73.5084 140.551 72.9376 142.588 72.412 144.754C72.0972 146.051 72.2122 146.832 72.2122 148.077" stroke="#333333" stroke-width="2" stroke-linecap="round"/>
<path d="M69.1072 146.443C69.1072 142.725 69.7428 137.878 65.3302 136.71C64.367 136.455 63.315 136.34 62.325 136.555C60.7352 136.901 59.6891 137.898 58.3665 138.78C56.9683 139.712 55.5476 140.85 54.072 141.631C52.21 142.616 50.2014 143.463 48.4247 144.563C46.9807 145.457 45.6831 146.292 44.0667 146.897C42.5726 147.455 40.6419 147.63 39.6905 149.058" stroke="#333333" stroke-width="2" stroke-linecap="round"/>
<path d="M39.6905 149.057C41.3114 149.057 42.5745 148.564 44.1121 148.24C45.2734 147.996 46.4842 147.954 47.5894 147.514C48.5382 147.137 49.4898 146.745 50.4675 146.452C53.3965 145.573 56.4885 146.093 59.5195 145.88C61.0253 145.774 62.511 145.638 64.0228 145.626C64.599 145.621 65.9888 145.359 66.5014 145.807C66.9786 146.225 67.3327 146.48 67.9632 146.606" stroke="#333333" stroke-width="2" stroke-linecap="round"/>
<path d="M43.7762 149.875C43.7762 150.901 43.7645 152.38 44.3482 153.288C44.6721 153.792 45.1444 154.245 45.4104 154.777" stroke="#333333" stroke-width="2" stroke-linecap="round"/>
<path d="M68.6169 147.423C68.1412 148.493 69.2706 150.086 69.2706 151.255C69.2706 152.035 69.2242 152.641 68.7803 153.307" stroke="#333333" stroke-width="2" stroke-linecap="round"/>
<path d="M58.4845 155.921C59.4553 155.921 60.4851 155.316 61.4443 155.095C63.3065 154.665 65.1839 154.442 67.0734 154.124C68.8271 153.828 70.5958 153.633 72.3757 153.633C73.6726 153.633 75.1129 153.437 76.3705 153.797C77.3177 154.067 78.3398 153.962 79.2759 154.214C80.3001 154.49 81.3629 154.751 82.3356 155.177C83.6003 155.73 84.8739 156.287 86.1034 156.902" stroke="#333333" stroke-width="2" stroke-linecap="round"/>
<path d="M99.6678 142.847C100.57 144.651 101.792 146.765 101.792 148.83C101.792 150.103 101.033 151.394 100.485 152.489" stroke="#333333" stroke-width="2" stroke-linecap="round"/>
<path d="M85.1229 154.614C86.1001 154.464 87.0153 153.943 88.001 153.797C90.1327 153.481 92.2751 153.616 94.4018 153.343C96.3647 153.091 98.2965 152.49 100.321 152.49" stroke="#333333" stroke-width="2" stroke-linecap="round"/>
<path d="M45.4104 155.268C47.7699 155.268 50.2658 154.988 52.583 155.377C53.6542 155.556 55.7011 156.08 56.5234 156.902" stroke="#333333" stroke-width="2" stroke-linecap="round"/>
<path d="M84.1423 146.606C84.1086 147.449 83.6024 150.567 85.3045 150.174C85.997 150.014 87.084 148.97 87.084 148.204C87.084 147.099 86.2658 146.828 85.2954 146.524C83.9078 146.091 84.2186 148.986 84.9231 149.439C85.9974 150.129 87.4835 148.541 86.8298 147.514C85.9832 146.184 85.1229 148.064 85.1229 148.894C85.1229 149.444 85.7791 149.107 86.0671 148.93C86.4648 148.686 86.8605 147.471 86.1034 147.85C85.128 148.338 85.5815 149.221 86.4303 149.221" stroke="#333333" stroke-width="2" stroke-linecap="round"/>
<path d="M54.8891 149.711C54.0343 149.711 54.3653 151.208 54.8074 151.582C55.7098 152.345 55.7898 152.212 56.2328 151.273C56.5797 150.537 57.3624 149.455 56.1239 149.23C54.8953 149.007 54.7816 150.871 54.8982 151.745C54.9664 152.257 55.7514 152.289 56.0331 151.945C56.6955 151.135 56.6741 149.65 56.1965 148.767C55.1638 146.858 53.3586 150.74 53.9993 151.473C54.2041 151.707 55.191 151.455 55.3612 151.3C55.8698 150.838 56.4164 149.295 56.1602 148.604C55.8612 147.796 53.2668 149.648 54.072 150.855" stroke="#333333" stroke-width="2" stroke-linecap="round"/>
<path d="M74.4047 147.286C74.4047 148.39 74.3398 149.42 74.7536 150.465C74.9567 150.978 75.5191 152.641 75.9748 152.869" stroke="#333333" stroke-width="2" stroke-linecap="round"/>
<path d="M47.7144 163.859C45.8079 164.05 44.5174 166.752 43.4889 168.123C42.9563 168.833 42.4697 169.662 41.8801 170.313C41.3606 170.888 40.8779 171.174 40.5233 171.883C39.7693 173.392 38.6244 174.652 37.9066 176.167C37.1445 177.776 36.6088 179.698 36.1137 181.459C35.5479 183.47 34.3091 185.307 34.0979 187.419C33.9283 189.115 33.0609 190.734 33.0609 192.458C33.0609 193.63 32.8864 194.834 32.8864 196.035C32.8864 197.237 33.5836 198.371 33.7587 199.553C33.9593 200.907 34.0362 202.608 34.6406 203.817C34.9806 204.497 36.2781 204.856 36.9278 205.086C37.2077 205.186 37.4468 205.489 37.6837 205.542C38.5733 205.74 39.4606 206.21 40.2907 206.56C40.6712 206.72 41.1569 206.615 41.57 206.773C41.9261 206.908 42.3166 207.021 42.6942 207.083C44.5995 207.394 46.8593 207.471 48.7999 207.471C50.5056 207.471 52.2113 207.471 53.917 207.471C55.7599 207.471 57.9168 207.125 59.5768 207.955C61.826 209.08 63.9891 210.56 66.1088 211.909C67.1568 212.576 67.9973 213.711 69.2586 214.099C70.2131 214.393 70.7964 214.972 71.8559 214.972C73.0329 214.972 74.2557 215.67 75.4611 215.67C76.3892 215.67 77.3629 215.106 78.3007 214.981C78.7698 214.919 79.4143 214.574 79.7157 214.187C80.3297 213.397 81.692 212.977 82.565 212.462C83.3882 211.975 83.877 211.178 84.8328 210.824C85.3644 210.627 85.8134 210.048 86.3059 209.738C87.026 209.285 88.044 208.882 88.6706 208.304C89.3902 207.64 90.0708 207.265 90.9772 206.811C91.7121 206.444 92.6075 206.339 93.3031 205.9C94.0281 205.444 94.8271 205.594 95.6097 205.203C96.1146 204.95 96.6387 204.791 97.1216 204.505C97.4183 204.329 98.007 204.019 98.3427 203.982C98.6566 203.947 98.7635 203.646 99.0017 203.633C99.6685 203.596 100.311 203.33 100.959 203.284C101.486 203.246 102.059 203.136 102.529 202.896C103.146 202.581 103.699 202.715 104.322 202.576C104.955 202.436 105.372 202.237 106.067 202.237C106.619 202.237 107.172 202.237 107.724 202.237C109.217 202.237 109.85 202.087 110.777 200.851C111.077 200.451 111.746 199.976 111.911 199.524C112.122 198.943 112.393 198.333 112.696 197.789C113.846 195.718 114.325 193.892 114.043 191.421C113.837 189.619 113.355 187.884 112.822 186.149C112.585 185.378 112.405 184.515 112.221 183.707C112.1 183.177 111.718 182.045 111.387 181.652C110.461 180.553 110.673 178.867 110.128 177.64C109.575 176.398 108.91 175.165 108.335 173.899C107.794 172.71 107.239 171.746 106.416 170.74C105.884 170.09 105.384 169.383 104.671 168.908C103.994 168.457 103.714 167.545 103.276 166.912C102.891 166.356 102.621 165.733 102.229 165.167C101.694 164.394 100.826 163.945 100.31 163.151C99.5824 162.032 98.6934 161.118 97.4317 160.622C96.9355 160.427 94.9894 159.88 94.9894 159.323" stroke="#333333" stroke-width="2" stroke-linecap="round"/>
<path d="M3.80917 206.274C4.54516 204.153 5.712 202.248 6.49258 200.141C7.13668 198.402 7.99009 196.48 8.81283 194.834C10.1122 192.236 11.4493 189.778 13.2515 187.43C13.9291 186.547 14.6408 185.195 15.0674 184.181C15.6129 182.886 16.3801 181.803 17.1657 180.661C18.5968 178.579 20.5108 176.928 22.0483 174.951C22.6755 174.144 23.2886 173.322 23.965 172.54C24.6412 171.758 25.4132 171.051 26.144 170.321C26.4187 170.046 26.7394 169.467 27.0519 169.271C27.9203 168.729 29.0051 167.879 29.5941 167.143C30.0793 166.536 31.0775 165.286 31.7731 165.055" stroke="#333333" stroke-width="2" stroke-linecap="round"/>
<path d="M4.17235 206.637C3.72563 206.693 3.59231 209.395 3.5469 209.684C3.41324 210.533 3.27031 211.38 3.1232 212.226C3.01695 212.837 3.17851 213.478 3.0425 214.082C2.5369 216.329 1.81176 218.774 1.81176 221.083C1.81176 222.451 1.44859 223.781 1.44859 225.149C1.44859 226.087 1.44859 227.025 1.44859 227.963C1.44859 231.209 0.712938 234.512 1.12578 237.769C1.32268 239.322 1.8647 240.752 2.35651 242.228C2.81031 243.589 3.08676 245.042 3.6276 246.364C4.77147 249.16 5.80235 252.047 6.81541 254.898C7.41691 256.591 7.83141 258.763 8.81284 260.306C9.33487 261.126 10.2379 261.818 10.9717 262.454C12.2724 263.582 12.9623 265.388 13.6954 266.913C14.4028 268.384 15.3243 270.611 16.7017 271.644" stroke="#333333" stroke-width="2" stroke-linecap="round"/>
<path d="M17.0648 271.826C17.0995 272.381 17.7374 273.1 18.0636 273.571C18.5733 274.308 19.1865 275.219 19.829 275.861C20.5848 276.617 21.322 277.503 22.2299 278.081C23.2173 278.709 23.9251 280.03 24.6914 280.905C25.6221 281.969 26.7363 282.918 27.4151 284.174C28.0436 285.336 29.3165 286.186 30.1389 287.22C31.8227 289.337 34.2458 290.471 36.5851 291.71C39.1628 293.074 42.1595 294.179 44.9279 295.069C46.6225 295.614 48.3668 295.926 50.0728 296.542C52.2532 297.328 54.2904 298.186 56.5796 298.61C57.9549 298.864 59.3436 298.926 60.7257 299.104C62.3396 299.312 63.8695 299.928 65.5075 299.972C68.284 300.045 71.0309 300.335 73.8301 300.335C76.3558 300.335 79.0203 300.576 81.5373 300.325C83.383 300.14 85.1932 299.972 87.0555 299.972C88.2865 299.972 89.6398 299.925 90.8284 299.568C91.7277 299.298 92.6095 298.958 93.5118 298.7C94.9502 298.29 96.3177 298.411 97.7992 298.247C98.7588 298.14 99.7521 298.254 100.674 297.934C101.822 297.535 102.955 297.141 104.145 296.885C106.033 296.477 107.962 295.889 109.814 295.351C111.816 294.77 113.977 294.242 115.907 293.435C116.98 292.986 118.941 292.503 119.761 291.609C120.133 291.202 120.688 291.023 121.113 290.67C122.304 289.681 123.465 288.763 124.724 287.846C127.306 285.964 129.705 283.615 131.826 281.228C133.28 279.592 134.496 277.836 135.831 276.083C137.042 274.494 138.817 272.964 140.36 271.685C140.779 271.338 141.45 270.394 141.45 269.829" stroke="#333333" stroke-width="2" stroke-linecap="round"/>
<path d="M115.302 159.789C116.13 161.348 117.583 162.274 119.176 162.956C120.089 163.348 121.281 163.811 122.02 164.51C123.293 165.712 124.945 166.573 126.015 168C127.438 169.897 129.162 171.917 131.1 173.317C132.209 174.117 133.041 174.883 133.864 175.95C134.969 177.382 136.206 178.602 137.102 180.227C138.127 182.084 139.443 183.682 141.006 185.12C141.516 185.589 143.358 186.584 143.447 187.389C143.537 188.199 144.839 189.425 145.344 190.022C147.032 192.017 148.753 194.48 149.45 197.034C150.155 199.62 152.406 201.597 152.698 204.367C152.913 206.407 154.445 208.173 154.524 210.309C154.553 211.081 154.609 211.888 154.796 212.64C155.363 214.907 156.005 216.901 155.835 219.247C155.693 221.218 156.054 223.267 155.523 225.179C155.103 226.689 155.31 228.371 155.25 229.92C155.211 230.948 154.509 232.008 154.342 233.048C154.186 234.028 153.798 235.035 153.576 236.014C153.087 238.164 152.738 240.23 151.982 242.308C151.783 242.856 151.537 243.32 151.296 243.862C150.799 244.981 150.586 246.351 150.247 247.595C149.849 249.051 149.677 250.651 149.218 252.074C149.04 252.623 148.598 253.088 148.391 253.627C148.104 254.372 147.944 255.198 147.624 255.917C146.676 258.05 147.043 260.617 145.183 262.212C144.941 262.42 144.8 263.128 144.678 263.413C144.095 264.774 143.564 266.753 142.539 267.831C142.049 268.347 141.641 269.915 141.087 270.192" stroke="#333333" stroke-width="2" stroke-linecap="round"/>
<path d="M116.755 192.837C117.334 192.966 117.81 194.495 118.177 194.885C118.748 195.492 119.017 196.34 119.66 196.872C121.035 198.012 121.999 199.838 122.848 201.381C123.887 203.271 124.823 205.147 125.753 207.091C126.692 209.055 127.895 210.827 128.739 212.852C132.196 221.147 134.854 229.709 135.266 238.768C135.298 239.464 135.648 248.402 134.731 248.402" stroke="#333333" stroke-width="2" stroke-linecap="round"/>
<path d="M30.3205 203.732C28.9262 205.901 27.7395 208.167 26.598 210.451C24.9036 213.839 22.9375 217.233 21.6851 220.811C20.297 224.777 19.9528 228.817 19.1228 232.927C18.5107 235.957 17.7912 239.016 17.7912 242.127C17.7912 244.4 17.7912 246.673 17.7912 248.946" stroke="#333333" stroke-width="2" stroke-linecap="round"/>
<path d="M28.5046 218.44C28.7447 219.641 30.708 220.316 31.6319 220.841C32.4506 221.306 33.2531 222.021 34.0934 222.395C35.2693 222.917 36.3857 223.809 37.5233 224.433C39.913 225.743 43.0292 226.286 45.6441 227.045C47.3334 227.536 49.1908 227.701 50.9504 227.701C52.2064 227.701 53.6015 227.832 54.8141 228.165C56.1583 228.535 57.3883 228.533 58.7585 228.7C60.9976 228.973 63.2661 228.763 65.4872 229.063C67.7255 229.365 70.0129 229.335 72.2664 229.335C74.4306 229.335 76.8364 229.459 78.985 229.113C83.2646 228.426 87.3535 227.101 91.6152 226.248C93.0569 225.96 94.5439 225.908 95.953 225.482C97.1939 225.107 98.3828 224.744 99.6452 224.433C100.853 224.135 102.182 224.13 103.418 223.928C104.402 223.767 105.241 223.671 106.213 223.444C108.619 222.882 111.041 222.341 113.304 221.335C114.459 220.822 115.732 220.511 116.835 219.893C117.541 219.497 118.064 218.904 118.762 218.511C119.345 218.183 119.73 217.623 120.285 217.27C120.9 216.879 121.584 216.566 122.202 216.16C123.493 215.313 124.84 214.208 126.378 213.901" stroke="#333333" stroke-width="2" stroke-linecap="round"/>
<path d="M126.378 213.901C126.378 217.549 122.414 220.552 119.468 222.173C115.75 224.218 112.134 226.176 108.22 227.741C107.683 227.956 106.956 227.906 106.475 228.165C105.674 228.596 104.691 228.897 103.822 229.154C101.889 229.724 99.8829 229.788 98.1522 230.889C97.1603 231.52 96.2244 232.08 95.0653 232.463C93.9856 232.819 92.9752 233.351 91.8775 233.653C90.8352 233.94 89.7638 234.215 88.7906 234.702C88.0559 235.069 86.8591 235.54 86.2484 236.054C85.44 236.735 83.4606 236.847 82.4755 237.103C80.8616 237.523 79.1699 237.51 77.5525 237.87C76.8012 238.037 76.1312 238.233 75.3533 238.233C73.4528 238.233 71.2125 238.566 69.351 238.132C62.8264 236.61 55.7462 236.883 49.6491 233.835C48.5848 233.302 47.483 232.767 46.3705 232.331C45.1654 231.86 44.0757 231.057 42.8094 230.748C40.1303 230.093 36.7976 228.766 34.5272 227.176C32.9212 226.052 32.0666 224.303 30.8551 222.788C30.2553 222.038 29.8157 221.097 29.1906 220.397C28.9188 220.093 28.323 219.204 28.323 218.803" stroke="#333333" stroke-width="2" stroke-linecap="round"/>
<path d="M28.6862 221.346C28.9034 222.142 29.9919 222.558 30.3003 223.252C30.7272 224.213 31.3808 225.033 31.9547 225.926C32.4167 226.644 32.7935 227.43 33.4074 228.044C34.0038 228.64 34.8904 229.187 35.3644 229.88C36.1583 231.04 38.1078 231.282 39.2988 231.877C40.727 232.592 42.1203 233.065 43.3945 234.056C46.1565 236.205 49.0743 238.202 52.05 240.049C55.202 242.005 58.8367 243.294 61.8253 245.496C62.787 246.205 63.8772 246.818 64.9627 247.312C66.7591 248.131 68.653 249.365 70.6725 249.491C71.9568 249.571 73.1861 250.221 74.4454 250.379C75.6568 250.53 76.7562 250.216 77.9358 250.076C80.4647 249.777 82.841 249.252 85.0782 247.897C88.9013 245.582 91.7646 242.159 95.2267 239.413C97.9788 237.23 101.261 235.562 104.235 233.683C107.463 231.645 110.868 229.704 114.313 228.054C116.276 227.114 118.87 225.678 120.023 223.747C120.622 222.742 121.082 221.779 121.829 220.892C123.088 219.396 124.576 218.051 125.471 216.261" stroke="#333333" stroke-width="2" stroke-linecap="round"/>
<path d="M126.56 217.532C124.525 217.758 128.465 226.939 128.739 227.923C129.215 229.632 130.373 231.25 130.373 233.068C130.373 235.358 130.258 237.663 129.788 239.908C128.99 243.723 126.934 247.593 124.845 250.843C123.107 253.547 121.174 255.313 118.449 257.047C116.405 258.348 114.424 259.75 112.316 260.931C108.769 262.917 105.396 265.471 101.562 266.923C97.7017 268.385 93.8365 269.996 89.8498 271.09C87.3917 271.764 84.894 272.36 82.4149 272.956C81.4053 273.198 80.3056 273.568 79.2574 273.632C77.1216 273.761 74.9279 273.806 72.791 273.823C71.3174 273.835 69.3506 274.137 67.9487 273.642C64.7228 272.503 61.2612 272.014 57.9919 271.019C56.242 270.486 54.1937 270.182 52.615 269.203C50.5311 267.911 48.2871 266.797 46.1384 265.551C45.2048 265.01 44.4442 264.188 43.566 263.564C42.1974 262.591 41.5396 261.142 40.2874 260.114C38.1329 258.344 35.3961 257.634 33.2056 255.927C31.8661 254.884 30.9967 253.375 30.1792 251.892C29.4522 250.573 28.8815 249.142 28.323 247.746C27.9391 246.786 27.815 245.773 27.4555 244.81C26.5509 242.389 25.8404 239.884 25.226 237.375C24.579 234.733 24.4727 231.841 24.3685 229.134C24.223 225.35 25.7537 222.126 27.4151 218.803" stroke="#333333" stroke-width="2" stroke-linecap="round"/>
<path d="M144.609 263.451C144.609 267.257 142.584 270.97 142.584 274.794C142.584 279.247 142.318 283.399 141.053 287.667C140.075 290.969 140.963 295.852 140.963 299.279C140.963 303.985 140.558 308.57 140.558 313.278" stroke="#333333" stroke-width="2" stroke-linecap="round"/>
<path d="M18.6256 273.579C18.6256 277.761 20.1752 281.65 20.6286 285.731C20.8216 287.468 21.0562 289.024 21.0562 290.795C21.0562 292.429 21.807 294.001 21.8664 295.544C21.9263 297.1 22.2715 298.567 22.2715 300.09C22.2715 302.148 23.0816 304.297 23.0816 306.188C23.0816 309.685 22.6766 313.05 22.6766 316.518" stroke="#333333" stroke-width="2" stroke-linecap="round"/>
<path d="M35.2835 166.806C37.9215 166.806 40.5662 165.888 43.1548 166.627" stroke="#333333" stroke-width="2" stroke-linecap="round"/>
<path d="M100.937 162.334C101.201 162.099 101.582 161.896 101.921 161.807C102.894 161.553 103.67 160.866 104.594 160.476C105.909 159.92 107.584 159.768 108.987 159.651" stroke="#333333" stroke-width="2" stroke-linecap="round"/>
<path d="M22.0634 318.288C22.0634 326.137 25.0022 332.127 30.6514 337.182C32.8885 339.183 36.8685 340.379 39.5575 341.762C43.937 344.014 49.1193 345.204 53.2348 347.742C59.2291 351.438 66.3966 352.34 73.0509 354.326C77.1286 355.543 80.6329 357.128 84.9151 357.221C92.4341 357.384 99.9218 358.366 107.498 358.366C115.108 358.366 122.589 358.427 130.145 357.348C138.695 356.126 148.484 357.052 156.609 354.231C165.851 351.022 175.002 347.667 184.091 344.052C189.58 341.869 195.288 340.348 200.79 338.232C207.165 335.779 212.739 331.799 218.443 328.149C228.639 321.623 237.029 314.016 245.543 305.502C249.578 301.467 254.795 297.529 259.347 294.114C263.366 291.101 267.275 287.636 271.689 285.208C275.734 282.984 277.788 272.982 277.987 268.605C278.268 262.414 281.469 255.998 285.43 251.429C288.303 248.113 290.955 246.031 294.686 243.636C301.087 239.527 307.747 235.716 315.329 234.316C318.994 233.64 324.602 232.714 327.797 235.271" stroke="#333333" stroke-width="2" stroke-linecap="round"/>
<path d="M144.586 278.783C147.21 283.315 153.873 286.353 158.327 288.516C161.033 289.831 165.144 289.089 168.06 289.089C172.259 289.089 176.457 289.089 180.656 289.089C186.642 289.089 190.908 288.257 196.114 285.654C200.923 283.249 204.817 281.333 208.646 277.384C211.15 274.802 212.828 271.121 214.435 267.905C216.182 264.412 218.895 259.129 222.451 257.154C223.619 256.505 223.949 255.321 225.027 254.482C226.337 253.463 228.041 252.931 229.321 251.874C234.15 247.885 240.311 246.149 246.052 244.304C249.285 243.265 252.326 241.7 255.626 240.71C258.235 239.927 260.899 238.863 263.228 237.433C268.129 234.426 272.505 231.817 278.114 230.118C281.251 229.167 285.556 226.683 288.865 226.683C292.915 226.683 296.965 226.683 301.015 226.683C307.22 226.683 313.387 226.11 319.655 226.11C322.33 226.11 326.951 225.045 328.497 227.828C329.928 230.403 331.232 229.675 331.232 232.98C331.232 235.667 327.859 234.76 326.652 233.553" stroke="#333333" stroke-width="2" stroke-linecap="round"/>
<path d="M39.812 314.853C41.1267 316.036 42.903 316.116 44.5195 316.698C52.9205 319.722 62.6651 321.289 71.4923 322.487C78.9385 323.497 86.9883 322.976 94.5209 322.868C100.376 322.785 104.255 319.259 109.598 317.461C113.997 315.98 118.401 314.561 122.257 311.99" stroke="#333333" stroke-width="2" stroke-linecap="round"/>
<path d="M59.8508 340.045C63.851 340.914 67.9951 342.335 72.1285 342.335C84.4734 342.335 94.7085 340.597 106.194 335.846C111.068 333.83 115.938 331.467 120.54 329.166" stroke="#333333" stroke-width="2" stroke-linecap="round"/>
<path d="M122.83 346.915C126.864 345.767 133.237 345.251 136.57 342.335C139.925 339.399 144.036 337.155 146.876 333.747" stroke="#333333" stroke-width="2" stroke-linecap="round"/>
<path d="M165.197 295.387C165.924 297.786 167.648 299.129 169.078 301.112C171.226 304.092 172.561 307.258 173.213 310.845" stroke="#333333" stroke-width="2" stroke-linecap="round"/>
<path d="M163.48 345.197C169.43 340.171 175.373 334.457 177.348 326.558C178.062 323.7 177.793 320.668 177.793 317.716" stroke="#333333" stroke-width="2" stroke-linecap="round"/>
<path d="M196.687 294.814C205.6 295.705 208.71 309.048 208.71 316.125C208.71 321.858 208.473 326.205 205.847 331.456" stroke="#333333" stroke-width="2" stroke-linecap="round"/>
<path d="M216.725 281.646C223.208 284.887 227.941 289.095 233.583 293.383C238.083 296.803 236.764 302.199 236.764 307.41" stroke="#333333" stroke-width="2" stroke-linecap="round"/>
<path d="M234.474 259.89C238.07 261.977 241.979 262.47 245.352 264.915C248.793 267.41 252.069 269.668 253.94 273.63C255.697 277.35 255.658 281.648 255.658 285.654" stroke="#333333" stroke-width="2" stroke-linecap="round"/>
<path d="M250.505 250.156C257.512 250.156 264.961 255.441 268.572 261.098C269.848 263.098 269.563 265.78 271.116 267.333" stroke="#333333" stroke-width="2" stroke-linecap="round"/>
<path d="M268.254 239.851C274.034 240.073 277.695 246.708 279.704 251.302" stroke="#333333" stroke-width="2" stroke-linecap="round"/>
<path d="M285.477 233.751C287.457 234.572 288.709 236.421 288.709 238.514" stroke="#333333" stroke-width="2" stroke-linecap="round"/>
<path d="M303.679 229.498C303.902 230.034 304.56 230.529 304.907 231.029C305.261 231.538 305.259 232.129 305.38 232.73" stroke="#333333" stroke-width="2" stroke-linecap="round"/>
<path d="M323.412 228.307C323.443 229.135 323.922 229.854 323.922 230.689" stroke="#333333" stroke-width="2" stroke-linecap="round"/>
</svg>
