<svg width="768" height="1144" viewBox="0 0 768 1144" fill="none" xmlns="http://www.w3.org/2000/svg">
<g opacity="0.2" clip-path="url(#clip0_88_1948)">
<path d="M460.6 452.8V529.6H383.8L460.6 452.8Z" fill="white"/>
</g>
<path opacity="0.2" d="M691 414.4C691 393.192 708.192 376 729.4 376V376C750.608 376 767.8 393.192 767.8 414.4V452.8H691V414.4Z" fill="white"/>
<rect opacity="0.2" x="537.4" y="68.8" width="76.8" height="76.8" fill="white"/>
<g opacity="0.2" clip-path="url(#clip1_88_1948)">
<path d="M307 836.8H383.8V913.6L307 836.8Z" fill="white"/>
</g>
<path opacity="0.2" d="M153.4 337.6C153.4 316.392 170.592 299.2 191.8 299.2H230.2V376H153.4V337.6Z" fill="white"/>
<rect opacity="0.2" x="307" y="452.8" width="76.8" height="76.8" fill="white"/>
<rect opacity="0.2" x="691" y="760" width="76.8" height="76.8" fill="white"/>
<path opacity="0.2" d="M460.6 107.2C460.6 85.9922 477.792 68.8 499 68.8H537.4V145.6H460.6V107.2Z" fill="white"/>
<g opacity="0.2" clip-path="url(#clip2_88_1948)">
<path d="M460.6 836.8H383.8V760L460.6 836.8Z" fill="white"/>
</g>
<g opacity="0.2" clip-path="url(#clip3_88_1948)">
<path d="M76.6 376V452.8H-0.199951L76.6 376Z" fill="white"/>
</g>
<path opacity="0.2" d="M614.2 606.4H652.6C673.808 606.4 691 623.592 691 644.8V683.2H614.2V606.4Z" fill="white"/>
<g opacity="0.2" clip-path="url(#clip4_88_1948)">
<path d="M691 145.6V222.4H614.2L691 145.6Z" fill="white"/>
</g>
<g opacity="0.2" clip-path="url(#clip5_88_1948)">
<path d="M383.8 529.6V452.8H460.6L383.8 529.6Z" fill="white"/>
</g>
<path opacity="0.2" d="M691 337.6C691 316.392 708.192 299.2 729.4 299.2V299.2C750.608 299.2 767.8 316.392 767.8 337.6V376H691V337.6Z" fill="white"/>
<g opacity="0.2" clip-path="url(#clip6_88_1948)">
<path d="M76.6001 683.2H153.4V760L76.6001 683.2Z" fill="white"/>
</g>
<rect opacity="0.2" x="76.6001" y="529.6" width="76.8" height="76.8" fill="white"/>
<path opacity="0.2" d="M230.2 337.6C230.2 316.392 247.392 299.2 268.6 299.2V299.2C289.808 299.2 307 316.392 307 337.6V376H230.2V337.6Z" fill="white"/>
<g opacity="0.2" clip-path="url(#clip7_88_1948)">
<path d="M767.8 452.8V529.6H691L767.8 452.8Z" fill="white"/>
</g>
<path opacity="0.2" d="M-0.199951 491.2C-0.199951 469.992 16.9923 452.8 38.2001 452.8H76.6001V529.6H-0.199951V491.2Z" fill="white"/>
<g opacity="0.2" clip-path="url(#clip8_88_1948)">
<path d="M614.2 376H537.4V299.2L614.2 376Z" fill="white"/>
</g>
<g opacity="0.2" clip-path="url(#clip9_88_1948)">
<path d="M691 760H767.8V836.8L691 760Z" fill="white"/>
</g>
<path opacity="0.2" d="M-0.199951 299.2H38.2001C59.4078 299.2 76.6001 316.392 76.6001 337.6V376H-0.199951V299.2Z" fill="white"/>
<g opacity="0.2" clip-path="url(#clip10_88_1948)">
<path d="M230.2 683.2V760H153.4L230.2 683.2Z" fill="white"/>
</g>
<rect opacity="0.2" x="76.6001" y="990.4" width="76.8" height="76.8" fill="white"/>
<path opacity="0.2" d="M-0.199951 952C-0.199951 930.792 16.9923 913.6 38.2001 913.6V913.6C59.4078 913.6 76.6001 930.792 76.6001 952V990.4H-0.199951V952Z" fill="white"/>
<g opacity="0.2" clip-path="url(#clip11_88_1948)">
<path d="M383.8 145.6H460.6V222.4L383.8 145.6Z" fill="white"/>
</g>
<rect opacity="0.2" x="-0.199951" y="836.8" width="76.8" height="76.8" fill="white"/>
<g opacity="0.2" clip-path="url(#clip12_88_1948)">
<path d="M691 529.6V606.4H614.2L691 529.6Z" fill="white"/>
</g>
<g opacity="0.2" clip-path="url(#clip13_88_1948)">
<path d="M614.2 529.6V606.4H537.4L614.2 529.6Z" fill="white"/>
</g>
<g opacity="0.2" clip-path="url(#clip14_88_1948)">
<path d="M537.4 376V299.2H614.2L537.4 376Z" fill="white"/>
</g>
<g opacity="0.2" clip-path="url(#clip15_88_1948)">
<path d="M153.4 760V683.2H230.2L153.4 760Z" fill="white"/>
</g>
<g opacity="0.2" clip-path="url(#clip16_88_1948)">
<path d="M153.4 1067.2H76.6001L76.6001 990.4L153.4 1067.2Z" fill="white"/>
</g>
<path opacity="0.2" d="M307 875.2C307 853.992 324.192 836.8 345.4 836.8V836.8C366.608 836.8 383.8 853.992 383.8 875.2V913.6H307V875.2Z" fill="white"/>
<g opacity="0.2" clip-path="url(#clip17_88_1948)">
<path d="M537.4 990.4V913.6H614.2L537.4 990.4Z" fill="white"/>
</g>
<g opacity="0.2" clip-path="url(#clip18_88_1948)">
<path d="M76.6 990.4V1067.2H-0.199951L76.6 990.4Z" fill="white"/>
</g>
<path opacity="0.2" d="M460.6 1028.8C460.6 1007.59 477.792 990.4 499 990.4H537.4V1067.2H460.6V1028.8Z" fill="white"/>
<path opacity="0.2" d="M307 990.4H345.4C366.608 990.4 383.8 1007.59 383.8 1028.8V1067.2H307V990.4Z" fill="white"/>
<g opacity="0.2" clip-path="url(#clip19_88_1948)">
<path d="M614.2 145.6H691V222.4L614.2 145.6Z" fill="white"/>
</g>
<rect opacity="0.2" x="307" y="145.6" width="76.8" height="76.8" fill="white"/>
<path opacity="0.2" d="M537.4 721.6C537.4 700.392 554.592 683.2 575.8 683.2V683.2C597.008 683.2 614.2 700.392 614.2 721.6V760H537.4V721.6Z" fill="white"/>
<path opacity="0.2" d="M307 644.8C307 623.592 324.192 606.4 345.4 606.4V606.4C366.608 606.4 383.8 623.592 383.8 644.8V683.2H307V644.8Z" fill="white"/>
<path opacity="0.2" d="M460.6 1067.2H499C520.208 1067.2 537.4 1084.39 537.4 1105.6V1144H460.6V1067.2Z" fill="white"/>
<path opacity="0.2" d="M537.4 952C537.4 930.792 554.592 913.6 575.8 913.6V913.6C597.008 913.6 614.2 930.792 614.2 952V990.4H537.4V952Z" fill="white"/>
<g opacity="0.2" clip-path="url(#clip20_88_1948)">
<path d="M-0.199903 913.6L-0.199903 836.8H76.6001L-0.199903 913.6Z" fill="white"/>
</g>
<path opacity="0.2" d="M537.4 145.6H575.8C597.008 145.6 614.2 162.792 614.2 184V222.4H537.4V145.6Z" fill="white"/>
<g opacity="0.2" clip-path="url(#clip21_88_1948)">
<path d="M460.6 452.8V376H537.4L460.6 452.8Z" fill="white"/>
</g>
<path opacity="0.2" d="M614.2 721.6C614.2 700.392 631.392 683.2 652.6 683.2H691V760H614.2V721.6Z" fill="white"/>
<g opacity="0.2" clip-path="url(#clip22_88_1948)">
<path d="M153.4 836.8H230.2V913.6L153.4 836.8Z" fill="white"/>
</g>
<path opacity="0.2" d="M307 721.6C307 700.392 324.192 683.2 345.4 683.2H383.8V760H307V721.6Z" fill="white"/>
<path opacity="0.2" d="M307 299.2H345.4C366.608 299.2 383.8 316.392 383.8 337.6V376H307V299.2Z" fill="white"/>
<g opacity="0.2" clip-path="url(#clip23_88_1948)">
<path d="M307 606.4V529.6H383.8L307 606.4Z" fill="white"/>
</g>
<path opacity="0.2" d="M307 260.8C307 239.592 324.192 222.4 345.4 222.4V222.4C366.608 222.4 383.8 239.592 383.8 260.8V299.2H307V260.8Z" fill="white"/>
<path opacity="0.2" d="M460.6 491.2C460.6 469.992 477.792 452.8 499 452.8V452.8C520.208 452.8 537.4 469.992 537.4 491.2V529.6H460.6V491.2Z" fill="white"/>
<rect opacity="0.2" x="460.6" y="376" width="76.8" height="76.8" fill="white"/>
<path opacity="0.2" d="M307 798.4C307 777.192 324.192 760 345.4 760H383.8V836.8H307V798.4Z" fill="white"/>
<g opacity="0.2" clip-path="url(#clip24_88_1948)">
<path d="M460.6 222.4V145.6H537.4L460.6 222.4Z" fill="white"/>
</g>
<g opacity="0.2" clip-path="url(#clip25_88_1948)">
<path d="M537.4 990.4H614.2V1067.2L537.4 990.4Z" fill="white"/>
</g>
<g opacity="0.2" clip-path="url(#clip26_88_1948)">
<path d="M307 452.8H230.2V376L307 452.8Z" fill="white"/>
</g>
<g opacity="0.2" clip-path="url(#clip27_88_1948)">
<path d="M537.4 683.2V760H460.6L537.4 683.2Z" fill="white"/>
</g>
<g opacity="0.2" clip-path="url(#clip28_88_1948)">
<path d="M153.4 68.8H230.2V145.6L153.4 68.8Z" fill="white"/>
</g>
<g opacity="0.2" clip-path="url(#clip29_88_1948)">
<path d="M307 836.8V913.6H230.2L307 836.8Z" fill="white"/>
</g>
<g opacity="0.2" clip-path="url(#clip30_88_1948)">
<path d="M153.4 683.2H76.6001L76.6001 606.4L153.4 683.2Z" fill="white"/>
</g>
<g opacity="0.2" clip-path="url(#clip31_88_1948)">
<path d="M-0.199903 836.8L-0.199903 760H76.6001L-0.199903 836.8Z" fill="white"/>
</g>
<g opacity="0.2" clip-path="url(#clip32_88_1948)">
<path d="M76.6001 606.4H153.4V683.2L76.6001 606.4Z" fill="white"/>
</g>
<g opacity="0.2" clip-path="url(#clip33_88_1948)">
<path d="M307 299.2V222.4H383.8L307 299.2Z" fill="white"/>
</g>
<path opacity="0.2" d="M230.2 491.2C230.2 469.992 247.392 452.8 268.6 452.8V452.8C289.808 452.8 307 469.992 307 491.2V529.6H230.2V491.2Z" fill="white"/>
<path opacity="0.2" d="M230.2 107.2C230.2 85.9922 247.392 68.8 268.6 68.8H307V145.6H230.2V107.2Z" fill="white"/>
<g opacity="0.2" clip-path="url(#clip34_88_1948)">
<path d="M383.8 452.8H460.6V529.6L383.8 452.8Z" fill="white"/>
</g>
<path opacity="0.2" d="M383.8 952C383.8 930.792 400.992 913.6 422.2 913.6V913.6C443.408 913.6 460.6 930.792 460.6 952V990.4H383.8V952Z" fill="white"/>
<g opacity="0.2" clip-path="url(#clip35_88_1948)">
<path d="M383.8 1067.2V1144H307L383.8 1067.2Z" fill="white"/>
</g>
<path opacity="0.2" d="M460.6 299.2H499C520.208 299.2 537.4 316.392 537.4 337.6V376H460.6V299.2Z" fill="white"/>
<path opacity="0.2" d="M691 1105.6C691 1084.39 708.192 1067.2 729.4 1067.2H767.8V1144H691V1105.6Z" fill="white"/>
<g opacity="0.2" clip-path="url(#clip36_88_1948)">
<path d="M537.4 683.2H460.6V606.4L537.4 683.2Z" fill="white"/>
</g>
<path opacity="0.2" d="M614.2 491.2C614.2 469.992 631.392 452.8 652.6 452.8H691V529.6H614.2V491.2Z" fill="white"/>
<path opacity="0.2" d="M153.4 798.4C153.4 777.192 170.592 760 191.8 760V760C213.008 760 230.2 777.192 230.2 798.4V836.8H153.4V798.4Z" fill="white"/>
<g opacity="0.2" clip-path="url(#clip37_88_1948)">
<path d="M460.6 68.8H537.4V145.6L460.6 68.8Z" fill="white"/>
</g>
<g opacity="0.2" clip-path="url(#clip38_88_1948)">
<path d="M383.8 913.6H307V836.8L383.8 913.6Z" fill="white"/>
</g>
<path opacity="0.2" d="M614.2 1067.2H652.6C673.808 1067.2 691 1084.39 691 1105.6V1144H614.2V1067.2Z" fill="white"/>
<path opacity="0.2" d="M307 68.8H345.4C366.608 68.8 383.8 85.9923 383.8 107.2V145.6H307V68.8Z" fill="white"/>
<g opacity="0.2" clip-path="url(#clip39_88_1948)">
<path d="M307 1067.2V990.4H383.8L307 1067.2Z" fill="white"/>
</g>
<path opacity="0.2" d="M-0.199951 568C-0.199951 546.792 16.9923 529.6 38.2001 529.6V529.6C59.4078 529.6 76.6001 546.792 76.6001 568V606.4H-0.199951V568Z" fill="white"/>
<path opacity="0.2" d="M460.6 952C460.6 930.792 477.792 913.6 499 913.6V913.6C520.208 913.6 537.4 930.792 537.4 952V990.4H460.6V952Z" fill="white"/>
<g opacity="0.2" clip-path="url(#clip40_88_1948)">
<path d="M537.4 913.6V836.8H614.2L537.4 913.6Z" fill="white"/>
</g>
<path opacity="0.2" d="M230.2 683.2H268.6C289.808 683.2 307 700.392 307 721.6V760H230.2V683.2Z" fill="white"/>
<path opacity="0.2" d="M76.6001 184C76.6001 162.792 93.7924 145.6 115 145.6V145.6C136.208 145.6 153.4 162.792 153.4 184V222.4H76.6001V184Z" fill="white"/>
<path opacity="0.2" d="M691 606.4H729.4C750.608 606.4 767.8 623.592 767.8 644.8V683.2H691V606.4Z" fill="white"/>
<path opacity="0.2" d="M307 529.6H345.4C366.608 529.6 383.8 546.792 383.8 568V606.4H307V529.6Z" fill="white"/>
<path opacity="0.2" d="M153.4 875.2C153.4 853.992 170.592 836.8 191.8 836.8V836.8C213.008 836.8 230.2 853.992 230.2 875.2V913.6H153.4V875.2Z" fill="white"/>
<g opacity="0.2" clip-path="url(#clip41_88_1948)">
<path d="M691 68.8H767.8V145.6L691 68.8Z" fill="white"/>
</g>
<path opacity="0.2" d="M383.8 1028.8C383.8 1007.59 400.992 990.4 422.2 990.4V990.4C443.408 990.4 460.6 1007.59 460.6 1028.8V1067.2H383.8V1028.8Z" fill="white"/>
<path opacity="0.2" d="M76.6001 414.4C76.6001 393.192 93.7924 376 115 376H153.4V452.8H76.6001V414.4Z" fill="white"/>
<g opacity="0.2" clip-path="url(#clip42_88_1948)">
<path d="M537.4 836.8H460.6V760L537.4 836.8Z" fill="white"/>
</g>
<rect opacity="0.2" x="460.6" y="836.8" width="76.8" height="76.8" fill="white"/>
<g opacity="0.2" clip-path="url(#clip43_88_1948)">
<path d="M230.2 990.4H307V1067.2L230.2 990.4Z" fill="white"/>
</g>
<g opacity="0.2" clip-path="url(#clip44_88_1948)">
<path d="M691 452.8H767.8V529.6L691 452.8Z" fill="white"/>
</g>
<path opacity="0.2" d="M691 1028.8C691 1007.59 708.192 990.4 729.4 990.4V990.4C750.608 990.4 767.8 1007.59 767.8 1028.8V1067.2H691V1028.8Z" fill="white"/>
<g opacity="0.2" clip-path="url(#clip45_88_1948)">
<path d="M76.6001 376H153.4V452.8L76.6001 376Z" fill="white"/>
</g>
<g opacity="0.2" clip-path="url(#clip46_88_1948)">
<path d="M691 145.6H767.8V222.4L691 145.6Z" fill="white"/>
</g>
<path opacity="0.2" d="M230.2 145.6H268.6C289.808 145.6 307 162.792 307 184V222.4H230.2V145.6Z" fill="white"/>
<rect opacity="0.2" x="76.6001" y="222.4" width="76.8" height="76.8" fill="white"/>
<path opacity="0.2" d="M76.6001 1067.2H115C136.208 1067.2 153.4 1084.39 153.4 1105.6V1144H76.6001V1067.2Z" fill="white"/>
<path opacity="0.2" d="M230.2 952C230.2 930.792 247.392 913.6 268.6 913.6H307V990.4H230.2V952Z" fill="white"/>
<path opacity="0.2" d="M153.4 68.8H191.8C213.008 68.8 230.2 85.9923 230.2 107.2V145.6H153.4V68.8Z" fill="white"/>
<path opacity="0.2" d="M383.8 798.4C383.8 777.192 400.992 760 422.2 760V760C443.408 760 460.6 777.192 460.6 798.4V836.8H383.8V798.4Z" fill="white"/>
<path opacity="0.2" d="M537.4 1028.8C537.4 1007.59 554.592 990.4 575.8 990.4H614.2V1067.2H537.4V1028.8Z" fill="white"/>
<g opacity="0.2" clip-path="url(#clip47_88_1948)">
<path d="M383.8 452.8H307V376L383.8 452.8Z" fill="white"/>
</g>
<g opacity="0.2" clip-path="url(#clip48_88_1948)">
<path d="M153.4 990.4H230.2V1067.2L153.4 990.4Z" fill="white"/>
</g>
<g opacity="0.2" clip-path="url(#clip49_88_1948)">
<path d="M230.2 376V452.8H153.4L230.2 376Z" fill="white"/>
</g>
<rect opacity="0.2" x="153.4" y="222.4" width="76.8" height="76.8" fill="white"/>
<path opacity="0.2" d="M230.2 568C230.2 546.792 247.392 529.6 268.6 529.6V529.6C289.808 529.6 307 546.792 307 568V606.4H230.2V568Z" fill="white"/>
<path opacity="0.2" d="M537.4 875.2C537.4 853.992 554.592 836.8 575.8 836.8V836.8C597.008 836.8 614.2 853.992 614.2 875.2V913.6H537.4V875.2Z" fill="white"/>
<path opacity="0.2" d="M460.6 644.8C460.6 623.592 477.792 606.4 499 606.4V606.4C520.208 606.4 537.4 623.592 537.4 644.8V683.2H460.6V644.8Z" fill="white"/>
<g opacity="0.2" clip-path="url(#clip50_88_1948)">
<path d="M230.2 529.6V606.4H153.4L230.2 529.6Z" fill="white"/>
</g>
<path opacity="0.2" d="M614.2 875.2C614.2 853.992 631.392 836.8 652.6 836.8H691V913.6H614.2V875.2Z" fill="white"/>
<g opacity="0.2" clip-path="url(#clip51_88_1948)">
<path d="M230.2 452.8H153.4V376L230.2 452.8Z" fill="white"/>
</g>
<rect opacity="0.2" x="460.6" y="222.4" width="76.8" height="76.8" fill="white"/>
<g opacity="0.2" clip-path="url(#clip52_88_1948)">
<path d="M537.4 222.4H614.2V299.2L537.4 222.4Z" fill="white"/>
</g>
<path opacity="0.2" d="M537.4 414.4C537.4 393.192 554.592 376 575.8 376H614.2V452.8H537.4V414.4Z" fill="white"/>
<g opacity="0.2" clip-path="url(#clip53_88_1948)">
<path d="M76.6001 529.6H153.4V606.4L76.6001 529.6Z" fill="white"/>
</g>
<path opacity="0.2" d="M614.2 798.4C614.2 777.192 631.392 760 652.6 760H691V836.8H614.2V798.4Z" fill="white"/>
<g opacity="0.2" clip-path="url(#clip54_88_1948)">
<path d="M153.4 376H230.2V452.8L153.4 376Z" fill="white"/>
</g>
<g opacity="0.2" clip-path="url(#clip55_88_1948)">
<path d="M76.6001 376H-0.199903L-0.199903 299.2L76.6001 376Z" fill="white"/>
</g>
<rect opacity="0.2" x="-0.199951" y="683.2" width="76.8" height="76.8" fill="white"/>
<path opacity="0.2" d="M-0.199951 1105.6C-0.199951 1084.39 16.9923 1067.2 38.2001 1067.2H76.6001V1144H-0.199951V1105.6Z" fill="white"/>
<path opacity="0.2" d="M230.2 1028.8C230.2 1007.59 247.392 990.4 268.6 990.4V990.4C289.808 990.4 307 1007.59 307 1028.8V1067.2H230.2V1028.8Z" fill="white"/>
<rect opacity="0.2" x="691" y="913.6" width="76.8" height="76.8" fill="white"/>
<path opacity="0.2" d="M383.8 721.6C383.8 700.392 400.992 683.2 422.2 683.2H460.6V760H383.8V721.6Z" fill="white"/>
<rect opacity="0.2" x="230.2" y="222.4" width="76.8" height="76.8" fill="white"/>
<path opacity="0.2" d="M230.2 644.8C230.2 623.592 247.392 606.4 268.6 606.4H307V683.2H230.2V644.8Z" fill="white"/>
<g opacity="0.2" clip-path="url(#clip56_88_1948)">
<path d="M767.8 68.8V145.6H691L767.8 68.8Z" fill="white"/>
</g>
<path opacity="0.2" d="M614.2 68.8H652.6C673.808 68.8 691 85.9923 691 107.2V145.6H614.2V68.8Z" fill="white"/>
<path opacity="0.2" d="M-0.199951 184C-0.199951 162.792 16.9923 145.6 38.2001 145.6H76.6001V222.4H-0.199951V184Z" fill="white"/>
<g opacity="0.2" clip-path="url(#clip57_88_1948)">
<path d="M383.8 68.8H460.6V145.6L383.8 68.8Z" fill="white"/>
</g>
<path opacity="0.2" d="M691 721.6C691 700.392 708.192 683.2 729.4 683.2H767.8V760H691V721.6Z" fill="white"/>
<defs>
<clipPath id="clip0_88_1948">
<rect width="76.8" height="76.8" fill="white" transform="translate(383.8 452.8)"/>
</clipPath>
<clipPath id="clip1_88_1948">
<rect width="76.8" height="76.8" fill="white" transform="matrix(0 -1 1 0 307 913.6)"/>
</clipPath>
<clipPath id="clip2_88_1948">
<rect width="76.8" height="76.8" fill="white" transform="matrix(0 1 -1 0 460.6 760)"/>
</clipPath>
<clipPath id="clip3_88_1948">
<rect width="76.8" height="76.8" fill="white" transform="translate(-0.199951 376)"/>
</clipPath>
<clipPath id="clip4_88_1948">
<rect width="76.8" height="76.8" fill="white" transform="translate(614.2 145.6)"/>
</clipPath>
<clipPath id="clip5_88_1948">
<rect width="76.8" height="76.8" fill="white" transform="matrix(-1 0 0 -1 460.6 529.6)"/>
</clipPath>
<clipPath id="clip6_88_1948">
<rect width="76.8" height="76.8" fill="white" transform="matrix(0 -1 1 0 76.6001 760)"/>
</clipPath>
<clipPath id="clip7_88_1948">
<rect width="76.8" height="76.8" fill="white" transform="translate(691 452.8)"/>
</clipPath>
<clipPath id="clip8_88_1948">
<rect width="76.8" height="76.8" fill="white" transform="matrix(0 1 -1 0 614.2 299.2)"/>
</clipPath>
<clipPath id="clip9_88_1948">
<rect width="76.8" height="76.8" fill="white" transform="matrix(0 -1 1 0 691 836.8)"/>
</clipPath>
<clipPath id="clip10_88_1948">
<rect width="76.8" height="76.8" fill="white" transform="translate(153.4 683.2)"/>
</clipPath>
<clipPath id="clip11_88_1948">
<rect width="76.8" height="76.8" fill="white" transform="matrix(0 -1 1 0 383.8 222.4)"/>
</clipPath>
<clipPath id="clip12_88_1948">
<rect width="76.8" height="76.8" fill="white" transform="translate(614.2 529.6)"/>
</clipPath>
<clipPath id="clip13_88_1948">
<rect width="76.8" height="76.8" fill="white" transform="translate(537.4 529.6)"/>
</clipPath>
<clipPath id="clip14_88_1948">
<rect width="76.8" height="76.8" fill="white" transform="matrix(-1 0 0 -1 614.2 376)"/>
</clipPath>
<clipPath id="clip15_88_1948">
<rect width="76.8" height="76.8" fill="white" transform="matrix(-1 0 0 -1 230.2 760)"/>
</clipPath>
<clipPath id="clip16_88_1948">
<rect width="76.8" height="76.8" fill="white" transform="matrix(0 1 -1 0 153.4 990.4)"/>
</clipPath>
<clipPath id="clip17_88_1948">
<rect width="76.8" height="76.8" fill="white" transform="matrix(-1 0 0 -1 614.2 990.4)"/>
</clipPath>
<clipPath id="clip18_88_1948">
<rect width="76.8" height="76.8" fill="white" transform="translate(-0.199951 990.4)"/>
</clipPath>
<clipPath id="clip19_88_1948">
<rect width="76.8" height="76.8" fill="white" transform="matrix(0 -1 1 0 614.2 222.4)"/>
</clipPath>
<clipPath id="clip20_88_1948">
<rect width="76.8" height="76.8" fill="white" transform="matrix(-1 0 0 -1 76.6001 913.6)"/>
</clipPath>
<clipPath id="clip21_88_1948">
<rect width="76.8" height="76.8" fill="white" transform="matrix(-1 0 0 -1 537.4 452.8)"/>
</clipPath>
<clipPath id="clip22_88_1948">
<rect width="76.8" height="76.8" fill="white" transform="matrix(0 -1 1 0 153.4 913.6)"/>
</clipPath>
<clipPath id="clip23_88_1948">
<rect width="76.8" height="76.8" fill="white" transform="matrix(-1 0 0 -1 383.8 606.4)"/>
</clipPath>
<clipPath id="clip24_88_1948">
<rect width="76.8" height="76.8" fill="white" transform="matrix(-1 0 0 -1 537.4 222.4)"/>
</clipPath>
<clipPath id="clip25_88_1948">
<rect width="76.8" height="76.8" fill="white" transform="matrix(0 -1 1 0 537.4 1067.2)"/>
</clipPath>
<clipPath id="clip26_88_1948">
<rect width="76.8" height="76.8" fill="white" transform="matrix(0 1 -1 0 307 376)"/>
</clipPath>
<clipPath id="clip27_88_1948">
<rect width="76.8" height="76.8" fill="white" transform="translate(460.6 683.2)"/>
</clipPath>
<clipPath id="clip28_88_1948">
<rect width="76.8" height="76.8" fill="white" transform="matrix(0 -1 1 0 153.4 145.6)"/>
</clipPath>
<clipPath id="clip29_88_1948">
<rect width="76.8" height="76.8" fill="white" transform="translate(230.2 836.8)"/>
</clipPath>
<clipPath id="clip30_88_1948">
<rect width="76.8" height="76.8" fill="white" transform="matrix(0 1 -1 0 153.4 606.4)"/>
</clipPath>
<clipPath id="clip31_88_1948">
<rect width="76.8" height="76.8" fill="white" transform="matrix(-1 0 0 -1 76.6001 836.8)"/>
</clipPath>
<clipPath id="clip32_88_1948">
<rect width="76.8" height="76.8" fill="white" transform="matrix(0 -1 1 0 76.6001 683.2)"/>
</clipPath>
<clipPath id="clip33_88_1948">
<rect width="76.8" height="76.8" fill="white" transform="matrix(-1 0 0 -1 383.8 299.2)"/>
</clipPath>
<clipPath id="clip34_88_1948">
<rect width="76.8" height="76.8" fill="white" transform="matrix(0 -1 1 0 383.8 529.6)"/>
</clipPath>
<clipPath id="clip35_88_1948">
<rect width="76.8" height="76.8" fill="white" transform="translate(307 1067.2)"/>
</clipPath>
<clipPath id="clip36_88_1948">
<rect width="76.8" height="76.8" fill="white" transform="matrix(0 1 -1 0 537.4 606.4)"/>
</clipPath>
<clipPath id="clip37_88_1948">
<rect width="76.8" height="76.8" fill="white" transform="matrix(0 -1 1 0 460.6 145.6)"/>
</clipPath>
<clipPath id="clip38_88_1948">
<rect width="76.8" height="76.8" fill="white" transform="matrix(0 1 -1 0 383.8 836.8)"/>
</clipPath>
<clipPath id="clip39_88_1948">
<rect width="76.8" height="76.8" fill="white" transform="matrix(-1 0 0 -1 383.8 1067.2)"/>
</clipPath>
<clipPath id="clip40_88_1948">
<rect width="76.8" height="76.8" fill="white" transform="matrix(-1 0 0 -1 614.2 913.6)"/>
</clipPath>
<clipPath id="clip41_88_1948">
<rect width="76.8" height="76.8" fill="white" transform="matrix(0 -1 1 0 691 145.6)"/>
</clipPath>
<clipPath id="clip42_88_1948">
<rect width="76.8" height="76.8" fill="white" transform="matrix(0 1 -1 0 537.4 760)"/>
</clipPath>
<clipPath id="clip43_88_1948">
<rect width="76.8" height="76.8" fill="white" transform="matrix(0 -1 1 0 230.2 1067.2)"/>
</clipPath>
<clipPath id="clip44_88_1948">
<rect width="76.8" height="76.8" fill="white" transform="matrix(0 -1 1 0 691 529.6)"/>
</clipPath>
<clipPath id="clip45_88_1948">
<rect width="76.8" height="76.8" fill="white" transform="matrix(0 -1 1 0 76.6001 452.8)"/>
</clipPath>
<clipPath id="clip46_88_1948">
<rect width="76.8" height="76.8" fill="white" transform="matrix(0 -1 1 0 691 222.4)"/>
</clipPath>
<clipPath id="clip47_88_1948">
<rect width="76.8" height="76.8" fill="white" transform="matrix(0 1 -1 0 383.8 376)"/>
</clipPath>
<clipPath id="clip48_88_1948">
<rect width="76.8" height="76.8" fill="white" transform="matrix(0 -1 1 0 153.4 1067.2)"/>
</clipPath>
<clipPath id="clip49_88_1948">
<rect width="76.8" height="76.8" fill="white" transform="translate(153.4 376)"/>
</clipPath>
<clipPath id="clip50_88_1948">
<rect width="76.8" height="76.8" fill="white" transform="translate(153.4 529.6)"/>
</clipPath>
<clipPath id="clip51_88_1948">
<rect width="76.8" height="76.8" fill="white" transform="matrix(0 1 -1 0 230.2 376)"/>
</clipPath>
<clipPath id="clip52_88_1948">
<rect width="76.8" height="76.8" fill="white" transform="matrix(0 -1 1 0 537.4 299.2)"/>
</clipPath>
<clipPath id="clip53_88_1948">
<rect width="76.8" height="76.8" fill="white" transform="matrix(0 -1 1 0 76.6001 606.4)"/>
</clipPath>
<clipPath id="clip54_88_1948">
<rect width="76.8" height="76.8" fill="white" transform="matrix(0 -1 1 0 153.4 452.8)"/>
</clipPath>
<clipPath id="clip55_88_1948">
<rect width="76.8" height="76.8" fill="white" transform="matrix(0 1 -1 0 76.6001 299.2)"/>
</clipPath>
<clipPath id="clip56_88_1948">
<rect width="76.8" height="76.8" fill="white" transform="translate(691 68.8)"/>
</clipPath>
<clipPath id="clip57_88_1948">
<rect width="76.8" height="76.8" fill="white" transform="matrix(0 -1 1 0 383.8 145.6)"/>
</clipPath>
</defs>
</svg>
