<svg width="768" height="1200" viewBox="0 0 768 1200" fill="none" xmlns="http://www.w3.org/2000/svg">
<g clip-path="url(#clip0_59_848)">
<path opacity="0.1" d="M-525 1200C-522.752 1146.9 -496.309 1048.49 -450.23 921.722C-404.15 794.959 -341.323 647.792 -272.581 505.599C-203.839 363.406 -133.491 235.099 -73.6671 142.801C-13.8433 50.503 31.7067 0 55.1288 0C78.5508 0 78.3769 50.503 54.637 142.801C30.8971 235.099 -14.9209 363.406 -74.9166 505.599C-134.912 647.792 -205.325 794.959 -274.014 921.722C-342.703 1048.49 -405.362 1146.9 -451.188 1200C-448.94 1146.9 -422.497 1048.49 -376.417 921.722C-330.338 794.959 -267.511 647.792 -198.769 505.599C-130.027 363.406 -59.6788 235.099 0.144998 142.801C59.9688 50.503 105.519 0 128.941 0C152.363 0 152.189 50.503 128.449 142.801C104.709 235.099 58.8912 363.406 -1.10444 505.599C-61.1001 647.792 -131.513 794.959 -200.202 921.722C-268.891 1048.49 -331.55 1146.9 -377.376 1200C-375.128 1146.9 -348.685 1048.49 -302.605 921.722C-256.526 794.959 -193.698 647.792 -124.957 505.599C-56.2146 363.406 14.1333 235.099 73.9571 142.801C133.781 50.503 179.331 0 202.753 0C226.175 0 226.001 50.503 202.261 142.801C178.521 235.099 132.703 363.406 72.7077 505.599C12.7121 647.792 -57.7008 794.959 -126.39 921.722C-195.078 1048.49 -257.738 1146.9 -303.564 1200C-301.316 1146.9 -274.873 1048.49 -228.793 921.722C-182.714 794.959 -119.886 647.792 -51.1444 505.599C17.5975 363.406 87.9454 235.099 147.769 142.801C207.593 50.503 253.143 0 276.565 0C299.987 0 299.813 50.503 276.073 142.801C252.333 235.099 206.515 363.406 146.52 505.599C86.5242 647.792 16.1113 794.959 -52.5775 921.722C-121.266 1048.49 -183.926 1146.9 -229.751 1200C-227.504 1146.9 -201.06 1048.49 -154.981 921.722C-108.902 794.959 -46.0742 647.792 22.6677 505.599C91.4097 363.406 161.758 235.099 221.581 142.801C281.405 50.503 326.955 0 350.377 0C373.799 0 373.625 50.503 349.885 142.801C326.146 235.099 280.328 363.406 220.332 505.599C160.336 647.792 89.9235 794.959 21.2347 921.722C-47.4542 1048.49 -110.114 1146.9 -155.939 1200C-153.692 1146.9 -127.248 1048.49 -81.1689 921.722C-35.0894 794.959 27.7379 647.792 96.4799 505.599C165.222 363.406 235.57 235.099 295.393 142.801C355.217 50.503 400.767 0 424.189 0C447.612 0 447.438 50.503 423.698 142.801C399.958 235.099 354.14 363.406 294.144 505.599C234.148 647.792 163.736 794.959 95.0468 921.722C26.3579 1048.49 -36.3015 1146.9 -82.1272 1200C-79.8796 1146.9 -53.4362 1048.49 -7.35676 921.722C38.7227 794.959 101.55 647.792 170.292 505.599C239.034 363.406 309.382 235.099 369.206 142.801C429.029 50.503 474.579 0 498.002 0C521.424 0 521.25 50.503 497.51 142.801C473.77 235.099 427.952 363.406 367.956 505.599C307.961 647.792 237.548 794.959 168.859 921.722C100.17 1048.49 37.5106 1146.9 -8.31512 1200C-6.06746 1146.9 20.3759 1048.49 66.4553 921.722C112.535 794.959 175.362 647.792 244.104 505.599C312.846 363.406 383.194 235.099 443.018 142.801C502.842 50.503 548.392 0 571.814 0C595.236 0 595.062 50.503 571.322 142.801C547.582 235.099 501.764 363.406 441.768 505.599C381.773 647.792 311.36 794.959 242.671 921.722C173.982 1048.49 111.323 1146.9 65.497 1200C67.7447 1146.9 94.188 1048.49 140.267 921.722C186.347 794.959 249.174 647.792 317.916 505.599C386.658 363.406 457.006 235.099 516.83 142.801C576.654 50.503 622.204 0 645.626 0C669.048 0 668.874 50.503 645.134 142.801C621.394 235.099 575.576 363.406 515.58 505.599C455.585 647.792 385.172 794.959 316.483 921.722C247.794 1048.49 185.135 1146.9 139.309 1200C141.557 1146.9 168 1048.49 214.08 921.722C260.159 794.959 322.986 647.792 391.728 505.599C460.47 363.406 530.818 235.099 590.642 142.801C650.466 50.503 696.016 0 719.438 0C742.86 0 742.686 50.503 718.946 142.801C695.206 235.099 649.388 363.406 589.393 505.599C529.397 647.792 458.984 794.959 390.295 921.722C321.606 1048.49 258.947 1146.9 213.121 1200C215.369 1146.9 241.812 1048.49 287.892 921.722C333.971 794.959 396.799 647.792 465.541 505.599C534.282 363.406 604.63 235.099 664.454 142.801C724.278 50.503 769.828 0 793.25 0C816.672 0 816.498 50.503 792.758 142.801C769.018 235.099 723.2 363.406 663.205 505.599C603.209 647.792 532.796 794.959 464.107 921.722C395.419 1048.49 332.759 1146.9 286.933 1200C289.181 1146.9 315.624 1048.49 361.704 921.722C407.783 794.959 470.611 647.792 539.353 505.599C608.095 363.406 678.442 235.099 738.266 142.801C798.09 50.503 843.64 0 867.062 0C890.484 0 890.31 50.503 866.57 142.801C842.83 235.099 797.012 363.406 737.017 505.599C677.021 647.792 606.608 794.959 537.92 921.722C469.231 1048.49 406.571 1146.9 360.746 1200C362.993 1146.9 389.437 1048.49 435.516 921.722C481.595 794.959 544.423 647.792 613.165 505.599C681.907 363.406 752.255 235.099 812.078 142.801C871.902 50.503 917.452 0 940.874 0C964.296 0 964.122 50.503 940.382 142.801C916.643 235.099 870.825 363.406 810.829 505.599C750.833 647.792 680.42 794.959 611.732 921.722C543.043 1048.49 480.383 1146.9 434.558 1200C436.805 1146.9 463.249 1048.49 509.328 921.722C555.408 794.959 618.235 647.792 686.977 505.599C755.719 363.406 826.067 235.099 885.89 142.801C945.714 50.503 991.264 0 1014.69 0C1038.11 0 1037.93 50.503 1014.19 142.801C990.455 235.099 944.637 363.406 884.641 505.599C824.645 647.792 754.233 794.959 685.544 921.722C616.855 1048.49 554.196 1146.9 508.37 1200C510.617 1146.9 537.061 1048.49 583.14 921.722C629.22 794.959 692.047 647.792 760.789 505.599C829.531 363.406 899.879 235.099 959.703 142.801C1019.53 50.503 1065.08 0 1088.5 0C1111.92 0 1111.75 50.503 1088.01 142.801C1064.27 235.099 1018.45 363.406 958.453 505.599C898.457 647.792 828.045 794.959 759.356 921.722C690.667 1048.49 628.008 1146.9 582.182 1200C584.43 1146.9 610.873 1048.49 656.952 921.722C703.032 794.959 765.859 647.792 834.601 505.599C903.343 363.406 973.691 235.099 1033.51 142.801C1093.34 50.503 1138.89 0 1162.31 0C1185.73 0 1185.56 50.503 1161.82 142.801C1138.08 235.099 1092.26 363.406 1032.27 505.599C972.27 647.792 901.857 794.959 833.168 921.722C764.479 1048.49 701.82 1146.9 655.994 1200C658.242 1146.9 684.685 1048.49 730.764 921.722C776.844 794.959 839.671 647.792 908.413 505.599C977.155 363.406 1047.5 235.099 1107.33 142.801C1167.15 50.503 1212.7 0 1236.12 0C1259.54 0 1259.37 50.503 1235.63 142.801C1211.89 235.099 1166.07 363.406 1106.08 505.599C1046.08 647.792 975.669 794.959 906.98 921.722C838.291 1048.49 775.632 1146.9 729.806 1200C732.054 1146.9 758.497 1048.49 804.577 921.722C850.656 794.959 913.483 647.792 982.225 505.599C1050.97 363.406 1121.32 235.099 1181.14 142.801C1240.96 50.503 1286.51 0 1309.93 0C1333.36 0 1333.18 50.503 1309.44 142.801C1285.7 235.099 1239.89 363.406 1179.89 505.599C1119.89 647.792 1049.48 794.959 980.792 921.722C912.103 1048.49 849.444 1146.9 803.618 1200C805.866 1146.9 832.309 1048.49 878.389 921.722C924.468 794.959 987.295 647.792 1056.04 505.599C1124.78 363.406 1195.13 235.099 1254.95 142.801C1314.77 50.503 1360.32 0 1383.75 0C1407.17 0 1407 50.503 1383.26 142.801C1359.52 235.099 1313.7 363.406 1253.7 505.599C1193.71 647.792 1123.29 794.959 1054.6 921.722C985.916 1048.49 923.256 1146.9 877.43 1200C879.678 1146.9 906.121 1048.49 952.201 921.722C998.28 794.959 1061.11 647.792 1129.85 505.599C1198.59 363.406 1268.94 235.099 1328.76 142.801C1388.59 50.503 1434.14 0 1457.56 0C1480.98 0 1480.81 50.503 1457.07 142.801C1433.33 235.099 1387.51 363.406 1327.51 505.599C1267.52 647.792 1197.11 794.959 1128.42 921.722C1059.73 1048.49 997.068 1146.9 951.243 1200" stroke="white" stroke-width="2"/>
</g>
<defs>
<clipPath id="clip0_59_848">
<rect width="768" height="1200" fill="white"/>
</clipPath>
</defs>
</svg>
