<svg width="88" height="46" viewBox="0 0 88 46" fill="none" xmlns="http://www.w3.org/2000/svg">
<rect width="88" height="46" rx="23" fill="#FFF491"/>
<path fill-rule="evenodd" clip-rule="evenodd" d="M44 23C44 30.4028 39.978 36.8663 34 40.3244C28.022 36.8663 24 30.4028 24 23C24 15.5972 28.022 9.13374 34 5.67564C39.978 9.13374 44 15.5972 44 23ZM54 5.67564C51.0583 3.97394 47.6429 3 44 3C40.3571 3 36.9417 3.97394 34 5.67564C31.0583 3.97394 27.6429 3 24 3C12.9543 3 4 11.9543 4 23C4 34.0457 12.9543 43 24 43C27.6429 43 31.0583 42.0261 34 40.3244C36.9417 42.0261 40.3571 43 44 43C47.6429 43 51.0583 42.0261 54 40.3244C56.9417 42.0261 60.3571 43 64 43C75.0457 43 84 34.0457 84 23C84 11.9543 75.0457 3 64 3C60.3571 3 56.9417 3.97394 54 5.67564ZM54 5.67564C59.978 9.13374 64 15.5972 64 23C64 30.4028 59.978 36.8663 54 40.3244C48.022 36.8663 44 30.4028 44 23C44 15.5972 48.022 9.13374 54 5.67564Z" fill="#FB4E4E"/>
</svg>
