<svg width="40" height="40" viewBox="0 0 40 40" fill="none" xmlns="http://www.w3.org/2000/svg">
<g clip-path="url(#clip0_7_69)">
<rect width="40" height="40" rx="10" fill="#CAFE64"/>
<path opacity="0.4" d="M-2.94318 11L-2.03409 5.54545H3.05114L2.14205 11H0.295455L0.963068 7.00852H-0.457386L-1.125 11H-2.94318ZM5.75 11.0994C5.15814 11.0994 4.67045 10.9822 4.28693 10.7479C3.90578 10.5111 3.63826 10.1821 3.48438 9.76065C3.33049 9.33688 3.29972 8.84564 3.39205 8.28693C3.48438 7.72822 3.67732 7.23816 3.97088 6.81676C4.26444 6.39299 4.64205 6.06392 5.10369 5.82955C5.56534 5.5928 6.09328 5.47443 6.6875 5.47443C7.27699 5.47443 7.76231 5.5928 8.14347 5.82955C8.52699 6.06392 8.79569 6.39299 8.94957 6.81676C9.10582 7.23816 9.13778 7.72822 9.04545 8.28693C8.95313 8.84564 8.759 9.33688 8.46307 9.76065C8.16714 10.1821 7.78835 10.5111 7.3267 10.7479C6.86742 10.9822 6.34186 11.0994 5.75 11.0994ZM5.99148 9.65057C6.16193 9.65057 6.317 9.59493 6.45668 9.48366C6.59872 9.3724 6.71946 9.21378 6.81889 9.00781C6.92069 8.80185 6.99527 8.55682 7.04261 8.27273C7.08996 7.98627 7.09706 7.74124 7.06392 7.53764C7.03078 7.33168 6.96212 7.17306 6.85795 7.06179C6.75379 6.95052 6.61648 6.89489 6.44602 6.89489C6.27557 6.89489 6.11932 6.95052 5.97727 7.06179C5.83523 7.17306 5.71449 7.33168 5.61506 7.53764C5.51563 7.74124 5.44223 7.98627 5.39489 8.27273C5.34754 8.55682 5.33925 8.80185 5.37003 9.00781C5.40317 9.21378 5.47183 9.3724 5.57599 9.48366C5.68253 9.59493 5.82102 9.65057 5.99148 9.65057ZM13.1222 8.96875L14.8835 5.54545H16.2756L13.392 11H12.1705L11.1619 5.54545H12.554L13.1222 8.96875ZM12.1562 5.54545L11.2472 11H9.40057L10.3097 5.54545H12.1562ZM14.4432 11L15.3523 5.54545H17.1705L16.2614 11H14.4432ZM17.2131 11L18.1222 5.54545H20.0824L19.7557 7.49148H20.0966L21.5881 5.54545H23.8324L21.6307 8.30114L22.9375 11H20.6648L19.8977 9.30966H19.4574L19.1733 11H17.2131ZM24.896 11.0852C24.5503 11.0852 24.2532 11.0284 24.0046 10.9148C23.7584 10.7988 23.5785 10.6236 23.4648 10.3892C23.3536 10.1525 23.3287 9.85417 23.3903 9.49432C23.44 9.19602 23.5335 8.94152 23.6708 8.73082C23.8081 8.52012 23.9786 8.3473 24.1822 8.21236C24.3858 8.07741 24.6142 7.97443 24.8675 7.90341C25.1232 7.83002 25.3931 7.78267 25.6772 7.76136C25.985 7.73769 26.2347 7.7081 26.4265 7.67259C26.6183 7.63707 26.7615 7.58854 26.8562 7.52699C26.9509 7.46544 27.0077 7.38258 27.0266 7.27841V7.2642C27.0479 7.12216 27.0101 7.01326 26.913 6.9375C26.8183 6.86174 26.6857 6.82386 26.5153 6.82386C26.3306 6.82386 26.1708 6.86411 26.0359 6.9446C25.9033 7.02509 25.8121 7.15057 25.7624 7.32102H23.9585C24.0342 6.98958 24.1893 6.68419 24.4237 6.40483C24.6604 6.12311 24.9741 5.8982 25.3647 5.73011C25.7577 5.55966 26.2264 5.47443 26.771 5.47443C27.1592 5.47443 27.5001 5.5206 27.7937 5.61293C28.0872 5.70289 28.3299 5.82955 28.5217 5.9929C28.7158 6.15388 28.8519 6.34328 28.93 6.56108C29.0105 6.77652 29.0295 7.01089 28.9869 7.2642L28.3619 11H26.5295L26.6573 10.233H26.6147C26.4727 10.4366 26.3129 10.6011 26.1353 10.7266C25.9601 10.852 25.7683 10.9432 25.56 11C25.354 11.0568 25.1327 11.0852 24.896 11.0852ZM25.7482 9.84943C25.895 9.84943 26.0394 9.81866 26.1815 9.7571C26.3235 9.69555 26.4454 9.60677 26.5472 9.49077C26.649 9.37476 26.7141 9.2339 26.7425 9.06818L26.8136 8.61364C26.7615 8.63494 26.7035 8.65507 26.6396 8.67401C26.578 8.69058 26.5129 8.70715 26.4442 8.72372C26.378 8.74029 26.3069 8.75568 26.2312 8.76989C26.1578 8.78409 26.082 8.7983 26.0039 8.8125C25.8477 8.83617 25.7163 8.87524 25.6097 8.92969C25.5032 8.98177 25.4203 9.04688 25.3612 9.125C25.302 9.20076 25.2653 9.28598 25.2511 9.38068C25.2298 9.52983 25.2641 9.64583 25.354 9.72869C25.4464 9.80919 25.5778 9.84943 25.7482 9.84943ZM28.7161 12.6193L29.2275 9.52273H29.6252C29.7578 9.47301 29.8749 9.35582 29.9767 9.17116C30.0809 8.98414 30.1732 8.76515 30.2537 8.5142C30.3342 8.26326 30.4041 8.00994 30.4632 7.75426C30.5224 7.49621 30.5745 7.27131 30.6195 7.07955L30.9888 5.54545H35.6479L34.9945 9.52273H35.8468L35.3354 12.6193H33.4888L33.7587 11H30.8894L30.6195 12.6193H28.7161ZM31.5002 9.52273H33.1763L33.6025 6.96591H32.3809L32.3525 7.07955C32.2293 7.66903 32.1027 8.16027 31.9725 8.55327C31.8423 8.94389 31.6848 9.26705 31.5002 9.52273ZM37.8354 11.0852C37.4898 11.0852 37.1926 11.0284 36.9441 10.9148C36.6979 10.7988 36.5179 10.6236 36.4043 10.3892C36.293 10.1525 36.2682 9.85417 36.3297 9.49432C36.3794 9.19602 36.473 8.94152 36.6103 8.73082C36.7476 8.52012 36.918 8.3473 37.1216 8.21236C37.3252 8.07741 37.5537 7.97443 37.807 7.90341C38.0627 7.83002 38.3326 7.78267 38.6167 7.76136C38.9244 7.73769 39.1742 7.7081 39.3659 7.67259C39.5577 7.63707 39.7009 7.58854 39.7956 7.52699C39.8903 7.46544 39.9471 7.38258 39.9661 7.27841V7.2642C39.9874 7.12216 39.9495 7.01326 39.8525 6.9375C39.7578 6.86174 39.6252 6.82386 39.4547 6.82386C39.2701 6.82386 39.1103 6.86411 38.9753 6.9446C38.8427 7.02509 38.7516 7.15057 38.7019 7.32102H36.8979C36.9737 6.98958 37.1287 6.68419 37.3631 6.40483C37.5998 6.12311 37.9135 5.8982 38.3042 5.73011C38.6971 5.55966 39.1659 5.47443 39.7104 5.47443C40.0987 5.47443 40.4396 5.5206 40.7331 5.61293C41.0267 5.70289 41.2694 5.82955 41.4611 5.9929C41.6552 6.15388 41.7914 6.34328 41.8695 6.56108C41.95 6.77652 41.9689 7.01089 41.9263 7.2642L41.3013 11H39.4689L39.5968 10.233H39.5542C39.4121 10.4366 39.2523 10.6011 39.0748 10.7266C38.8996 10.852 38.7078 10.9432 38.4995 11C38.2935 11.0568 38.0721 11.0852 37.8354 11.0852ZM38.6877 9.84943C38.8345 9.84943 38.9789 9.81866 39.1209 9.7571C39.263 9.69555 39.3849 9.60677 39.4867 9.49077C39.5885 9.37476 39.6536 9.2339 39.682 9.06818L39.753 8.61364C39.7009 8.63494 39.6429 8.65507 39.579 8.67401C39.5175 8.69058 39.4524 8.70715 39.3837 8.72372C39.3174 8.74029 39.2464 8.75568 39.1706 8.76989C39.0972 8.78409 39.0215 8.7983 38.9434 8.8125C38.7871 8.83617 38.6557 8.87524 38.5492 8.92969C38.4426 8.98177 38.3598 9.04688 38.3006 9.125C38.2414 9.20076 38.2047 9.28598 38.1905 9.38068C38.1692 9.52983 38.2035 9.64583 38.2935 9.72869C38.3858 9.80919 38.5172 9.84943 38.6877 9.84943Z" fill="#333333"/>
<path opacity="0.2" d="M-2.94318 5L-2.03409 -0.454546H3.05114L2.14205 5H0.295455L0.963068 1.00852H-0.457386L-1.125 5H-2.94318ZM5.75 5.09943C5.15814 5.09943 4.67045 4.98224 4.28693 4.74787C3.90578 4.51113 3.63826 4.18205 3.48438 3.76065C3.33049 3.33688 3.29972 2.84564 3.39205 2.28693C3.48438 1.72822 3.67732 1.23816 3.97088 0.816761C4.26444 0.392992 4.64205 0.0639202 5.10369 -0.170455C5.56534 -0.407197 6.09328 -0.525568 6.6875 -0.525568C7.27699 -0.525568 7.76231 -0.407197 8.14347 -0.170455C8.52699 0.0639202 8.79569 0.392992 8.94957 0.816761C9.10582 1.23816 9.13778 1.72822 9.04545 2.28693C8.95313 2.84564 8.759 3.33688 8.46307 3.76065C8.16714 4.18205 7.78835 4.51113 7.3267 4.74787C6.86742 4.98224 6.34186 5.09943 5.75 5.09943ZM5.99148 3.65057C6.16193 3.65057 6.317 3.59493 6.45668 3.48366C6.59872 3.3724 6.71946 3.21378 6.81889 3.00781C6.92069 2.80185 6.99527 2.55682 7.04261 2.27273C7.08996 1.98627 7.09706 1.74124 7.06392 1.53764C7.03078 1.33168 6.96212 1.17306 6.85795 1.06179C6.75379 0.950521 6.61648 0.894886 6.44602 0.894886C6.27557 0.894886 6.11932 0.950521 5.97727 1.06179C5.83523 1.17306 5.71449 1.33168 5.61506 1.53764C5.51563 1.74124 5.44223 1.98627 5.39489 2.27273C5.34754 2.55682 5.33925 2.80185 5.37003 3.00781C5.40317 3.21378 5.47183 3.3724 5.57599 3.48366C5.68253 3.59493 5.82102 3.65057 5.99148 3.65057ZM13.1222 2.96875L14.8835 -0.454546H16.2756L13.392 5H12.1705L11.1619 -0.454546H12.554L13.1222 2.96875ZM12.1562 -0.454546L11.2472 5H9.40057L10.3097 -0.454546H12.1562ZM14.4432 5L15.3523 -0.454546H17.1705L16.2614 5H14.4432ZM17.2131 5L18.1222 -0.454546H20.0824L19.7557 1.49148H20.0966L21.5881 -0.454546H23.8324L21.6307 2.30114L22.9375 5H20.6648L19.8977 3.30966H19.4574L19.1733 5H17.2131ZM24.896 5.08523C24.5503 5.08523 24.2532 5.02841 24.0046 4.91477C23.7584 4.79877 23.5785 4.62358 23.4648 4.3892C23.3536 4.15246 23.3287 3.85417 23.3903 3.49432C23.44 3.19602 23.5335 2.94152 23.6708 2.73082C23.8081 2.52012 23.9786 2.3473 24.1822 2.21236C24.3858 2.07741 24.6142 1.97443 24.8675 1.90341C25.1232 1.83002 25.3931 1.78267 25.6772 1.76136C25.985 1.73769 26.2347 1.7081 26.4265 1.67259C26.6183 1.63707 26.7615 1.58854 26.8562 1.52699C26.9509 1.46544 27.0077 1.38258 27.0266 1.27841V1.2642C27.0479 1.12216 27.0101 1.01326 26.913 0.9375C26.8183 0.861742 26.6857 0.823863 26.5153 0.823863C26.3306 0.823863 26.1708 0.86411 26.0359 0.944602C25.9033 1.02509 25.8121 1.15057 25.7624 1.32102H23.9585C24.0342 0.989583 24.1893 0.684185 24.4237 0.404829C24.6604 0.123106 24.9741 -0.101799 25.3647 -0.269886C25.7577 -0.440341 26.2264 -0.525568 26.771 -0.525568C27.1592 -0.525568 27.5001 -0.479403 27.7937 -0.387074C28.0872 -0.297112 28.3299 -0.170455 28.5217 -0.00710249C28.7158 0.153883 28.8519 0.343276 28.93 0.561079C29.0105 0.776515 29.0295 1.01089 28.9869 1.2642L28.3619 5H26.5295L26.6573 4.23295H26.6147C26.4727 4.43655 26.3129 4.60109 26.1353 4.72656C25.9601 4.85204 25.7683 4.94318 25.56 5C25.354 5.05682 25.1327 5.08523 24.896 5.08523ZM25.7482 3.84943C25.895 3.84943 26.0394 3.81866 26.1815 3.7571C26.3235 3.69555 26.4454 3.60677 26.5472 3.49077C26.649 3.37476 26.7141 3.2339 26.7425 3.06818L26.8136 2.61364C26.7615 2.63494 26.7035 2.65507 26.6396 2.67401C26.578 2.69058 26.5129 2.70715 26.4442 2.72372C26.378 2.74029 26.3069 2.75568 26.2312 2.76989C26.1578 2.78409 26.082 2.7983 26.0039 2.8125C25.8477 2.83617 25.7163 2.87524 25.6097 2.92969C25.5032 2.98177 25.4203 3.04688 25.3612 3.125C25.302 3.20076 25.2653 3.28598 25.2511 3.38068C25.2298 3.52983 25.2641 3.64583 25.354 3.72869C25.4464 3.80919 25.5778 3.84943 25.7482 3.84943ZM28.7161 6.61932L29.2275 3.52273H29.6252C29.7578 3.47301 29.8749 3.35582 29.9767 3.17116C30.0809 2.98414 30.1732 2.76515 30.2537 2.5142C30.3342 2.26326 30.4041 2.00994 30.4632 1.75426C30.5224 1.49621 30.5745 1.27131 30.6195 1.07955L30.9888 -0.454546H35.6479L34.9945 3.52273H35.8468L35.3354 6.61932H33.4888L33.7587 5H30.8894L30.6195 6.61932H28.7161ZM31.5002 3.52273H33.1763L33.6025 0.965909H32.3809L32.3525 1.07955C32.2293 1.66903 32.1027 2.16027 31.9725 2.55327C31.8423 2.94389 31.6848 3.26705 31.5002 3.52273ZM37.8354 5.08523C37.4898 5.08523 37.1926 5.02841 36.9441 4.91477C36.6979 4.79877 36.5179 4.62358 36.4043 4.3892C36.293 4.15246 36.2682 3.85417 36.3297 3.49432C36.3794 3.19602 36.473 2.94152 36.6103 2.73082C36.7476 2.52012 36.918 2.3473 37.1216 2.21236C37.3252 2.07741 37.5537 1.97443 37.807 1.90341C38.0627 1.83002 38.3326 1.78267 38.6167 1.76136C38.9244 1.73769 39.1742 1.7081 39.3659 1.67259C39.5577 1.63707 39.7009 1.58854 39.7956 1.52699C39.8903 1.46544 39.9471 1.38258 39.9661 1.27841V1.2642C39.9874 1.12216 39.9495 1.01326 39.8525 0.9375C39.7578 0.861742 39.6252 0.823863 39.4547 0.823863C39.2701 0.823863 39.1103 0.86411 38.9753 0.944602C38.8427 1.02509 38.7516 1.15057 38.7019 1.32102H36.8979C36.9737 0.989583 37.1287 0.684185 37.3631 0.404829C37.5998 0.123106 37.9135 -0.101799 38.3042 -0.269886C38.6971 -0.440341 39.1659 -0.525568 39.7104 -0.525568C40.0987 -0.525568 40.4396 -0.479403 40.7331 -0.387074C41.0267 -0.297112 41.2694 -0.170455 41.4611 -0.00710249C41.6552 0.153883 41.7914 0.343276 41.8695 0.561079C41.95 0.776515 41.9689 1.01089 41.9263 1.2642L41.3013 5H39.4689L39.5968 4.23295H39.5542C39.4121 4.43655 39.2523 4.60109 39.0748 4.72656C38.8996 4.85204 38.7078 4.94318 38.4995 5C38.2935 5.05682 38.0721 5.08523 37.8354 5.08523ZM38.6877 3.84943C38.8345 3.84943 38.9789 3.81866 39.1209 3.7571C39.263 3.69555 39.3849 3.60677 39.4867 3.49077C39.5885 3.37476 39.6536 3.2339 39.682 3.06818L39.753 2.61364C39.7009 2.63494 39.6429 2.65507 39.579 2.67401C39.5175 2.69058 39.4524 2.70715 39.3837 2.72372C39.3174 2.74029 39.2464 2.75568 39.1706 2.76989C39.0972 2.78409 39.0215 2.7983 38.9434 2.8125C38.7871 2.83617 38.6557 2.87524 38.5492 2.92969C38.4426 2.98177 38.3598 3.04688 38.3006 3.125C38.2414 3.20076 38.2047 3.28598 38.1905 3.38068C38.1692 3.52983 38.2035 3.64583 38.2935 3.72869C38.3858 3.80919 38.5172 3.84943 38.6877 3.84943Z" fill="#333333"/>
<path opacity="0.1" d="M-2.94318 -1L-2.03409 -6.45455H3.05114L2.14205 -1H0.295455L0.963068 -4.99148H-0.457386L-1.125 -1H-2.94318ZM5.75 -0.900568C5.15814 -0.900568 4.67045 -1.01776 4.28693 -1.25213C3.90578 -1.48887 3.63826 -1.81795 3.48438 -2.23935C3.33049 -2.66312 3.29972 -3.15436 3.39205 -3.71307C3.48438 -4.27178 3.67732 -4.76184 3.97088 -5.18324C4.26444 -5.60701 4.64205 -5.93608 5.10369 -6.17045C5.56534 -6.4072 6.09328 -6.52557 6.6875 -6.52557C7.27699 -6.52557 7.76231 -6.4072 8.14347 -6.17045C8.52699 -5.93608 8.79569 -5.60701 8.94957 -5.18324C9.10582 -4.76184 9.13778 -4.27178 9.04545 -3.71307C8.95313 -3.15436 8.759 -2.66312 8.46307 -2.23935C8.16714 -1.81795 7.78835 -1.48887 7.3267 -1.25213C6.86742 -1.01776 6.34186 -0.900568 5.75 -0.900568ZM5.99148 -2.34943C6.16193 -2.34943 6.317 -2.40507 6.45668 -2.51634C6.59872 -2.6276 6.71946 -2.78622 6.81889 -2.99219C6.92069 -3.19815 6.99527 -3.44318 7.04261 -3.72727C7.08996 -4.01373 7.09706 -4.25876 7.06392 -4.46236C7.03078 -4.66832 6.96212 -4.82694 6.85795 -4.93821C6.75379 -5.04948 6.61648 -5.10511 6.44602 -5.10511C6.27557 -5.10511 6.11932 -5.04948 5.97727 -4.93821C5.83523 -4.82694 5.71449 -4.66832 5.61506 -4.46236C5.51563 -4.25876 5.44223 -4.01373 5.39489 -3.72727C5.34754 -3.44318 5.33925 -3.19815 5.37003 -2.99219C5.40317 -2.78622 5.47183 -2.6276 5.57599 -2.51634C5.68253 -2.40507 5.82102 -2.34943 5.99148 -2.34943ZM13.1222 -3.03125L14.8835 -6.45455H16.2756L13.392 -1H12.1705L11.1619 -6.45455H12.554L13.1222 -3.03125ZM12.1562 -6.45455L11.2472 -1H9.40057L10.3097 -6.45455H12.1562ZM14.4432 -1L15.3523 -6.45455H17.1705L16.2614 -1H14.4432ZM17.2131 -1L18.1222 -6.45455H20.0824L19.7557 -4.50852H20.0966L21.5881 -6.45455H23.8324L21.6307 -3.69886L22.9375 -1H20.6648L19.8977 -2.69034H19.4574L19.1733 -1H17.2131ZM24.896 -0.914773C24.5503 -0.914773 24.2532 -0.971591 24.0046 -1.08523C23.7584 -1.20123 23.5785 -1.37642 23.4648 -1.6108C23.3536 -1.84754 23.3287 -2.14583 23.3903 -2.50568C23.44 -2.80398 23.5335 -3.05848 23.6708 -3.26918C23.8081 -3.47988 23.9786 -3.6527 24.1822 -3.78764C24.3858 -3.92259 24.6142 -4.02557 24.8675 -4.09659C25.1232 -4.16998 25.3931 -4.21733 25.6772 -4.23864C25.985 -4.26231 26.2347 -4.2919 26.4265 -4.32741C26.6183 -4.36293 26.7615 -4.41146 26.8562 -4.47301C26.9509 -4.53456 27.0077 -4.61742 27.0266 -4.72159V-4.7358C27.0479 -4.87784 27.0101 -4.98674 26.913 -5.0625C26.8183 -5.13826 26.6857 -5.17614 26.5153 -5.17614C26.3306 -5.17614 26.1708 -5.13589 26.0359 -5.0554C25.9033 -4.97491 25.8121 -4.84943 25.7624 -4.67898H23.9585C24.0342 -5.01042 24.1893 -5.31581 24.4237 -5.59517C24.6604 -5.87689 24.9741 -6.1018 25.3647 -6.26989C25.7577 -6.44034 26.2264 -6.52557 26.771 -6.52557C27.1592 -6.52557 27.5001 -6.4794 27.7937 -6.38707C28.0872 -6.29711 28.3299 -6.17045 28.5217 -6.0071C28.7158 -5.84612 28.8519 -5.65672 28.93 -5.43892C29.0105 -5.22348 29.0295 -4.98911 28.9869 -4.7358L28.3619 -1H26.5295L26.6573 -1.76705H26.6147C26.4727 -1.56345 26.3129 -1.39891 26.1353 -1.27344C25.9601 -1.14796 25.7683 -1.05682 25.56 -1C25.354 -0.943182 25.1327 -0.914773 24.896 -0.914773ZM25.7482 -2.15057C25.895 -2.15057 26.0394 -2.18134 26.1815 -2.2429C26.3235 -2.30445 26.4454 -2.39323 26.5472 -2.50923C26.649 -2.62524 26.7141 -2.7661 26.7425 -2.93182L26.8136 -3.38636C26.7615 -3.36506 26.7035 -3.34493 26.6396 -3.32599C26.578 -3.30942 26.5129 -3.29285 26.4442 -3.27628C26.378 -3.25971 26.3069 -3.24432 26.2312 -3.23011C26.1578 -3.21591 26.082 -3.2017 26.0039 -3.1875C25.8477 -3.16383 25.7163 -3.12476 25.6097 -3.07031C25.5032 -3.01823 25.4203 -2.95312 25.3612 -2.875C25.302 -2.79924 25.2653 -2.71402 25.2511 -2.61932C25.2298 -2.47017 25.2641 -2.35417 25.354 -2.27131C25.4464 -2.19081 25.5778 -2.15057 25.7482 -2.15057ZM28.7161 0.619318L29.2275 -2.47727H29.6252C29.7578 -2.52699 29.8749 -2.64418 29.9767 -2.82884C30.0809 -3.01586 30.1732 -3.23485 30.2537 -3.4858C30.3342 -3.73674 30.4041 -3.99006 30.4632 -4.24574C30.5224 -4.50379 30.5745 -4.72869 30.6195 -4.92045L30.9888 -6.45455H35.6479L34.9945 -2.47727H35.8468L35.3354 0.619318H33.4888L33.7587 -1H30.8894L30.6195 0.619318H28.7161ZM31.5002 -2.47727H33.1763L33.6025 -5.03409H32.3809L32.3525 -4.92045C32.2293 -4.33097 32.1027 -3.83973 31.9725 -3.44673C31.8423 -3.05611 31.6848 -2.73295 31.5002 -2.47727ZM37.8354 -0.914773C37.4898 -0.914773 37.1926 -0.971591 36.9441 -1.08523C36.6979 -1.20123 36.5179 -1.37642 36.4043 -1.6108C36.293 -1.84754 36.2682 -2.14583 36.3297 -2.50568C36.3794 -2.80398 36.473 -3.05848 36.6103 -3.26918C36.7476 -3.47988 36.918 -3.6527 37.1216 -3.78764C37.3252 -3.92259 37.5537 -4.02557 37.807 -4.09659C38.0627 -4.16998 38.3326 -4.21733 38.6167 -4.23864C38.9244 -4.26231 39.1742 -4.2919 39.3659 -4.32741C39.5577 -4.36293 39.7009 -4.41146 39.7956 -4.47301C39.8903 -4.53456 39.9471 -4.61742 39.9661 -4.72159V-4.7358C39.9874 -4.87784 39.9495 -4.98674 39.8525 -5.0625C39.7578 -5.13826 39.6252 -5.17614 39.4547 -5.17614C39.2701 -5.17614 39.1103 -5.13589 38.9753 -5.0554C38.8427 -4.97491 38.7516 -4.84943 38.7019 -4.67898H36.8979C36.9737 -5.01042 37.1287 -5.31581 37.3631 -5.59517C37.5998 -5.87689 37.9135 -6.1018 38.3042 -6.26989C38.6971 -6.44034 39.1659 -6.52557 39.7104 -6.52557C40.0987 -6.52557 40.4396 -6.4794 40.7331 -6.38707C41.0267 -6.29711 41.2694 -6.17045 41.4611 -6.0071C41.6552 -5.84612 41.7914 -5.65672 41.8695 -5.43892C41.95 -5.22348 41.9689 -4.98911 41.9263 -4.7358L41.3013 -1H39.4689L39.5968 -1.76705H39.5542C39.4121 -1.56345 39.2523 -1.39891 39.0748 -1.27344C38.8996 -1.14796 38.7078 -1.05682 38.4995 -1C38.2935 -0.943182 38.0721 -0.914773 37.8354 -0.914773ZM38.6877 -2.15057C38.8345 -2.15057 38.9789 -2.18134 39.1209 -2.2429C39.263 -2.30445 39.3849 -2.39323 39.4867 -2.50923C39.5885 -2.62524 39.6536 -2.7661 39.682 -2.93182L39.753 -3.38636C39.7009 -3.36506 39.6429 -3.34493 39.579 -3.32599C39.5175 -3.30942 39.4524 -3.29285 39.3837 -3.27628C39.3174 -3.25971 39.2464 -3.24432 39.1706 -3.23011C39.0972 -3.21591 39.0215 -3.2017 38.9434 -3.1875C38.7871 -3.16383 38.6557 -3.12476 38.5492 -3.07031C38.4426 -3.01823 38.3598 -2.95312 38.3006 -2.875C38.2414 -2.79924 38.2047 -2.71402 38.1905 -2.61932C38.1692 -2.47017 38.2035 -2.35417 38.2935 -2.27131C38.3858 -2.19081 38.5172 -2.15057 38.6877 -2.15057Z" fill="#333333"/>
<path opacity="0.6" d="M-2.94318 17L-2.03409 11.5455H3.05114L2.14205 17H0.295455L0.963068 13.0085H-0.457386L-1.125 17H-2.94318ZM5.75 17.0994C5.15814 17.0994 4.67045 16.9822 4.28693 16.7479C3.90578 16.5111 3.63826 16.1821 3.48438 15.7607C3.33049 15.3369 3.29972 14.8456 3.39205 14.2869C3.48438 13.7282 3.67732 13.2382 3.97088 12.8168C4.26444 12.393 4.64205 12.0639 5.10369 11.8295C5.56534 11.5928 6.09328 11.4744 6.6875 11.4744C7.27699 11.4744 7.76231 11.5928 8.14347 11.8295C8.52699 12.0639 8.79569 12.393 8.94957 12.8168C9.10582 13.2382 9.13778 13.7282 9.04545 14.2869C8.95313 14.8456 8.759 15.3369 8.46307 15.7607C8.16714 16.1821 7.78835 16.5111 7.3267 16.7479C6.86742 16.9822 6.34186 17.0994 5.75 17.0994ZM5.99148 15.6506C6.16193 15.6506 6.317 15.5949 6.45668 15.4837C6.59872 15.3724 6.71946 15.2138 6.81889 15.0078C6.92069 14.8018 6.99527 14.5568 7.04261 14.2727C7.08996 13.9863 7.09706 13.7412 7.06392 13.5376C7.03078 13.3317 6.96212 13.1731 6.85795 13.0618C6.75379 12.9505 6.61648 12.8949 6.44602 12.8949C6.27557 12.8949 6.11932 12.9505 5.97727 13.0618C5.83523 13.1731 5.71449 13.3317 5.61506 13.5376C5.51563 13.7412 5.44223 13.9863 5.39489 14.2727C5.34754 14.5568 5.33925 14.8018 5.37003 15.0078C5.40317 15.2138 5.47183 15.3724 5.57599 15.4837C5.68253 15.5949 5.82102 15.6506 5.99148 15.6506ZM13.1222 14.9688L14.8835 11.5455H16.2756L13.392 17H12.1705L11.1619 11.5455H12.554L13.1222 14.9688ZM12.1562 11.5455L11.2472 17H9.40057L10.3097 11.5455H12.1562ZM14.4432 17L15.3523 11.5455H17.1705L16.2614 17H14.4432ZM17.2131 17L18.1222 11.5455H20.0824L19.7557 13.4915H20.0966L21.5881 11.5455H23.8324L21.6307 14.3011L22.9375 17H20.6648L19.8977 15.3097H19.4574L19.1733 17H17.2131ZM24.896 17.0852C24.5503 17.0852 24.2532 17.0284 24.0046 16.9148C23.7584 16.7988 23.5785 16.6236 23.4648 16.3892C23.3536 16.1525 23.3287 15.8542 23.3903 15.4943C23.44 15.196 23.5335 14.9415 23.6708 14.7308C23.8081 14.5201 23.9786 14.3473 24.1822 14.2124C24.3858 14.0774 24.6142 13.9744 24.8675 13.9034C25.1232 13.83 25.3931 13.7827 25.6772 13.7614C25.985 13.7377 26.2347 13.7081 26.4265 13.6726C26.6183 13.6371 26.7615 13.5885 26.8562 13.527C26.9509 13.4654 27.0077 13.3826 27.0266 13.2784V13.2642C27.0479 13.1222 27.0101 13.0133 26.913 12.9375C26.8183 12.8617 26.6857 12.8239 26.5153 12.8239C26.3306 12.8239 26.1708 12.8641 26.0359 12.9446C25.9033 13.0251 25.8121 13.1506 25.7624 13.321H23.9585C24.0342 12.9896 24.1893 12.6842 24.4237 12.4048C24.6604 12.1231 24.9741 11.8982 25.3647 11.7301C25.7577 11.5597 26.2264 11.4744 26.771 11.4744C27.1592 11.4744 27.5001 11.5206 27.7937 11.6129C28.0872 11.7029 28.3299 11.8295 28.5217 11.9929C28.7158 12.1539 28.8519 12.3433 28.93 12.5611C29.0105 12.7765 29.0295 13.0109 28.9869 13.2642L28.3619 17H26.5295L26.6573 16.233H26.6147C26.4727 16.4366 26.3129 16.6011 26.1353 16.7266C25.9601 16.852 25.7683 16.9432 25.56 17C25.354 17.0568 25.1327 17.0852 24.896 17.0852ZM25.7482 15.8494C25.895 15.8494 26.0394 15.8187 26.1815 15.7571C26.3235 15.6955 26.4454 15.6068 26.5472 15.4908C26.649 15.3748 26.7141 15.2339 26.7425 15.0682L26.8136 14.6136C26.7615 14.6349 26.7035 14.6551 26.6396 14.674C26.578 14.6906 26.5129 14.7071 26.4442 14.7237C26.378 14.7403 26.3069 14.7557 26.2312 14.7699C26.1578 14.7841 26.082 14.7983 26.0039 14.8125C25.8477 14.8362 25.7163 14.8752 25.6097 14.9297C25.5032 14.9818 25.4203 15.0469 25.3612 15.125C25.302 15.2008 25.2653 15.286 25.2511 15.3807C25.2298 15.5298 25.2641 15.6458 25.354 15.7287C25.4464 15.8092 25.5778 15.8494 25.7482 15.8494ZM28.7161 18.6193L29.2275 15.5227H29.6252C29.7578 15.473 29.8749 15.3558 29.9767 15.1712C30.0809 14.9841 30.1732 14.7652 30.2537 14.5142C30.3342 14.2633 30.4041 14.0099 30.4632 13.7543C30.5224 13.4962 30.5745 13.2713 30.6195 13.0795L30.9888 11.5455H35.6479L34.9945 15.5227H35.8468L35.3354 18.6193H33.4888L33.7587 17H30.8894L30.6195 18.6193H28.7161ZM31.5002 15.5227H33.1763L33.6025 12.9659H32.3809L32.3525 13.0795C32.2293 13.669 32.1027 14.1603 31.9725 14.5533C31.8423 14.9439 31.6848 15.267 31.5002 15.5227ZM37.8354 17.0852C37.4898 17.0852 37.1926 17.0284 36.9441 16.9148C36.6979 16.7988 36.5179 16.6236 36.4043 16.3892C36.293 16.1525 36.2682 15.8542 36.3297 15.4943C36.3794 15.196 36.473 14.9415 36.6103 14.7308C36.7476 14.5201 36.918 14.3473 37.1216 14.2124C37.3252 14.0774 37.5537 13.9744 37.807 13.9034C38.0627 13.83 38.3326 13.7827 38.6167 13.7614C38.9244 13.7377 39.1742 13.7081 39.3659 13.6726C39.5577 13.6371 39.7009 13.5885 39.7956 13.527C39.8903 13.4654 39.9471 13.3826 39.9661 13.2784V13.2642C39.9874 13.1222 39.9495 13.0133 39.8525 12.9375C39.7578 12.8617 39.6252 12.8239 39.4547 12.8239C39.2701 12.8239 39.1103 12.8641 38.9753 12.9446C38.8427 13.0251 38.7516 13.1506 38.7019 13.321H36.8979C36.9737 12.9896 37.1287 12.6842 37.3631 12.4048C37.5998 12.1231 37.9135 11.8982 38.3042 11.7301C38.6971 11.5597 39.1659 11.4744 39.7104 11.4744C40.0987 11.4744 40.4396 11.5206 40.7331 11.6129C41.0267 11.7029 41.2694 11.8295 41.4611 11.9929C41.6552 12.1539 41.7914 12.3433 41.8695 12.5611C41.95 12.7765 41.9689 13.0109 41.9263 13.2642L41.3013 17H39.4689L39.5968 16.233H39.5542C39.4121 16.4366 39.2523 16.6011 39.0748 16.7266C38.8996 16.852 38.7078 16.9432 38.4995 17C38.2935 17.0568 38.0721 17.0852 37.8354 17.0852ZM38.6877 15.8494C38.8345 15.8494 38.9789 15.8187 39.1209 15.7571C39.263 15.6955 39.3849 15.6068 39.4867 15.4908C39.5885 15.3748 39.6536 15.2339 39.682 15.0682L39.753 14.6136C39.7009 14.6349 39.6429 14.6551 39.579 14.674C39.5175 14.6906 39.4524 14.7071 39.3837 14.7237C39.3174 14.7403 39.2464 14.7557 39.1706 14.7699C39.0972 14.7841 39.0215 14.7983 38.9434 14.8125C38.7871 14.8362 38.6557 14.8752 38.5492 14.9297C38.4426 14.9818 38.3598 15.0469 38.3006 15.125C38.2414 15.2008 38.2047 15.286 38.1905 15.3807C38.1692 15.5298 38.2035 15.6458 38.2935 15.7287C38.3858 15.8092 38.5172 15.8494 38.6877 15.8494Z" fill="#333333"/>
<path d="M-2.94318 23L-2.03409 17.5455H3.05114L2.14205 23H0.295455L0.963068 19.0085H-0.457386L-1.125 23H-2.94318ZM5.75 23.0994C5.15814 23.0994 4.67045 22.9822 4.28693 22.7479C3.90578 22.5111 3.63826 22.1821 3.48438 21.7607C3.33049 21.3369 3.29972 20.8456 3.39205 20.2869C3.48438 19.7282 3.67732 19.2382 3.97088 18.8168C4.26444 18.393 4.64205 18.0639 5.10369 17.8295C5.56534 17.5928 6.09328 17.4744 6.6875 17.4744C7.27699 17.4744 7.76231 17.5928 8.14347 17.8295C8.52699 18.0639 8.79569 18.393 8.94957 18.8168C9.10582 19.2382 9.13778 19.7282 9.04545 20.2869C8.95313 20.8456 8.759 21.3369 8.46307 21.7607C8.16714 22.1821 7.78835 22.5111 7.3267 22.7479C6.86742 22.9822 6.34186 23.0994 5.75 23.0994ZM5.99148 21.6506C6.16193 21.6506 6.317 21.5949 6.45668 21.4837C6.59872 21.3724 6.71946 21.2138 6.81889 21.0078C6.92069 20.8018 6.99527 20.5568 7.04261 20.2727C7.08996 19.9863 7.09706 19.7412 7.06392 19.5376C7.03078 19.3317 6.96212 19.1731 6.85795 19.0618C6.75379 18.9505 6.61648 18.8949 6.44602 18.8949C6.27557 18.8949 6.11932 18.9505 5.97727 19.0618C5.83523 19.1731 5.71449 19.3317 5.61506 19.5376C5.51563 19.7412 5.44223 19.9863 5.39489 20.2727C5.34754 20.5568 5.33925 20.8018 5.37003 21.0078C5.40317 21.2138 5.47183 21.3724 5.57599 21.4837C5.68253 21.5949 5.82102 21.6506 5.99148 21.6506ZM13.1222 20.9688L14.8835 17.5455H16.2756L13.392 23H12.1705L11.1619 17.5455H12.554L13.1222 20.9688ZM12.1562 17.5455L11.2472 23H9.40057L10.3097 17.5455H12.1562ZM14.4432 23L15.3523 17.5455H17.1705L16.2614 23H14.4432ZM17.2131 23L18.1222 17.5455H20.0824L19.7557 19.4915H20.0966L21.5881 17.5455H23.8324L21.6307 20.3011L22.9375 23H20.6648L19.8977 21.3097H19.4574L19.1733 23H17.2131ZM24.896 23.0852C24.5503 23.0852 24.2532 23.0284 24.0046 22.9148C23.7584 22.7988 23.5785 22.6236 23.4648 22.3892C23.3536 22.1525 23.3287 21.8542 23.3903 21.4943C23.44 21.196 23.5335 20.9415 23.6708 20.7308C23.8081 20.5201 23.9786 20.3473 24.1822 20.2124C24.3858 20.0774 24.6142 19.9744 24.8675 19.9034C25.1232 19.83 25.3931 19.7827 25.6772 19.7614C25.985 19.7377 26.2347 19.7081 26.4265 19.6726C26.6183 19.6371 26.7615 19.5885 26.8562 19.527C26.9509 19.4654 27.0077 19.3826 27.0266 19.2784V19.2642C27.0479 19.1222 27.0101 19.0133 26.913 18.9375C26.8183 18.8617 26.6857 18.8239 26.5153 18.8239C26.3306 18.8239 26.1708 18.8641 26.0359 18.9446C25.9033 19.0251 25.8121 19.1506 25.7624 19.321H23.9585C24.0342 18.9896 24.1893 18.6842 24.4237 18.4048C24.6604 18.1231 24.9741 17.8982 25.3647 17.7301C25.7577 17.5597 26.2264 17.4744 26.771 17.4744C27.1592 17.4744 27.5001 17.5206 27.7937 17.6129C28.0872 17.7029 28.3299 17.8295 28.5217 17.9929C28.7158 18.1539 28.8519 18.3433 28.93 18.5611C29.0105 18.7765 29.0295 19.0109 28.9869 19.2642L28.3619 23H26.5295L26.6573 22.233H26.6147C26.4727 22.4366 26.3129 22.6011 26.1353 22.7266C25.9601 22.852 25.7683 22.9432 25.56 23C25.354 23.0568 25.1327 23.0852 24.896 23.0852ZM25.7482 21.8494C25.895 21.8494 26.0394 21.8187 26.1815 21.7571C26.3235 21.6955 26.4454 21.6068 26.5472 21.4908C26.649 21.3748 26.7141 21.2339 26.7425 21.0682L26.8136 20.6136C26.7615 20.6349 26.7035 20.6551 26.6396 20.674C26.578 20.6906 26.5129 20.7071 26.4442 20.7237C26.378 20.7403 26.3069 20.7557 26.2312 20.7699C26.1578 20.7841 26.082 20.7983 26.0039 20.8125C25.8477 20.8362 25.7163 20.8752 25.6097 20.9297C25.5032 20.9818 25.4203 21.0469 25.3612 21.125C25.302 21.2008 25.2653 21.286 25.2511 21.3807C25.2298 21.5298 25.2641 21.6458 25.354 21.7287C25.4464 21.8092 25.5778 21.8494 25.7482 21.8494ZM28.7161 24.6193L29.2275 21.5227H29.6252C29.7578 21.473 29.8749 21.3558 29.9767 21.1712C30.0809 20.9841 30.1732 20.7652 30.2537 20.5142C30.3342 20.2633 30.4041 20.0099 30.4632 19.7543C30.5224 19.4962 30.5745 19.2713 30.6195 19.0795L30.9888 17.5455H35.6479L34.9945 21.5227H35.8468L35.3354 24.6193H33.4888L33.7587 23H30.8894L30.6195 24.6193H28.7161ZM31.5002 21.5227H33.1763L33.6025 18.9659H32.3809L32.3525 19.0795C32.2293 19.669 32.1027 20.1603 31.9725 20.5533C31.8423 20.9439 31.6848 21.267 31.5002 21.5227ZM37.8354 23.0852C37.4898 23.0852 37.1926 23.0284 36.9441 22.9148C36.6979 22.7988 36.5179 22.6236 36.4043 22.3892C36.293 22.1525 36.2682 21.8542 36.3297 21.4943C36.3794 21.196 36.473 20.9415 36.6103 20.7308C36.7476 20.5201 36.918 20.3473 37.1216 20.2124C37.3252 20.0774 37.5537 19.9744 37.807 19.9034C38.0627 19.83 38.3326 19.7827 38.6167 19.7614C38.9244 19.7377 39.1742 19.7081 39.3659 19.6726C39.5577 19.6371 39.7009 19.5885 39.7956 19.527C39.8903 19.4654 39.9471 19.3826 39.9661 19.2784V19.2642C39.9874 19.1222 39.9495 19.0133 39.8525 18.9375C39.7578 18.8617 39.6252 18.8239 39.4547 18.8239C39.2701 18.8239 39.1103 18.8641 38.9753 18.9446C38.8427 19.0251 38.7516 19.1506 38.7019 19.321H36.8979C36.9737 18.9896 37.1287 18.6842 37.3631 18.4048C37.5998 18.1231 37.9135 17.8982 38.3042 17.7301C38.6971 17.5597 39.1659 17.4744 39.7104 17.4744C40.0987 17.4744 40.4396 17.5206 40.7331 17.6129C41.0267 17.7029 41.2694 17.8295 41.4611 17.9929C41.6552 18.1539 41.7914 18.3433 41.8695 18.5611C41.95 18.7765 41.9689 19.0109 41.9263 19.2642L41.3013 23H39.4689L39.5968 22.233H39.5542C39.4121 22.4366 39.2523 22.6011 39.0748 22.7266C38.8996 22.852 38.7078 22.9432 38.4995 23C38.2935 23.0568 38.0721 23.0852 37.8354 23.0852ZM38.6877 21.8494C38.8345 21.8494 38.9789 21.8187 39.1209 21.7571C39.263 21.6955 39.3849 21.6068 39.4867 21.4908C39.5885 21.3748 39.6536 21.2339 39.682 21.0682L39.753 20.6136C39.7009 20.6349 39.6429 20.6551 39.579 20.674C39.5175 20.6906 39.4524 20.7071 39.3837 20.7237C39.3174 20.7403 39.2464 20.7557 39.1706 20.7699C39.0972 20.7841 39.0215 20.7983 38.9434 20.8125C38.7871 20.8362 38.6557 20.8752 38.5492 20.9297C38.4426 20.9818 38.3598 21.0469 38.3006 21.125C38.2414 21.2008 38.2047 21.286 38.1905 21.3807C38.1692 21.5298 38.2035 21.6458 38.2935 21.7287C38.3858 21.8092 38.5172 21.8494 38.6877 21.8494Z" fill="#333333"/>
<path opacity="0.6" d="M-2.94318 29L-2.03409 23.5455H3.05114L2.14205 29H0.295455L0.963068 25.0085H-0.457386L-1.125 29H-2.94318ZM5.75 29.0994C5.15814 29.0994 4.67045 28.9822 4.28693 28.7479C3.90578 28.5111 3.63826 28.1821 3.48438 27.7607C3.33049 27.3369 3.29972 26.8456 3.39205 26.2869C3.48438 25.7282 3.67732 25.2382 3.97088 24.8168C4.26444 24.393 4.64205 24.0639 5.10369 23.8295C5.56534 23.5928 6.09328 23.4744 6.6875 23.4744C7.27699 23.4744 7.76231 23.5928 8.14347 23.8295C8.52699 24.0639 8.79569 24.393 8.94957 24.8168C9.10582 25.2382 9.13778 25.7282 9.04545 26.2869C8.95313 26.8456 8.759 27.3369 8.46307 27.7607C8.16714 28.1821 7.78835 28.5111 7.3267 28.7479C6.86742 28.9822 6.34186 29.0994 5.75 29.0994ZM5.99148 27.6506C6.16193 27.6506 6.317 27.5949 6.45668 27.4837C6.59872 27.3724 6.71946 27.2138 6.81889 27.0078C6.92069 26.8018 6.99527 26.5568 7.04261 26.2727C7.08996 25.9863 7.09706 25.7412 7.06392 25.5376C7.03078 25.3317 6.96212 25.1731 6.85795 25.0618C6.75379 24.9505 6.61648 24.8949 6.44602 24.8949C6.27557 24.8949 6.11932 24.9505 5.97727 25.0618C5.83523 25.1731 5.71449 25.3317 5.61506 25.5376C5.51563 25.7412 5.44223 25.9863 5.39489 26.2727C5.34754 26.5568 5.33925 26.8018 5.37003 27.0078C5.40317 27.2138 5.47183 27.3724 5.57599 27.4837C5.68253 27.5949 5.82102 27.6506 5.99148 27.6506ZM13.1222 26.9688L14.8835 23.5455H16.2756L13.392 29H12.1705L11.1619 23.5455H12.554L13.1222 26.9688ZM12.1562 23.5455L11.2472 29H9.40057L10.3097 23.5455H12.1562ZM14.4432 29L15.3523 23.5455H17.1705L16.2614 29H14.4432ZM17.2131 29L18.1222 23.5455H20.0824L19.7557 25.4915H20.0966L21.5881 23.5455H23.8324L21.6307 26.3011L22.9375 29H20.6648L19.8977 27.3097H19.4574L19.1733 29H17.2131ZM24.896 29.0852C24.5503 29.0852 24.2532 29.0284 24.0046 28.9148C23.7584 28.7988 23.5785 28.6236 23.4648 28.3892C23.3536 28.1525 23.3287 27.8542 23.3903 27.4943C23.44 27.196 23.5335 26.9415 23.6708 26.7308C23.8081 26.5201 23.9786 26.3473 24.1822 26.2124C24.3858 26.0774 24.6142 25.9744 24.8675 25.9034C25.1232 25.83 25.3931 25.7827 25.6772 25.7614C25.985 25.7377 26.2347 25.7081 26.4265 25.6726C26.6183 25.6371 26.7615 25.5885 26.8562 25.527C26.9509 25.4654 27.0077 25.3826 27.0266 25.2784V25.2642C27.0479 25.1222 27.0101 25.0133 26.913 24.9375C26.8183 24.8617 26.6857 24.8239 26.5153 24.8239C26.3306 24.8239 26.1708 24.8641 26.0359 24.9446C25.9033 25.0251 25.8121 25.1506 25.7624 25.321H23.9585C24.0342 24.9896 24.1893 24.6842 24.4237 24.4048C24.6604 24.1231 24.9741 23.8982 25.3647 23.7301C25.7577 23.5597 26.2264 23.4744 26.771 23.4744C27.1592 23.4744 27.5001 23.5206 27.7937 23.6129C28.0872 23.7029 28.3299 23.8295 28.5217 23.9929C28.7158 24.1539 28.8519 24.3433 28.93 24.5611C29.0105 24.7765 29.0295 25.0109 28.9869 25.2642L28.3619 29H26.5295L26.6573 28.233H26.6147C26.4727 28.4366 26.3129 28.6011 26.1353 28.7266C25.9601 28.852 25.7683 28.9432 25.56 29C25.354 29.0568 25.1327 29.0852 24.896 29.0852ZM25.7482 27.8494C25.895 27.8494 26.0394 27.8187 26.1815 27.7571C26.3235 27.6955 26.4454 27.6068 26.5472 27.4908C26.649 27.3748 26.7141 27.2339 26.7425 27.0682L26.8136 26.6136C26.7615 26.6349 26.7035 26.6551 26.6396 26.674C26.578 26.6906 26.5129 26.7071 26.4442 26.7237C26.378 26.7403 26.3069 26.7557 26.2312 26.7699C26.1578 26.7841 26.082 26.7983 26.0039 26.8125C25.8477 26.8362 25.7163 26.8752 25.6097 26.9297C25.5032 26.9818 25.4203 27.0469 25.3612 27.125C25.302 27.2008 25.2653 27.286 25.2511 27.3807C25.2298 27.5298 25.2641 27.6458 25.354 27.7287C25.4464 27.8092 25.5778 27.8494 25.7482 27.8494ZM28.7161 30.6193L29.2275 27.5227H29.6252C29.7578 27.473 29.8749 27.3558 29.9767 27.1712C30.0809 26.9841 30.1732 26.7652 30.2537 26.5142C30.3342 26.2633 30.4041 26.0099 30.4632 25.7543C30.5224 25.4962 30.5745 25.2713 30.6195 25.0795L30.9888 23.5455H35.6479L34.9945 27.5227H35.8468L35.3354 30.6193H33.4888L33.7587 29H30.8894L30.6195 30.6193H28.7161ZM31.5002 27.5227H33.1763L33.6025 24.9659H32.3809L32.3525 25.0795C32.2293 25.669 32.1027 26.1603 31.9725 26.5533C31.8423 26.9439 31.6848 27.267 31.5002 27.5227ZM37.8354 29.0852C37.4898 29.0852 37.1926 29.0284 36.9441 28.9148C36.6979 28.7988 36.5179 28.6236 36.4043 28.3892C36.293 28.1525 36.2682 27.8542 36.3297 27.4943C36.3794 27.196 36.473 26.9415 36.6103 26.7308C36.7476 26.5201 36.918 26.3473 37.1216 26.2124C37.3252 26.0774 37.5537 25.9744 37.807 25.9034C38.0627 25.83 38.3326 25.7827 38.6167 25.7614C38.9244 25.7377 39.1742 25.7081 39.3659 25.6726C39.5577 25.6371 39.7009 25.5885 39.7956 25.527C39.8903 25.4654 39.9471 25.3826 39.9661 25.2784V25.2642C39.9874 25.1222 39.9495 25.0133 39.8525 24.9375C39.7578 24.8617 39.6252 24.8239 39.4547 24.8239C39.2701 24.8239 39.1103 24.8641 38.9753 24.9446C38.8427 25.0251 38.7516 25.1506 38.7019 25.321H36.8979C36.9737 24.9896 37.1287 24.6842 37.3631 24.4048C37.5998 24.1231 37.9135 23.8982 38.3042 23.7301C38.6971 23.5597 39.1659 23.4744 39.7104 23.4744C40.0987 23.4744 40.4396 23.5206 40.7331 23.6129C41.0267 23.7029 41.2694 23.8295 41.4611 23.9929C41.6552 24.1539 41.7914 24.3433 41.8695 24.5611C41.95 24.7765 41.9689 25.0109 41.9263 25.2642L41.3013 29H39.4689L39.5968 28.233H39.5542C39.4121 28.4366 39.2523 28.6011 39.0748 28.7266C38.8996 28.852 38.7078 28.9432 38.4995 29C38.2935 29.0568 38.0721 29.0852 37.8354 29.0852ZM38.6877 27.8494C38.8345 27.8494 38.9789 27.8187 39.1209 27.7571C39.263 27.6955 39.3849 27.6068 39.4867 27.4908C39.5885 27.3748 39.6536 27.2339 39.682 27.0682L39.753 26.6136C39.7009 26.6349 39.6429 26.6551 39.579 26.674C39.5175 26.6906 39.4524 26.7071 39.3837 26.7237C39.3174 26.7403 39.2464 26.7557 39.1706 26.7699C39.0972 26.7841 39.0215 26.7983 38.9434 26.8125C38.7871 26.8362 38.6557 26.8752 38.5492 26.9297C38.4426 26.9818 38.3598 27.0469 38.3006 27.125C38.2414 27.2008 38.2047 27.286 38.1905 27.3807C38.1692 27.5298 38.2035 27.6458 38.2935 27.7287C38.3858 27.8092 38.5172 27.8494 38.6877 27.8494Z" fill="#333333"/>
<path opacity="0.4" d="M-2.94318 35L-2.03409 29.5455H3.05114L2.14205 35H0.295455L0.963068 31.0085H-0.457386L-1.125 35H-2.94318ZM5.75 35.0994C5.15814 35.0994 4.67045 34.9822 4.28693 34.7479C3.90578 34.5111 3.63826 34.1821 3.48438 33.7607C3.33049 33.3369 3.29972 32.8456 3.39205 32.2869C3.48438 31.7282 3.67732 31.2382 3.97088 30.8168C4.26444 30.393 4.64205 30.0639 5.10369 29.8295C5.56534 29.5928 6.09328 29.4744 6.6875 29.4744C7.27699 29.4744 7.76231 29.5928 8.14347 29.8295C8.52699 30.0639 8.79569 30.393 8.94957 30.8168C9.10582 31.2382 9.13778 31.7282 9.04545 32.2869C8.95313 32.8456 8.759 33.3369 8.46307 33.7607C8.16714 34.1821 7.78835 34.5111 7.3267 34.7479C6.86742 34.9822 6.34186 35.0994 5.75 35.0994ZM5.99148 33.6506C6.16193 33.6506 6.317 33.5949 6.45668 33.4837C6.59872 33.3724 6.71946 33.2138 6.81889 33.0078C6.92069 32.8018 6.99527 32.5568 7.04261 32.2727C7.08996 31.9863 7.09706 31.7412 7.06392 31.5376C7.03078 31.3317 6.96212 31.1731 6.85795 31.0618C6.75379 30.9505 6.61648 30.8949 6.44602 30.8949C6.27557 30.8949 6.11932 30.9505 5.97727 31.0618C5.83523 31.1731 5.71449 31.3317 5.61506 31.5376C5.51563 31.7412 5.44223 31.9863 5.39489 32.2727C5.34754 32.5568 5.33925 32.8018 5.37003 33.0078C5.40317 33.2138 5.47183 33.3724 5.57599 33.4837C5.68253 33.5949 5.82102 33.6506 5.99148 33.6506ZM13.1222 32.9688L14.8835 29.5455H16.2756L13.392 35H12.1705L11.1619 29.5455H12.554L13.1222 32.9688ZM12.1562 29.5455L11.2472 35H9.40057L10.3097 29.5455H12.1562ZM14.4432 35L15.3523 29.5455H17.1705L16.2614 35H14.4432ZM17.2131 35L18.1222 29.5455H20.0824L19.7557 31.4915H20.0966L21.5881 29.5455H23.8324L21.6307 32.3011L22.9375 35H20.6648L19.8977 33.3097H19.4574L19.1733 35H17.2131ZM24.896 35.0852C24.5503 35.0852 24.2532 35.0284 24.0046 34.9148C23.7584 34.7988 23.5785 34.6236 23.4648 34.3892C23.3536 34.1525 23.3287 33.8542 23.3903 33.4943C23.44 33.196 23.5335 32.9415 23.6708 32.7308C23.8081 32.5201 23.9786 32.3473 24.1822 32.2124C24.3858 32.0774 24.6142 31.9744 24.8675 31.9034C25.1232 31.83 25.3931 31.7827 25.6772 31.7614C25.985 31.7377 26.2347 31.7081 26.4265 31.6726C26.6183 31.6371 26.7615 31.5885 26.8562 31.527C26.9509 31.4654 27.0077 31.3826 27.0266 31.2784V31.2642C27.0479 31.1222 27.0101 31.0133 26.913 30.9375C26.8183 30.8617 26.6857 30.8239 26.5153 30.8239C26.3306 30.8239 26.1708 30.8641 26.0359 30.9446C25.9033 31.0251 25.8121 31.1506 25.7624 31.321H23.9585C24.0342 30.9896 24.1893 30.6842 24.4237 30.4048C24.6604 30.1231 24.9741 29.8982 25.3647 29.7301C25.7577 29.5597 26.2264 29.4744 26.771 29.4744C27.1592 29.4744 27.5001 29.5206 27.7937 29.6129C28.0872 29.7029 28.3299 29.8295 28.5217 29.9929C28.7158 30.1539 28.8519 30.3433 28.93 30.5611C29.0105 30.7765 29.0295 31.0109 28.9869 31.2642L28.3619 35H26.5295L26.6573 34.233H26.6147C26.4727 34.4366 26.3129 34.6011 26.1353 34.7266C25.9601 34.852 25.7683 34.9432 25.56 35C25.354 35.0568 25.1327 35.0852 24.896 35.0852ZM25.7482 33.8494C25.895 33.8494 26.0394 33.8187 26.1815 33.7571C26.3235 33.6955 26.4454 33.6068 26.5472 33.4908C26.649 33.3748 26.7141 33.2339 26.7425 33.0682L26.8136 32.6136C26.7615 32.6349 26.7035 32.6551 26.6396 32.674C26.578 32.6906 26.5129 32.7071 26.4442 32.7237C26.378 32.7403 26.3069 32.7557 26.2312 32.7699C26.1578 32.7841 26.082 32.7983 26.0039 32.8125C25.8477 32.8362 25.7163 32.8752 25.6097 32.9297C25.5032 32.9818 25.4203 33.0469 25.3612 33.125C25.302 33.2008 25.2653 33.286 25.2511 33.3807C25.2298 33.5298 25.2641 33.6458 25.354 33.7287C25.4464 33.8092 25.5778 33.8494 25.7482 33.8494ZM28.7161 36.6193L29.2275 33.5227H29.6252C29.7578 33.473 29.8749 33.3558 29.9767 33.1712C30.0809 32.9841 30.1732 32.7652 30.2537 32.5142C30.3342 32.2633 30.4041 32.0099 30.4632 31.7543C30.5224 31.4962 30.5745 31.2713 30.6195 31.0795L30.9888 29.5455H35.6479L34.9945 33.5227H35.8468L35.3354 36.6193H33.4888L33.7587 35H30.8894L30.6195 36.6193H28.7161ZM31.5002 33.5227H33.1763L33.6025 30.9659H32.3809L32.3525 31.0795C32.2293 31.669 32.1027 32.1603 31.9725 32.5533C31.8423 32.9439 31.6848 33.267 31.5002 33.5227ZM37.8354 35.0852C37.4898 35.0852 37.1926 35.0284 36.9441 34.9148C36.6979 34.7988 36.5179 34.6236 36.4043 34.3892C36.293 34.1525 36.2682 33.8542 36.3297 33.4943C36.3794 33.196 36.473 32.9415 36.6103 32.7308C36.7476 32.5201 36.918 32.3473 37.1216 32.2124C37.3252 32.0774 37.5537 31.9744 37.807 31.9034C38.0627 31.83 38.3326 31.7827 38.6167 31.7614C38.9244 31.7377 39.1742 31.7081 39.3659 31.6726C39.5577 31.6371 39.7009 31.5885 39.7956 31.527C39.8903 31.4654 39.9471 31.3826 39.9661 31.2784V31.2642C39.9874 31.1222 39.9495 31.0133 39.8525 30.9375C39.7578 30.8617 39.6252 30.8239 39.4547 30.8239C39.2701 30.8239 39.1103 30.8641 38.9753 30.9446C38.8427 31.0251 38.7516 31.1506 38.7019 31.321H36.8979C36.9737 30.9896 37.1287 30.6842 37.3631 30.4048C37.5998 30.1231 37.9135 29.8982 38.3042 29.7301C38.6971 29.5597 39.1659 29.4744 39.7104 29.4744C40.0987 29.4744 40.4396 29.5206 40.7331 29.6129C41.0267 29.7029 41.2694 29.8295 41.4611 29.9929C41.6552 30.1539 41.7914 30.3433 41.8695 30.5611C41.95 30.7765 41.9689 31.0109 41.9263 31.2642L41.3013 35H39.4689L39.5968 34.233H39.5542C39.4121 34.4366 39.2523 34.6011 39.0748 34.7266C38.8996 34.852 38.7078 34.9432 38.4995 35C38.2935 35.0568 38.0721 35.0852 37.8354 35.0852ZM38.6877 33.8494C38.8345 33.8494 38.9789 33.8187 39.1209 33.7571C39.263 33.6955 39.3849 33.6068 39.4867 33.4908C39.5885 33.3748 39.6536 33.2339 39.682 33.0682L39.753 32.6136C39.7009 32.6349 39.6429 32.6551 39.579 32.674C39.5175 32.6906 39.4524 32.7071 39.3837 32.7237C39.3174 32.7403 39.2464 32.7557 39.1706 32.7699C39.0972 32.7841 39.0215 32.7983 38.9434 32.8125C38.7871 32.8362 38.6557 32.8752 38.5492 32.9297C38.4426 32.9818 38.3598 33.0469 38.3006 33.125C38.2414 33.2008 38.2047 33.286 38.1905 33.3807C38.1692 33.5298 38.2035 33.6458 38.2935 33.7287C38.3858 33.8092 38.5172 33.8494 38.6877 33.8494Z" fill="#333333"/>
<path opacity="0.2" d="M-2.94318 41L-2.03409 35.5455H3.05114L2.14205 41H0.295455L0.963068 37.0085H-0.457386L-1.125 41H-2.94318ZM5.75 41.0994C5.15814 41.0994 4.67045 40.9822 4.28693 40.7479C3.90578 40.5111 3.63826 40.1821 3.48438 39.7607C3.33049 39.3369 3.29972 38.8456 3.39205 38.2869C3.48438 37.7282 3.67732 37.2382 3.97088 36.8168C4.26444 36.393 4.64205 36.0639 5.10369 35.8295C5.56534 35.5928 6.09328 35.4744 6.6875 35.4744C7.27699 35.4744 7.76231 35.5928 8.14347 35.8295C8.52699 36.0639 8.79569 36.393 8.94957 36.8168C9.10582 37.2382 9.13778 37.7282 9.04545 38.2869C8.95313 38.8456 8.759 39.3369 8.46307 39.7607C8.16714 40.1821 7.78835 40.5111 7.3267 40.7479C6.86742 40.9822 6.34186 41.0994 5.75 41.0994ZM5.99148 39.6506C6.16193 39.6506 6.317 39.5949 6.45668 39.4837C6.59872 39.3724 6.71946 39.2138 6.81889 39.0078C6.92069 38.8018 6.99527 38.5568 7.04261 38.2727C7.08996 37.9863 7.09706 37.7412 7.06392 37.5376C7.03078 37.3317 6.96212 37.1731 6.85795 37.0618C6.75379 36.9505 6.61648 36.8949 6.44602 36.8949C6.27557 36.8949 6.11932 36.9505 5.97727 37.0618C5.83523 37.1731 5.71449 37.3317 5.61506 37.5376C5.51563 37.7412 5.44223 37.9863 5.39489 38.2727C5.34754 38.5568 5.33925 38.8018 5.37003 39.0078C5.40317 39.2138 5.47183 39.3724 5.57599 39.4837C5.68253 39.5949 5.82102 39.6506 5.99148 39.6506ZM13.1222 38.9688L14.8835 35.5455H16.2756L13.392 41H12.1705L11.1619 35.5455H12.554L13.1222 38.9688ZM12.1562 35.5455L11.2472 41H9.40057L10.3097 35.5455H12.1562ZM14.4432 41L15.3523 35.5455H17.1705L16.2614 41H14.4432ZM17.2131 41L18.1222 35.5455H20.0824L19.7557 37.4915H20.0966L21.5881 35.5455H23.8324L21.6307 38.3011L22.9375 41H20.6648L19.8977 39.3097H19.4574L19.1733 41H17.2131ZM24.896 41.0852C24.5503 41.0852 24.2532 41.0284 24.0046 40.9148C23.7584 40.7988 23.5785 40.6236 23.4648 40.3892C23.3536 40.1525 23.3287 39.8542 23.3903 39.4943C23.44 39.196 23.5335 38.9415 23.6708 38.7308C23.8081 38.5201 23.9786 38.3473 24.1822 38.2124C24.3858 38.0774 24.6142 37.9744 24.8675 37.9034C25.1232 37.83 25.3931 37.7827 25.6772 37.7614C25.985 37.7377 26.2347 37.7081 26.4265 37.6726C26.6183 37.6371 26.7615 37.5885 26.8562 37.527C26.9509 37.4654 27.0077 37.3826 27.0266 37.2784V37.2642C27.0479 37.1222 27.0101 37.0133 26.913 36.9375C26.8183 36.8617 26.6857 36.8239 26.5153 36.8239C26.3306 36.8239 26.1708 36.8641 26.0359 36.9446C25.9033 37.0251 25.8121 37.1506 25.7624 37.321H23.9585C24.0342 36.9896 24.1893 36.6842 24.4237 36.4048C24.6604 36.1231 24.9741 35.8982 25.3647 35.7301C25.7577 35.5597 26.2264 35.4744 26.771 35.4744C27.1592 35.4744 27.5001 35.5206 27.7937 35.6129C28.0872 35.7029 28.3299 35.8295 28.5217 35.9929C28.7158 36.1539 28.8519 36.3433 28.93 36.5611C29.0105 36.7765 29.0295 37.0109 28.9869 37.2642L28.3619 41H26.5295L26.6573 40.233H26.6147C26.4727 40.4366 26.3129 40.6011 26.1353 40.7266C25.9601 40.852 25.7683 40.9432 25.56 41C25.354 41.0568 25.1327 41.0852 24.896 41.0852ZM25.7482 39.8494C25.895 39.8494 26.0394 39.8187 26.1815 39.7571C26.3235 39.6955 26.4454 39.6068 26.5472 39.4908C26.649 39.3748 26.7141 39.2339 26.7425 39.0682L26.8136 38.6136C26.7615 38.6349 26.7035 38.6551 26.6396 38.674C26.578 38.6906 26.5129 38.7071 26.4442 38.7237C26.378 38.7403 26.3069 38.7557 26.2312 38.7699C26.1578 38.7841 26.082 38.7983 26.0039 38.8125C25.8477 38.8362 25.7163 38.8752 25.6097 38.9297C25.5032 38.9818 25.4203 39.0469 25.3612 39.125C25.302 39.2008 25.2653 39.286 25.2511 39.3807C25.2298 39.5298 25.2641 39.6458 25.354 39.7287C25.4464 39.8092 25.5778 39.8494 25.7482 39.8494ZM28.7161 42.6193L29.2275 39.5227H29.6252C29.7578 39.473 29.8749 39.3558 29.9767 39.1712C30.0809 38.9841 30.1732 38.7652 30.2537 38.5142C30.3342 38.2633 30.4041 38.0099 30.4632 37.7543C30.5224 37.4962 30.5745 37.2713 30.6195 37.0795L30.9888 35.5455H35.6479L34.9945 39.5227H35.8468L35.3354 42.6193H33.4888L33.7587 41H30.8894L30.6195 42.6193H28.7161ZM31.5002 39.5227H33.1763L33.6025 36.9659H32.3809L32.3525 37.0795C32.2293 37.669 32.1027 38.1603 31.9725 38.5533C31.8423 38.9439 31.6848 39.267 31.5002 39.5227ZM37.8354 41.0852C37.4898 41.0852 37.1926 41.0284 36.9441 40.9148C36.6979 40.7988 36.5179 40.6236 36.4043 40.3892C36.293 40.1525 36.2682 39.8542 36.3297 39.4943C36.3794 39.196 36.473 38.9415 36.6103 38.7308C36.7476 38.5201 36.918 38.3473 37.1216 38.2124C37.3252 38.0774 37.5537 37.9744 37.807 37.9034C38.0627 37.83 38.3326 37.7827 38.6167 37.7614C38.9244 37.7377 39.1742 37.7081 39.3659 37.6726C39.5577 37.6371 39.7009 37.5885 39.7956 37.527C39.8903 37.4654 39.9471 37.3826 39.9661 37.2784V37.2642C39.9874 37.1222 39.9495 37.0133 39.8525 36.9375C39.7578 36.8617 39.6252 36.8239 39.4547 36.8239C39.2701 36.8239 39.1103 36.8641 38.9753 36.9446C38.8427 37.0251 38.7516 37.1506 38.7019 37.321H36.8979C36.9737 36.9896 37.1287 36.6842 37.3631 36.4048C37.5998 36.1231 37.9135 35.8982 38.3042 35.7301C38.6971 35.5597 39.1659 35.4744 39.7104 35.4744C40.0987 35.4744 40.4396 35.5206 40.7331 35.6129C41.0267 35.7029 41.2694 35.8295 41.4611 35.9929C41.6552 36.1539 41.7914 36.3433 41.8695 36.5611C41.95 36.7765 41.9689 37.0109 41.9263 37.2642L41.3013 41H39.4689L39.5968 40.233H39.5542C39.4121 40.4366 39.2523 40.6011 39.0748 40.7266C38.8996 40.852 38.7078 40.9432 38.4995 41C38.2935 41.0568 38.0721 41.0852 37.8354 41.0852ZM38.6877 39.8494C38.8345 39.8494 38.9789 39.8187 39.1209 39.7571C39.263 39.6955 39.3849 39.6068 39.4867 39.4908C39.5885 39.3748 39.6536 39.2339 39.682 39.0682L39.753 38.6136C39.7009 38.6349 39.6429 38.6551 39.579 38.674C39.5175 38.6906 39.4524 38.7071 39.3837 38.7237C39.3174 38.7403 39.2464 38.7557 39.1706 38.7699C39.0972 38.7841 39.0215 38.7983 38.9434 38.8125C38.7871 38.8362 38.6557 38.8752 38.5492 38.9297C38.4426 38.9818 38.3598 39.0469 38.3006 39.125C38.2414 39.2008 38.2047 39.286 38.1905 39.3807C38.1692 39.5298 38.2035 39.6458 38.2935 39.7287C38.3858 39.8092 38.5172 39.8494 38.6877 39.8494Z" fill="#333333"/>
</g>
<defs>
<clipPath id="clip0_7_69">
<rect width="40" height="40" rx="10" fill="white"/>
</clipPath>
</defs>
</svg>
