<svg width="1000" height="1000" viewBox="0 0 1000 1000" fill="none" xmlns="http://www.w3.org/2000/svg">
<path d="M369.81 26.4304C371.188 27.9899 371.466 30.6597 372.916 32.2894C373.896 33.3925 374.451 35.1229 375.331 36.369C377.194 39.007 378.701 41.9046 380.701 44.4197C386.434 51.6302 392.206 59.2723 397.177 67.0528C398.455 69.0533 400.477 70.5434 401.814 72.4995C402.904 74.0947 404.181 75.779 405.523 77.2084C407.975 79.821 410.324 83.7444 411.928 86.9734C416.429 96.0302 420.628 105.22 425.148 114.315C429.704 123.485 432.721 133.473 436.276 143.133C439.503 151.901 442.774 160.873 445.808 169.694C449.395 180.121 453.363 190.334 456.375 200.942C457.701 205.61 458.719 210.517 460.559 215.003C461.55 217.42 462.485 220.485 462.953 223.076C463.645 226.905 464.915 231.076 464.915 235.011" stroke="white" stroke-width="5" stroke-linecap="round"/>
<path d="M463.363 233.839C463.363 237.371 468.257 239.307 471.32 239.307C474.518 239.307 477.598 240.088 480.831 240.088C483.965 240.088 487.099 240.088 490.234 240.088C493.292 240.088 496.304 238.616 499.162 237.658C501.421 236.9 503.681 235.806 505.847 234.815C507.977 233.841 510.598 233.366 512.856 232.667C516.454 231.553 519.746 229.136 523.359 228.066C524.961 227.592 526.562 226.209 528.189 226.027C530.209 225.801 532.358 225.17 534.4 224.877C536.581 224.563 538.983 224.855 541.194 224.855C542.869 224.855 543.949 225.636 545.658 225.636C547.332 225.636 549.033 225.729 550.704 225.636C553.074 225.504 554.439 222.984 556.333 221.925C558.465 220.733 560.931 217.165 561.962 215.09" stroke="white" stroke-width="5" stroke-linecap="round"/>
<path d="M561.185 214.699C561.185 212.79 560.008 211.129 558.683 209.795C557.088 208.19 555.988 206.035 553.982 204.847C553.265 204.423 553.22 203.543 552.257 203.372C551.077 203.162 550.21 201.344 549.151 200.811C547.45 199.956 545.507 197.287 544.105 195.95C542.584 194.501 540.993 193.035 539.425 191.654C538.203 190.578 536.78 189.772 535.759 188.507C534.869 187.405 533.638 185.695 532.459 184.927C531.343 184.2 530.78 182.543 529.828 181.585C528.485 180.233 527.935 178.301 526.658 176.854C523.731 173.541 521.206 169.699 518.484 166.178C517.058 164.333 515.359 162.248 514.214 160.232C513.682 159.295 512.297 158.618 511.799 157.672C510.608 155.407 508.147 152.976 506.429 151.032C503.27 147.456 500.386 143.574 497.609 139.704C496.194 137.733 494.537 136.059 493.037 134.149C491.831 132.614 490.955 130.752 489.565 129.353C488.947 128.732 487.819 127.521 487.516 126.728C486.808 124.875 485.076 123.797 484.13 122.105C481.865 118.053 479.046 114.386 476.56 110.496C474.775 107.702 473.004 104.538 470.932 101.99C466.559 96.6113 464.206 89.5331 459.696 84.239C457.576 81.7498 456.351 78.4164 454.24 75.8194C450.854 71.656 448.445 66.3241 444.729 62.3654C442.676 60.1778 440.457 57.2404 439.122 54.5534C438.172 52.6406 436.834 50.8335 435.715 48.9982C435.024 47.8662 433.991 47.0423 433.278 45.9385C432.471 44.6903 431.868 43.3009 430.776 42.2712C428.481 40.1057 427.002 37.2376 424.544 35.1102C421.314 32.3151 418.959 28.6228 416.004 25.649C412.006 21.6266 408.484 17.0677 405.134 12.4554C400.607 6.22099 392.918 4.16602 385.531 4.16602C383.239 4.16602 381.73 5.23223 379.902 6.20581C378.998 6.68756 378.093 7.08715 377.185 7.59461C376.409 8.02829 375.998 8.90962 375.417 9.24381C371.163 11.6897 367.869 19.1994 367.869 24.0866" stroke="white" stroke-width="5" stroke-linecap="round"/>
<path d="M462.223 231.994C458.362 232.48 454.217 235.114 450.335 236.119C448.715 236.538 447.955 236.679 446.411 237.416C445.567 237.818 442.852 239.38 442.194 239.419C440.811 239.501 440.083 240.188 439.149 241.128C438.222 242.061 436.416 242.171 435.342 243.132C432.524 245.652 427.488 245.405 424.596 247.669C422.349 249.428 419.499 251.082 417.158 252.914C415.713 254.045 414.027 254.903 412.678 256.125C411.311 257.363 409.844 259.291 408.051 259.985C404.839 261.228 402.52 264.859 399.501 266.467C397.455 267.557 395.151 269.685 393.469 271.24C391.505 273.056 389.112 274.08 387.085 275.748C384.088 278.216 379.831 279.507 376.544 281.612C372.719 284.061 368.246 286.641 363.953 288.212C361.739 289.022 359.426 290.963 357.364 292.13C355.695 293.075 353.631 293.917 351.83 294.576C349.94 295.267 347.682 296.521 345.974 297.552C342.727 299.512 339.112 300.987 335.959 303.062C324.85 310.37 313.171 316.407 302.256 324.011C295.793 328.513 287.662 332.41 283.662 339.656C281.954 342.748 278.812 345.838 276.575 348.672C272.622 353.681 268.879 359.015 264.453 363.64C261.409 366.82 259.531 370.904 256.664 374.129C253.039 378.205 249.979 382.666 246.913 387.123C232.468 408.117 223.877 432.141 214.732 455.804C211.493 464.184 208.044 472.432 205.537 481.261C204.958 483.299 204.651 486.045 203.663 487.89C202.37 490.307 202.604 493.137 201.555 495.551C200.575 497.805 199.739 500.514 199.739 503.005C199.739 505.533 198.294 507.977 198.158 510.43C197.892 515.247 196.243 519.893 195.64 524.75C195.076 529.29 193.582 533.863 193.414 538.421C193.361 539.862 193.32 541.786 192.624 543.047C191.648 544.814 191.589 548.67 191.335 550.708C191.022 553.229 190.252 555.896 190.252 558.427C190.252 563.223 189.198 568.087 189.198 573.012" stroke="white" stroke-width="5" stroke-linecap="round"/>
<path d="M189.725 570.891C188.699 571.02 187.834 576.329 187.616 577.314C187.048 579.89 187.089 582.32 187.089 584.945C187.089 590.514 187.089 596.083 187.089 601.652C187.089 604.228 187.126 608.74 187.88 611.169C188.769 614.03 187.936 617.401 188.934 620.214C191.08 626.26 190.791 633.229 192.77 639.425C194.361 644.404 195.163 649.633 196.869 654.628C198.191 658.495 200.208 662.598 200.823 666.62C201.355 670.103 202.987 673.534 203.839 676.962C204.602 680.035 205.637 683.611 207.001 686.508C208.409 689.499 208.759 693.179 209.519 696.349C211.254 703.58 212.802 710.89 214.79 718.035C216.641 724.687 219.568 730.841 221.232 737.54C223.698 747.466 230.071 755.881 235.287 764.47C238.042 769.005 241.804 773.484 245.478 777.317C250.104 782.145 253.768 787.839 258.479 792.579C263.588 797.72 269.647 802.941 274.027 808.725C276.808 812.397 280.772 815.171 283.281 819.097C285.794 823.031 289.336 826.045 291.977 829.822C293.849 832.498 295.339 835.794 297.482 838.19C299.867 840.855 301.892 843.941 303.807 846.97C306.757 851.634 311.09 855.769 315.139 859.639C319.901 864.191 325.038 868.677 329.165 873.841C332.95 878.575 336.725 884.959 341.64 888.573C349.269 894.183 356.279 898.833 365.504 902.127C372.311 904.557 378.603 908.543 385.562 910.436C389.785 911.584 394.691 913.753 398.329 916.152C408.296 922.722 420.087 926.79 430.832 932.033C441.393 937.185 452.396 941.541 462.34 947.973C468.665 952.064 478.287 955.699 485.648 956.459C489.945 956.902 494.14 958.162 498.181 959.641C502.156 961.095 507.195 961.716 510.831 963.884C513.493 965.471 517.328 966.083 520.23 967.36C524.413 969.202 528.421 971.374 532.324 973.695C540.586 978.608 547.907 984.596 555.925 989.871C557.857 991.142 560.445 991.613 562.396 992.758C563.72 993.535 565.622 993.929 567.111 994.143C568.277 994.311 569.32 995.403 570.537 995.675C575.16 996.709 580.686 997.48 585.441 996.648C588.049 996.191 593.691 995.512 595.69 993.701C597.162 992.368 599.906 990.514 601.663 989.871C603.84 989.074 605.6 986.117 607.403 985.599C608.463 985.294 610.653 981.803 611.678 980.973C612.99 979.909 614.403 978.584 615.602 977.378C617.189 975.781 619.13 975.181 620.755 973.842C623.989 971.18 629.832 971.839 633.815 971.839C635.337 971.839 637.012 972.96 638.5 973.43C640.439 974.042 640.445 974.713 641.663 975.433C643.939 976.781 646.465 979.794 649.334 979.794C655.429 979.794 660.78 979.291 666.728 978.203C672.047 977.23 677.821 976.562 682.95 974.903C687.561 973.412 692.666 972.461 697.064 970.248C700.068 968.736 702.065 966.369 704.677 964.679C707.27 963.002 710.176 960.472 712.32 958.315C714.681 955.939 718.355 954.445 720.9 952.098C723.208 949.968 726.163 946.71 728.923 945.321" stroke="white" stroke-width="5" stroke-linecap="round"/>
<path d="M561.84 210.781C565.454 211.186 569.635 213.96 573.142 215.231C575.327 216.022 577.584 216.629 579.76 217.411C581.247 217.945 583.095 217.727 584.504 218.324C585.991 218.954 588.686 219.705 590.302 219.798C593.795 219.998 597.012 221.613 600.345 221.948C604.473 222.364 608.383 224.571 612.439 224.571C615.557 224.571 618.66 226.05 621.663 226.722C623.061 227.034 624.18 227.893 625.352 228.548C627.645 229.83 630.487 230.827 632.995 231.701C646.339 236.349 660.024 240.441 672.76 246.728C677.756 249.194 683.399 250.456 688.601 252.385C693.349 254.145 698.164 256.059 703.096 257.335C705.789 258.032 708.293 259.256 710.885 260.222C712.668 260.887 714.248 262.632 716.038 263.287C718.328 264.124 721.098 265.423 723.125 266.734C724.28 267.481 725.285 267.835 726.551 268.325C728.199 268.963 729.758 270.161 731.441 270.594C734.473 271.374 736.743 273.759 739.581 274.954C742.677 276.259 745.895 277.517 748.688 279.462C753.113 282.545 758.37 285.262 763.182 287.683C771.019 291.625 775.459 299.123 782.157 304.418C788.79 309.662 795.712 314.719 802.713 319.504C809.539 324.17 814.685 330.94 821.131 336.21C826.549 340.639 831.381 346.229 836.329 351.207C841.106 356.014 845.216 361.577 848.891 367.265C851.571 371.415 854.549 375.387 857.763 379.139C861.006 382.925 865.178 387.248 867.543 391.632C870.427 396.978 873.426 401.917 875.713 407.543C880.7 419.808 885.676 431.7 892.55 443.018C894.206 445.744 897.233 449.95 897.587 453.153C897.774 454.853 899.532 457.141 900.105 458.869C900.839 461.085 902.284 463.012 902.857 465.322C903.427 467.613 905.148 469.924 906.283 471.981C907.901 474.911 909.275 478.54 910.354 481.675C911.725 485.661 913.827 489.399 914.98 493.46C916.44 498.601 919.203 503.339 920.134 508.723C920.782 512.475 922.487 515.819 923.296 519.565C924.187 523.69 924.385 527.734 925.756 531.675C927.435 536.503 928.072 541.703 929.621 546.378C930.547 549.174 930.434 552.367 931.056 555.246C931.593 557.732 932.374 560.4 932.374 562.937" stroke="white" stroke-width="5" stroke-linecap="round"/>
<path d="M932.374 560.815C933.577 560.966 934.16 566.44 934.453 567.474C935.43 570.911 936.015 575.006 936.562 578.582C937.168 582.544 937.166 587.347 938.289 591.163C938.851 593.069 938.597 594.915 938.699 596.879C938.8 598.808 939.754 600.648 939.754 602.595C939.754 611.208 939.754 619.822 939.754 628.435C939.754 631.812 938.291 635.03 938.172 638.364C937.998 643.269 935.01 648.55 935.01 653.627C935.01 660.504 931.847 667.187 931.847 674.046C931.847 677.988 930.547 682.446 929.622 686.273C928.37 691.451 926.401 696.467 925.113 701.653C924.43 704.4 923.503 707.057 922.887 709.844C922.333 712.355 921.635 715.488 920.486 717.8C917.269 724.274 915.696 731.659 912.346 738.159C909.259 744.149 905.93 749.976 902.858 755.985C900.927 759.764 899.131 763.862 896.123 767.005C885.295 778.319 876.214 791.281 865.172 802.391C858.46 809.145 851.654 815.464 844.88 822.28C836.922 830.287 828.881 838.255 821.425 846.912C815.684 853.578 810.732 860.182 804.295 866.299C795.084 875.053 785.407 883.146 776.916 892.758C771.615 898.759 765.438 903.895 759.904 909.67C756.579 913.139 753.452 917.409 749.743 920.395C747.863 921.909 745.625 924.029 744.209 925.964C742.329 928.53 739.181 929.899 737.415 932.564C736.508 933.933 735.138 934.763 734.194 936.188C733.26 937.598 730.158 939.536 729.977 941.079C729.817 942.452 725.162 945.876 723.653 946.382" stroke="white" stroke-width="5" stroke-linecap="round"/>
<path d="M563.422 217.675C563.683 219.777 571.738 222.546 573.231 223.273C579.3 226.228 585.398 228.931 591.474 231.759C597.902 234.75 603.931 238.413 610.331 241.541C614.7 243.676 619.837 246.848 624.562 247.905C626.303 248.294 628.879 249.777 630.477 250.675C632.393 251.751 634.225 252.474 636.041 253.739C641.892 257.815 646.719 263.354 652.614 267.528C656.563 270.324 660.004 273.989 663.8 277.045C669.383 281.539 672.519 287.282 676.743 292.867C683.726 302.103 688.092 313.488 696.245 321.919C700.807 326.638 705.273 331.382 709.714 336.209C714.242 341.129 719.443 345.5 723.535 350.794C727.044 355.333 730.174 360.064 733.667 364.583C736.923 368.796 740.303 373.669 743.037 378.254C748.041 386.646 754.714 393.722 758.967 402.533C762.729 410.327 766.651 418.591 771.616 425.691C773.749 428.741 775.677 431.988 777.678 435.12C779.969 438.706 782.588 442.201 784.266 446.14C785.655 449.401 788.656 452.23 789.537 455.774C790.201 458.447 791.846 461.73 793.109 464.172C794.696 467.237 795.455 471.209 796.799 474.484C801.351 485.582 807.159 496.104 811.557 507.248C812.546 509.754 813.995 511.977 815.071 514.437C816.425 517.535 816.97 520.934 818.526 523.954C821.753 530.217 823.694 536.978 826.666 543.312C829.199 548.708 830.149 554.63 831.937 560.284C833.328 564.683 834.865 569.963 834.865 574.603C834.865 578.033 835.517 581.304 835.89 584.68C836.362 588.949 836.447 593.086 836.447 597.408" stroke="white" stroke-width="5" stroke-linecap="round"/>
<path d="M840.136 642.49C840.241 644.274 840.858 646.115 841.454 647.793C842.047 649.464 841.718 651.639 841.718 653.391C841.718 660.276 841.718 667.161 841.718 674.046C841.718 681.078 841.19 687.974 841.19 694.995C841.19 698.082 840.732 701.025 840.663 704.128C840.581 707.866 839.278 711.5 839.082 715.148C838.32 729.342 835.305 742.991 830.913 756.25C828.046 764.902 824.087 772.914 820.635 781.324C817.42 789.156 813.047 797.266 808.512 804.365C804.148 811.196 799.594 817.595 794.779 824.136C789.257 831.636 782.131 838.15 776.126 845.291C771.208 851.14 766.282 856.995 761.719 863.117C756.419 870.228 751.221 877.671 745.79 884.743C730.167 905.087 720.024 929.757 712.057 953.807" stroke="white" stroke-width="5" stroke-linecap="round"/>
<path d="M550.245 233.586C550.245 235.779 551.666 237.412 552.236 239.42C552.939 241.895 553.864 244.515 554.989 246.845C557.71 252.482 561.253 256.488 565.647 260.752C569.651 264.636 573.936 268.079 577.126 272.714C580.276 277.293 582.901 283.023 586.613 287.152C590.598 291.583 592.75 297.701 596.218 302.532C601.313 309.632 605.925 317.29 611.386 324.159C625.138 341.456 638.809 358.865 650.916 377.312C657.175 386.848 664.087 396.341 671.355 405.185C678.329 413.671 684.407 422.761 691.091 431.408C697.136 439.229 702.781 447.349 707.84 455.922C714.259 466.799 720.493 477.552 724.824 489.452C728.431 499.363 730.767 509.789 733.14 520.095C736.053 532.743 740.804 545.061 743.272 557.75C745.161 567.467 747.57 577.062 749.362 586.802C750.166 591.171 750.333 595.599 751.178 599.943C751.739 602.83 752.642 606.182 752.642 609.077" stroke="white" stroke-width="5" stroke-linecap="round"/>
<path d="M764.236 706.132C764.236 716.113 767.137 725.826 767.399 735.832C767.579 742.716 767.399 749.628 767.399 756.515C767.399 762.524 767.846 768.724 766.989 774.665C765.28 786.509 761.744 797.782 759.376 809.433C756.62 822.987 751.476 836.011 748.161 849.357C745.894 858.481 741.688 866.834 739.2 875.845C737.601 881.64 736.296 887.866 733.9 893.376C732.303 897.051 731.587 901.193 729.684 904.749C726.717 910.294 725.261 917.717 724.149 923.872C723.665 926.55 722.92 929.304 721.807 931.768C721.075 933.387 720.273 940.392 718.908 941.079" stroke="white" stroke-width="5" stroke-linecap="round"/>
<path d="M502.808 243.663C501.75 243.796 502.281 250.506 502.281 251.5C502.281 255.652 500.7 259.966 500.7 264.111C500.7 273.052 499.119 281.879 499.119 290.864C499.119 302.816 499.347 314.815 502.545 326.398C504.733 334.324 506.245 342.397 509.133 350.146C512.146 358.23 515.484 365.775 519.674 373.305C522.49 378.364 525.794 383.059 528.898 387.919C532.233 393.139 535.026 398.635 538.239 403.947C543.208 412.161 547.015 421.491 552.997 429.051C557.275 434.456 559.811 440.892 563.685 446.523C567.492 452.055 569.198 459.095 572.675 464.82C574.501 467.827 575.943 471 577.653 474.072C579.482 477.358 581.7 480.886 582.924 484.443C584.003 487.581 585.728 490.483 586.906 493.577C588.073 496.643 588.585 500.022 590.068 503.006C590.757 504.391 591.457 505.613 591.855 507.013C592.165 508.107 591.311 509.877 592.411 510.431" stroke="white" stroke-width="5" stroke-linecap="round"/>
<path d="M598.208 557.632C600.652 560.398 602.034 565.414 603.362 568.888C605.354 574.098 608.138 578.966 609.804 584.415C610.839 587.799 612.137 590.918 612.966 594.256C613.587 596.752 614.336 599.149 614.958 601.652C615.59 604.198 616.998 606.887 617.183 609.489C617.334 611.612 618.473 613.611 618.793 615.706C619.228 618.547 620.096 621.419 620.755 624.221C621.38 626.874 621.65 630.201 621.897 632.943C622.177 636.033 622.981 639.431 622.981 642.489C622.981 652.842 623.508 663.106 623.508 673.544C623.508 680.953 622.981 688.466 622.981 695.79C622.981 703.809 621.542 711.881 621.4 719.921C621.295 725.803 620.345 731.727 620.345 737.54C620.345 744.926 620.345 752.312 620.345 759.697C620.345 765.57 619.818 771.768 619.818 777.464C619.818 780.992 618.34 784.467 618.237 788.101C618.015 795.939 615.075 803.224 615.075 811.142" stroke="white" stroke-width="5" stroke-linecap="round"/>
<path d="M611.386 864.706C611.386 885.351 611.386 905.995 611.386 926.64C611.386 931.4 611.818 937.487 613.377 942.02C613.936 943.643 613.758 945.386 614.432 946.911C614.997 948.192 614.838 949.988 615.339 951.39C615.86 952.846 616.414 954.128 616.686 955.633C617.378 959.462 620.552 963.147 621.371 966.858C621.93 969.387 625.09 972.446 625.09 975.02" stroke="white" stroke-width="5" stroke-linecap="round"/>
<path d="M640.374 976.613C642.697 974.413 644.97 972.217 647.753 970.661C651.326 968.664 654.07 964.951 657.504 962.558C661.898 959.498 665.339 955.426 669.89 952.482C672.519 950.781 675.032 947.373 676.742 944.792" stroke="white" stroke-width="5" stroke-linecap="round"/>
<path d="M617.711 976.611C617.322 973.093 606.989 972.753 604.768 972.486C601.052 972.04 599.715 969.01 596.628 967.183C593.889 965.562 591.366 962.986 588.311 961.879C587.084 961.435 585.784 959.142 584.505 958.314C583.087 957.397 581.01 955.789 580.288 954.336" stroke="white" stroke-width="5" stroke-linecap="round"/>
<path d="M584.505 917.213C575.183 907.833 564.523 899.803 553.436 892.551C547.08 888.394 540.216 882.598 535.75 876.376C534.049 874.005 531.724 871.588 529.659 869.51C526.867 866.701 523.994 863.49 520.963 860.966C517.635 858.195 514.208 854.874 511.534 851.449C510.728 850.416 509.49 848.91 508.371 848.267C506.456 847.166 504.016 843.352 502.574 841.637C500.158 838.765 497.584 835.428 494.638 833.122C485.021 825.596 476.199 816.483 467.494 807.724C458.964 799.142 450.567 790.397 442.077 781.855C438.368 778.123 435.281 774.015 431.945 769.892C428.499 765.632 424.255 761.993 420.994 757.576C419.012 754.892 417.564 752.36 415.84 749.503C414.736 747.673 413.93 742.031 412.151 741.135" stroke="white" stroke-width="5" stroke-linecap="round"/>
<path d="M393.703 665.824C392.857 664.866 392.915 663.024 392.356 661.817C391.339 659.625 390.68 656.653 390.131 654.274C389.243 650.436 387.36 646.814 386.822 643.019C386.606 641.501 385.996 638.876 385.27 637.598C383.947 635.269 384.165 632.039 383.396 629.495C381.633 623.667 381.696 617.558 380.409 611.728C379.608 608.101 379.623 604.042 379.443 600.325C379.211 595.555 378.015 590.639 377.481 585.859C377.117 582.605 376.697 578.541 375.519 575.458C375.044 574.215 375.505 572.951 375.226 571.686C374.418 568.028 373.674 564.244 373.674 560.402C373.674 553.542 371.566 546.722 371.566 539.865C371.566 530.978 370.512 521.856 370.512 512.846C370.512 504.076 370.512 495.305 370.512 486.535C370.512 478.654 372.214 470.991 372.62 463.229C372.835 459.108 374.717 455.156 375.226 451.06C375.723 447.056 375.088 441.821 376.837 438.302" stroke="white" stroke-width="5" stroke-linecap="round"/>
<path d="M386.324 386.858C386.324 381.084 387.905 375.598 387.905 369.886C387.905 366.669 389.067 364.321 389.897 361.401C390.972 357.615 391.782 353.479 393.703 350.027C394.792 348.071 394.839 345.911 395.812 343.899C396.577 342.316 397.52 340.767 398.154 339.126C399.254 336.28 400.892 332.969 401.609 330.08C402.31 327.26 404.148 324.125 405.562 321.595C407.756 317.671 409.387 313.738 411.917 309.956C416.787 302.675 420.314 294.3 425.445 287.151C427.18 284.733 428.672 281.744 430.716 279.608C433.04 277.18 435.6 274.949 437.714 272.331C439.65 269.933 443.028 268.013 445.386 265.937C448.812 262.92 452.688 260.577 455.869 257.215C459.807 253.055 463.517 248.724 467.494 244.723" stroke="white" stroke-width="5" stroke-linecap="round"/>
<path d="M380.527 306.244C380.391 307.339 379.144 308.478 378.389 309.191C375.718 311.711 373.39 314.812 370.513 317.087C366.56 320.212 363.202 324.132 359.034 326.928C355.945 329 352.544 332.28 349.927 334.913C345.431 339.437 341.114 344.199 336.545 348.672C332.408 352.723 328.972 357.604 325.184 361.961C322.372 365.195 319.681 369.092 317.278 372.656C315.254 375.657 312.516 378.484 310.719 381.584C309.258 384.104 307.423 387.758 305.419 389.775C300.901 394.321 298.417 400.654 294.35 405.656C291.752 408.852 289.352 412.228 286.825 415.497C285.101 417.727 283.447 420.109 282.227 422.657C280.552 426.157 277.927 429.049 276.459 432.675C274.884 436.565 273.428 440.605 272.359 444.667C270.933 450.088 268.023 455.295 267.206 460.842C266.356 466.613 263.242 472.1 262.989 477.961C262.869 480.746 261.513 483.288 261.408 486.034C261.294 489.01 260.722 492.086 260.354 495.05" stroke="white" stroke-width="5" stroke-linecap="round"/>
<path d="M236.108 568.24C236.108 580.301 236.635 592.41 236.635 604.421C236.635 617.341 240.042 630.096 241.906 642.754C243.683 654.822 246.438 666.82 248.641 678.789C249.726 684.688 251.693 690.253 252.974 696.055C253.788 699.741 256.137 703.993 256.137 707.723C256.137 709.941 257.637 713.451 258.362 715.56C259.788 719.706 261.913 723.943 264.014 727.906C267.414 734.32 271.366 740.374 275.346 746.438C278.48 751.214 281.805 756.503 285.77 760.64C291.832 766.966 297.094 774.083 302.285 781.206C305.052 785.003 307.819 789.06 311.07 792.461C312.557 794.018 314.542 798.413 316.75 798.413" stroke="white" stroke-width="5" stroke-linecap="round"/>
<path d="M359.444 851.979C362.092 855.127 364.187 858.686 366.706 861.937C370.49 866.825 373.968 871.166 378.448 875.373C381.917 878.632 385.368 881.875 389.077 884.86C393.18 888.163 397.713 890.332 402.137 893.051C403.78 894.062 405.756 894.699 407.525 895.468C409.779 896.447 411.635 898.167 413.849 899.18C419.388 901.713 424.635 904.765 430.306 907.106C434.919 909.01 439.531 910.565 444.186 912.439C448.145 914.033 452.255 916.28 456.425 917.212C459.905 917.99 463.91 919.352 467.231 920.659C471.889 922.494 476.988 923.108 481.725 924.637C485.499 925.855 489.644 927.07 493.555 927.819C497.946 928.661 502.156 930.852 506.498 931.944C514.849 934.045 523.087 937.273 531.27 940.017C534.525 941.109 537.988 941.534 541.285 942.64C543.647 943.432 546.709 945.321 549.191 945.321" stroke="white" stroke-width="5" stroke-linecap="round"/>
<path d="M375.478 8.85982C368.291 7.9559 360.626 4.67419 353.015 4.67419C330.025 4.67419 305.855 1.21858 283.131 6.16241C279.638 6.92246 275.521 6.27506 272.131 7.37159C268.324 8.60302 264.544 9.86951 260.668 10.9526C253.267 13.0214 245.43 16.1955 238.576 19.7425C228.996 24.6999 220.177 30.9764 211.214 36.9036C206.326 40.1351 202.161 44.3558 197.44 47.7862C194.089 50.2219 189.095 53.9954 186.625 57.2272C179.271 66.8466 167.688 73.2907 160.049 82.8991C151.183 94.0497 143.148 104.25 136.061 116.663C129.374 128.375 122.481 140.935 117.111 153.218C113.482 161.515 107.693 168.755 103.43 176.657C98.4693 185.851 89.9659 195.582 80.9668 200.376C73.7859 204.201 68.1561 210.356 61 213.956" stroke="white" stroke-width="5" stroke-linecap="round"/>
<path d="M61 213.956C64.7301 213.956 68.6969 208.933 73.4793 208.933C77.9164 208.933 82.3534 208.933 86.7905 208.933C94.7358 208.933 102.255 209.084 110.085 210.422C120.791 212.251 130.675 216.683 141.052 219.816C150.941 222.801 161.058 226.659 170.633 230.513C182.01 235.092 194.256 236.599 205.945 239.907C219.065 243.62 233.114 243.201 246.525 244.744C255.121 245.732 266.129 245.97 274.765 244.883C299.254 241.803 323.528 233.581 341.368 215.63C358.934 197.955 372.675 176.397 380.054 152.474C384.998 136.442 384.083 118.262 384.583 101.641C385.079 85.1652 383.797 68.7773 383.797 52.3905C383.797 43.2015 382.965 34.0657 382.965 24.8118C382.965 17.4253 384.629 10.2106 384.629 3" stroke="white" stroke-width="5" stroke-linecap="round"/>
<path d="M84.2944 204.749C86.4545 202.817 90.7669 202.237 93.6308 202.237C98.2965 202.237 102.843 200.563 107.589 200.563C118.077 200.563 133.772 201.49 142.346 194.052C147.495 189.586 154.39 186.254 160.002 182.332C165.258 178.66 170.187 174.685 175.023 170.427C190.265 157.007 202.519 140.374 215.743 124.85C240.917 95.297 265.918 63.928 297.228 40.2998C304.333 34.9381 311.166 29.4493 318.489 24.3479C323.356 20.9578 330.896 21.3573 336.376 18.9066C342.009 16.3873 350.992 16.3952 357.175 16.3952C361.359 16.3952 365.526 14.7209 369.654 14.7209" stroke="white" stroke-width="5" stroke-linecap="round"/>
<path d="M338.08 21.2979C336.097 21.5473 334.41 25.5297 333.456 27.0387C331.066 30.8175 328.678 34.5884 326.189 38.2786C321.662 44.992 318.805 53.2946 317.541 61.2418C316.675 66.6874 315.379 71.7242 315.379 77.3161C315.379 82.3821 315.379 87.4482 315.379 92.5142C315.379 95.2303 315.23 97.9908 315.379 100.702C315.5 102.884 316.46 104.958 316.46 107.229" stroke="white" stroke-width="5" stroke-linecap="round"/>
<path d="M294.3 40.333C291.237 40.333 288.174 40.333 285.111 40.333C281.378 40.333 277.042 42.3009 273.52 43.3545C265.932 45.6245 258.479 49.5731 251.179 52.7211C246.518 54.7312 241.552 57.1843 237.246 59.9122C230.335 64.2909 222.904 68.8873 215.626 72.7233C212.953 74.1324 209.551 76.358 207.278 78.4037C206.362 79.2292 204.628 81.123 203.495 81.123" stroke="white" stroke-width="5" stroke-linecap="round"/>
<path d="M275.381 62.0881C275.381 71.9002 272.775 82.3674 270.787 91.9706C268.811 101.518 266.733 112.122 266.733 121.913C266.733 129.516 266.543 137.095 268.775 144.333C269.478 146.61 272.894 161.616 276.462 161.616" stroke="white" stroke-width="5" stroke-linecap="round"/>
<path d="M212.684 131.159C212.684 133.994 214.015 138.01 214.725 140.949C216.406 147.901 217.101 155.535 217.518 162.673C218.06 171.949 218.539 182.797 217.008 192.042C216.503 195.087 216.6 199.038 215.386 201.862C214.605 203.679 215.132 205.636 214.305 207.301" stroke="white" stroke-width="5" stroke-linecap="round"/>
<path d="M242.952 93.6326C240.842 93.8684 238.834 98.8633 237.306 100.401C232.739 104.997 228.325 109.185 223.073 113.091C218.124 116.772 213.72 120.32 208.329 123.304C202.396 126.587 196.327 129.592 190.403 132.912C180.21 138.624 169.984 144.045 160.375 150.739C157.156 152.981 154.37 156.116 151.606 158.897C150.037 160.476 147.433 162.249 146.742 164.335" stroke="white" stroke-width="5" stroke-linecap="round"/>
<path d="M177.551 169.773C177.454 170.652 176.744 172.244 176.35 173.036C175.55 174.647 175.207 176.16 174.578 177.931C173.187 181.85 173.093 185.946 171.876 189.866C170.718 193.594 171.547 198.254 169.444 201.74C168.295 203.644 167.753 205.708 166.471 207.571C165.547 208.914 163.993 210.699 163.498 212.194" stroke="white" stroke-width="5" stroke-linecap="round"/>
<path d="M462.862 390.204V388.065" stroke="white" stroke-width="5" stroke-linecap="round"/>
<path d="M624.343 403.032L626.467 405.171" stroke="white" stroke-width="5" stroke-linecap="round"/>
<path d="M702.958 687.381V691.66" stroke="white" stroke-width="5" stroke-linecap="round"/>
<path d="M339.626 670.278C339.626 673.249 340.149 674.278 341.751 676.696" stroke="white" stroke-width="5" stroke-linecap="round"/>
<path d="M541.478 796.418C543.847 801.485 547.918 802.966 549.977 807.108" stroke="white" stroke-width="5" stroke-linecap="round"/>
<path d="M707.209 864.833C705.252 865.079 705.802 865.527 705.084 866.972" stroke="white" stroke-width="5" stroke-linecap="round"/>
<path d="M299.257 509.93H301.381" stroke="white" stroke-width="5" stroke-linecap="round"/>
<path d="M824.069 373.1V375.24" stroke="white" stroke-width="5" stroke-linecap="round"/>
<path d="M889.937 717.313C887.343 717.64 887.958 720.449 885.688 721.592" stroke="white" stroke-width="5" stroke-linecap="round"/>
</svg>
