<svg width="226" height="41" viewBox="0 0 226 41" fill="none" xmlns="http://www.w3.org/2000/svg">
<path d="M30.352 0.159998V34H22.672V6.88H8.56V34H0.88V0.159998H30.352ZM33.2481 21.856C33.2481 13.408 39.2961 9.28 46.9281 9.28C54.5121 9.28 60.5601 13.408 60.5601 21.856C60.5601 30.352 54.5121 34.48 46.9281 34.48C39.2961 34.48 33.2481 30.352 33.2481 21.856ZM40.9281 21.856C40.9281 25.936 43.2801 27.76 46.9281 27.76C50.5281 27.76 52.8801 25.936 52.8801 21.856C52.8801 17.824 50.5281 16 46.9281 16C43.2801 16 40.9281 17.824 40.9281 21.856ZM63.9269 34V9.76H79.1429L81.1589 32.08H83.0789L85.0949 9.76H100.359V34H92.6789V16L94.1189 11.68H92.1989L89.6069 34H74.6309L72.0869 11.68H70.1669L71.6069 16V34H63.9269ZM131.074 34H122.77L117.586 24.928C117.154 24.976 116.722 24.976 116.242 24.976H113.794V34H106.114V9.76H113.794V18.256H115.858L120.706 11.728C121.906 10.144 123.73 9.76 125.794 9.76H130.114V16.48H126.226L123.298 20.32L131.074 34ZM133.467 27.376C133.467 23.2 135.963 20.752 143.163 19.744L150.795 18.688C150.795 16.72 149.259 15.52 145.947 15.52C142.875 15.52 141.147 16.816 141.147 19.024H133.947C133.947 12.88 139.179 9.28 145.947 9.28C152.619 9.28 158.475 12.496 158.475 20.464V27.28H161.979V34H156.651C154.347 34 153.051 32.704 153.051 30.4V29.92L154.251 27.04H152.331C151.419 31.072 149.067 34.48 142.299 34.48C134.763 34.48 133.467 29.872 133.467 27.376ZM141.147 25.936C141.147 27.328 142.491 27.76 143.787 27.76C148.011 27.76 150.795 25.984 150.795 23.008L144.603 23.872C142.299 24.208 141.147 24.544 141.147 25.936ZM191.142 27.28H194.31V40.72H186.63V34H172.038V40.72H164.358V27.28H167.526C170.118 23.824 171.078 19.168 171.078 9.76H191.142V27.28ZM175.206 27.28H183.462V16.48H178.518C178.134 21.616 177.078 24.784 175.206 27.28ZM197.17 27.376C197.17 23.2 199.666 20.752 206.866 19.744L214.498 18.688C214.498 16.72 212.962 15.52 209.65 15.52C206.578 15.52 204.85 16.816 204.85 19.024H197.65C197.65 12.88 202.882 9.28 209.65 9.28C216.322 9.28 222.178 12.496 222.178 20.464V27.28H225.682V34H220.354C218.05 34 216.754 32.704 216.754 30.4V29.92L217.954 27.04H216.034C215.122 31.072 212.77 34.48 206.002 34.48C198.466 34.48 197.17 29.872 197.17 27.376ZM204.85 25.936C204.85 27.328 206.194 27.76 207.49 27.76C211.714 27.76 214.498 25.984 214.498 23.008L208.306 23.872C206.002 24.208 204.85 24.544 204.85 25.936Z" fill="white"/>
</svg>
