<svg width="124" height="140" viewBox="0 0 124 140" fill="none" xmlns="http://www.w3.org/2000/svg">
<path d="M43.873 4.25281C44.0643 4.46931 44.103 4.83998 44.3042 5.06623C44.4404 5.21937 44.5174 5.45961 44.6395 5.63261C44.8981 5.99885 45.1074 6.40113 45.385 6.75031C46.1809 7.75137 46.9824 8.81234 47.6725 9.89253C47.8499 10.1703 48.1307 10.3771 48.3162 10.6487C48.4675 10.8702 48.6449 11.104 48.8312 11.3025C49.1716 11.6652 49.4977 12.2099 49.7204 12.6582C50.3452 13.9155 50.9283 15.1914 51.5558 16.4541C52.1884 17.7272 52.6071 19.1139 53.1007 20.455C53.5488 21.6722 54.0028 22.9179 54.4241 24.1425C54.9221 25.5901 55.473 27.008 55.8912 28.4807C56.0752 29.1289 56.2166 29.8102 56.472 30.4329C56.6096 30.7685 56.7393 31.1939 56.8043 31.5537C56.9004 32.0854 57.0768 32.6644 57.0768 33.2106" stroke="white" stroke-width="2" stroke-linecap="round"/>
<path d="M56.8612 33.048C56.8612 33.5383 57.5407 33.8072 57.966 33.8072C58.41 33.8072 58.8376 33.9156 59.2864 33.9156C59.7215 33.9156 60.1567 33.9156 60.5918 33.9156C61.0164 33.9156 61.4345 33.7113 61.8313 33.5782C62.1449 33.473 62.4587 33.3211 62.7595 33.1835C63.0551 33.0483 63.4191 32.9823 63.7325 32.8853C64.232 32.7306 64.6891 32.395 65.1907 32.2466C65.4131 32.1808 65.6353 31.9887 65.8613 31.9634C66.1417 31.932 66.4401 31.8445 66.7236 31.8037C67.0264 31.7602 67.3598 31.8007 67.6667 31.8007C67.8994 31.8007 68.0493 31.9092 68.2865 31.9092C68.519 31.9092 68.7551 31.9221 68.9871 31.9092C69.3161 31.8908 69.5056 31.541 69.7686 31.394C70.0646 31.2285 70.4069 30.7331 70.55 30.445" stroke="white" stroke-width="2" stroke-linecap="round"/>
<path d="M70.4422 30.391C70.4422 30.1259 70.2789 29.8952 70.0949 29.7101C69.8734 29.4872 69.7207 29.188 69.4422 29.0232C69.3427 28.9643 69.3364 28.8421 69.2027 28.8183C69.0389 28.7893 68.9186 28.5368 68.7716 28.4628C68.5354 28.344 68.2656 27.9736 68.0709 27.788C67.8599 27.5868 67.639 27.3832 67.4212 27.1915C67.2516 27.0422 67.054 26.9302 66.9123 26.7547C66.7887 26.6016 66.6179 26.3641 66.4542 26.2576C66.2992 26.1567 66.2211 25.9266 66.0889 25.7936C65.9024 25.606 65.8261 25.3376 65.6488 25.1368C65.2424 24.6768 64.8918 24.1434 64.514 23.6546C64.316 23.3985 64.0801 23.109 63.9212 22.8291C63.8473 22.699 63.6549 22.605 63.5859 22.4736C63.4204 22.1592 63.0788 21.8217 62.8403 21.5518C62.4018 21.0553 62.0014 20.5164 61.6158 19.9791C61.4193 19.7055 61.1894 19.473 60.981 19.2079C60.8136 18.9948 60.692 18.7363 60.499 18.5421C60.4133 18.4559 60.2567 18.2878 60.2146 18.1776C60.1163 17.9204 59.8758 17.7707 59.7445 17.5359C59.43 16.9732 59.0386 16.4642 58.6936 15.9241C58.4458 15.5362 58.1998 15.0969 57.9121 14.7431C57.305 13.9964 56.9783 13.0138 56.3522 12.2788C56.0579 11.9332 55.8879 11.4704 55.5947 11.1098C55.1247 10.5318 54.7902 9.79158 54.2744 9.24198C53.9893 8.93827 53.6813 8.53046 53.4959 8.15742C53.364 7.89186 53.1782 7.64098 53.0229 7.38617C52.927 7.22902 52.7835 7.11464 52.6845 6.96139C52.5726 6.78809 52.4888 6.5952 52.3372 6.45224C52.0185 6.15161 51.8132 5.75341 51.4719 5.45806C51.0235 5.07001 50.6966 4.55739 50.2863 4.14453C49.7313 3.58609 49.2423 2.95317 48.7773 2.31283C48.1487 1.44729 47.0812 1.16199 46.0557 1.16199C45.7374 1.16199 45.528 1.31001 45.2743 1.44518C45.1487 1.51206 45.023 1.56754 44.897 1.63799C44.7893 1.6982 44.7322 1.82056 44.6515 1.86695C44.0609 2.20652 43.6036 3.24912 43.6036 3.92762" stroke="white" stroke-width="2" stroke-linecap="round"/>
<path d="M56.703 32.7921C56.1669 32.8595 55.5915 33.2253 55.0525 33.3647C54.8276 33.4229 54.7222 33.4425 54.5077 33.5447C54.3906 33.6006 54.0137 33.8175 53.9223 33.8229C53.7303 33.8342 53.6292 33.9297 53.4995 34.0601C53.3708 34.1896 53.1201 34.205 52.971 34.3383C52.5798 34.6883 51.8806 34.654 51.4791 34.9682C51.1671 35.2124 50.7715 35.442 50.4465 35.6964C50.2458 35.8534 50.0118 35.9726 49.8245 36.1422C49.6347 36.3141 49.4311 36.5818 49.1822 36.6781C48.7362 36.8507 48.4143 37.3547 47.9951 37.578C47.7111 37.7293 47.3912 38.0248 47.1577 38.2407C46.8851 38.4928 46.5527 38.635 46.2714 38.8666C45.8552 39.2092 45.2642 39.3884 44.8079 39.6806C44.2768 40.0207 43.6559 40.3788 43.0598 40.5969C42.7525 40.7094 42.4314 40.9789 42.1451 41.141C41.9134 41.2721 41.6268 41.389 41.3768 41.4805C41.1144 41.5765 40.8009 41.7504 40.5637 41.8936C40.113 42.1657 39.6111 42.3706 39.1734 42.6586C37.6311 43.6733 36.0097 44.5113 34.4942 45.567C33.597 46.192 32.4682 46.733 31.9128 47.7391C31.6758 48.1683 31.2395 48.5974 30.929 48.9908C30.3801 49.6862 29.8604 50.4267 29.2459 51.0688C28.8234 51.5103 28.5626 52.0774 28.1646 52.5251C27.6614 53.0909 27.2365 53.7103 26.8108 54.329C24.8054 57.2437 23.6127 60.579 22.343 63.8642C21.8934 65.0277 21.4146 66.1727 21.0665 67.3985C20.9862 67.6815 20.9435 68.0626 20.8064 68.3188C20.6268 68.6544 20.6593 69.0473 20.5137 69.3824C20.3776 69.6954 20.2616 70.0715 20.2616 70.4173C20.2616 70.7682 20.0609 71.1076 20.0421 71.4482C20.0052 72.1168 19.7762 72.7619 19.6925 73.4362C19.6141 74.0666 19.4068 74.7015 19.3835 75.3342C19.3761 75.5343 19.3704 75.8014 19.2737 75.9764C19.1383 76.2217 19.13 76.7571 19.0949 77.04C19.0514 77.3901 18.9444 77.7603 18.9444 78.1117C18.9444 78.7775 18.7981 79.4528 18.7981 80.1366" stroke="white" stroke-width="2" stroke-linecap="round"/>
<path d="M18.8712 79.842C18.7289 79.8599 18.6087 80.597 18.5785 80.7338C18.4995 81.0914 18.5053 81.4288 18.5053 81.7933C18.5053 82.5664 18.5053 83.3395 18.5053 84.1126C18.5053 84.4704 18.5104 85.0967 18.6151 85.4339C18.7385 85.8311 18.6228 86.2991 18.7615 86.6897C19.0594 87.529 19.0192 88.4966 19.294 89.3568C19.5148 90.0481 19.6263 90.7741 19.8632 91.4675C20.0466 92.0044 20.3266 92.574 20.412 93.1324C20.4859 93.616 20.7124 94.0922 20.8307 94.5682C20.9367 94.9948 21.0804 95.4913 21.2698 95.8935C21.4652 96.3088 21.5138 96.8196 21.6194 97.2598C21.8602 98.2636 22.0751 99.2785 22.3511 100.27C22.6081 101.194 23.0144 102.048 23.2455 102.978C23.5879 104.357 24.4726 105.525 25.1968 106.717C25.5792 107.347 26.1016 107.969 26.6116 108.501C27.2539 109.171 27.7626 109.962 28.4166 110.62C29.1259 111.333 29.9671 112.058 30.5752 112.861C30.9612 113.371 31.5117 113.756 31.8599 114.301C32.2088 114.847 32.7005 115.266 33.0673 115.79C33.3271 116.162 33.534 116.619 33.8315 116.952C34.1626 117.322 34.4437 117.75 34.7096 118.171C35.1192 118.818 35.7207 119.392 36.2829 119.93C36.944 120.562 37.6571 121.185 38.2302 121.902C38.7556 122.559 39.2797 123.445 39.962 123.947C41.0212 124.726 41.9944 125.371 43.2752 125.828C44.2203 126.166 45.0937 126.719 46.06 126.982C46.6462 127.141 47.3273 127.443 47.8324 127.776C49.2161 128.688 50.8531 129.253 52.3449 129.98C53.8111 130.696 55.3387 131.3 56.7192 132.193C57.5973 132.761 58.9332 133.266 59.9552 133.372C60.5518 133.433 61.1341 133.608 61.6951 133.813C62.2471 134.015 62.9466 134.101 63.4513 134.402C63.821 134.623 64.3533 134.708 64.7563 134.885C65.337 135.141 65.8934 135.442 66.4353 135.765C67.5824 136.447 68.5988 137.278 69.7119 138.01C69.9802 138.187 70.3394 138.252 70.6103 138.411C70.7942 138.519 71.0581 138.574 71.2649 138.603C71.4268 138.627 71.5715 138.778 71.7405 138.816C72.3823 138.96 73.1495 139.067 73.8097 138.951C74.1717 138.888 74.955 138.793 75.2326 138.542C75.437 138.357 75.8179 138.1 76.0619 138.01C76.3641 137.9 76.6084 137.489 76.8587 137.417C77.0059 137.375 77.31 136.89 77.4522 136.775C77.6345 136.627 77.8306 136.443 77.997 136.276C78.2174 136.054 78.4868 135.971 78.7125 135.785C79.1614 135.415 79.9727 135.507 80.5256 135.507C80.7369 135.507 80.9695 135.662 81.1761 135.728C81.4453 135.813 81.4461 135.906 81.6151 136.006C81.9312 136.193 82.2818 136.611 82.6802 136.611C83.5264 136.611 84.2693 136.541 85.095 136.39C85.8335 136.255 86.6352 136.163 87.3472 135.932C87.9873 135.725 88.696 135.593 89.3067 135.286C89.7237 135.076 90.0009 134.747 90.3636 134.513C90.7236 134.28 91.1271 133.929 91.4247 133.629C91.7525 133.299 92.2625 133.092 92.6158 132.766C92.9364 132.47 93.3465 132.018 93.7297 131.825" stroke="white" stroke-width="2" stroke-linecap="round"/>
<path d="M70.5331 29.8468C71.0349 29.9029 71.6153 30.2881 72.1023 30.4645C72.4056 30.5743 72.7189 30.6586 73.021 30.7672C73.2275 30.8414 73.484 30.8111 73.6796 30.894C73.8861 30.9815 74.2602 31.0856 74.4846 31.0985C74.9696 31.1264 75.4161 31.3506 75.879 31.3971C76.452 31.4548 76.9949 31.7612 77.5579 31.7612C77.9908 31.7612 78.4217 31.9666 78.8385 32.0598C79.0326 32.1032 79.188 32.2224 79.3507 32.3134C79.6691 32.4914 80.0636 32.6298 80.4118 32.7511C82.2644 33.3964 84.1644 33.9646 85.9325 34.8373C86.626 35.1797 87.4095 35.355 88.1318 35.6227C88.7909 35.8671 89.4594 36.1328 90.1441 36.3099C90.518 36.4067 90.8656 36.5767 91.2255 36.7108C91.473 36.8031 91.6924 37.0453 91.941 37.1362C92.2589 37.2526 92.6434 37.4328 92.9248 37.6148C93.0852 37.7186 93.2248 37.7677 93.4004 37.8357C93.6293 37.9243 93.8457 38.0906 94.0793 38.1507C94.5003 38.2591 94.8154 38.5901 95.2095 38.7561C95.6393 38.9372 96.086 39.1118 96.4738 39.382C97.0882 39.81 97.818 40.1871 98.4861 40.5232C99.5741 41.0706 100.191 42.1115 101.12 42.8467C102.041 43.5747 103.002 44.2768 103.974 44.9411C104.922 45.5888 105.636 46.5287 106.531 47.2605C107.283 47.8753 107.954 48.6514 108.641 49.3426C109.304 50.0099 109.875 50.7821 110.385 51.5719C110.757 52.148 111.171 52.6995 111.617 53.2204C112.067 53.746 112.646 54.3462 112.975 54.9549C113.375 55.697 113.792 56.3828 114.109 57.1638C114.801 58.8666 115.492 60.5176 116.447 62.0889C116.676 62.4673 117.097 63.0514 117.146 63.496C117.172 63.7319 117.416 64.0496 117.495 64.2896C117.597 64.5973 117.798 64.8648 117.878 65.1854C117.957 65.5035 118.196 65.8243 118.353 66.1099C118.578 66.5167 118.769 67.0205 118.918 67.4557C119.109 68.0091 119.401 68.5282 119.561 69.0919C119.763 69.8057 120.147 70.4634 120.276 71.2109C120.366 71.7318 120.603 72.1961 120.715 72.7162C120.839 73.2888 120.866 73.8502 121.057 74.3974C121.29 75.0677 121.378 75.7896 121.593 76.4386C121.722 76.8268 121.706 77.2702 121.792 77.6699C121.867 78.015 121.975 78.3854 121.975 78.7376" stroke="white" stroke-width="2" stroke-linecap="round"/>
<path d="M121.976 78.4431C122.142 78.4641 122.223 79.224 122.264 79.3675C122.4 79.8447 122.481 80.4133 122.557 80.9097C122.641 81.4598 122.641 82.1266 122.797 82.6564C122.875 82.921 122.839 83.1773 122.854 83.4499C122.868 83.7177 123 83.9733 123 84.2435C123 85.4393 123 86.6351 123 87.831C123 88.2998 122.797 88.7466 122.78 89.2095C122.756 89.8904 122.341 90.6236 122.341 91.3284C122.341 92.2832 121.902 93.211 121.902 94.1632C121.902 94.7106 121.722 95.3295 121.593 95.8608C121.42 96.5797 121.146 97.276 120.967 97.9961C120.873 98.3773 120.744 98.7463 120.658 99.1333C120.581 99.4818 120.485 99.9167 120.325 100.238C119.878 101.137 119.66 102.162 119.195 103.064C118.766 103.896 118.304 104.705 117.878 105.539C117.61 106.064 117.36 106.633 116.943 107.069C115.439 108.64 114.179 110.439 112.646 111.982C111.714 112.919 110.769 113.797 109.828 114.743C108.724 115.855 107.607 116.961 106.572 118.163C105.775 119.088 105.088 120.005 104.194 120.854C102.915 122.07 101.572 123.193 100.393 124.528C99.6568 125.361 98.7992 126.074 98.0309 126.876C97.5693 127.357 97.1353 127.95 96.6202 128.365C96.3592 128.575 96.0486 128.869 95.8519 129.138C95.591 129.494 95.1538 129.684 94.9087 130.054C94.7828 130.244 94.5926 130.359 94.4616 130.557C94.3318 130.753 93.9012 131.022 93.8762 131.236C93.8539 131.427 93.2076 131.902 92.998 131.973" stroke="white" stroke-width="2" stroke-linecap="round"/>
<path d="M70.7527 30.804C70.7889 31.0958 71.9072 31.4803 72.1146 31.5812C72.9572 31.9915 73.8037 32.3668 74.6472 32.7593C75.5396 33.1746 76.3767 33.6831 77.2653 34.1174C77.8718 34.4138 78.5851 34.8543 79.241 35.001C79.4826 35.055 79.8403 35.2609 80.0622 35.3855C80.3282 35.5349 80.5826 35.6353 80.8346 35.8109C81.647 36.3768 82.3172 37.1458 83.1356 37.7253C83.6838 38.1135 84.1615 38.6223 84.6885 39.0466C85.4636 39.6705 85.899 40.4677 86.4854 41.2432C87.455 42.5254 88.0611 44.1061 89.1929 45.2765C89.8264 45.9316 90.4463 46.5904 91.0629 47.2605C91.6915 47.9435 92.4137 48.5504 92.9818 49.2853C93.4689 49.9155 93.9034 50.5723 94.3884 51.1997C94.8405 51.7846 95.3097 52.4612 95.6893 53.0977C96.384 54.2628 97.3103 55.2452 97.9008 56.4684C98.4231 57.5505 98.9676 58.6978 99.657 59.6836C99.9531 60.107 100.221 60.5578 100.499 60.9926C100.817 61.4905 101.18 61.9756 101.413 62.5225C101.606 62.9752 102.023 63.368 102.145 63.8601C102.237 64.2312 102.465 64.687 102.641 65.0259C102.861 65.4514 102.967 66.0029 103.153 66.4576C103.785 67.9984 104.592 69.4592 105.202 71.0064C105.339 71.3542 105.541 71.6629 105.69 72.0045C105.878 72.4345 105.954 72.9064 106.17 73.3257C106.618 74.1952 106.887 75.1339 107.3 76.0132C107.651 76.7623 107.783 77.5845 108.032 78.3694C108.225 78.9802 108.438 79.7132 108.438 80.3574C108.438 80.8337 108.529 81.2877 108.58 81.7564C108.646 82.3491 108.658 82.9235 108.658 83.5236" stroke="white" stroke-width="2" stroke-linecap="round"/>
<path d="M109.17 89.7822C109.184 90.0299 109.27 90.2855 109.353 90.5185C109.435 90.7504 109.389 91.0524 109.389 91.2957C109.389 92.2515 109.389 93.2074 109.389 94.1632C109.389 95.1395 109.316 96.097 109.316 97.0716C109.316 97.5002 109.253 97.9089 109.243 98.3397C109.232 98.8585 109.051 99.3631 109.023 99.8696C108.918 101.84 108.499 103.735 107.889 105.576C107.491 106.777 106.942 107.889 106.462 109.057C106.016 110.144 105.409 111.27 104.779 112.256C104.173 113.204 103.541 114.093 102.873 115.001C102.106 116.042 101.117 116.946 100.283 117.938C99.6003 118.75 98.9164 119.563 98.2829 120.413C97.5471 121.4 96.8255 122.433 96.0714 123.415C93.9024 126.239 92.4943 129.664 91.3882 133.003" stroke="white" stroke-width="2" stroke-linecap="round"/>
<path d="M68.9233 33.0129C68.9233 33.3174 69.1206 33.5441 69.1998 33.8229C69.2974 34.1665 69.4258 34.5303 69.5819 34.8537C69.9597 35.6363 70.4517 36.1926 71.0617 36.7845C71.6175 37.3238 72.2125 37.8017 72.6553 38.4452C73.0927 39.081 73.457 39.8764 73.9724 40.4496C74.5256 41.0648 74.8245 41.9143 75.3059 42.5849C76.0133 43.5706 76.6536 44.6339 77.4117 45.5874C79.321 47.9889 81.219 50.4058 82.8999 52.9668C83.7687 54.2907 84.7284 55.6087 85.7374 56.8365C86.7056 58.0146 87.5495 59.2766 88.4775 60.4772C89.3167 61.563 90.1004 62.6903 90.8028 63.8805C91.6939 65.3906 92.5594 66.8835 93.1607 68.5356C93.6614 69.9115 93.9858 71.3591 94.3152 72.7899C94.7196 74.5459 95.3793 76.2559 95.7218 78.0176C95.9841 79.3666 96.3185 80.6988 96.5674 82.051C96.6791 82.6576 96.7022 83.2723 96.8195 83.8754C96.8974 84.2762 97.0227 84.7416 97.0227 85.1434" stroke="white" stroke-width="2" stroke-linecap="round"/>
<path d="M98.6324 98.6179C98.6324 100.004 99.0352 101.352 99.0715 102.741C99.0965 103.697 99.0715 104.657 99.0715 105.613C99.0715 106.447 99.1336 107.308 99.0146 108.133C98.7774 109.777 98.2864 111.342 97.9576 112.959C97.5751 114.841 96.8609 116.649 96.4006 118.502C96.0859 119.769 95.502 120.929 95.1566 122.18C94.9345 122.984 94.7534 123.849 94.4208 124.614C94.199 125.124 94.0996 125.699 93.8354 126.193C93.4235 126.962 93.2214 127.993 93.067 128.847C92.9999 129.219 92.8963 129.602 92.7418 129.944C92.6403 130.168 92.5288 131.141 92.3394 131.236" stroke="white" stroke-width="2" stroke-linecap="round"/>
<path d="M62.3375 34.4119C62.1906 34.4304 62.2644 35.3621 62.2644 35.5C62.2644 36.0764 62.0448 36.6754 62.0448 37.2508C62.0448 38.4922 61.8253 39.7176 61.8253 40.9651C61.8253 42.6244 61.857 44.2902 62.301 45.8983C62.6048 46.9988 62.8147 48.1195 63.2157 49.1953C63.6339 50.3177 64.0974 51.3652 64.6792 52.4105C65.07 53.1129 65.5287 53.7648 65.9597 54.4395C66.4227 55.1642 66.8104 55.9273 67.2566 56.6647C67.9464 57.8051 68.4749 59.1004 69.3055 60.1499C69.8994 60.9004 70.2515 61.7939 70.7893 62.5757C71.3178 63.3437 71.5546 64.321 72.0374 65.1159C72.2909 65.5333 72.4911 65.9738 72.7285 66.4004C72.9824 66.8566 73.2903 67.3464 73.4602 67.8402C73.6101 68.2759 73.8496 68.6787 74.0131 69.1083C74.1751 69.5339 74.2463 70.003 74.4522 70.4173C74.5477 70.6096 74.645 70.7793 74.7001 70.9736C74.7433 71.1255 74.6247 71.3713 74.7774 71.4481" stroke="white" stroke-width="2" stroke-linecap="round"/>
<path d="M75.5823 78.0013C75.9215 78.3853 76.1134 79.0816 76.2978 79.5639C76.5743 80.2873 76.9608 80.9631 77.1921 81.7196C77.3358 82.1894 77.5161 82.6225 77.6312 83.0859C77.7173 83.4324 77.8213 83.7651 77.9076 84.1126C77.9954 84.4661 78.1909 84.8394 78.2166 85.2007C78.2375 85.4954 78.3957 85.773 78.4402 86.0638C78.5005 86.4582 78.621 86.857 78.7126 87.246C78.7993 87.6143 78.8367 88.0762 78.8711 88.4568C78.9099 88.8859 79.0215 89.3576 79.0215 89.7822C79.0215 91.2195 79.0947 92.6445 79.0947 94.0937C79.0947 95.1222 79.0215 96.1653 79.0215 97.1821C79.0215 98.2955 78.8218 99.4161 78.802 100.532C78.7875 101.349 78.6556 102.171 78.6556 102.978C78.6556 104.004 78.6556 105.029 78.6556 106.055C78.6556 106.87 78.5825 107.73 78.5825 108.521C78.5825 109.011 78.3773 109.493 78.3629 109.998C78.332 111.086 77.9239 112.098 77.9239 113.197" stroke="white" stroke-width="2" stroke-linecap="round"/>
<path d="M77.4117 120.633C77.4117 123.5 77.4117 126.366 77.4117 129.232C77.4117 129.893 77.4717 130.738 77.6882 131.367C77.7657 131.592 77.741 131.834 77.8345 132.046C77.9131 132.224 77.8909 132.473 77.9606 132.668C78.0329 132.87 78.1098 133.048 78.1476 133.257C78.2436 133.789 78.6842 134.3 78.798 134.815C78.8755 135.166 79.3143 135.591 79.3143 135.949" stroke="white" stroke-width="2" stroke-linecap="round"/>
<path d="M81.4363 136.169C81.7587 135.864 82.0743 135.559 82.4607 135.343C82.9568 135.066 83.3377 134.55 83.8145 134.218C84.4244 133.793 84.9022 133.228 85.5341 132.819C85.8991 132.583 86.248 132.11 86.4854 131.752" stroke="white" stroke-width="2" stroke-linecap="round"/>
<path d="M78.2898 136.17C78.2359 135.681 76.8014 135.634 76.493 135.597C75.9771 135.535 75.7915 135.114 75.3628 134.861C74.9826 134.635 74.6323 134.278 74.2083 134.124C74.0378 134.062 73.8574 133.744 73.6798 133.629C73.4829 133.502 73.1946 133.279 73.0944 133.077" stroke="white" stroke-width="2" stroke-linecap="round"/>
<path d="M73.6797 127.923C72.3856 126.621 70.9057 125.506 69.3664 124.499C68.484 123.922 67.5311 123.117 66.911 122.253C66.6748 121.924 66.3521 121.589 66.0654 121.3C65.6778 120.91 65.2789 120.464 64.858 120.114C64.3961 119.729 63.9203 119.268 63.549 118.793C63.4371 118.649 63.2652 118.44 63.1099 118.351C62.8441 118.198 62.5052 117.669 62.305 117.43C61.9697 117.032 61.6123 116.568 61.2033 116.248C59.8682 115.203 58.6433 113.938 57.4348 112.722C56.2506 111.531 55.0847 110.317 53.9061 109.131C53.3911 108.613 52.9625 108.042 52.4995 107.47C52.0211 106.878 51.4318 106.373 50.9791 105.76C50.7039 105.387 50.5029 105.036 50.2636 104.639C50.1103 104.385 49.9984 103.602 49.7513 103.477" stroke="white" stroke-width="2" stroke-linecap="round"/>
<path d="M47.1902 93.0219C47.0727 92.8889 47.0809 92.6331 47.0032 92.4656C46.8621 92.1613 46.7706 91.7487 46.6942 91.4184C46.571 90.8854 46.3096 90.3826 46.2348 89.8558C46.2049 89.645 46.1202 89.2806 46.0194 89.1031C45.8358 88.7798 45.866 88.3314 45.7592 87.9782C45.5145 87.169 45.5233 86.3209 45.3445 85.5116C45.2333 85.008 45.2354 84.4444 45.2104 83.9285C45.1783 83.2662 45.0122 82.5837 44.938 81.92C44.8875 81.4683 44.8292 80.9041 44.6656 80.476C44.5997 80.3035 44.6638 80.1281 44.625 79.9524C44.5128 79.4446 44.4095 78.9192 44.4095 78.3857C44.4095 77.4334 44.1168 76.4865 44.1168 75.5346C44.1168 74.3008 43.9705 73.0343 43.9705 71.7835C43.9705 70.5659 43.9705 69.3483 43.9705 68.1306C43.9705 67.0364 44.2068 65.9727 44.2632 64.895C44.2931 64.3229 44.5543 63.7741 44.625 63.2056C44.694 62.6496 44.6058 61.9228 44.8486 61.4343" stroke="white" stroke-width="2" stroke-linecap="round"/>
<path d="M46.1658 54.2922C46.1658 53.4906 46.3853 52.729 46.3853 51.936C46.3853 51.4894 46.5466 51.1633 46.6617 50.7579C46.811 50.2323 46.9235 49.6582 47.1902 49.1789C47.3414 48.9073 47.3479 48.6074 47.4829 48.3281C47.5892 48.1083 47.7201 47.8932 47.8082 47.6654C47.9609 47.2703 48.1882 46.8106 48.2879 46.4096C48.3852 46.018 48.6403 45.5828 48.8367 45.2315C49.1412 44.6868 49.3676 44.1408 49.7188 43.6157C50.395 42.6049 50.8846 41.4421 51.597 40.4496C51.8379 40.1139 52.045 39.6989 52.3288 39.4024C52.6514 39.0652 53.0069 38.7555 53.3004 38.392C53.5692 38.0591 54.0381 37.7926 54.3655 37.5044C54.8412 37.0856 55.3792 36.7602 55.8209 36.2936C56.3675 35.716 56.8827 35.1147 57.4348 34.5591" stroke="white" stroke-width="2" stroke-linecap="round"/>
<path d="M45.3609 43.1003C45.342 43.2524 45.1689 43.4105 45.0641 43.5094C44.6932 43.8593 44.3701 44.2898 43.9706 44.6057C43.4218 45.0395 42.9555 45.5838 42.377 45.9719C41.9481 46.2596 41.4759 46.7149 41.1126 47.0805C40.4884 47.7087 39.8891 48.3698 39.2548 48.9908C38.6804 49.5531 38.2034 50.2308 37.6775 50.8357C37.2871 51.2846 36.9135 51.8257 36.5798 52.3205C36.2989 52.7372 35.9187 53.1296 35.6692 53.56C35.4664 53.9099 35.2116 54.4172 34.9334 54.6972C34.3061 55.3283 33.9614 56.2076 33.3967 56.902C33.0359 57.3457 32.7028 57.8144 32.3519 58.2683C32.1127 58.5778 31.8829 58.9085 31.7137 59.2623C31.4811 59.7482 31.1166 60.1498 30.9128 60.6531C30.6941 61.1932 30.492 61.7541 30.3437 62.3179C30.1456 63.0707 29.7416 63.7935 29.6282 64.5637C29.5102 65.3649 29.0779 66.1267 29.0428 66.9403C29.026 67.327 28.8378 67.6799 28.8232 68.0611C28.8074 68.4743 28.728 68.9013 28.6769 69.3129" stroke="white" stroke-width="2" stroke-linecap="round"/>
<path d="M25.3108 79.4739C25.3108 81.1484 25.384 82.8296 25.384 84.4971C25.384 86.2908 25.857 88.0616 26.1157 89.819C26.3624 91.4944 26.7449 93.16 27.0507 94.8218C27.2015 95.6407 27.4745 96.4134 27.6524 97.2189C27.7654 97.7306 28.0915 98.321 28.0915 98.8387C28.0915 99.1468 28.2997 99.634 28.4004 99.9268C28.5984 100.502 28.8934 101.091 29.185 101.641C29.6571 102.531 30.2057 103.372 30.7583 104.214C31.1934 104.877 31.6551 105.611 32.2055 106.185C33.0471 107.064 33.7776 108.052 34.4984 109.041C34.8825 109.568 35.2667 110.131 35.718 110.603C35.9245 110.819 36.2 111.43 36.5066 111.43" stroke="white" stroke-width="2" stroke-linecap="round"/>
<path d="M42.4338 118.866C42.8015 119.303 43.0924 119.797 43.442 120.249C43.9675 120.927 44.4503 121.53 45.0722 122.114C45.5539 122.567 46.0331 123.017 46.5479 123.431C47.1175 123.89 47.747 124.191 48.3611 124.569C48.5892 124.709 48.8635 124.797 49.1091 124.904C49.422 125.04 49.6797 125.279 49.9872 125.419C50.7561 125.771 51.4846 126.195 52.2719 126.52C52.9123 126.784 53.5526 127 54.1988 127.26C54.7485 127.481 55.3192 127.793 55.8981 127.923C56.3812 128.031 56.9372 128.22 57.3982 128.401C58.045 128.656 58.7529 128.741 59.4105 128.954C59.9345 129.123 60.51 129.291 61.0529 129.395C61.6625 129.512 62.2471 129.817 62.8498 129.968C64.0093 130.26 65.153 130.708 66.289 131.089C66.741 131.241 67.2217 131.3 67.6794 131.453C68.0074 131.563 68.4324 131.825 68.777 131.825" stroke="white" stroke-width="2" stroke-linecap="round"/>
<path d="M44.6599 1.81361C43.6622 1.68812 42.5979 1.23251 41.5413 1.23251C38.3495 1.23251 34.994 0.752755 31.8391 1.43912C31.3541 1.54464 30.7826 1.45476 30.3119 1.607C29.7833 1.77796 29.2586 1.95379 28.7206 2.10416C27.693 2.39137 26.6049 2.83205 25.6533 3.32448C24.3233 4.01274 23.0991 4.88412 21.8546 5.70701C21.1761 6.15565 20.5978 6.74163 19.9424 7.21788C19.4771 7.55603 18.7839 8.07992 18.4409 8.5286C17.4199 9.86409 15.8118 10.7587 14.7512 12.0927C13.5204 13.6408 12.4048 15.0569 11.4209 16.7803C10.4926 18.4063 9.53564 20.1501 8.79 21.8553C8.28628 23.0072 7.48248 24.0124 6.89062 25.1094C6.20198 26.3859 5.02142 27.7368 3.77206 28.4024C2.7751 28.9335 1.9935 29.7879 1 30.2877" stroke="white" stroke-width="2" stroke-linecap="round"/>
<path d="M1 30.2877C1.51786 30.2877 2.06859 29.5903 2.73254 29.5903C3.34855 29.5903 3.96456 29.5903 4.58057 29.5903C5.68364 29.5903 6.72758 29.6112 7.81464 29.797C9.30096 30.0509 10.6732 30.6663 12.1139 31.1012C13.4868 31.5156 14.8914 32.0512 16.2207 32.5863C17.8002 33.222 19.5004 33.4313 21.1231 33.8905C22.9446 34.406 24.8951 34.3479 26.757 34.562C27.9505 34.6993 29.4786 34.7322 30.6777 34.5814C34.0775 34.1538 37.4475 33.0123 39.9243 30.5201C42.363 28.0662 44.2708 25.0732 45.2952 21.7519C45.9817 19.5261 45.8545 17.0022 45.924 14.6947C45.9929 12.4072 45.8149 10.1321 45.8149 7.85703C45.8149 6.58129 45.6994 5.31294 45.6994 4.0282C45.6994 3.00271 45.9304 2.00107 45.9304 1" stroke="white" stroke-width="2" stroke-linecap="round"/>
<path d="M4.23401 29.0093C4.5339 28.7411 5.1326 28.6606 5.5302 28.6606C6.17795 28.6606 6.80911 28.4282 7.46808 28.4282C8.92421 28.4282 11.1031 28.5569 12.2935 27.5242C13.0083 26.9042 13.9656 26.4416 14.7447 25.8971C15.4745 25.3872 16.1588 24.8354 16.8302 24.2442C18.9462 22.3812 20.6474 20.0719 22.4834 17.9166C25.9784 13.8138 29.4494 9.4587 33.7962 6.17833C34.7826 5.43394 35.7312 4.67192 36.7479 3.96368C37.4236 3.49301 38.4704 3.54847 39.2312 3.20824C40.0133 2.85848 41.2604 2.85958 42.1188 2.85958C42.6997 2.85958 43.2782 2.62714 43.8513 2.62714" stroke="white" stroke-width="2" stroke-linecap="round"/>
<path d="M39.4679 3.54034C39.1926 3.57497 38.9584 4.12786 38.8259 4.33736C38.4941 4.86199 38.1625 5.38552 37.817 5.89783C37.1885 6.82988 36.7918 7.98255 36.6164 9.08589C36.4962 9.84192 36.3162 10.5412 36.3162 11.3175C36.3162 12.0209 36.3162 12.7242 36.3162 13.4275C36.3162 13.8046 36.2955 14.1879 36.3162 14.5643C36.333 14.8672 36.4663 15.1551 36.4663 15.4704" stroke="white" stroke-width="2" stroke-linecap="round"/>
<path d="M33.3897 6.18311C32.9644 6.18311 32.5392 6.18311 32.114 6.18311C31.5958 6.18311 30.9937 6.45632 30.5048 6.60259C29.4513 6.91774 28.4166 7.46593 27.4031 7.90298C26.756 8.18205 26.0666 8.52263 25.4688 8.90135C24.5093 9.50924 23.4776 10.1474 22.4672 10.6799C22.096 10.8756 21.6237 11.1846 21.3082 11.4686C21.1809 11.5832 20.9402 11.8461 20.783 11.8461" stroke="white" stroke-width="2" stroke-linecap="round"/>
<path d="M30.7632 9.20337C30.7632 10.5656 30.4014 12.0188 30.1254 13.352C29.8509 14.6775 29.5626 16.1498 29.5626 17.5091C29.5626 18.5646 29.5361 19.6168 29.8461 20.6217C29.9436 20.9378 30.4179 23.0211 30.9133 23.0211" stroke="white" stroke-width="2" stroke-linecap="round"/>
<path d="M22.0587 18.7927C22.0587 19.1862 22.2436 19.7438 22.3422 20.1518C22.5755 21.1169 22.672 22.1768 22.7299 23.1679C22.8052 24.4556 22.8716 25.9617 22.659 27.2452C22.589 27.6679 22.6024 28.2165 22.4339 28.6085C22.3255 28.8608 22.3987 29.1325 22.2838 29.3636" stroke="white" stroke-width="2" stroke-linecap="round"/>
<path d="M26.2609 13.5828C25.9681 13.6155 25.6893 14.309 25.4772 14.5224C24.843 15.1605 24.2302 15.7419 23.5011 16.2842C22.814 16.7952 22.2025 17.2879 21.4542 17.7021C20.6304 18.158 19.7879 18.5751 18.9654 19.036C17.5503 19.829 16.1306 20.5816 14.7965 21.511C14.3497 21.8222 13.9628 22.2575 13.5792 22.6436C13.3613 22.8628 12.9998 23.109 12.9038 23.3986" stroke="white" stroke-width="2" stroke-linecap="round"/>
<path d="M17.1811 24.1536C17.1677 24.2758 17.069 24.4967 17.0144 24.6067C16.9032 24.8303 16.8557 25.0403 16.7684 25.2862C16.5753 25.8304 16.5622 26.3991 16.3932 26.9432C16.2325 27.4607 16.3475 28.1078 16.0555 28.5917C15.896 28.8561 15.8208 29.1426 15.6428 29.4013C15.5146 29.5877 15.2989 29.8356 15.2301 30.0431" stroke="white" stroke-width="2" stroke-linecap="round"/>
<path d="M56.7917 54.7569V54.4598" stroke="white" stroke-width="2" stroke-linecap="round"/>
<path d="M79.2106 56.5376L79.5056 56.8346" stroke="white" stroke-width="2" stroke-linecap="round"/>
<path d="M90.125 96.0147V96.6088" stroke="white" stroke-width="2" stroke-linecap="round"/>
<path d="M39.6825 93.6401C39.6825 94.0526 39.7552 94.1954 39.9775 94.5312" stroke="white" stroke-width="2" stroke-linecap="round"/>
<path d="M67.7062 111.153C68.0352 111.856 68.6004 112.062 68.8861 112.637" stroke="white" stroke-width="2" stroke-linecap="round"/>
<path d="M90.7152 120.651C90.4434 120.685 90.5198 120.747 90.4202 120.948" stroke="white" stroke-width="2" stroke-linecap="round"/>
<path d="M34.0779 71.3786H34.3729" stroke="white" stroke-width="2" stroke-linecap="round"/>
<path d="M106.939 52.3821V52.6791" stroke="white" stroke-width="2" stroke-linecap="round"/>
<path d="M116.084 100.17C115.724 100.216 115.809 100.606 115.494 100.764" stroke="white" stroke-width="2" stroke-linecap="round"/>
</svg>
